<svg width="1640" height="531" viewBox="0 0 1640 531" fill="none" xmlns="http://www.w3.org/2000/svg">
<rect width="1640" height="531" fill="black"/>
<path d="M30 30H1610V501H30V30Z" fill="white"/>
<path d="M236.722 276.424H134.651V271.108H236.722V276.424Z" fill="black"/>
<path d="M194.74 175.497C194.799 175.497 196.929 175.35 201.13 175.054C205.331 174.759 207.491 174.582 207.609 174.523C208.319 174.523 208.674 174.759 208.674 175.232C208.674 175.645 206.515 184.565 202.195 201.992C197.876 219.419 195.657 228.309 195.538 228.664C195.42 229.018 195.39 229.461 195.45 229.993C195.45 232.474 196.278 233.714 197.935 233.714C198.467 233.655 199.059 233.389 199.71 232.917C200.953 231.735 202.166 228.9 203.349 224.41C203.704 223.229 204 222.609 204.237 222.549C204.355 222.49 204.651 222.461 205.124 222.461H205.479H205.834C206.722 222.461 207.166 222.697 207.166 223.17C207.166 223.465 207.077 223.938 206.899 224.587C206.13 227.541 205.242 229.934 204.237 231.765C203.231 233.596 202.402 234.778 201.751 235.309C201.1 235.841 200.272 236.314 199.266 236.727C198.793 236.845 198.083 236.904 197.136 236.904C195.124 236.904 193.438 236.461 192.077 235.575C190.716 234.689 189.828 233.773 189.414 232.828L188.882 231.499C188.822 231.44 188.704 231.47 188.527 231.588C188.408 231.706 188.29 231.824 188.172 231.942C184.68 235.25 181.13 236.904 177.521 236.904C174.266 236.904 171.396 235.723 168.911 233.36C166.426 230.997 165.183 227.246 165.183 222.106C165.183 219.271 165.775 216.376 166.959 213.423C168.142 210.469 169.562 207.929 171.219 205.802C174 202.435 176.781 200.101 179.562 198.802C182.343 197.502 184.858 196.852 187.106 196.852C190.42 196.852 192.905 198.093 194.562 200.574C194.858 200.929 195.006 201.047 195.006 200.929C195.065 200.692 195.864 197.473 197.402 191.27C198.941 185.067 199.769 181.789 199.887 181.434C199.887 180.666 199.68 180.194 199.266 180.016C198.852 179.839 197.698 179.692 195.805 179.573H193.941C193.586 179.219 193.408 178.983 193.408 178.865C193.408 178.746 193.467 178.185 193.586 177.181C193.882 176.059 194.266 175.497 194.74 175.497ZM193.497 207.131C192.136 202.464 189.917 200.131 186.84 200.131C184.769 200.131 182.787 201.047 180.893 202.878C179 204.709 177.521 207.102 176.456 210.055C174.74 214.722 173.527 219.566 172.817 224.587C172.817 224.765 172.817 225.09 172.817 225.562C172.817 226.035 172.787 226.389 172.728 226.626C172.728 229.284 173.26 231.115 174.325 232.119C175.39 233.124 176.663 233.655 178.142 233.714C181.337 233.714 184.621 231.588 187.994 227.334L188.704 226.36L193.497 207.131Z" fill="black"/>
<path d="M172.461 296.982C172.521 296.982 174.651 296.834 178.852 296.539C183.053 296.244 185.213 296.066 185.331 296.007C186.041 296.007 186.396 296.244 186.396 296.716C186.396 297.13 184.237 306.05 179.917 323.476C175.598 340.903 173.379 349.794 173.26 350.148C173.142 350.503 173.112 350.946 173.172 351.477C173.172 353.958 174 355.199 175.657 355.199C176.189 355.14 176.781 354.874 177.432 354.401C178.674 353.22 179.887 350.384 181.071 345.895C181.426 344.713 181.722 344.093 181.958 344.034C182.077 343.975 182.373 343.945 182.846 343.945H183.201H183.556C184.444 343.945 184.887 344.182 184.887 344.654C184.887 344.95 184.799 345.422 184.621 346.072C183.852 349.026 182.964 351.418 181.958 353.25C180.953 355.081 180.124 356.262 179.473 356.794C178.822 357.326 177.994 357.798 176.988 358.212C176.515 358.33 175.805 358.389 174.858 358.389C172.846 358.389 171.16 357.946 169.799 357.06C168.438 356.174 167.55 355.258 167.136 354.313L166.603 352.984C166.544 352.925 166.426 352.954 166.248 353.072C166.13 353.19 166.012 353.309 165.893 353.427C162.402 356.735 158.852 358.389 155.243 358.389C151.988 358.389 149.118 357.207 146.633 354.845C144.148 352.482 142.905 348.73 142.905 343.591C142.905 340.755 143.497 337.861 144.68 334.907C145.864 331.954 147.284 329.413 148.941 327.287C151.722 323.92 154.503 321.586 157.284 320.286C160.065 318.987 162.58 318.337 164.828 318.337C168.142 318.337 170.627 319.578 172.284 322.059C172.58 322.413 172.728 322.531 172.728 322.413C172.787 322.177 173.586 318.957 175.124 312.755C176.663 306.552 177.491 303.273 177.609 302.919C177.609 302.151 177.402 301.678 176.988 301.501C176.574 301.324 175.42 301.176 173.527 301.058H171.663C171.308 300.704 171.13 300.467 171.13 300.349C171.13 300.231 171.189 299.67 171.308 298.666C171.603 297.543 171.988 296.982 172.461 296.982ZM171.219 328.616C169.858 323.949 167.639 321.616 164.562 321.616C162.491 321.616 160.509 322.531 158.615 324.363C156.722 326.194 155.243 328.586 154.177 331.54C152.462 336.207 151.248 341.051 150.538 346.072C150.538 346.249 150.538 346.574 150.538 347.047C150.538 347.519 150.509 347.874 150.45 348.11C150.45 350.768 150.982 352.6 152.047 353.604C153.112 354.608 154.385 355.14 155.864 355.199C159.059 355.199 162.343 353.072 165.716 348.819L166.426 347.844L171.219 328.616Z" fill="black"/>
<path d="M188.704 332.072C188.704 331.245 189.148 329.827 190.035 327.818C190.923 325.81 192.343 323.713 194.296 321.527C196.248 319.341 198.438 318.278 200.864 318.337C203.29 318.337 205.242 319.016 206.722 320.375C208.201 321.734 208.97 323.624 209.029 326.046C208.911 327.169 208.822 327.789 208.763 327.907C208.763 328.084 208.29 329.443 207.343 331.983C206.396 334.523 205.42 337.388 204.414 340.578C203.408 343.768 202.935 346.308 202.994 348.199C202.994 350.739 203.408 352.511 204.237 353.515C205.065 354.52 206.308 355.051 207.964 355.11C209.325 355.11 210.597 354.785 211.781 354.136C212.964 353.486 213.882 352.807 214.532 352.098C215.183 351.389 215.982 350.414 216.929 349.173C216.929 349.114 217.077 348.524 217.373 347.401C217.668 346.279 218.083 344.536 218.615 342.173C219.148 339.81 219.71 337.625 220.302 335.616C222.55 326.755 223.793 322.118 224.029 321.704C224.799 320.109 226.071 319.312 227.846 319.312C228.615 319.312 229.237 319.519 229.71 319.932C230.183 320.346 230.509 320.7 230.686 320.995C230.864 321.291 230.923 321.557 230.864 321.793C230.864 322.561 229.414 328.764 226.515 340.401C223.615 352.039 221.958 358.419 221.544 359.541C219.887 364.444 217.018 368.343 212.935 371.237C208.852 374.132 204.769 375.609 200.686 375.668C198.024 375.668 195.686 375.018 193.674 373.719C191.663 372.419 190.657 370.469 190.657 367.87C190.657 366.571 190.864 365.478 191.278 364.592C191.692 363.706 192.254 363.056 192.964 362.642C193.674 362.229 194.266 361.933 194.74 361.756C195.213 361.579 195.716 361.49 196.248 361.49C198.852 361.49 200.154 362.731 200.154 365.212C200.154 366.393 199.799 367.427 199.089 368.313C198.379 369.199 197.698 369.79 197.047 370.086C196.396 370.381 196.012 370.529 195.893 370.529L195.627 370.617C195.745 370.913 196.308 371.267 197.313 371.681C198.319 372.094 199.325 372.301 200.331 372.301H201.041C202.047 372.301 202.816 372.242 203.349 372.124C205.302 371.592 207.106 370.469 208.763 368.756C210.42 367.043 211.692 365.212 212.58 363.263C213.467 361.313 214.148 359.659 214.621 358.3C215.095 356.942 215.331 356.056 215.331 355.642L214.799 355.996C214.444 356.233 213.882 356.558 213.112 356.971C212.343 357.385 211.574 357.739 210.805 358.035C209.621 358.33 208.467 358.478 207.343 358.478C204.621 358.478 202.225 357.828 200.154 356.528C198.083 355.229 196.722 353.131 196.071 350.237C196.012 349.823 195.982 348.908 195.982 347.49C195.982 344.123 197.018 339.722 199.089 334.287C201.16 328.852 202.195 325.396 202.195 323.92C202.195 323.86 202.195 323.801 202.195 323.742C202.195 323.211 202.195 322.856 202.195 322.679C202.195 322.502 202.077 322.295 201.84 322.059C201.603 321.822 201.278 321.704 200.864 321.704H200.509C199.148 321.704 197.905 322.266 196.781 323.388C195.657 324.51 194.769 325.721 194.118 327.021C193.467 328.321 192.964 329.561 192.609 330.743C192.254 331.924 192.018 332.574 191.899 332.692C191.781 332.81 191.308 332.869 190.479 332.869H189.237C188.882 332.515 188.704 332.249 188.704 332.072Z" fill="black"/>
<path d="M272.225 366.63C273.29 368.166 274.799 368.934 276.751 368.934H276.929C278.586 368.934 280.242 367.161 281.899 363.617C283.556 360.073 285.094 355.229 286.515 349.085C287.935 342.941 289.266 336.768 290.509 330.565C291.751 324.363 292.994 317.658 294.236 310.451C294.414 309.21 294.562 308.295 294.68 307.704C298.941 282.598 303.556 259.323 308.526 237.879C313.497 216.435 317.106 202.494 319.355 196.055C319.71 194.992 320.006 194.106 320.242 193.397C320.479 192.688 320.982 191.388 321.751 189.498C322.52 187.607 323.319 185.953 324.148 184.536C324.976 183.118 325.982 181.671 327.165 180.194C328.349 178.717 329.651 177.535 331.071 176.649C332.491 175.763 334 175.35 335.597 175.409C338.911 175.409 341.396 176.443 343.053 178.51C344.71 180.578 345.656 182.941 345.893 185.599C345.893 187.076 345.538 188.257 344.828 189.143C344.118 190.029 343.438 190.591 342.787 190.827C342.136 191.063 341.485 191.152 340.834 191.093C339.591 191.093 338.467 190.65 337.461 189.764C336.455 188.878 335.952 187.667 335.952 186.131C335.952 183.295 337.52 181.611 340.656 181.08L340.39 180.725C340.213 180.548 339.976 180.341 339.68 180.105C339.384 179.869 339.148 179.692 338.97 179.573C338.083 178.983 337.106 178.687 336.041 178.687C335.213 178.687 334.443 179.042 333.733 179.751C333.023 180.46 332.077 182.114 330.893 184.713C329.71 187.312 328.556 190.738 327.432 194.992C326.307 199.245 324.917 205.241 323.26 212.98C321.603 220.718 319.946 229.815 318.29 240.271C314.799 260.061 311.159 278.758 307.372 296.362C303.586 313.966 300.627 326.726 298.497 334.641C296.367 342.557 294.739 348.228 293.615 351.655C289.059 365.419 283.438 372.301 276.751 372.301C274.384 372.301 272.225 371.385 270.272 369.554C268.319 367.723 267.225 365.212 266.988 362.022C266.988 359.954 267.55 358.537 268.674 357.769C269.799 357.001 270.923 356.617 272.047 356.617C273.29 356.617 274.414 357.06 275.42 357.946C276.426 358.832 276.929 360.043 276.929 361.579C276.929 364.414 275.361 366.098 272.225 366.63Z" fill="black"/>
<path d="M361.206 158.073C361.206 157.656 361.289 157.175 361.457 156.632C361.624 156.089 361.875 155.818 362.21 155.818C362.252 155.818 363.758 155.713 366.729 155.504C369.699 155.296 371.227 155.17 371.31 155.128C371.812 155.128 372.063 155.316 372.063 155.692C372.063 156.068 371.352 159.055 369.929 164.652C369.595 166.073 369.239 167.535 368.863 169.038C368.486 170.542 368.172 171.67 367.921 172.422L367.67 173.612C367.67 173.738 367.796 173.675 368.047 173.424C370.097 171.753 372.21 170.918 374.385 170.918C376.98 170.918 379.072 171.879 380.662 173.8C382.251 175.722 383.067 178.144 383.109 181.068C383.109 185.705 381.457 189.903 378.151 193.663C374.846 197.422 371.289 199.302 367.482 199.302C365.39 199.302 363.486 198.508 361.771 196.921C360.055 195.333 359.176 192.764 359.135 189.214V188.65C359.135 187.773 359.302 186.561 359.637 185.016C359.971 183.47 360.996 179.356 362.712 172.672C364.804 164.443 365.85 160.078 365.85 159.577C365.85 159.076 365.055 158.783 363.465 158.7C363.256 158.7 363.089 158.7 362.963 158.7H362.649C362.231 158.7 361.959 158.7 361.833 158.7C361.708 158.7 361.561 158.637 361.394 158.512C361.227 158.387 361.164 158.24 361.206 158.073ZM377.712 178.249V177.873C377.712 174.782 376.436 173.236 373.883 173.236C373.172 173.236 372.44 173.403 371.687 173.738C370.934 174.072 370.243 174.51 369.616 175.053C368.988 175.596 368.444 176.098 367.984 176.557C367.524 177.017 367.147 177.476 366.854 177.936L366.478 178.437L365.16 183.825C364.239 187.418 363.779 189.966 363.779 191.47C363.779 193.475 364.281 194.978 365.285 195.981C365.955 196.649 366.791 196.983 367.796 196.983C369.176 196.983 370.578 196.315 372.001 194.978C373.047 194.018 373.883 192.848 374.511 191.47C375.139 190.091 375.829 187.898 376.582 184.891C377.335 181.883 377.712 179.669 377.712 178.249Z" fill="black"/>
<path d="M313.947 366.47C313.947 362.251 315.537 358.241 318.717 354.44C321.896 350.639 325.474 348.718 329.449 348.676C331.583 348.676 333.465 349.699 335.097 351.746C335.767 350.493 336.729 349.866 337.984 349.866C338.528 349.866 339.009 350.033 339.428 350.368C339.846 350.702 340.055 351.119 340.055 351.621C340.055 352.164 339.281 355.505 337.733 361.646C336.185 367.786 335.39 371.253 335.348 372.047C335.348 373.091 335.495 373.78 335.788 374.115C336.08 374.449 336.52 374.637 337.106 374.678C337.482 374.637 337.901 374.449 338.361 374.115C339.239 373.279 340.097 371.274 340.934 368.099C341.185 367.264 341.394 366.825 341.562 366.784C341.645 366.742 341.854 366.721 342.189 366.721H342.44C343.235 366.721 343.633 366.909 343.633 367.285C343.633 367.536 343.528 368.099 343.319 368.977C343.11 369.854 342.691 370.982 342.064 372.36C341.436 373.739 340.767 374.783 340.055 375.493C339.511 376.036 338.842 376.475 338.047 376.809C337.712 376.892 337.21 376.934 336.541 376.934C335.118 376.934 333.926 376.621 332.963 375.994C332.001 375.368 331.373 374.72 331.08 374.052L330.704 373.112C330.662 373.07 330.578 373.091 330.453 373.175C330.369 373.258 330.286 373.342 330.202 373.425C327.733 375.764 325.223 376.934 322.671 376.934C320.369 376.934 318.34 376.099 316.583 374.428C314.825 372.757 313.947 370.104 313.947 366.47ZM333.905 355.756C333.905 355.505 333.8 355.046 333.591 354.378C333.382 353.709 332.901 352.978 332.147 352.185C331.394 351.391 330.432 350.973 329.26 350.931C327.796 350.931 326.394 351.579 325.055 352.874C323.717 354.169 322.671 355.86 321.917 357.949C320.704 361.249 319.846 364.674 319.344 368.225C319.344 368.35 319.344 368.58 319.344 368.914C319.344 369.248 319.323 369.499 319.281 369.666C319.281 371.546 319.658 372.84 320.411 373.551C321.164 374.261 322.064 374.637 323.11 374.678C324.7 374.678 326.269 373.989 327.817 372.611C329.365 371.232 330.286 370.167 330.578 369.415C330.662 369.248 331.227 367.013 332.273 362.711C333.319 358.409 333.863 356.09 333.905 355.756Z" fill="black"/>
<path d="M418.053 310.273C418.171 310.273 418.349 310.333 418.585 310.451C418.822 310.569 419.148 310.657 419.562 310.717C419.976 310.776 420.331 310.805 420.627 310.805C421.396 310.805 422.106 310.421 422.757 309.653C423.408 308.885 423.881 308.029 424.177 307.084C424.769 305.489 425.775 300.969 427.195 293.526C428.615 286.083 429.976 278.994 431.278 272.26C432.579 265.525 433.23 262.129 433.23 262.07V261.804H429.059C426.278 261.804 424.798 261.745 424.621 261.626C424.384 261.449 424.266 261.154 424.266 260.74L424.887 258.259C425.005 257.964 425.242 257.816 425.597 257.816C425.952 257.816 427.343 257.787 429.769 257.728C432.609 257.728 434.029 257.698 434.029 257.639C434.029 257.521 434.295 256.044 434.828 253.208C435.36 250.373 435.716 248.66 435.893 248.069C438.082 238.322 442.402 233.448 448.852 233.448C451.041 233.567 452.846 234.216 454.266 235.398C455.686 236.579 456.396 238.145 456.396 240.094C456.396 242.221 455.775 243.757 454.532 244.702C453.289 245.647 452.047 246.149 450.804 246.208C448.201 246.208 446.899 244.968 446.899 242.487C446.899 241.364 447.224 240.39 447.875 239.562C448.526 238.735 449.236 238.115 450.005 237.702L450.804 237.259C449.858 236.904 448.97 236.727 448.142 236.727C447.431 236.727 446.751 237.022 446.1 237.613C445.449 238.204 445.005 239.031 444.769 240.094C444.355 241.807 443.881 244.111 443.349 247.006C442.816 249.9 442.343 252.352 441.929 254.36C441.514 256.369 441.307 257.432 441.307 257.55C441.307 257.669 442.934 257.728 446.189 257.728C448.852 257.728 450.39 257.757 450.804 257.816C451.218 257.875 451.544 258.053 451.781 258.348C451.84 258.584 451.781 259.086 451.603 259.854C451.426 260.622 451.278 261.095 451.159 261.272C451.041 261.567 450.775 261.715 450.36 261.715C449.946 261.715 448.349 261.745 445.568 261.804H440.597L438.556 272.614C435.716 287.264 433.733 296.421 432.609 300.083C431.011 305.105 428.94 308.826 426.396 311.248C424.207 313.139 422.047 314.084 419.917 314.084C418.023 314.084 416.307 313.523 414.769 312.4C413.23 311.278 412.461 309.683 412.461 307.615C412.461 305.429 413.082 303.834 414.325 302.83C415.568 301.826 416.81 301.324 418.053 301.324C420.656 301.324 421.958 302.564 421.958 305.045C421.958 306.168 421.633 307.143 420.982 307.97C420.331 308.797 419.621 309.417 418.852 309.83L418.053 310.273Z" fill="black"/>
<path d="M465.183 273.766C465.183 269.69 465.479 265.821 466.07 262.158C466.662 258.496 467.343 255.335 468.112 252.677C468.881 250.019 469.976 247.419 471.396 244.879C472.816 242.339 473.94 240.36 474.769 238.942C475.597 237.525 476.84 235.989 478.496 234.335C480.153 232.681 481.13 231.676 481.425 231.322C481.721 230.967 482.461 230.347 483.644 229.461H484.798H485.153C485.982 229.461 486.396 229.727 486.396 230.258C486.396 230.436 485.893 231.056 484.887 232.119C483.881 233.183 482.668 234.748 481.248 236.816C479.828 238.883 478.378 241.423 476.899 244.436C475.42 247.449 474.177 251.525 473.171 256.664C472.165 261.804 471.662 267.504 471.662 273.766C471.662 280.028 472.165 285.699 473.171 290.779C474.177 295.86 475.39 299.965 476.81 303.096C478.23 306.227 479.68 308.767 481.159 310.717C482.638 312.666 483.881 314.232 484.887 315.413C485.893 316.594 486.396 317.215 486.396 317.274C486.396 317.805 485.952 318.071 485.064 318.071H484.798H483.644L481.159 315.945C475.597 310.923 471.544 304.662 468.999 297.159C466.455 289.657 465.183 281.859 465.183 273.766Z" fill="black"/>
<path d="M496.425 270.31C496.84 267.829 498.437 264.964 501.218 261.715C503.999 258.466 507.431 256.812 511.514 256.753C513.585 256.753 515.479 257.285 517.195 258.348C518.911 259.411 520.183 260.74 521.011 262.335C523.496 258.614 526.485 256.753 529.976 256.753C532.165 256.753 534.059 257.403 535.656 258.702C537.254 260.002 538.082 261.745 538.141 263.93C538.141 265.644 537.727 267.032 536.899 268.095C536.07 269.158 535.272 269.808 534.502 270.045C533.733 270.281 533.053 270.399 532.461 270.399C531.337 270.399 530.419 270.074 529.709 269.424C528.999 268.774 528.644 267.918 528.644 266.855C528.644 264.137 530.124 262.276 533.082 261.272C532.431 260.504 531.248 260.12 529.532 260.12C528.763 260.12 528.201 260.179 527.846 260.297C525.597 261.243 523.94 263.192 522.875 266.146C519.325 279.201 517.55 286.821 517.55 289.007C517.55 290.661 518.023 291.843 518.97 292.552C519.917 293.26 520.952 293.615 522.076 293.615C524.266 293.615 526.425 292.64 528.556 290.691C530.686 288.741 532.135 286.349 532.905 283.513C533.082 282.923 533.26 282.598 533.437 282.539C533.615 282.479 534.088 282.42 534.857 282.361H535.212C536.1 282.361 536.544 282.598 536.544 283.07C536.544 283.129 536.485 283.454 536.366 284.045C535.419 287.412 533.585 290.395 530.863 292.995C528.141 295.594 524.976 296.893 521.366 296.893C517.224 296.893 514.088 295.033 511.958 291.311C509.532 294.974 506.751 296.805 503.615 296.805H503.082C500.183 296.805 498.112 296.037 496.869 294.501C495.627 292.965 494.976 291.341 494.917 289.627C494.917 287.737 495.479 286.201 496.603 285.02C497.727 283.838 499.059 283.247 500.597 283.247C503.141 283.247 504.414 284.488 504.414 286.969C504.414 288.151 504.059 289.184 503.349 290.07C502.638 290.957 501.958 291.547 501.307 291.843C500.656 292.138 500.272 292.286 500.153 292.286L499.887 292.374C499.887 292.433 500.064 292.552 500.42 292.729C500.775 292.906 501.248 293.113 501.84 293.349C502.431 293.585 502.993 293.674 503.526 293.615C505.656 293.615 507.491 292.286 509.029 289.627C509.562 288.682 510.242 286.674 511.07 283.602C511.899 280.53 512.727 277.34 513.556 274.032C514.384 270.724 514.857 268.774 514.976 268.184C515.272 266.589 515.419 265.437 515.419 264.728C515.419 263.074 514.976 261.892 514.088 261.183C513.201 260.475 512.195 260.12 511.07 260.12C508.704 260.12 506.485 261.065 504.414 262.956C502.343 264.846 500.893 267.268 500.064 270.222C499.946 270.753 499.798 271.049 499.621 271.108C499.443 271.167 498.97 271.226 498.201 271.285H496.958C496.603 270.931 496.425 270.606 496.425 270.31Z" fill="black"/>
<path d="M549.946 292.817C549.946 292.817 549.946 292.079 549.946 290.602C549.946 289.125 550.419 287.855 551.366 286.792C552.313 285.729 553.585 285.197 555.183 285.197C556.84 285.197 558.319 285.935 559.621 287.412C560.922 288.889 561.603 291.488 561.662 295.21C561.662 297.277 561.396 299.286 560.863 301.235C560.331 303.185 559.709 304.868 558.999 306.286C558.289 307.704 557.52 308.915 556.692 309.919C555.863 310.923 555.153 311.721 554.561 312.312C553.97 312.902 553.585 313.168 553.408 313.109C553.171 313.109 552.786 312.843 552.254 312.312C551.721 311.78 551.455 311.396 551.455 311.16C551.455 310.923 551.78 310.451 552.431 309.742C553.082 309.033 553.822 308.147 554.65 307.084C555.479 306.02 556.248 304.543 556.958 302.653C557.668 300.763 558.141 298.607 558.378 296.185V295.121L558.289 295.21C558.171 295.269 558.023 295.328 557.845 295.387C557.668 295.446 557.49 295.535 557.313 295.653C557.135 295.771 556.869 295.83 556.514 295.83C556.159 295.83 555.804 295.86 555.449 295.919C553.851 295.919 552.55 295.417 551.544 294.412L549.946 292.817Z" fill="black"/>
<path d="M584.828 270.487C584.828 269.66 585.272 268.243 586.159 266.234C587.047 264.226 588.467 262.129 590.419 259.943C592.372 257.757 594.561 256.694 596.987 256.753C599.414 256.753 601.366 257.432 602.845 258.791C604.325 260.15 605.094 262.04 605.153 264.462C605.035 265.584 604.946 266.205 604.887 266.323C604.887 266.5 604.413 267.859 603.467 270.399C602.52 272.939 601.544 275.804 600.538 278.994C599.532 282.184 599.058 284.724 599.118 286.615C599.118 289.155 599.532 290.927 600.36 291.931C601.189 292.935 602.431 293.467 604.088 293.526C605.449 293.526 606.721 293.201 607.905 292.551C609.088 291.902 610.005 291.222 610.656 290.513C611.307 289.805 612.106 288.83 613.053 287.589C613.053 287.53 613.2 286.939 613.496 285.817C613.792 284.695 614.206 282.952 614.739 280.589C615.271 278.226 615.834 276.04 616.425 274.032C618.674 265.171 619.916 260.534 620.153 260.12C620.922 258.525 622.195 257.728 623.97 257.728C624.739 257.728 625.36 257.934 625.834 258.348C626.307 258.761 626.632 259.116 626.81 259.411C626.987 259.707 627.047 259.972 626.987 260.209C626.987 260.977 625.538 267.179 622.638 278.817C619.739 290.454 618.082 296.834 617.668 297.957C616.011 302.86 613.141 306.759 609.058 309.653C604.976 312.548 600.893 314.025 596.81 314.084C594.147 314.084 591.81 313.434 589.798 312.134C587.786 310.835 586.78 308.885 586.78 306.286C586.78 304.986 586.987 303.894 587.402 303.007C587.816 302.121 588.378 301.472 589.088 301.058C589.798 300.645 590.39 300.349 590.863 300.172C591.337 299.995 591.84 299.906 592.372 299.906C594.976 299.906 596.277 301.147 596.277 303.628C596.277 304.809 595.922 305.843 595.212 306.729C594.502 307.615 593.822 308.206 593.171 308.501C592.52 308.797 592.135 308.944 592.017 308.944L591.751 309.033C591.869 309.328 592.431 309.683 593.437 310.096C594.443 310.51 595.449 310.717 596.455 310.717H597.165C598.171 310.717 598.94 310.657 599.473 310.539C601.425 310.008 603.23 308.885 604.887 307.172C606.544 305.459 607.816 303.628 608.703 301.678C609.591 299.729 610.271 298.075 610.745 296.716C611.218 295.357 611.455 294.471 611.455 294.058L610.922 294.412C610.567 294.649 610.005 294.973 609.236 295.387C608.467 295.8 607.698 296.155 606.928 296.45C605.745 296.746 604.591 296.893 603.467 296.893C600.745 296.893 598.348 296.244 596.277 294.944C594.206 293.644 592.845 291.547 592.195 288.653C592.135 288.239 592.106 287.323 592.106 285.906C592.106 282.538 593.141 278.138 595.212 272.703C597.283 267.268 598.319 263.812 598.319 262.335C598.319 262.276 598.319 262.217 598.319 262.158C598.319 261.626 598.319 261.272 598.319 261.095C598.319 260.918 598.2 260.711 597.964 260.475C597.727 260.238 597.402 260.12 596.987 260.12H596.632C595.271 260.12 594.029 260.681 592.905 261.804C591.78 262.926 590.893 264.137 590.242 265.437C589.591 266.736 589.088 267.977 588.733 269.158C588.378 270.34 588.141 270.99 588.023 271.108C587.905 271.226 587.431 271.285 586.603 271.285H585.36C585.005 270.931 584.828 270.665 584.828 270.487Z" fill="black"/>
<path d="M632.845 229.55L633.2 229.461C633.496 229.461 633.792 229.461 634.088 229.461H635.153L637.638 231.588C643.2 236.609 647.254 242.871 649.798 250.373C652.342 257.875 653.615 265.673 653.615 273.766C653.615 277.783 653.319 281.652 652.727 285.374C652.135 289.096 651.455 292.256 650.686 294.855C649.916 297.455 648.822 300.054 647.402 302.653C645.981 305.252 644.857 307.231 644.029 308.59C643.2 309.949 641.987 311.455 640.39 313.109C638.792 314.763 637.845 315.738 637.55 316.033C637.254 316.329 636.573 316.89 635.508 317.717C635.331 317.894 635.212 318.012 635.153 318.071H634.088C633.615 318.071 633.289 318.071 633.112 318.071C632.934 318.071 632.786 317.983 632.668 317.805C632.55 317.628 632.461 317.362 632.402 317.008C632.461 316.949 632.786 316.565 633.378 315.856C642.55 306.345 647.135 292.315 647.135 273.766C647.135 255.217 642.55 241.187 633.378 231.676C632.786 230.967 632.461 230.583 632.402 230.524C632.402 230.052 632.55 229.727 632.845 229.55Z" fill="black"/>
<path d="M694.975 235.398C695.035 235.398 697.165 235.25 701.366 234.955C705.567 234.659 707.727 234.482 707.845 234.423C708.555 234.423 708.91 234.659 708.91 235.132C708.91 235.546 706.751 244.466 702.431 261.892C698.112 279.319 695.893 288.21 695.774 288.564C695.656 288.918 695.626 289.362 695.685 289.893C695.685 292.374 696.514 293.615 698.171 293.615C698.703 293.556 699.295 293.29 699.946 292.817C701.188 291.636 702.401 288.8 703.585 284.311C703.94 283.129 704.236 282.509 704.472 282.45C704.591 282.391 704.887 282.361 705.36 282.361H705.715H706.07C706.958 282.361 707.401 282.598 707.401 283.07C707.401 283.366 707.313 283.838 707.135 284.488C706.366 287.442 705.478 289.834 704.472 291.665C703.467 293.497 702.638 294.678 701.987 295.21C701.336 295.741 700.508 296.214 699.502 296.628C699.029 296.746 698.319 296.805 697.372 296.805C695.36 296.805 693.674 296.362 692.313 295.476C690.952 294.59 690.064 293.674 689.65 292.729L689.117 291.4C689.058 291.341 688.94 291.37 688.762 291.488C688.644 291.606 688.526 291.724 688.407 291.843C684.916 295.151 681.366 296.805 677.757 296.805C674.502 296.805 671.632 295.623 669.147 293.26C666.662 290.897 665.419 287.146 665.419 282.007C665.419 279.171 666.011 276.277 667.194 273.323C668.378 270.369 669.798 267.829 671.455 265.703C674.236 262.335 677.017 260.002 679.798 258.702C682.579 257.403 685.094 256.753 687.342 256.753C690.656 256.753 693.141 257.994 694.798 260.475C695.094 260.829 695.242 260.947 695.242 260.829C695.301 260.593 696.1 257.373 697.638 251.171C699.177 244.968 700.005 241.689 700.123 241.335C700.123 240.567 699.916 240.094 699.502 239.917C699.088 239.74 697.934 239.592 696.041 239.474H694.177C693.822 239.12 693.644 238.883 693.644 238.765C693.644 238.647 693.703 238.086 693.822 237.081C694.117 235.959 694.502 235.398 694.975 235.398ZM693.733 267.032C692.372 262.365 690.153 260.032 687.076 260.032C685.005 260.032 683.023 260.947 681.129 262.778C679.236 264.61 677.757 267.002 676.691 269.956C674.975 274.623 673.762 279.467 673.052 284.488C673.052 284.665 673.052 284.99 673.052 285.463C673.052 285.935 673.023 286.29 672.964 286.526C672.964 289.184 673.496 291.016 674.561 292.02C675.626 293.024 676.899 293.556 678.378 293.615C681.573 293.615 684.857 291.488 688.23 287.235L688.94 286.26L693.733 267.032Z" fill="black"/>
<path d="M713.969 270.31C714.384 267.829 715.981 264.964 718.762 261.715C721.543 258.466 724.975 256.812 729.058 256.753C731.129 256.753 733.023 257.285 734.739 258.348C736.455 259.411 737.727 260.74 738.555 262.335C741.04 258.614 744.029 256.753 747.52 256.753C749.709 256.753 751.603 257.403 753.2 258.702C754.798 260.002 755.626 261.745 755.685 263.93C755.685 265.644 755.271 267.032 754.443 268.095C753.614 269.158 752.816 269.808 752.046 270.045C751.277 270.281 750.597 270.399 750.005 270.399C748.881 270.399 747.963 270.074 747.253 269.424C746.543 268.774 746.188 267.918 746.188 266.855C746.188 264.137 747.668 262.276 750.626 261.272C749.975 260.504 748.792 260.12 747.076 260.12C746.307 260.12 745.745 260.179 745.39 260.297C743.141 261.243 741.484 263.192 740.419 266.146C736.869 279.201 735.094 286.821 735.094 289.007C735.094 290.661 735.567 291.843 736.514 292.552C737.461 293.26 738.496 293.615 739.62 293.615C741.81 293.615 743.969 292.64 746.1 290.691C748.23 288.741 749.679 286.349 750.449 283.513C750.626 282.923 750.804 282.598 750.981 282.539C751.159 282.479 751.632 282.42 752.401 282.361H752.756C753.644 282.361 754.088 282.598 754.088 283.07C754.088 283.129 754.029 283.454 753.91 284.045C752.963 287.412 751.129 290.395 748.407 292.995C745.685 295.594 742.52 296.893 738.91 296.893C734.768 296.893 731.632 295.033 729.502 291.311C727.076 294.974 724.295 296.805 721.159 296.805H720.626C717.727 296.805 715.656 296.037 714.413 294.501C713.171 292.965 712.52 291.341 712.461 289.627C712.461 287.737 713.023 286.201 714.147 285.02C715.271 283.838 716.603 283.247 718.141 283.247C720.685 283.247 721.958 284.488 721.958 286.969C721.958 288.151 721.603 289.184 720.893 290.07C720.182 290.957 719.502 291.547 718.851 291.843C718.2 292.138 717.816 292.286 717.697 292.286L717.431 292.374C717.431 292.433 717.608 292.552 717.964 292.729C718.319 292.906 718.792 293.113 719.384 293.349C719.975 293.585 720.537 293.674 721.07 293.615C723.2 293.615 725.035 292.286 726.573 289.627C727.106 288.682 727.786 286.674 728.614 283.602C729.443 280.53 730.271 277.34 731.1 274.032C731.928 270.724 732.401 268.774 732.52 268.184C732.816 266.589 732.963 265.437 732.963 264.728C732.963 263.074 732.52 261.892 731.632 261.183C730.745 260.475 729.739 260.12 728.614 260.12C726.248 260.12 724.029 261.065 721.958 262.956C719.887 264.846 718.437 267.268 717.608 270.222C717.49 270.753 717.342 271.049 717.165 271.108C716.987 271.167 716.514 271.226 715.745 271.285H714.502C714.147 270.931 713.969 270.606 713.969 270.31Z" fill="black"/>
<path d="M790.212 265.171C790.212 264.403 790.626 263.812 791.455 263.399H847.993C848.881 263.871 849.324 264.462 849.324 265.171C849.324 265.821 848.91 266.382 848.082 266.855L819.857 266.943H791.632C790.685 266.648 790.212 266.057 790.212 265.171ZM790.212 282.361C790.212 281.475 790.685 280.885 791.632 280.589H848.082C848.91 281.18 849.324 281.771 849.324 282.361C849.324 283.129 848.881 283.72 847.993 284.134H791.455C790.626 283.72 790.212 283.129 790.212 282.361Z" fill="black"/>
<path d="M819.195 202.936C817.689 202.936 816.35 203.186 815.179 203.688C814.007 204.189 813.212 204.69 812.794 205.192L812.166 205.881C812.25 205.881 812.354 205.902 812.48 205.943C812.605 205.985 812.835 206.069 813.17 206.194C813.505 206.319 813.819 206.507 814.112 206.758C814.404 207.009 814.656 207.343 814.865 207.76C815.074 208.178 815.179 208.679 815.179 209.264C815.179 210.225 814.865 211.019 814.237 211.645C813.609 212.272 812.815 212.585 811.852 212.585C810.89 212.585 810.095 212.293 809.467 211.708C808.84 211.123 808.505 210.329 808.463 209.327C808.463 206.862 809.405 204.878 811.287 203.374C813.17 201.871 815.241 200.973 817.501 200.68C817.584 200.68 817.814 200.68 818.191 200.68C818.568 200.68 818.86 200.659 819.07 200.618H819.321C821.538 200.618 823.463 200.889 825.095 201.432C826.727 201.975 827.94 202.727 828.735 203.688C829.53 204.648 830.137 205.567 830.555 206.445C830.973 207.322 831.162 208.262 831.12 209.264C831.12 211.938 829.969 214.131 827.668 215.843C823.735 218.642 821.35 221.963 820.513 225.806C820.304 226.808 820.199 228.103 820.199 229.69V230.756C820.199 231.549 820.137 232.009 820.011 232.134C819.886 232.259 819.53 232.343 818.944 232.385C818.358 232.426 818.003 232.364 817.877 232.197C817.752 232.03 817.689 231.674 817.689 231.131V229.189C817.773 226.223 818.149 223.675 818.819 221.545C819.488 219.415 820.22 217.869 821.015 216.908C821.81 215.948 822.584 214.987 823.337 214.026C824.091 213.065 824.572 212.105 824.781 211.144C824.865 210.768 824.906 209.995 824.906 208.826V208.011C824.906 207.301 824.865 206.716 824.781 206.257C824.697 205.797 824.467 205.275 824.091 204.69C823.714 204.105 823.149 203.667 822.396 203.374C821.643 203.082 820.576 202.936 819.195 202.936ZM815.179 240.969C815.179 239.799 815.555 238.88 816.308 238.212C817.061 237.543 817.982 237.209 819.07 237.209C820.032 237.293 820.869 237.648 821.58 238.274C822.291 238.901 822.647 239.799 822.647 240.969C822.647 242.222 822.291 243.162 821.58 243.788C820.869 244.415 819.99 244.728 818.944 244.728C817.898 244.728 817.02 244.415 816.308 243.788C815.597 243.162 815.22 242.222 815.179 240.969Z" fill="black"/>
<path d="M889.443 366.63C890.508 368.166 892.017 368.934 893.969 368.934H894.147C895.804 368.934 897.46 367.161 899.117 363.617C900.774 360.073 902.312 355.229 903.732 349.085C905.153 342.941 906.484 336.768 907.727 330.565C908.969 324.363 910.212 317.658 911.454 310.451C911.632 309.21 911.78 308.295 911.898 307.704C916.159 282.598 920.774 259.323 925.744 237.879C930.715 216.435 934.324 202.494 936.573 196.055C936.928 194.992 937.224 194.106 937.46 193.397C937.697 192.688 938.2 191.388 938.969 189.498C939.738 187.607 940.537 185.953 941.366 184.536C942.194 183.118 943.2 181.671 944.383 180.194C945.567 178.717 946.869 177.535 948.289 176.649C949.709 175.763 951.218 175.35 952.815 175.409C956.129 175.409 958.614 176.443 960.271 178.51C961.928 180.578 962.874 182.941 963.111 185.599C963.111 187.076 962.756 188.257 962.046 189.143C961.336 190.029 960.655 190.591 960.005 190.827C959.354 191.063 958.703 191.152 958.052 191.093C956.809 191.093 955.685 190.65 954.679 189.764C953.673 188.878 953.17 187.667 953.17 186.131C953.17 183.295 954.738 181.611 957.874 181.08L957.608 180.725C957.431 180.548 957.194 180.341 956.898 180.105C956.602 179.869 956.366 179.692 956.188 179.573C955.3 178.983 954.324 178.687 953.259 178.687C952.431 178.687 951.661 179.042 950.951 179.751C950.241 180.46 949.295 182.114 948.111 184.713C946.928 187.312 945.774 190.738 944.65 194.992C943.525 199.245 942.135 205.241 940.478 212.98C938.821 220.718 937.164 229.815 935.508 240.271C932.016 260.061 928.377 278.758 924.59 296.362C920.803 313.966 917.845 326.726 915.715 334.641C913.585 342.557 911.957 348.228 910.833 351.655C906.277 365.419 900.656 372.301 893.969 372.301C891.602 372.301 889.443 371.385 887.49 369.554C885.537 367.723 884.443 365.212 884.206 362.022C884.206 359.954 884.768 358.537 885.892 357.769C887.017 357.001 888.141 356.617 889.265 356.617C890.508 356.617 891.632 357.06 892.638 357.946C893.644 358.832 894.147 360.043 894.147 361.579C894.147 364.414 892.579 366.098 889.443 366.63Z" fill="black"/>
<path d="M978.424 158.073C978.424 157.656 978.507 157.175 978.675 156.632C978.842 156.089 979.093 155.818 979.428 155.818C979.47 155.818 980.976 155.713 983.947 155.504C986.917 155.296 988.444 155.17 988.528 155.128C989.03 155.128 989.281 155.316 989.281 155.692C989.281 156.068 988.57 159.055 987.147 164.652C986.813 166.073 986.457 167.535 986.08 169.038C985.704 170.542 985.39 171.67 985.139 172.422L984.888 173.612C984.888 173.738 985.014 173.675 985.265 173.424C987.315 171.753 989.428 170.918 991.603 170.918C994.198 170.918 996.29 171.879 997.88 173.8C999.469 175.722 1000.29 178.144 1000.33 181.068C1000.33 185.705 998.674 189.903 995.369 193.663C992.064 197.422 988.507 199.302 984.7 199.302C982.608 199.302 980.704 198.508 978.988 196.921C977.273 195.333 976.394 192.764 976.353 189.214V188.65C976.353 187.773 976.52 186.561 976.855 185.016C977.189 183.47 978.214 179.356 979.93 172.672C982.022 164.443 983.068 160.078 983.068 159.577C983.068 159.076 982.273 158.783 980.683 158.7C980.474 158.7 980.306 158.7 980.181 158.7H979.867C979.449 158.7 979.177 158.7 979.051 158.7C978.926 158.7 978.779 158.637 978.612 158.512C978.445 158.387 978.382 158.24 978.424 158.073ZM994.93 178.249V177.873C994.93 174.782 993.654 173.236 991.101 173.236C990.39 173.236 989.658 173.403 988.905 173.738C988.152 174.072 987.461 174.51 986.834 175.053C986.206 175.596 985.662 176.098 985.202 176.557C984.742 177.017 984.365 177.476 984.072 177.936L983.696 178.437L982.378 183.825C981.457 187.418 980.997 189.966 980.997 191.47C980.997 193.475 981.499 194.978 982.503 195.981C983.173 196.649 984.009 196.983 985.014 196.983C986.394 196.983 987.796 196.315 989.219 194.978C990.265 194.018 991.101 192.848 991.729 191.47C992.357 190.091 993.047 187.898 993.8 184.891C994.553 181.883 994.93 179.669 994.93 178.249Z" fill="black"/>
<path d="M931.165 366.47C931.165 362.251 932.755 358.241 935.935 354.44C939.114 350.639 942.692 348.718 946.667 348.676C948.801 348.676 950.683 349.699 952.315 351.746C952.985 350.493 953.947 349.866 955.202 349.866C955.746 349.866 956.227 350.033 956.646 350.368C957.064 350.702 957.273 351.119 957.273 351.621C957.273 352.164 956.499 355.505 954.951 361.646C953.403 367.786 952.608 371.253 952.566 372.047C952.566 373.091 952.713 373.78 953.006 374.115C953.298 374.449 953.738 374.637 954.323 374.678C954.7 374.637 955.118 374.449 955.579 374.115C956.457 373.279 957.315 371.274 958.152 368.099C958.403 367.264 958.612 366.825 958.78 366.784C958.863 366.742 959.072 366.721 959.407 366.721H959.658C960.453 366.721 960.851 366.909 960.851 367.285C960.851 367.536 960.746 368.099 960.537 368.977C960.328 369.854 959.909 370.982 959.282 372.36C958.654 373.739 957.985 374.783 957.273 375.493C956.729 376.036 956.06 376.475 955.265 376.809C954.93 376.892 954.428 376.934 953.759 376.934C952.336 376.934 951.144 376.621 950.181 375.994C949.219 375.368 948.591 374.72 948.298 374.052L947.922 373.112C947.88 373.07 947.796 373.091 947.671 373.175C947.587 373.258 947.503 373.342 947.42 373.425C944.951 375.764 942.441 376.934 939.888 376.934C937.587 376.934 935.558 376.099 933.801 374.428C932.043 372.757 931.165 370.104 931.165 366.47ZM951.123 355.756C951.123 355.505 951.018 355.046 950.809 354.378C950.6 353.709 950.119 352.978 949.365 352.185C948.612 351.391 947.65 350.973 946.478 350.931C945.014 350.931 943.612 351.579 942.273 352.874C940.935 354.169 939.888 355.86 939.135 357.949C937.922 361.249 937.064 364.674 936.562 368.225C936.562 368.35 936.562 368.58 936.562 368.914C936.562 369.248 936.541 369.499 936.499 369.666C936.499 371.546 936.876 372.84 937.629 373.551C938.382 374.261 939.282 374.637 940.328 374.678C941.918 374.678 943.487 373.989 945.035 372.611C946.583 371.232 947.503 370.167 947.796 369.415C947.88 369.248 948.445 367.013 949.491 362.711C950.537 358.409 951.081 356.09 951.123 355.756Z" fill="black"/>
<path d="M1137.52 276.424H1035.45V271.108H1137.52V276.424Z" fill="black"/>
<path d="M1095.54 175.497C1095.6 175.497 1097.73 175.35 1101.93 175.054C1106.13 174.759 1108.29 174.582 1108.41 174.523C1109.12 174.523 1109.47 174.759 1109.47 175.232C1109.47 175.645 1107.31 184.565 1102.99 201.992C1098.67 219.419 1096.45 228.309 1096.34 228.664C1096.22 229.018 1096.19 229.461 1096.25 229.993C1096.25 232.474 1097.08 233.714 1098.73 233.714C1099.26 233.655 1099.86 233.389 1100.51 232.917C1101.75 231.735 1102.96 228.9 1104.15 224.41C1104.5 223.229 1104.8 222.609 1105.03 222.549C1105.15 222.49 1105.45 222.461 1105.92 222.461H1106.28H1106.63C1107.52 222.461 1107.96 222.697 1107.96 223.17C1107.96 223.465 1107.87 223.938 1107.7 224.587C1106.93 227.541 1106.04 229.934 1105.03 231.765C1104.03 233.596 1103.2 234.778 1102.55 235.309C1101.9 235.841 1101.07 236.314 1100.06 236.727C1099.59 236.845 1098.88 236.904 1097.93 236.904C1095.92 236.904 1094.24 236.461 1092.87 235.575C1091.51 234.689 1090.63 233.773 1090.21 232.828L1089.68 231.499C1089.62 231.44 1089.5 231.47 1089.32 231.588C1089.21 231.706 1089.09 231.824 1088.97 231.942C1085.48 235.25 1081.93 236.904 1078.32 236.904C1075.06 236.904 1072.19 235.723 1069.71 233.36C1067.22 230.997 1065.98 227.246 1065.98 222.106C1065.98 219.271 1066.57 216.376 1067.76 213.423C1068.94 210.469 1070.36 207.929 1072.02 205.802C1074.8 202.435 1077.58 200.101 1080.36 198.802C1083.14 197.502 1085.66 196.852 1087.9 196.852C1091.22 196.852 1093.7 198.093 1095.36 200.574C1095.66 200.929 1095.8 201.047 1095.8 200.929C1095.86 200.692 1096.66 197.473 1098.2 191.27C1099.74 185.067 1100.57 181.789 1100.68 181.434C1100.68 180.666 1100.48 180.194 1100.06 180.016C1099.65 179.839 1098.5 179.692 1096.6 179.573H1094.74C1094.38 179.219 1094.21 178.983 1094.21 178.865C1094.21 178.746 1094.26 178.185 1094.38 177.181C1094.68 176.059 1095.06 175.497 1095.54 175.497ZM1094.29 207.131C1092.93 202.464 1090.71 200.131 1087.64 200.131C1085.57 200.131 1083.58 201.047 1081.69 202.878C1079.8 204.709 1078.32 207.102 1077.25 210.055C1075.54 214.722 1074.32 219.566 1073.61 224.587C1073.61 224.765 1073.61 225.09 1073.61 225.562C1073.61 226.035 1073.58 226.389 1073.53 226.626C1073.53 229.284 1074.06 231.115 1075.12 232.119C1076.19 233.124 1077.46 233.655 1078.94 233.714C1082.13 233.714 1085.42 231.588 1088.79 227.334L1089.5 226.36L1094.29 207.131Z" fill="black"/>
<path d="M1073.26 296.982C1073.32 296.982 1075.45 296.834 1079.65 296.539C1083.85 296.244 1086.01 296.066 1086.13 296.007C1086.84 296.007 1087.19 296.244 1087.19 296.716C1087.19 297.13 1085.03 306.05 1080.71 323.476C1076.39 340.903 1074.18 349.794 1074.06 350.148C1073.94 350.503 1073.91 350.946 1073.97 351.477C1073.97 353.958 1074.8 355.199 1076.45 355.199C1076.99 355.14 1077.58 354.874 1078.23 354.401C1079.47 353.22 1080.68 350.384 1081.87 345.895C1082.22 344.713 1082.52 344.093 1082.76 344.034C1082.87 343.975 1083.17 343.945 1083.64 343.945H1084H1084.35C1085.24 343.945 1085.68 344.182 1085.68 344.654C1085.68 344.95 1085.6 345.422 1085.42 346.072C1084.65 349.026 1083.76 351.418 1082.76 353.25C1081.75 355.081 1080.92 356.262 1080.27 356.794C1079.62 357.326 1078.79 357.798 1077.79 358.212C1077.31 358.33 1076.6 358.389 1075.66 358.389C1073.64 358.389 1071.96 357.946 1070.6 357.06C1069.24 356.174 1068.35 355.258 1067.93 354.313L1067.4 352.984C1067.34 352.925 1067.22 352.954 1067.05 353.072C1066.93 353.19 1066.81 353.309 1066.69 353.427C1063.2 356.735 1059.65 358.389 1056.04 358.389C1052.79 358.389 1049.92 357.207 1047.43 354.845C1044.95 352.482 1043.7 348.73 1043.7 343.591C1043.7 340.755 1044.29 337.861 1045.48 334.907C1046.66 331.954 1048.08 329.413 1049.74 327.287C1052.52 323.92 1055.3 321.586 1058.08 320.286C1060.86 318.987 1063.38 318.337 1065.63 318.337C1068.94 318.337 1071.42 319.578 1073.08 322.059C1073.38 322.413 1073.53 322.531 1073.53 322.413C1073.58 322.177 1074.38 318.957 1075.92 312.755C1077.46 306.552 1078.29 303.273 1078.41 302.919C1078.41 302.151 1078.2 301.678 1077.79 301.501C1077.37 301.324 1076.22 301.176 1074.32 301.058H1072.46C1072.11 300.704 1071.93 300.467 1071.93 300.349C1071.93 300.231 1071.99 299.67 1072.11 298.666C1072.4 297.543 1072.79 296.982 1073.26 296.982ZM1072.02 328.616C1070.66 323.949 1068.44 321.616 1065.36 321.616C1063.29 321.616 1061.31 322.531 1059.41 324.363C1057.52 326.194 1056.04 328.586 1054.97 331.54C1053.26 336.207 1052.05 341.051 1051.34 346.072C1051.34 346.249 1051.34 346.574 1051.34 347.047C1051.34 347.519 1051.31 347.874 1051.25 348.11C1051.25 350.768 1051.78 352.6 1052.84 353.604C1053.91 354.608 1055.18 355.14 1056.66 355.199C1059.86 355.199 1063.14 353.072 1066.51 348.819L1067.22 347.844L1072.02 328.616Z" fill="black"/>
<path d="M1089.5 332.072C1089.5 331.245 1089.95 329.827 1090.83 327.818C1091.72 325.81 1093.14 323.713 1095.09 321.527C1097.05 319.341 1099.24 318.278 1101.66 318.337C1104.09 318.337 1106.04 319.016 1107.52 320.375C1109 321.734 1109.77 323.624 1109.83 326.046C1109.71 327.169 1109.62 327.789 1109.56 327.907C1109.56 328.084 1109.09 329.443 1108.14 331.983C1107.19 334.523 1106.22 337.388 1105.21 340.578C1104.21 343.768 1103.73 346.308 1103.79 348.199C1103.79 350.739 1104.21 352.511 1105.03 353.515C1105.86 354.52 1107.1 355.051 1108.76 355.11C1110.12 355.11 1111.39 354.785 1112.58 354.136C1113.76 353.486 1114.68 352.807 1115.33 352.098C1115.98 351.389 1116.78 350.414 1117.73 349.173C1117.73 349.114 1117.87 348.524 1118.17 347.401C1118.47 346.279 1118.88 344.536 1119.41 342.173C1119.95 339.81 1120.51 337.625 1121.1 335.616C1123.35 326.755 1124.59 322.118 1124.83 321.704C1125.6 320.109 1126.87 319.312 1128.64 319.312C1129.41 319.312 1130.03 319.519 1130.51 319.932C1130.98 320.346 1131.31 320.7 1131.48 320.995C1131.66 321.291 1131.72 321.557 1131.66 321.793C1131.66 322.561 1130.21 328.764 1127.31 340.401C1124.41 352.039 1122.76 358.419 1122.34 359.541C1120.68 364.444 1117.82 368.343 1113.73 371.237C1109.65 374.132 1105.57 375.609 1101.48 375.668C1098.82 375.668 1096.48 375.018 1094.47 373.719C1092.46 372.419 1091.45 370.469 1091.45 367.87C1091.45 366.571 1091.66 365.478 1092.08 364.592C1092.49 363.706 1093.05 363.056 1093.76 362.642C1094.47 362.229 1095.06 361.933 1095.54 361.756C1096.01 361.579 1096.51 361.49 1097.05 361.49C1099.65 361.49 1100.95 362.731 1100.95 365.212C1100.95 366.393 1100.6 367.427 1099.89 368.313C1099.18 369.199 1098.5 369.79 1097.84 370.086C1097.19 370.381 1096.81 370.529 1096.69 370.529L1096.42 370.617C1096.54 370.913 1097.11 371.267 1098.11 371.681C1099.12 372.094 1100.12 372.301 1101.13 372.301H1101.84C1102.84 372.301 1103.61 372.242 1104.15 372.124C1106.1 371.592 1107.9 370.469 1109.56 368.756C1111.22 367.043 1112.49 365.212 1113.38 363.263C1114.26 361.313 1114.95 359.659 1115.42 358.3C1115.89 356.942 1116.13 356.056 1116.13 355.642L1115.6 355.996C1115.24 356.233 1114.68 356.558 1113.91 356.971C1113.14 357.385 1112.37 357.739 1111.6 358.035C1110.42 358.33 1109.26 358.478 1108.14 358.478C1105.42 358.478 1103.02 357.828 1100.95 356.528C1098.88 355.229 1097.52 353.131 1096.87 350.237C1096.81 349.823 1096.78 348.908 1096.78 347.49C1096.78 344.123 1097.82 339.722 1099.89 334.287C1101.96 328.852 1102.99 325.396 1102.99 323.92C1102.99 323.86 1102.99 323.801 1102.99 323.742C1102.99 323.211 1102.99 322.856 1102.99 322.679C1102.99 322.502 1102.87 322.295 1102.64 322.059C1102.4 321.822 1102.08 321.704 1101.66 321.704H1101.31C1099.95 321.704 1098.7 322.266 1097.58 323.388C1096.45 324.51 1095.57 325.721 1094.92 327.021C1094.26 328.321 1093.76 329.561 1093.41 330.743C1093.05 331.924 1092.82 332.574 1092.7 332.692C1092.58 332.81 1092.11 332.869 1091.28 332.869H1090.03C1089.68 332.515 1089.5 332.249 1089.5 332.072Z" fill="black"/>
<path d="M1173.47 310.273C1173.58 310.273 1173.76 310.333 1174 310.451C1174.23 310.569 1174.56 310.657 1174.97 310.717C1175.39 310.776 1175.74 310.805 1176.04 310.805C1176.81 310.805 1177.52 310.421 1178.17 309.653C1178.82 308.885 1179.29 308.029 1179.59 307.084C1180.18 305.489 1181.19 300.969 1182.61 293.526C1184.03 286.083 1185.39 278.994 1186.69 272.26C1187.99 265.525 1188.64 262.129 1188.64 262.07V261.804H1184.47C1181.69 261.804 1180.21 261.745 1180.03 261.626C1179.8 261.449 1179.68 261.154 1179.68 260.74L1180.3 258.259C1180.42 257.964 1180.66 257.816 1181.01 257.816C1181.37 257.816 1182.76 257.787 1185.18 257.728C1188.02 257.728 1189.44 257.698 1189.44 257.639C1189.44 257.521 1189.71 256.044 1190.24 253.208C1190.77 250.373 1191.13 248.66 1191.31 248.069C1193.5 238.322 1197.81 233.448 1204.26 233.448C1206.45 233.567 1208.26 234.216 1209.68 235.398C1211.1 236.579 1211.81 238.145 1211.81 240.094C1211.81 242.221 1211.19 243.757 1209.94 244.702C1208.7 245.647 1207.46 246.149 1206.22 246.208C1203.61 246.208 1202.31 244.968 1202.31 242.487C1202.31 241.364 1202.64 240.39 1203.29 239.562C1203.94 238.735 1204.65 238.115 1205.42 237.702L1206.22 237.259C1205.27 236.904 1204.38 236.727 1203.55 236.727C1202.84 236.727 1202.16 237.022 1201.51 237.613C1200.86 238.204 1200.42 239.031 1200.18 240.094C1199.77 241.807 1199.29 244.111 1198.76 247.006C1198.23 249.9 1197.76 252.352 1197.34 254.36C1196.93 256.369 1196.72 257.432 1196.72 257.55C1196.72 257.669 1198.35 257.728 1201.6 257.728C1204.26 257.728 1205.8 257.757 1206.22 257.816C1206.63 257.875 1206.96 258.053 1207.19 258.348C1207.25 258.584 1207.19 259.086 1207.02 259.854C1206.84 260.622 1206.69 261.095 1206.57 261.272C1206.45 261.567 1206.19 261.715 1205.77 261.715C1205.36 261.715 1203.76 261.745 1200.98 261.804H1196.01L1193.97 272.614C1191.13 287.264 1189.15 296.421 1188.02 300.083C1186.42 305.105 1184.35 308.826 1181.81 311.248C1179.62 313.139 1177.46 314.084 1175.33 314.084C1173.44 314.084 1171.72 313.523 1170.18 312.4C1168.64 311.278 1167.87 309.683 1167.87 307.615C1167.87 305.429 1168.5 303.834 1169.74 302.83C1170.98 301.826 1172.22 301.324 1173.47 301.324C1176.07 301.324 1177.37 302.564 1177.37 305.045C1177.37 306.168 1177.05 307.143 1176.39 307.97C1175.74 308.797 1175.03 309.417 1174.26 309.83L1173.47 310.273Z" fill="black"/>
<path d="M1220.6 273.766C1220.6 269.69 1220.89 265.821 1221.48 262.158C1222.08 258.496 1222.76 255.335 1223.53 252.677C1224.29 250.019 1225.39 247.419 1226.81 244.879C1228.23 242.339 1229.35 240.36 1230.18 238.942C1231.01 237.525 1232.25 235.989 1233.91 234.335C1235.57 232.681 1236.54 231.676 1236.84 231.322C1237.13 230.967 1237.87 230.347 1239.06 229.461H1240.21H1240.57C1241.39 229.461 1241.81 229.727 1241.81 230.258C1241.81 230.436 1241.31 231.056 1240.3 232.119C1239.29 233.183 1238.08 234.748 1236.66 236.816C1235.24 238.883 1233.79 241.423 1232.31 244.436C1230.83 247.449 1229.59 251.525 1228.58 256.664C1227.58 261.804 1227.08 267.504 1227.08 273.766C1227.08 280.028 1227.58 285.699 1228.58 290.779C1229.59 295.86 1230.8 299.965 1232.22 303.096C1233.64 306.227 1235.09 308.767 1236.57 310.717C1238.05 312.666 1239.29 314.232 1240.3 315.413C1241.31 316.594 1241.81 317.215 1241.81 317.274C1241.81 317.805 1241.37 318.071 1240.48 318.071H1240.21H1239.06L1236.57 315.945C1231.01 310.923 1226.96 304.662 1224.41 297.159C1221.87 289.657 1220.6 281.859 1220.6 273.766Z" fill="black"/>
<path d="M1251.84 270.31C1252.25 267.829 1253.85 264.964 1256.63 261.715C1259.41 258.466 1262.84 256.812 1266.93 256.753C1269 256.753 1270.89 257.285 1272.61 258.348C1274.32 259.411 1275.6 260.74 1276.42 262.335C1278.91 258.614 1281.9 256.753 1285.39 256.753C1287.58 256.753 1289.47 257.403 1291.07 258.702C1292.67 260.002 1293.5 261.745 1293.55 263.93C1293.55 265.644 1293.14 267.032 1292.31 268.095C1291.48 269.158 1290.68 269.808 1289.92 270.045C1289.15 270.281 1288.47 270.399 1287.87 270.399C1286.75 270.399 1285.83 270.074 1285.12 269.424C1284.41 268.774 1284.06 267.918 1284.06 266.855C1284.06 264.137 1285.54 262.276 1288.5 261.272C1287.84 260.504 1286.66 260.12 1284.94 260.12C1284.18 260.12 1283.61 260.179 1283.26 260.297C1281.01 261.243 1279.35 263.192 1278.29 266.146C1274.74 279.201 1272.96 286.821 1272.96 289.007C1272.96 290.661 1273.44 291.843 1274.38 292.552C1275.33 293.26 1276.37 293.615 1277.49 293.615C1279.68 293.615 1281.84 292.64 1283.97 290.691C1286.1 288.741 1287.55 286.349 1288.32 283.513C1288.5 282.923 1288.67 282.598 1288.85 282.539C1289.03 282.479 1289.5 282.42 1290.27 282.361H1290.63C1291.51 282.361 1291.96 282.598 1291.96 283.07C1291.96 283.129 1291.9 283.454 1291.78 284.045C1290.83 287.412 1289 290.395 1286.28 292.995C1283.55 295.594 1280.39 296.893 1276.78 296.893C1272.64 296.893 1269.5 295.033 1267.37 291.311C1264.94 294.974 1262.16 296.805 1259.03 296.805H1258.5C1255.6 296.805 1253.52 296.037 1252.28 294.501C1251.04 292.965 1250.39 291.341 1250.33 289.627C1250.33 287.737 1250.89 286.201 1252.02 285.02C1253.14 283.838 1254.47 283.247 1256.01 283.247C1258.55 283.247 1259.83 284.488 1259.83 286.969C1259.83 288.151 1259.47 289.184 1258.76 290.07C1258.05 290.957 1257.37 291.547 1256.72 291.843C1256.07 292.138 1255.68 292.286 1255.57 292.286L1255.3 292.374C1255.3 292.433 1255.48 292.552 1255.83 292.729C1256.19 292.906 1256.66 293.113 1257.25 293.349C1257.84 293.585 1258.41 293.674 1258.94 293.615C1261.07 293.615 1262.9 292.286 1264.44 289.627C1264.97 288.682 1265.66 286.674 1266.48 283.602C1267.31 280.53 1268.14 277.34 1268.97 274.032C1269.8 270.724 1270.27 268.774 1270.39 268.184C1270.68 266.589 1270.83 265.437 1270.83 264.728C1270.83 263.074 1270.39 261.892 1269.5 261.183C1268.61 260.475 1267.61 260.12 1266.48 260.12C1264.12 260.12 1261.9 261.065 1259.83 262.956C1257.76 264.846 1256.31 267.268 1255.48 270.222C1255.36 270.753 1255.21 271.049 1255.03 271.108C1254.86 271.167 1254.38 271.226 1253.61 271.285H1252.37C1252.02 270.931 1251.84 270.606 1251.84 270.31Z" fill="black"/>
<path d="M1305.36 292.817C1305.36 292.817 1305.36 292.079 1305.36 290.602C1305.36 289.125 1305.83 287.855 1306.78 286.792C1307.73 285.729 1309 285.197 1310.6 285.197C1312.25 285.197 1313.73 285.935 1315.03 287.412C1316.34 288.889 1317.02 291.488 1317.07 295.21C1317.07 297.277 1316.81 299.286 1316.28 301.235C1315.74 303.185 1315.12 304.868 1314.41 306.286C1313.7 307.704 1312.93 308.915 1312.1 309.919C1311.28 310.923 1310.57 311.721 1309.97 312.312C1309.38 312.902 1309 313.168 1308.82 313.109C1308.58 313.109 1308.2 312.843 1307.67 312.312C1307.13 311.78 1306.87 311.396 1306.87 311.16C1306.87 310.923 1307.19 310.451 1307.84 309.742C1308.5 309.033 1309.23 308.147 1310.06 307.084C1310.89 306.02 1311.66 304.543 1312.37 302.653C1313.08 300.763 1313.55 298.607 1313.79 296.185V295.121L1313.7 295.21C1313.58 295.269 1313.44 295.328 1313.26 295.387C1313.08 295.446 1312.9 295.535 1312.73 295.653C1312.55 295.771 1312.28 295.83 1311.93 295.83C1311.57 295.83 1311.22 295.86 1310.86 295.919C1309.26 295.919 1307.96 295.417 1306.96 294.412L1305.36 292.817Z" fill="black"/>
<path d="M1340.24 270.487C1340.24 269.66 1340.68 268.243 1341.57 266.234C1342.46 264.226 1343.88 262.129 1345.83 259.943C1347.79 257.757 1349.97 256.694 1352.4 256.753C1354.83 256.753 1356.78 257.432 1358.26 258.791C1359.74 260.15 1360.51 262.04 1360.57 264.462C1360.45 265.584 1360.36 266.205 1360.3 266.323C1360.3 266.5 1359.83 267.859 1358.88 270.399C1357.93 272.939 1356.96 275.804 1355.95 278.994C1354.94 282.184 1354.47 284.724 1354.53 286.615C1354.53 289.155 1354.94 290.927 1355.77 291.931C1356.6 292.935 1357.84 293.467 1359.5 293.526C1360.86 293.526 1362.13 293.201 1363.32 292.551C1364.5 291.902 1365.42 291.222 1366.07 290.513C1366.72 289.805 1367.52 288.83 1368.47 287.589C1368.47 287.53 1368.61 286.939 1368.91 285.817C1369.21 284.695 1369.62 282.952 1370.15 280.589C1370.68 278.226 1371.25 276.04 1371.84 274.032C1374.09 265.171 1375.33 260.534 1375.57 260.12C1376.34 258.525 1377.61 257.728 1379.38 257.728C1380.15 257.728 1380.77 257.934 1381.25 258.348C1381.72 258.761 1382.05 259.116 1382.22 259.411C1382.4 259.707 1382.46 259.972 1382.4 260.209C1382.4 260.977 1380.95 267.179 1378.05 278.817C1375.15 290.454 1373.5 296.834 1373.08 297.957C1371.42 302.86 1368.55 306.759 1364.47 309.653C1360.39 312.548 1356.31 314.025 1352.22 314.084C1349.56 314.084 1347.22 313.434 1345.21 312.134C1343.2 310.835 1342.19 308.885 1342.19 306.286C1342.19 304.986 1342.4 303.894 1342.81 303.007C1343.23 302.121 1343.79 301.472 1344.5 301.058C1345.21 300.645 1345.8 300.349 1346.28 300.172C1346.75 299.995 1347.25 299.906 1347.79 299.906C1350.39 299.906 1351.69 301.147 1351.69 303.628C1351.69 304.809 1351.34 305.843 1350.63 306.729C1349.92 307.615 1349.23 308.206 1348.58 308.501C1347.93 308.797 1347.55 308.944 1347.43 308.944L1347.16 309.033C1347.28 309.328 1347.84 309.683 1348.85 310.096C1349.86 310.51 1350.86 310.717 1351.87 310.717H1352.58C1353.58 310.717 1354.35 310.657 1354.89 310.539C1356.84 310.008 1358.64 308.885 1360.3 307.172C1361.96 305.459 1363.23 303.628 1364.12 301.678C1365 299.729 1365.68 298.075 1366.16 296.716C1366.63 295.357 1366.87 294.471 1366.87 294.058L1366.34 294.412C1365.98 294.649 1365.42 294.973 1364.65 295.387C1363.88 295.8 1363.11 296.155 1362.34 296.45C1361.16 296.746 1360 296.893 1358.88 296.893C1356.16 296.893 1353.76 296.244 1351.69 294.944C1349.62 293.644 1348.26 291.547 1347.61 288.653C1347.55 288.239 1347.52 287.323 1347.52 285.906C1347.52 282.538 1348.55 278.138 1350.63 272.703C1352.7 267.268 1353.73 263.812 1353.73 262.335C1353.73 262.276 1353.73 262.217 1353.73 262.158C1353.73 261.626 1353.73 261.272 1353.73 261.095C1353.73 260.918 1353.61 260.711 1353.38 260.475C1353.14 260.238 1352.81 260.12 1352.4 260.12H1352.05C1350.68 260.12 1349.44 260.681 1348.32 261.804C1347.19 262.926 1346.31 264.137 1345.65 265.437C1345 266.736 1344.5 267.977 1344.15 269.158C1343.79 270.34 1343.55 270.99 1343.44 271.108C1343.32 271.226 1342.84 271.285 1342.02 271.285H1340.77C1340.42 270.931 1340.24 270.665 1340.24 270.487Z" fill="black"/>
<path d="M1388.26 229.55L1388.61 229.461C1388.91 229.461 1389.21 229.461 1389.5 229.461H1390.57L1393.05 231.588C1398.61 236.609 1402.67 242.871 1405.21 250.373C1407.76 257.875 1409.03 265.673 1409.03 273.766C1409.03 277.783 1408.73 281.652 1408.14 285.374C1407.55 289.096 1406.87 292.256 1406.1 294.855C1405.33 297.455 1404.23 300.054 1402.81 302.653C1401.39 305.252 1400.27 307.231 1399.44 308.59C1398.61 309.949 1397.4 311.455 1395.8 313.109C1394.21 314.763 1393.26 315.738 1392.96 316.033C1392.67 316.329 1391.99 316.89 1390.92 317.717C1390.74 317.894 1390.63 318.012 1390.57 318.071H1389.5C1389.03 318.071 1388.7 318.071 1388.52 318.071C1388.35 318.071 1388.2 317.983 1388.08 317.805C1387.96 317.628 1387.87 317.362 1387.81 317.008C1387.87 316.949 1388.2 316.565 1388.79 315.856C1397.96 306.345 1402.55 292.315 1402.55 273.766C1402.55 255.217 1397.96 241.187 1388.79 231.676C1388.2 230.967 1387.87 230.583 1387.81 230.524C1387.81 230.052 1387.96 229.727 1388.26 229.55Z" fill="black"/>
<path d="M1450.39 235.398C1450.45 235.398 1452.58 235.25 1456.78 234.955C1460.98 234.659 1463.14 234.482 1463.26 234.423C1463.97 234.423 1464.32 234.659 1464.32 235.132C1464.32 235.546 1462.16 244.466 1457.84 261.892C1453.52 279.319 1451.31 288.21 1451.19 288.564C1451.07 288.918 1451.04 289.362 1451.1 289.893C1451.1 292.374 1451.93 293.615 1453.58 293.615C1454.12 293.556 1454.71 293.29 1455.36 292.817C1456.6 291.636 1457.81 288.8 1459 284.311C1459.35 283.129 1459.65 282.509 1459.89 282.45C1460 282.391 1460.3 282.361 1460.77 282.361H1461.13H1461.48C1462.37 282.361 1462.81 282.598 1462.81 283.07C1462.81 283.366 1462.73 283.838 1462.55 284.488C1461.78 287.442 1460.89 289.834 1459.89 291.665C1458.88 293.497 1458.05 294.678 1457.4 295.21C1456.75 295.741 1455.92 296.214 1454.92 296.628C1454.44 296.746 1453.73 296.805 1452.78 296.805C1450.77 296.805 1449.09 296.362 1447.73 295.476C1446.36 294.59 1445.48 293.674 1445.06 292.729L1444.53 291.4C1444.47 291.341 1444.35 291.37 1444.18 291.488C1444.06 291.606 1443.94 291.724 1443.82 291.843C1440.33 295.151 1436.78 296.805 1433.17 296.805C1429.92 296.805 1427.05 295.623 1424.56 293.26C1422.07 290.897 1420.83 287.146 1420.83 282.007C1420.83 279.171 1421.42 276.277 1422.61 273.323C1423.79 270.369 1425.21 267.829 1426.87 265.703C1429.65 262.335 1432.43 260.002 1435.21 258.702C1437.99 257.403 1440.51 256.753 1442.76 256.753C1446.07 256.753 1448.55 257.994 1450.21 260.475C1450.51 260.829 1450.65 260.947 1450.65 260.829C1450.71 260.593 1451.51 257.373 1453.05 251.171C1454.59 244.968 1455.42 241.689 1455.54 241.335C1455.54 240.567 1455.33 240.094 1454.92 239.917C1454.5 239.74 1453.35 239.592 1451.45 239.474H1449.59C1449.23 239.12 1449.06 238.883 1449.06 238.765C1449.06 238.647 1449.12 238.086 1449.23 237.081C1449.53 235.959 1449.92 235.398 1450.39 235.398ZM1449.15 267.032C1447.78 262.365 1445.57 260.032 1442.49 260.032C1440.42 260.032 1438.44 260.947 1436.54 262.778C1434.65 264.61 1433.17 267.002 1432.1 269.956C1430.39 274.623 1429.18 279.467 1428.47 284.488C1428.47 284.665 1428.47 284.99 1428.47 285.463C1428.47 285.935 1428.44 286.29 1428.38 286.526C1428.38 289.184 1428.91 291.016 1429.97 292.02C1431.04 293.024 1432.31 293.556 1433.79 293.615C1436.99 293.615 1440.27 291.488 1443.64 287.235L1444.35 286.26L1449.15 267.032Z" fill="black"/>
<path d="M1469.38 270.31C1469.8 267.829 1471.39 264.964 1474.18 261.715C1476.96 258.466 1480.39 256.812 1484.47 256.753C1486.54 256.753 1488.44 257.285 1490.15 258.348C1491.87 259.411 1493.14 260.74 1493.97 262.335C1496.45 258.614 1499.44 256.753 1502.93 256.753C1505.12 256.753 1507.02 257.403 1508.61 258.702C1510.21 260.002 1511.04 261.745 1511.1 263.93C1511.1 265.644 1510.68 267.032 1509.86 268.095C1509.03 269.158 1508.23 269.808 1507.46 270.045C1506.69 270.281 1506.01 270.399 1505.42 270.399C1504.29 270.399 1503.38 270.074 1502.67 269.424C1501.96 268.774 1501.6 267.918 1501.6 266.855C1501.6 264.137 1503.08 262.276 1506.04 261.272C1505.39 260.504 1504.2 260.12 1502.49 260.12C1501.72 260.12 1501.16 260.179 1500.8 260.297C1498.55 261.243 1496.9 263.192 1495.83 266.146C1492.28 279.201 1490.51 286.821 1490.51 289.007C1490.51 290.661 1490.98 291.843 1491.93 292.552C1492.87 293.26 1493.91 293.615 1495.03 293.615C1497.22 293.615 1499.38 292.64 1501.51 290.691C1503.64 288.741 1505.09 286.349 1505.86 283.513C1506.04 282.923 1506.22 282.598 1506.39 282.539C1506.57 282.479 1507.05 282.42 1507.81 282.361H1508.17C1509.06 282.361 1509.5 282.598 1509.5 283.07C1509.5 283.129 1509.44 283.454 1509.32 284.045C1508.38 287.412 1506.54 290.395 1503.82 292.995C1501.1 295.594 1497.93 296.893 1494.32 296.893C1490.18 296.893 1487.05 295.033 1484.91 291.311C1482.49 294.974 1479.71 296.805 1476.57 296.805H1476.04C1473.14 296.805 1471.07 296.037 1469.83 294.501C1468.58 292.965 1467.93 291.341 1467.87 289.627C1467.87 287.737 1468.44 286.201 1469.56 285.02C1470.68 283.838 1472.02 283.247 1473.55 283.247C1476.1 283.247 1477.37 284.488 1477.37 286.969C1477.37 288.151 1477.02 289.184 1476.31 290.07C1475.6 290.957 1474.91 291.547 1474.26 291.843C1473.61 292.138 1473.23 292.286 1473.11 292.286L1472.84 292.374C1472.84 292.433 1473.02 292.552 1473.38 292.729C1473.73 292.906 1474.2 293.113 1474.8 293.349C1475.39 293.585 1475.95 293.674 1476.48 293.615C1478.61 293.615 1480.45 292.286 1481.99 289.627C1482.52 288.682 1483.2 286.674 1484.03 283.602C1484.86 280.53 1485.68 277.34 1486.51 274.032C1487.34 270.724 1487.81 268.774 1487.93 268.184C1488.23 266.589 1488.38 265.437 1488.38 264.728C1488.38 263.074 1487.93 261.892 1487.05 261.183C1486.16 260.475 1485.15 260.12 1484.03 260.12C1481.66 260.12 1479.44 261.065 1477.37 262.956C1475.3 264.846 1473.85 267.268 1473.02 270.222C1472.9 270.753 1472.76 271.049 1472.58 271.108C1472.4 271.167 1471.93 271.226 1471.16 271.285H1469.91C1469.56 270.931 1469.38 270.606 1469.38 270.31Z" fill="black"/>
</svg>
