<svg width="1640" height="531" viewBox="0 0 1640 531" fill="none" xmlns="http://www.w3.org/2000/svg">
<rect width="1640" height="531" fill="black"/>
<path d="M30 30H1610V501H30V30Z" fill="white"/>
<path d="M285.093 274.649H164V268.72H285.093V274.649Z" fill="black"/>
<path d="M234.58 162.087C234.646 162.087 237.019 161.922 241.698 161.593C246.376 161.264 248.782 161.066 248.914 161C249.704 161 250.1 161.264 250.1 161.791C250.1 162.252 247.695 172.2 242.884 191.636C238.073 211.072 235.602 220.987 235.47 221.382C235.338 221.778 235.305 222.272 235.371 222.865C235.371 225.632 236.294 227.015 238.139 227.015C238.732 226.95 239.391 226.653 240.116 226.126C241.5 224.808 242.851 221.646 244.169 216.639C244.564 215.321 244.894 214.629 245.157 214.563C245.289 214.498 245.619 214.465 246.146 214.465H246.541H246.937C247.925 214.465 248.419 214.728 248.419 215.255C248.419 215.585 248.321 216.112 248.123 216.836C247.266 220.131 246.278 222.799 245.157 224.841C244.037 226.884 243.114 228.201 242.389 228.794C241.665 229.387 240.742 229.914 239.622 230.376C239.094 230.507 238.304 230.573 237.249 230.573C235.009 230.573 233.13 230.079 231.615 229.091C230.099 228.103 229.11 227.081 228.649 226.027L228.056 224.545C227.99 224.479 227.858 224.512 227.661 224.644C227.529 224.775 227.397 224.907 227.265 225.039C223.377 228.728 219.423 230.573 215.403 230.573C211.778 230.573 208.582 229.256 205.814 226.62C203.046 223.985 201.663 219.801 201.663 214.069C201.663 210.907 202.322 207.679 203.64 204.384C204.958 201.09 206.539 198.257 208.384 195.885C211.482 192.13 214.579 189.528 217.677 188.078C220.774 186.629 223.575 185.904 226.079 185.904C229.769 185.904 232.537 187.288 234.382 190.055C234.712 190.45 234.877 190.582 234.877 190.45C234.943 190.186 235.832 186.596 237.546 179.678C239.259 172.76 240.182 169.104 240.314 168.708C240.314 167.852 240.083 167.325 239.622 167.127C239.16 166.93 237.875 166.765 235.766 166.633H233.691C233.295 166.238 233.097 165.974 233.097 165.842C233.097 165.711 233.163 165.085 233.295 163.965C233.625 162.713 234.053 162.087 234.58 162.087ZM233.196 197.368C231.681 192.163 229.209 189.561 225.782 189.561C223.476 189.561 221.268 190.582 219.159 192.624C217.05 194.667 215.403 197.335 214.217 200.629C212.306 205.834 210.955 211.236 210.164 216.836C210.164 217.034 210.164 217.396 210.164 217.924C210.164 218.451 210.131 218.846 210.065 219.109C210.065 222.074 210.658 224.117 211.844 225.237C213.03 226.357 214.447 226.95 216.095 227.015C219.654 227.015 223.311 224.644 227.067 219.9L227.858 218.813L233.196 197.368Z" fill="black"/>
<path d="M206.111 297.577C206.177 297.577 208.549 297.412 213.228 297.083C217.907 296.753 220.313 296.556 220.444 296.49C221.235 296.49 221.631 296.753 221.631 297.28C221.631 297.742 219.225 307.69 214.414 327.126C209.604 346.561 207.132 356.477 207.001 356.872C206.869 357.268 206.836 357.762 206.902 358.355C206.902 361.122 207.824 362.505 209.67 362.505C210.263 362.439 210.922 362.143 211.647 361.616C213.03 360.298 214.381 357.136 215.699 352.129C216.095 350.811 216.424 350.119 216.688 350.053C216.82 349.987 217.149 349.954 217.677 349.954H218.072H218.467C219.456 349.954 219.95 350.218 219.95 350.745C219.95 351.074 219.851 351.602 219.654 352.326C218.797 355.62 217.808 358.289 216.688 360.331C215.568 362.374 214.645 363.691 213.92 364.284C213.195 364.877 212.273 365.404 211.152 365.865C210.625 365.997 209.834 366.063 208.78 366.063C206.539 366.063 204.661 365.569 203.145 364.581C201.63 363.592 200.641 362.571 200.18 361.517L199.587 360.035C199.521 359.969 199.389 360.002 199.191 360.133C199.059 360.265 198.928 360.397 198.796 360.529C194.908 364.218 190.954 366.063 186.934 366.063C183.309 366.063 180.113 364.745 177.345 362.11C174.577 359.475 173.193 355.291 173.193 349.559C173.193 346.397 173.852 343.168 175.17 339.874C176.488 336.58 178.07 333.747 179.915 331.375C183.012 327.62 186.11 325.017 189.207 323.568C192.305 322.119 195.105 321.394 197.61 321.394C201.3 321.394 204.068 322.777 205.913 325.545C206.243 325.94 206.407 326.072 206.407 325.94C206.473 325.676 207.363 322.086 209.076 315.168C210.79 308.25 211.712 304.593 211.844 304.198C211.844 303.342 211.614 302.815 211.152 302.617C210.691 302.419 209.406 302.255 207.297 302.123H205.221C204.826 301.728 204.628 301.464 204.628 301.332C204.628 301.2 204.694 300.575 204.826 299.455C205.155 298.203 205.584 297.577 206.111 297.577ZM204.727 332.858C203.211 327.653 200.74 325.05 197.313 325.05C195.006 325.05 192.799 326.072 190.69 328.114C188.581 330.156 186.934 332.825 185.747 336.119C183.836 341.324 182.485 346.726 181.694 352.326C181.694 352.524 181.694 352.886 181.694 353.413C181.694 353.94 181.662 354.336 181.596 354.599C181.596 357.564 182.189 359.606 183.375 360.726C184.561 361.846 185.978 362.439 187.626 362.505C191.184 362.505 194.842 360.133 198.598 355.39L199.389 354.303L204.727 332.858Z" fill="black"/>
<path d="M227.265 336.514C227.726 333.747 229.506 330.552 232.603 326.928C235.7 323.305 239.523 321.46 244.07 321.394C246.376 321.394 248.485 321.987 250.396 323.173C252.308 324.359 253.724 325.841 254.647 327.62C257.415 323.469 260.743 321.394 264.631 321.394C267.069 321.394 269.178 322.119 270.958 323.568C272.737 325.017 273.66 326.961 273.725 329.399C273.725 331.309 273.264 332.858 272.342 334.044C271.419 335.229 270.529 335.954 269.673 336.218C268.816 336.481 268.058 336.613 267.399 336.613C266.147 336.613 265.125 336.251 264.335 335.526C263.544 334.801 263.148 333.846 263.148 332.66C263.148 329.629 264.796 327.554 268.091 326.434C267.366 325.578 266.048 325.149 264.137 325.149C263.28 325.149 262.654 325.215 262.259 325.347C259.754 326.401 257.909 328.575 256.723 331.869C252.769 346.43 250.792 354.929 250.792 357.366C250.792 359.211 251.319 360.529 252.373 361.319C253.428 362.11 254.581 362.505 255.833 362.505C258.272 362.505 260.677 361.418 263.049 359.244C265.422 357.07 267.036 354.402 267.893 351.239C268.091 350.58 268.289 350.218 268.486 350.152C268.684 350.086 269.211 350.02 270.068 349.954H270.463C271.452 349.954 271.946 350.218 271.946 350.745C271.946 350.811 271.88 351.173 271.748 351.832C270.694 355.588 268.651 358.915 265.62 361.814C262.588 364.712 259.062 366.162 255.042 366.162C250.429 366.162 246.937 364.087 244.564 359.936C241.862 364.021 238.765 366.063 235.272 366.063H234.679C231.45 366.063 229.143 365.207 227.759 363.494C226.375 361.781 225.651 359.969 225.585 358.058C225.585 355.95 226.211 354.237 227.463 352.919C228.715 351.602 230.198 350.943 231.911 350.943C234.745 350.943 236.162 352.326 236.162 355.093C236.162 356.411 235.766 357.564 234.976 358.552C234.185 359.541 233.427 360.199 232.702 360.529C231.977 360.858 231.549 361.023 231.417 361.023L231.12 361.122C231.12 361.188 231.318 361.319 231.713 361.517C232.109 361.715 232.636 361.945 233.295 362.209C233.954 362.472 234.58 362.571 235.173 362.505C237.546 362.505 239.589 361.023 241.302 358.058C241.895 357.004 242.653 354.764 243.576 351.338C244.498 347.912 245.421 344.354 246.343 340.665C247.266 336.975 247.793 334.801 247.925 334.142C248.255 332.364 248.419 331.079 248.419 330.288C248.419 328.443 247.925 327.126 246.937 326.335C245.948 325.545 244.828 325.149 243.576 325.149C240.94 325.149 238.468 326.203 236.162 328.312C233.855 330.42 232.241 333.121 231.318 336.415C231.186 337.008 231.021 337.338 230.824 337.404C230.626 337.47 230.099 337.535 229.242 337.601H227.858C227.463 337.206 227.265 336.844 227.265 336.514Z" fill="black"/>
<path d="M317.517 291.845H318.901C321.471 291.845 323.02 291.384 323.547 290.461V289.671C323.547 289.078 323.547 288.32 323.547 287.398C323.547 286.475 323.547 285.388 323.547 284.137C323.547 282.885 323.58 281.468 323.646 279.887C323.712 278.306 323.712 276.659 323.646 274.946C323.58 273.233 323.58 271.421 323.646 269.51C323.712 267.6 323.712 265.722 323.646 263.877C323.646 261.44 323.646 258.87 323.646 256.169C323.646 253.468 323.646 250.997 323.646 248.757C323.646 246.517 323.646 244.541 323.646 242.828C323.646 241.115 323.613 239.665 323.547 238.479C323.481 237.293 323.481 236.733 323.547 236.799C323.349 235.547 322.888 234.724 322.163 234.329C321.438 233.933 319.955 233.637 317.714 233.439H315.935V231.166C315.935 229.651 316.001 228.893 316.133 228.893L317.121 228.794C317.78 228.728 318.736 228.663 319.988 228.597C321.24 228.531 322.459 228.465 323.646 228.399C324.766 228.333 325.985 228.267 327.303 228.201C328.621 228.135 329.61 228.037 330.269 227.905C330.928 227.773 331.29 227.74 331.356 227.806H331.653V258.936C331.653 279.821 331.686 290.33 331.751 290.461C332.015 290.989 332.41 291.351 332.938 291.549C334.322 291.746 335.936 291.845 337.781 291.845H339.363V296.391H338.572L336.299 296.292C334.783 296.226 333.168 296.193 331.455 296.193C329.741 296.193 328.489 296.16 327.699 296.095C326.908 296.029 325.656 296.029 323.942 296.095C322.229 296.16 320.581 296.226 319 296.292L316.726 296.391H315.935V291.845H317.517Z" fill="black"/>
<path d="M348.161 236.206C348.161 234.361 348.754 232.912 349.94 231.858C351.126 230.804 352.576 230.277 354.29 230.277C355.805 230.408 357.123 230.968 358.244 231.957C359.364 232.945 359.924 234.361 359.924 236.206C359.924 238.183 359.364 239.665 358.244 240.653C357.123 241.642 355.739 242.136 354.092 242.136C352.444 242.136 351.06 241.642 349.94 240.653C348.82 239.665 348.227 238.183 348.161 236.206ZM365.756 296.391C364.768 296.193 361.341 296.095 355.476 296.095C354.751 296.095 353.532 296.095 351.818 296.095C350.105 296.095 348.457 296.16 346.876 296.292L344.701 296.391H343.91V291.845H345.492C347.337 291.845 348.952 291.746 350.336 291.549C350.929 291.285 351.291 290.923 351.423 290.461C351.555 290 351.621 288.617 351.621 286.311V276.132V267.435C351.621 264.009 351.555 261.835 351.423 260.913C351.291 259.99 350.83 259.364 350.039 259.035C349.116 258.574 347.568 258.343 345.393 258.343H344.306V256.07C344.306 254.555 344.372 253.797 344.503 253.797L345.492 253.698C346.151 253.632 347.073 253.567 348.26 253.501C349.446 253.435 350.632 253.369 351.818 253.303C352.939 253.237 354.125 253.171 355.377 253.105C356.629 253.04 357.585 252.941 358.244 252.809C358.903 252.677 359.265 252.644 359.331 252.71H359.628V290.264C359.957 290.923 360.353 291.318 360.814 291.45C361.275 291.581 362.428 291.713 364.274 291.845H366.547V296.391H365.756Z" fill="black"/>
<path d="M373.368 291.845H374.752C377.322 291.845 378.871 291.384 379.398 290.461V289.671C379.398 289.078 379.398 288.32 379.398 287.398C379.398 286.475 379.398 285.454 379.398 284.334C379.398 283.214 379.431 281.93 379.497 280.48C379.563 279.031 379.563 277.647 379.497 276.329C379.497 274.287 379.497 272.113 379.497 269.807C379.497 267.501 379.464 265.557 379.398 263.976V261.703C379.2 260.451 378.739 259.628 378.014 259.233C377.289 258.837 375.806 258.541 373.566 258.343H371.786V256.07C371.786 254.555 371.852 253.797 371.984 253.797L372.973 253.698C373.632 253.632 374.554 253.567 375.74 253.501C376.927 253.435 378.146 253.369 379.398 253.303C380.518 253.237 381.705 253.171 382.957 253.105C384.209 253.04 385.164 252.941 385.823 252.809C386.482 252.677 386.845 252.644 386.911 252.71H387.207V256.663C387.207 259.167 387.24 260.418 387.306 260.418C387.372 260.418 387.537 260.254 387.8 259.924C388.064 259.595 388.459 259.101 388.987 258.442C389.514 257.783 390.14 257.19 390.865 256.663C391.59 256.136 392.545 255.51 393.731 254.785C394.918 254.061 396.17 253.534 397.488 253.204C398.806 252.875 400.486 252.71 402.529 252.71C403.518 252.71 404.44 252.776 405.297 252.908C406.154 253.04 406.912 253.237 407.571 253.501C408.23 253.764 408.856 254.028 409.449 254.291C410.042 254.555 410.536 254.851 410.932 255.181C411.327 255.51 411.69 255.873 412.019 256.268C412.349 256.663 412.645 257.025 412.909 257.355C413.172 257.684 413.403 258.047 413.601 258.442C413.798 258.837 413.93 259.167 413.996 259.43C414.062 259.694 414.161 259.957 414.293 260.221L414.49 260.715L414.787 260.32C414.985 260.056 415.182 259.793 415.38 259.529C415.578 259.266 415.874 258.903 416.27 258.442C416.665 257.981 417.093 257.553 417.555 257.157C418.016 256.762 418.51 256.334 419.038 255.873C419.565 255.411 420.224 255.016 421.015 254.687C421.805 254.357 422.563 254.028 423.288 253.698C424.013 253.369 424.87 253.138 425.858 253.007C426.847 252.875 427.868 252.776 428.923 252.71C437.226 252.71 441.74 256.433 442.465 263.877C442.531 264.339 442.564 268.917 442.564 277.614V286.113C442.564 288.617 442.63 290.099 442.762 290.56C442.894 291.021 443.256 291.351 443.849 291.549C445.233 291.746 446.848 291.845 448.693 291.845H450.275V296.391H449.484L447.21 296.292C445.629 296.226 443.948 296.193 442.169 296.193C440.39 296.193 439.137 296.16 438.412 296.095C431.625 296.095 427.934 296.193 427.341 296.391H426.55V291.845H428.132C432.152 291.845 434.162 291.318 434.162 290.264C434.228 290.132 434.261 285.586 434.261 276.626C434.195 267.732 434.129 263.021 434.063 262.494C433.668 260.649 433.009 259.266 432.086 258.343C431.163 257.421 430.373 256.861 429.714 256.663C429.055 256.465 428.198 256.4 427.143 256.465C424.178 256.465 421.575 257.585 419.334 259.826C417.555 261.604 416.434 263.416 415.973 265.261C415.512 267.106 415.248 269.84 415.182 273.463V279.788V285.718C415.182 287.694 415.215 289.012 415.281 289.671C415.347 290.33 415.446 290.758 415.578 290.956C415.71 291.153 416.006 291.351 416.467 291.549C417.851 291.746 419.466 291.845 421.311 291.845H422.893V296.391H422.102L419.73 296.292C418.214 296.226 416.566 296.193 414.787 296.193C413.008 296.193 411.755 296.16 411.031 296.095C404.243 296.095 400.552 296.193 399.959 296.391H399.168V291.845H400.75C404.77 291.845 406.78 291.318 406.78 290.264C406.846 290.132 406.879 285.586 406.879 276.626C406.813 267.732 406.747 263.021 406.681 262.494C406.286 260.649 405.627 259.266 404.704 258.343C403.781 257.421 402.991 256.861 402.332 256.663C401.673 256.465 400.816 256.4 399.761 256.465C396.796 256.465 394.193 257.585 391.952 259.826C390.173 261.604 389.053 263.416 388.591 265.261C388.13 267.106 387.866 269.84 387.8 273.463V279.788V285.718C387.8 287.694 387.833 289.012 387.899 289.671C387.965 290.33 388.064 290.758 388.196 290.956C388.328 291.153 388.624 291.351 389.085 291.549C390.469 291.746 392.084 291.845 393.929 291.845H395.511V296.391H394.72L392.446 296.292C390.865 296.226 389.184 296.193 387.405 296.193C385.626 296.193 384.374 296.16 383.649 296.095C376.861 296.095 373.17 296.193 372.577 296.391H371.786V291.845H373.368Z" fill="black"/>
<path d="M316.217 336.619C316.217 335.967 316.566 334.849 317.265 333.265C317.964 331.681 319.083 330.027 320.62 328.303C322.158 326.58 323.882 325.741 325.793 325.788C327.704 325.788 329.241 326.323 330.406 327.395C331.571 328.466 332.177 329.957 332.224 331.867C332.13 332.752 332.061 333.242 332.014 333.335C332.014 333.474 331.641 334.546 330.896 336.549C330.15 338.552 329.381 340.812 328.589 343.328C327.797 345.843 327.424 347.846 327.471 349.337C327.471 351.34 327.797 352.738 328.449 353.53C329.101 354.322 330.08 354.741 331.385 354.788C332.457 354.788 333.459 354.532 334.39 354.019C335.322 353.507 336.045 352.971 336.557 352.412C337.07 351.853 337.699 351.084 338.445 350.106C338.445 350.059 338.561 349.593 338.794 348.708C339.027 347.823 339.353 346.449 339.773 344.585C340.192 342.722 340.635 340.998 341.101 339.414C342.872 332.426 343.85 328.769 344.037 328.443C344.642 327.185 345.644 326.556 347.042 326.556C347.648 326.556 348.137 326.719 348.51 327.045C348.883 327.372 349.139 327.651 349.279 327.884C349.419 328.117 349.465 328.327 349.419 328.513C349.419 329.119 348.277 334.01 345.994 343.188C343.71 352.365 342.406 357.397 342.079 358.282C340.775 362.149 338.515 365.223 335.299 367.506C332.084 369.789 328.868 370.954 325.653 371C323.556 371 321.716 370.488 320.131 369.463C318.547 368.438 317.755 366.9 317.755 364.851C317.755 363.826 317.918 362.964 318.244 362.265C318.57 361.566 319.013 361.054 319.572 360.728C320.131 360.402 320.597 360.169 320.97 360.029C321.343 359.889 321.739 359.819 322.158 359.819C324.209 359.819 325.234 360.798 325.234 362.754C325.234 363.686 324.954 364.501 324.395 365.2C323.836 365.899 323.3 366.365 322.787 366.598C322.275 366.831 321.972 366.947 321.879 366.947L321.669 367.017C321.762 367.25 322.205 367.529 322.997 367.856C323.789 368.182 324.581 368.345 325.374 368.345H325.933C326.725 368.345 327.331 368.298 327.75 368.205C329.288 367.786 330.709 366.9 332.014 365.549C333.319 364.198 334.321 362.754 335.02 361.217C335.719 359.68 336.254 358.375 336.627 357.304C337 356.232 337.186 355.533 337.186 355.207L336.767 355.487C336.487 355.673 336.045 355.929 335.439 356.255C334.833 356.582 334.227 356.861 333.622 357.094C332.69 357.327 331.781 357.443 330.896 357.443C328.752 357.443 326.865 356.931 325.234 355.906C323.603 354.881 322.531 353.227 322.018 350.944C321.972 350.618 321.949 349.896 321.949 348.778C321.949 346.123 322.764 342.652 324.395 338.366C326.026 334.08 326.841 331.355 326.841 330.19C326.841 330.143 326.841 330.097 326.841 330.05C326.841 329.631 326.841 329.352 326.841 329.212C326.841 329.072 326.748 328.909 326.562 328.723C326.375 328.536 326.119 328.443 325.793 328.443H325.513C324.442 328.443 323.463 328.886 322.578 329.771C321.692 330.656 320.993 331.611 320.481 332.636C319.968 333.661 319.572 334.639 319.292 335.571C319.013 336.503 318.826 337.015 318.733 337.108C318.64 337.201 318.267 337.248 317.615 337.248H316.636C316.357 336.968 316.217 336.759 316.217 336.619Z" fill="black"/>
<path d="M353.752 340.113C353.752 340.113 353.752 339.81 353.752 339.205C353.752 338.599 354.079 338.133 354.731 337.807H408.204C402.798 333.754 399.466 328.56 398.208 322.224C398.208 322.177 398.208 322.107 398.208 322.014C398.208 321.921 398.185 321.851 398.138 321.804C398.138 321.245 398.534 320.966 399.326 320.966H399.536C399.956 320.966 400.235 320.989 400.375 321.036C400.515 321.082 400.655 321.176 400.794 321.315C400.934 321.455 401.004 321.665 401.004 321.944C401.004 322.224 401.074 322.596 401.214 323.062C401.353 323.528 401.54 324.11 401.773 324.809C402.798 327.931 404.499 330.726 406.875 333.195C409.252 335.664 412.025 337.411 415.193 338.436C415.613 338.576 415.823 338.832 415.823 339.205C415.823 339.484 415.706 339.694 415.473 339.834C415.24 339.973 414.681 340.206 413.795 340.532C412.91 340.858 412.025 341.301 411.139 341.86C409.229 343.071 407.574 344.469 406.177 346.053C404.779 347.637 403.73 349.197 403.031 350.735C402.332 352.272 401.843 353.437 401.563 354.229C401.284 355.021 401.097 355.743 401.004 356.395C400.911 356.861 400.794 357.141 400.655 357.234C400.515 357.327 400.142 357.397 399.536 357.443C398.604 357.443 398.138 357.187 398.138 356.675C398.138 356.349 398.255 355.766 398.488 354.928C399.979 349.058 403.217 344.283 408.204 340.602H354.731C354.079 340.276 353.752 339.81 353.752 339.205V340.113Z" fill="black"/>
<path d="M422.463 345.564C422.463 340.486 424.467 335.92 428.474 331.867C432.482 327.814 436.815 325.788 441.475 325.788C444.085 325.788 446.135 326.347 447.626 327.465C449.118 328.583 449.887 330.05 449.933 331.867C449.933 333.218 449.49 334.36 448.605 335.291C447.72 336.223 446.601 336.712 445.25 336.759C444.365 336.759 443.666 336.526 443.153 336.06C442.64 335.594 442.384 334.895 442.384 333.964C442.384 333.032 442.64 332.24 443.153 331.588C443.666 330.935 444.178 330.446 444.691 330.12C445.203 329.794 445.53 329.654 445.669 329.701H445.739C445.739 329.608 445.599 329.468 445.32 329.282C445.04 329.095 444.551 328.909 443.852 328.723C443.153 328.536 442.361 328.443 441.475 328.443C440.077 328.443 438.749 328.769 437.491 329.421C436.513 329.841 435.511 330.563 434.485 331.588C432.435 333.637 430.944 336.526 430.012 340.253C429.08 343.98 428.591 346.682 428.544 348.359C428.544 350.502 429.15 352.109 430.361 353.181C431.387 354.299 432.738 354.858 434.416 354.858H434.695C439.914 354.858 444.225 352.878 447.626 348.918C448.046 348.452 448.325 348.219 448.465 348.219C448.652 348.219 448.955 348.429 449.374 348.848C449.793 349.267 450.026 349.593 450.073 349.826C450.12 350.059 449.91 350.409 449.444 350.875C448.978 351.34 448.302 351.993 447.417 352.831C446.531 353.67 445.483 354.369 444.271 354.928C443.06 355.487 441.569 356.069 439.798 356.675C438.027 357.28 436.163 357.536 434.206 357.443C430.711 357.443 427.892 356.325 425.748 354.089C423.605 351.853 422.51 349.011 422.463 345.564Z" fill="black"/>
<path d="M480.326 312.401C480.457 312.401 480.655 312.467 480.919 312.598C481.182 312.73 481.545 312.829 482.006 312.895C482.467 312.961 482.863 312.994 483.192 312.994C484.049 312.994 484.84 312.565 485.565 311.709C486.29 310.852 486.817 309.897 487.146 308.843C487.805 307.064 488.926 302.024 490.507 293.723C492.089 285.421 493.605 277.515 495.055 270.004C496.504 262.494 497.229 258.705 497.229 258.64V258.343H492.583C489.486 258.343 487.838 258.277 487.641 258.145C487.377 257.948 487.245 257.618 487.245 257.157L487.937 254.39C488.069 254.061 488.333 253.896 488.728 253.896C489.123 253.896 490.672 253.863 493.374 253.797C496.537 253.797 498.119 253.764 498.119 253.698C498.119 253.567 498.416 251.919 499.009 248.757C499.602 245.595 499.997 243.684 500.195 243.025C502.633 232.154 507.444 226.719 514.627 226.719C517.066 226.851 519.076 227.575 520.657 228.893C522.239 230.211 523.03 231.957 523.03 234.131C523.03 236.503 522.338 238.216 520.954 239.27C519.57 240.324 518.186 240.884 516.802 240.95C513.902 240.95 512.453 239.566 512.453 236.799C512.453 235.547 512.815 234.46 513.54 233.538C514.265 232.615 515.056 231.924 515.912 231.463L516.802 230.968C515.748 230.573 514.759 230.375 513.836 230.375C513.046 230.375 512.288 230.705 511.563 231.364C510.838 232.023 510.344 232.945 510.08 234.131C509.619 236.041 509.092 238.611 508.498 241.839C507.905 245.068 507.378 247.802 506.917 250.042C506.456 252.282 506.225 253.468 506.225 253.599C506.225 253.731 508.037 253.797 511.662 253.797C514.627 253.797 516.341 253.83 516.802 253.896C517.263 253.962 517.626 254.159 517.889 254.489C517.955 254.752 517.889 255.312 517.692 256.169C517.494 257.025 517.329 257.552 517.197 257.75C517.066 258.08 516.769 258.244 516.308 258.244C515.846 258.244 514.067 258.277 510.97 258.343H505.434L503.16 270.4C499.997 286.739 497.789 296.951 496.537 301.036C494.758 306.636 492.452 310.786 489.618 313.488C487.179 315.596 484.774 316.65 482.402 316.65C480.293 316.65 478.382 316.024 476.668 314.772C474.955 313.521 474.098 311.742 474.098 309.436C474.098 306.998 474.79 305.219 476.174 304.099C477.558 302.979 478.942 302.419 480.326 302.419C483.225 302.419 484.675 303.803 484.675 306.57C484.675 307.822 484.313 308.909 483.588 309.831C482.863 310.754 482.072 311.445 481.215 311.907L480.326 312.401Z" fill="black"/>
<path d="M532.816 271.685C532.816 267.139 533.145 262.823 533.804 258.738C534.463 254.654 535.221 251.129 536.078 248.164C536.935 245.199 538.154 242.301 539.736 239.468C541.317 236.635 542.569 234.427 543.492 232.846C544.415 231.265 545.798 229.552 547.644 227.707C549.489 225.863 550.576 224.743 550.906 224.347C551.235 223.952 552.059 223.26 553.377 222.272H554.662H555.058C555.98 222.272 556.442 222.568 556.442 223.161C556.442 223.359 555.881 224.051 554.761 225.237C553.641 226.423 552.29 228.168 550.708 230.474C549.126 232.78 547.512 235.613 545.864 238.973C544.217 242.333 542.833 246.879 541.713 252.611C540.592 258.343 540.032 264.701 540.032 271.685C540.032 278.668 540.592 284.993 541.713 290.659C542.833 296.325 544.184 300.904 545.766 304.396C547.347 307.888 548.962 310.721 550.609 312.895C552.257 315.069 553.641 316.815 554.761 318.133C555.881 319.45 556.442 320.142 556.442 320.208C556.442 320.801 555.947 321.097 554.959 321.097H554.662H553.377L550.609 318.726C544.415 313.125 539.9 306.142 537.067 297.775C534.233 289.407 532.816 280.711 532.816 271.685Z" fill="black"/>
<path d="M567.612 267.83C568.073 265.063 569.852 261.868 572.95 258.244C576.047 254.621 579.869 252.776 584.417 252.71C586.723 252.71 588.832 253.303 590.743 254.489C592.654 255.675 594.071 257.157 594.994 258.936C597.762 254.785 601.09 252.71 604.978 252.71C607.416 252.71 609.525 253.435 611.304 254.884C613.084 256.334 614.006 258.277 614.072 260.715C614.072 262.626 613.611 264.174 612.688 265.36C611.766 266.546 610.876 267.27 610.019 267.534C609.162 267.797 608.405 267.929 607.746 267.929C606.493 267.929 605.472 267.567 604.681 266.842C603.89 266.117 603.495 265.162 603.495 263.976C603.495 260.946 605.142 258.87 608.438 257.75C607.713 256.894 606.395 256.465 604.483 256.465C603.627 256.465 603.001 256.531 602.605 256.663C600.101 257.717 598.256 259.891 597.07 263.186C593.116 277.746 591.138 286.245 591.138 288.683C591.138 290.527 591.666 291.845 592.72 292.636C593.775 293.426 594.928 293.821 596.18 293.821C598.618 293.821 601.024 292.734 603.396 290.56C605.769 288.386 607.383 285.718 608.24 282.555C608.438 281.897 608.635 281.534 608.833 281.468C609.031 281.402 609.558 281.337 610.415 281.271H610.81C611.798 281.271 612.293 281.534 612.293 282.061C612.293 282.127 612.227 282.489 612.095 283.148C611.041 286.904 608.998 290.231 605.966 293.13C602.935 296.029 599.409 297.478 595.389 297.478C590.776 297.478 587.283 295.403 584.911 291.252C582.209 295.337 579.112 297.379 575.619 297.379H575.026C571.796 297.379 569.49 296.523 568.106 294.81C566.722 293.097 565.997 291.285 565.931 289.374C565.931 287.266 566.557 285.553 567.809 284.235C569.062 282.918 570.544 282.259 572.258 282.259C575.092 282.259 576.508 283.642 576.508 286.41C576.508 287.727 576.113 288.88 575.322 289.868C574.531 290.857 573.774 291.516 573.049 291.845C572.324 292.174 571.895 292.339 571.764 292.339L571.467 292.438C571.467 292.504 571.665 292.636 572.06 292.833C572.455 293.031 572.983 293.261 573.642 293.525C574.301 293.789 574.927 293.887 575.52 293.821C577.892 293.821 579.935 292.339 581.649 289.374C582.242 288.32 583 286.08 583.922 282.654C584.845 279.228 585.768 275.671 586.69 271.981C587.613 268.292 588.14 266.117 588.272 265.459C588.601 263.68 588.766 262.395 588.766 261.604C588.766 259.76 588.272 258.442 587.283 257.651C586.295 256.861 585.174 256.465 583.922 256.465C581.286 256.465 578.815 257.52 576.508 259.628C574.202 261.736 572.587 264.437 571.665 267.732C571.533 268.324 571.368 268.654 571.17 268.72C570.973 268.786 570.446 268.852 569.589 268.917H568.205C567.809 268.522 567.612 268.16 567.612 267.83Z" fill="black"/>
<path d="M627.219 292.932C627.219 292.932 627.219 292.109 627.219 290.461C627.219 288.814 627.747 287.398 628.801 286.212C629.855 285.026 631.272 284.433 633.052 284.433C634.897 284.433 636.544 285.257 637.994 286.904C639.444 288.551 640.202 291.45 640.268 295.6C640.268 297.906 639.971 300.146 639.378 302.321C638.785 304.495 638.093 306.372 637.302 307.954C636.511 309.535 635.655 310.885 634.732 312.005C633.809 313.125 633.019 314.015 632.36 314.674C631.701 315.333 631.272 315.629 631.075 315.563C630.811 315.563 630.383 315.267 629.79 314.674C629.196 314.081 628.9 313.653 628.9 313.389C628.9 313.125 629.262 312.598 629.987 311.808C630.712 311.017 631.536 310.029 632.459 308.843C633.381 307.657 634.238 306.01 635.029 303.902C635.819 301.793 636.347 299.389 636.61 296.687V295.502L636.511 295.6C636.38 295.666 636.215 295.732 636.017 295.798C635.819 295.864 635.622 295.963 635.424 296.095C635.226 296.226 634.93 296.292 634.534 296.292C634.139 296.292 633.744 296.325 633.348 296.391C631.569 296.391 630.119 295.831 628.999 294.711L627.219 292.932Z" fill="black"/>
<path d="M666.068 268.028C666.068 267.106 666.562 265.524 667.551 263.284C668.539 261.044 670.121 258.705 672.296 256.268C674.471 253.83 676.909 252.644 679.611 252.71C682.313 252.71 684.488 253.468 686.135 254.983C687.783 256.498 688.639 258.607 688.705 261.308C688.573 262.56 688.475 263.251 688.409 263.383C688.409 263.581 687.881 265.096 686.827 267.929C685.773 270.762 684.685 273.958 683.565 277.515C682.445 281.073 681.917 283.906 681.983 286.014C681.983 288.847 682.445 290.824 683.367 291.944C684.29 293.064 685.674 293.657 687.519 293.723C689.035 293.723 690.452 293.36 691.77 292.636C693.088 291.911 694.109 291.153 694.834 290.363C695.559 289.572 696.449 288.485 697.503 287.101C697.503 287.035 697.668 286.377 697.997 285.125C698.327 283.873 698.788 281.929 699.381 279.294C699.974 276.659 700.6 274.221 701.259 271.981C703.764 262.098 705.148 256.927 705.411 256.465C706.268 254.687 707.685 253.797 709.662 253.797C710.518 253.797 711.21 254.028 711.738 254.489C712.265 254.95 712.627 255.345 712.825 255.675C713.023 256.004 713.089 256.301 713.023 256.564C713.023 257.421 711.408 264.338 708.179 277.318C704.95 290.297 703.105 297.412 702.643 298.664C700.798 304.132 697.602 308.481 693.055 311.709C688.507 314.937 683.96 316.584 679.413 316.65C676.448 316.65 673.844 315.925 671.604 314.476C669.363 313.027 668.243 310.852 668.243 307.953C668.243 306.504 668.474 305.285 668.935 304.297C669.396 303.309 670.022 302.584 670.813 302.123C671.604 301.662 672.263 301.332 672.79 301.135C673.317 300.937 673.877 300.838 674.471 300.838C677.37 300.838 678.82 302.222 678.82 304.989C678.82 306.306 678.425 307.459 677.634 308.448C676.843 309.436 676.085 310.095 675.36 310.424C674.635 310.754 674.207 310.918 674.075 310.918L673.779 311.017C673.91 311.347 674.536 311.742 675.657 312.203C676.777 312.664 677.897 312.895 679.018 312.895H679.809C680.929 312.895 681.786 312.829 682.379 312.697C684.553 312.104 686.563 310.852 688.409 308.942C690.254 307.031 691.671 304.989 692.659 302.815C693.648 300.64 694.406 298.796 694.933 297.28C695.46 295.765 695.724 294.777 695.724 294.316L695.131 294.711C694.735 294.974 694.109 295.337 693.252 295.798C692.396 296.259 691.539 296.654 690.682 296.984C689.364 297.313 688.079 297.478 686.827 297.478C683.796 297.478 681.127 296.753 678.82 295.304C676.513 293.854 674.998 291.516 674.273 288.287C674.207 287.826 674.174 286.805 674.174 285.224C674.174 281.468 675.327 276.56 677.634 270.499C679.94 264.437 681.094 260.583 681.094 258.936C681.094 258.87 681.094 258.804 681.094 258.738C681.094 258.145 681.094 257.75 681.094 257.552C681.094 257.355 680.962 257.124 680.698 256.861C680.435 256.597 680.072 256.465 679.611 256.465H679.215C677.7 256.465 676.316 257.091 675.064 258.343C673.812 259.595 672.823 260.945 672.098 262.395C671.373 263.844 670.813 265.228 670.418 266.546C670.022 267.863 669.759 268.588 669.627 268.72C669.495 268.852 668.968 268.917 668.045 268.917H666.661C666.266 268.522 666.068 268.226 666.068 268.028Z" fill="black"/>
<path d="M719.547 222.371L719.942 222.272C720.272 222.272 720.601 222.272 720.931 222.272H722.117L724.885 224.644C731.08 230.244 735.594 237.227 738.428 245.595C741.261 253.962 742.678 262.659 742.678 271.685C742.678 276.165 742.349 280.48 741.69 284.631C741.031 288.781 740.273 292.306 739.416 295.205C738.559 298.104 737.34 301.003 735.759 303.902C734.177 306.801 732.925 309.008 732.002 310.523C731.08 312.038 729.729 313.718 727.949 315.563C726.17 317.408 725.116 318.495 724.786 318.824C724.457 319.154 723.699 319.78 722.512 320.702C722.315 320.9 722.183 321.032 722.117 321.097H720.931C720.404 321.097 720.041 321.097 719.843 321.097C719.646 321.097 719.481 320.999 719.349 320.801C719.217 320.603 719.119 320.307 719.053 319.912C719.119 319.846 719.481 319.417 720.14 318.627C730.355 308.019 735.462 292.372 735.462 271.685C735.462 250.997 730.355 235.35 720.14 224.743C719.481 223.952 719.119 223.524 719.053 223.458C719.053 222.931 719.217 222.568 719.547 222.371Z" fill="black"/>
<path d="M785.481 262.099C785.481 261.242 785.942 260.583 786.865 260.122H849.834C850.822 260.649 851.316 261.308 851.316 262.099C851.316 262.823 850.855 263.449 849.932 263.976L818.498 264.075H787.063C786.008 263.746 785.481 263.087 785.481 262.099ZM785.481 281.271C785.481 280.282 786.008 279.624 787.063 279.294H849.932C850.855 279.953 851.316 280.612 851.316 281.271C851.316 282.127 850.822 282.786 849.834 283.247H786.865C785.942 282.786 785.481 282.127 785.481 281.271Z" fill="black"/>
<path d="M817.761 192.689C816.083 192.689 814.592 192.968 813.287 193.527C811.982 194.086 811.097 194.645 810.631 195.204L809.932 195.973C810.025 195.973 810.142 195.996 810.281 196.043C810.421 196.09 810.677 196.183 811.05 196.323C811.423 196.462 811.773 196.672 812.099 196.951C812.425 197.231 812.705 197.604 812.938 198.07C813.171 198.535 813.287 199.094 813.287 199.747C813.287 200.818 812.938 201.703 812.239 202.402C811.54 203.101 810.654 203.45 809.582 203.45C808.511 203.45 807.625 203.124 806.926 202.472C806.227 201.82 805.854 200.935 805.808 199.817C805.808 197.068 806.856 194.855 808.953 193.178C811.05 191.501 813.357 190.499 815.873 190.173C815.966 190.173 816.223 190.173 816.642 190.173C817.062 190.173 817.388 190.15 817.621 190.103H817.9C820.37 190.103 822.514 190.406 824.331 191.012C826.148 191.617 827.5 192.456 828.385 193.527C829.271 194.599 829.946 195.624 830.412 196.602C830.878 197.58 831.088 198.629 831.041 199.747C831.041 202.728 829.76 205.174 827.197 207.084C822.817 210.205 820.16 213.909 819.228 218.195C818.995 219.313 818.879 220.757 818.879 222.528V223.716C818.879 224.601 818.809 225.113 818.669 225.253C818.529 225.393 818.133 225.486 817.481 225.532C816.829 225.579 816.432 225.509 816.293 225.323C816.153 225.136 816.083 224.741 816.083 224.135V221.969C816.176 218.661 816.596 215.819 817.341 213.443C818.087 211.067 818.902 209.344 819.788 208.272C820.673 207.201 821.535 206.129 822.374 205.058C823.213 203.986 823.749 202.915 823.982 201.843C824.075 201.424 824.121 200.562 824.121 199.258V198.349C824.121 197.557 824.075 196.905 823.982 196.392C823.888 195.88 823.632 195.298 823.213 194.645C822.793 193.993 822.164 193.504 821.325 193.178C820.487 192.852 819.298 192.689 817.761 192.689ZM813.287 235.106C813.287 233.802 813.706 232.777 814.545 232.031C815.384 231.286 816.409 230.913 817.621 230.913C818.693 231.006 819.625 231.402 820.417 232.101C821.209 232.8 821.605 233.802 821.605 235.106C821.605 236.504 821.209 237.552 820.417 238.251C819.625 238.949 818.646 239.299 817.481 239.299C816.316 239.299 815.337 238.949 814.545 238.251C813.753 237.552 813.334 236.504 813.287 235.106Z" fill="black"/>
<path d="M888.979 291.845H890.363C892.933 291.845 894.482 291.384 895.009 290.461V289.671C895.009 289.078 895.009 288.32 895.009 287.398C895.009 286.475 895.009 285.388 895.009 284.137C895.009 282.885 895.042 281.468 895.108 279.887C895.174 278.306 895.174 276.659 895.108 274.946C895.042 273.233 895.042 271.421 895.108 269.51C895.174 267.6 895.174 265.722 895.108 263.877C895.108 261.44 895.108 258.87 895.108 256.169C895.108 253.468 895.108 250.997 895.108 248.757C895.108 246.517 895.108 244.541 895.108 242.828C895.108 241.115 895.075 239.665 895.009 238.479C894.943 237.293 894.943 236.733 895.009 236.799C894.811 235.547 894.35 234.724 893.625 234.329C892.9 233.933 891.417 233.637 889.177 233.439H887.397V231.166C887.397 229.651 887.463 228.893 887.595 228.893L888.583 228.794C889.242 228.728 890.198 228.663 891.45 228.597C892.702 228.531 893.921 228.465 895.108 228.399C896.228 228.333 897.447 228.267 898.765 228.201C900.083 228.135 901.072 228.037 901.731 227.905C902.39 227.773 902.752 227.74 902.818 227.806H903.115V258.936C903.115 279.821 903.148 290.33 903.213 290.461C903.477 290.989 903.873 291.351 904.4 291.549C905.784 291.746 907.398 291.845 909.243 291.845H910.825V296.391H910.034L907.761 296.292C906.245 296.226 904.63 296.193 902.917 296.193C901.204 296.193 899.951 296.16 899.161 296.095C898.37 296.029 897.118 296.029 895.404 296.095C893.691 296.16 892.043 296.226 890.462 296.292L888.188 296.391H887.397V291.845H888.979Z" fill="black"/>
<path d="M919.623 236.206C919.623 234.361 920.216 232.912 921.402 231.858C922.588 230.804 924.038 230.277 925.752 230.277C927.267 230.408 928.585 230.968 929.706 231.957C930.826 232.945 931.386 234.361 931.386 236.206C931.386 238.183 930.826 239.665 929.706 240.653C928.585 241.642 927.202 242.136 925.554 242.136C923.906 242.136 922.523 241.642 921.402 240.653C920.282 239.665 919.689 238.183 919.623 236.206ZM937.219 296.391C936.23 296.193 932.803 296.095 926.938 296.095C926.213 296.095 924.994 296.095 923.28 296.095C921.567 296.095 919.919 296.16 918.338 296.292L916.163 296.391H915.372V291.845H916.954C918.799 291.845 920.414 291.746 921.798 291.549C922.391 291.285 922.753 290.923 922.885 290.461C923.017 290 923.083 288.617 923.083 286.311V276.132V267.435C923.083 264.009 923.017 261.835 922.885 260.913C922.753 259.99 922.292 259.364 921.501 259.035C920.578 258.574 919.03 258.343 916.855 258.343H915.768V256.07C915.768 254.555 915.834 253.797 915.965 253.797L916.954 253.698C917.613 253.632 918.536 253.567 919.722 253.501C920.908 253.435 922.094 253.369 923.28 253.303C924.401 253.237 925.587 253.171 926.839 253.105C928.091 253.04 929.047 252.941 929.706 252.809C930.365 252.677 930.727 252.644 930.793 252.71H931.09V290.264C931.419 290.923 931.815 291.318 932.276 291.45C932.737 291.581 933.891 291.713 935.736 291.845H938.009V296.391H937.219Z" fill="black"/>
<path d="M944.83 291.845H946.214C948.784 291.845 950.333 291.384 950.86 290.461V289.671C950.86 289.078 950.86 288.32 950.86 287.398C950.86 286.475 950.86 285.454 950.86 284.334C950.86 283.214 950.893 281.93 950.959 280.48C951.025 279.031 951.025 277.647 950.959 276.329C950.959 274.287 950.959 272.113 950.959 269.807C950.959 267.501 950.926 265.557 950.86 263.976V261.703C950.662 260.451 950.201 259.628 949.476 259.233C948.751 258.837 947.268 258.541 945.028 258.343H943.248V256.07C943.248 254.555 943.314 253.797 943.446 253.797L944.435 253.698C945.094 253.632 946.016 253.567 947.203 253.501C948.389 253.435 949.608 253.369 950.86 253.303C951.98 253.237 953.167 253.171 954.419 253.105C955.671 253.04 956.626 252.941 957.285 252.809C957.944 252.677 958.307 252.644 958.373 252.71H958.669V256.663C958.669 259.167 958.702 260.418 958.768 260.418C958.834 260.418 958.999 260.254 959.262 259.924C959.526 259.595 959.921 259.101 960.449 258.442C960.976 257.783 961.602 257.19 962.327 256.663C963.052 256.136 964.007 255.51 965.194 254.785C966.38 254.061 967.632 253.534 968.95 253.204C970.268 252.875 971.948 252.71 973.991 252.71C974.98 252.71 975.903 252.776 976.759 252.908C977.616 253.04 978.374 253.237 979.033 253.501C979.692 253.764 980.318 254.028 980.911 254.291C981.504 254.555 981.998 254.851 982.394 255.181C982.789 255.51 983.152 255.873 983.481 256.268C983.811 256.663 984.107 257.025 984.371 257.355C984.634 257.684 984.865 258.047 985.063 258.442C985.26 258.837 985.392 259.167 985.458 259.43C985.524 259.694 985.623 259.957 985.755 260.221L985.952 260.715L986.249 260.32C986.447 260.056 986.644 259.793 986.842 259.529C987.04 259.266 987.336 258.903 987.732 258.442C988.127 257.981 988.556 257.553 989.017 257.157C989.478 256.762 989.972 256.334 990.5 255.873C991.027 255.411 991.686 255.016 992.477 254.687C993.267 254.357 994.025 254.028 994.75 253.698C995.475 253.369 996.332 253.138 997.32 253.007C998.309 252.875 999.33 252.776 1000.38 252.71C1008.69 252.71 1013.2 256.433 1013.93 263.877C1013.99 264.339 1014.03 268.917 1014.03 277.614V286.113C1014.03 288.617 1014.09 290.099 1014.22 290.56C1014.36 291.021 1014.72 291.351 1015.31 291.549C1016.7 291.746 1018.31 291.845 1020.16 291.845H1021.74V296.391H1020.95L1018.67 296.292C1017.09 296.226 1015.41 296.193 1013.63 296.193C1011.85 296.193 1010.6 296.16 1009.87 296.095C1003.09 296.095 999.396 296.193 998.803 296.391H998.012V291.845H999.594C1003.61 291.845 1005.62 291.318 1005.62 290.264C1005.69 290.132 1005.72 285.586 1005.72 276.626C1005.66 267.732 1005.59 263.021 1005.53 262.494C1005.13 260.649 1004.47 259.266 1003.55 258.343C1002.63 257.421 1001.83 256.861 1001.18 256.663C1000.52 256.465 999.66 256.4 998.605 256.465C995.64 256.465 993.037 257.585 990.796 259.826C989.017 261.604 987.897 263.416 987.435 265.261C986.974 267.106 986.71 269.84 986.644 273.463V279.788V285.718C986.644 287.694 986.677 289.012 986.743 289.671C986.809 290.33 986.908 290.758 987.04 290.956C987.172 291.153 987.468 291.351 987.929 291.549C989.313 291.746 990.928 291.845 992.773 291.845H994.355V296.391H993.564L991.192 296.292C989.676 296.226 988.028 296.193 986.249 296.193C984.47 296.193 983.218 296.16 982.493 296.095C975.705 296.095 972.014 296.193 971.421 296.391H970.63V291.845H972.212C976.232 291.845 978.242 291.318 978.242 290.264C978.308 290.132 978.341 285.586 978.341 276.626C978.275 267.732 978.209 263.021 978.143 262.494C977.748 260.649 977.089 259.266 976.166 258.343C975.243 257.421 974.453 256.861 973.794 256.663C973.135 256.465 972.278 256.4 971.224 256.465C968.258 256.465 965.655 257.585 963.414 259.826C961.635 261.604 960.515 263.416 960.053 265.261C959.592 267.106 959.328 269.84 959.262 273.463V279.788V285.718C959.262 287.694 959.295 289.012 959.361 289.671C959.427 290.33 959.526 290.758 959.658 290.956C959.79 291.153 960.086 291.351 960.548 291.549C961.931 291.746 963.546 291.845 965.391 291.845H966.973V296.391H966.182L963.908 296.292C962.327 296.226 960.646 296.193 958.867 296.193C957.088 296.193 955.836 296.16 955.111 296.095C948.323 296.095 944.632 296.193 944.039 296.391H943.248V291.845H944.83Z" fill="black"/>
<path d="M887.679 336.619C887.679 335.967 888.028 334.849 888.727 333.265C889.426 331.681 890.545 330.027 892.083 328.303C893.62 326.58 895.345 325.741 897.255 325.788C899.166 325.788 900.703 326.323 901.868 327.395C903.033 328.466 903.639 329.957 903.686 331.867C903.593 332.752 903.523 333.242 903.476 333.335C903.476 333.474 903.103 334.546 902.358 336.549C901.612 338.552 900.843 340.812 900.051 343.328C899.259 345.843 898.886 347.846 898.933 349.337C898.933 351.34 899.259 352.738 899.911 353.53C900.564 354.322 901.542 354.741 902.847 354.788C903.919 354.788 904.921 354.532 905.853 354.019C906.785 353.507 907.507 352.971 908.02 352.412C908.532 351.853 909.161 351.084 909.907 350.106C909.907 350.059 910.023 349.593 910.256 348.708C910.489 347.823 910.815 346.449 911.235 344.585C911.654 342.722 912.097 340.998 912.563 339.414C914.334 332.426 915.312 328.769 915.499 328.443C916.104 327.185 917.106 326.556 918.504 326.556C919.11 326.556 919.599 326.719 919.972 327.045C920.345 327.372 920.601 327.651 920.741 327.884C920.881 328.117 920.927 328.327 920.881 328.513C920.881 329.119 919.739 334.01 917.456 343.188C915.172 352.365 913.868 357.397 913.542 358.282C912.237 362.149 909.977 365.223 906.761 367.506C903.546 369.789 900.331 370.954 897.115 371C895.018 371 893.178 370.488 891.593 369.463C890.009 368.438 889.217 366.9 889.217 364.851C889.217 363.826 889.38 362.964 889.706 362.265C890.032 361.566 890.475 361.054 891.034 360.728C891.593 360.402 892.059 360.169 892.432 360.029C892.805 359.889 893.201 359.819 893.62 359.819C895.671 359.819 896.696 360.798 896.696 362.754C896.696 363.686 896.416 364.501 895.857 365.2C895.298 365.899 894.762 366.365 894.249 366.598C893.737 366.831 893.434 366.947 893.341 366.947L893.131 367.017C893.224 367.25 893.667 367.529 894.459 367.856C895.251 368.182 896.044 368.345 896.836 368.345H897.395C898.187 368.345 898.793 368.298 899.212 368.205C900.75 367.786 902.171 366.9 903.476 365.549C904.781 364.198 905.783 362.754 906.482 361.217C907.181 359.68 907.717 358.375 908.089 357.304C908.462 356.232 908.649 355.533 908.649 355.207L908.229 355.487C907.95 355.673 907.507 355.929 906.901 356.255C906.295 356.582 905.69 356.861 905.084 357.094C904.152 357.327 903.243 357.443 902.358 357.443C900.214 357.443 898.327 356.931 896.696 355.906C895.065 354.881 893.993 353.227 893.481 350.944C893.434 350.618 893.411 349.896 893.411 348.778C893.411 346.123 894.226 342.652 895.857 338.366C897.488 334.08 898.304 331.355 898.304 330.19C898.304 330.143 898.304 330.097 898.304 330.05C898.304 329.631 898.304 329.352 898.304 329.212C898.304 329.072 898.21 328.909 898.024 328.723C897.838 328.536 897.581 328.443 897.255 328.443H896.976C895.904 328.443 894.925 328.886 894.04 329.771C893.154 330.656 892.455 331.611 891.943 332.636C891.43 333.661 891.034 334.639 890.755 335.571C890.475 336.503 890.289 337.015 890.195 337.108C890.102 337.201 889.729 337.248 889.077 337.248H888.098C887.819 336.968 887.679 336.759 887.679 336.619Z" fill="black"/>
<path d="M925.215 340.113C925.215 340.113 925.215 339.81 925.215 339.205C925.215 338.599 925.541 338.133 926.193 337.807H979.666C974.26 333.754 970.928 328.56 969.67 322.224C969.67 322.177 969.67 322.107 969.67 322.014C969.67 321.921 969.647 321.851 969.6 321.804C969.6 321.245 969.996 320.966 970.789 320.966H970.998C971.418 320.966 971.697 320.989 971.837 321.036C971.977 321.082 972.117 321.176 972.256 321.315C972.396 321.455 972.466 321.665 972.466 321.944C972.466 322.224 972.536 322.596 972.676 323.062C972.816 323.528 973.002 324.11 973.235 324.809C974.26 327.931 975.961 330.726 978.338 333.195C980.714 335.664 983.487 337.411 986.656 338.436C987.075 338.576 987.285 338.832 987.285 339.205C987.285 339.484 987.168 339.694 986.935 339.834C986.702 339.973 986.143 340.206 985.258 340.532C984.372 340.858 983.487 341.301 982.601 341.86C980.691 343.071 979.037 344.469 977.639 346.053C976.241 347.637 975.192 349.197 974.493 350.735C973.794 352.272 973.305 353.437 973.025 354.229C972.746 355.021 972.559 355.743 972.466 356.395C972.373 356.861 972.256 357.141 972.117 357.234C971.977 357.327 971.604 357.397 970.998 357.443C970.066 357.443 969.6 357.187 969.6 356.675C969.6 356.349 969.717 355.766 969.95 354.928C971.441 349.058 974.68 344.283 979.666 340.602H926.193C925.541 340.276 925.215 339.81 925.215 339.205V340.113Z" fill="black"/>
<path d="M993.925 345.564C993.925 340.486 995.929 335.92 999.936 331.867C1003.94 327.814 1008.28 325.788 1012.94 325.788C1015.55 325.788 1017.6 326.347 1019.09 327.465C1020.58 328.583 1021.35 330.05 1021.4 331.867C1021.4 333.218 1020.95 334.36 1020.07 335.291C1019.18 336.223 1018.06 336.712 1016.71 336.759C1015.83 336.759 1015.13 336.526 1014.62 336.06C1014.1 335.594 1013.85 334.895 1013.85 333.964C1013.85 333.032 1014.1 332.24 1014.62 331.588C1015.13 330.935 1015.64 330.446 1016.15 330.12C1016.67 329.794 1016.99 329.654 1017.13 329.701H1017.2C1017.2 329.608 1017.06 329.468 1016.78 329.282C1016.5 329.095 1016.01 328.909 1015.31 328.723C1014.62 328.536 1013.82 328.443 1012.94 328.443C1011.54 328.443 1010.21 328.769 1008.95 329.421C1007.97 329.841 1006.97 330.563 1005.95 331.588C1003.9 333.637 1002.41 336.526 1001.47 340.253C1000.54 343.98 1000.05 346.682 1000.01 348.359C1000.01 350.502 1000.61 352.109 1001.82 353.181C1002.85 354.299 1004.2 354.858 1005.88 354.858H1006.16C1011.38 354.858 1015.69 352.878 1019.09 348.918C1019.51 348.452 1019.79 348.219 1019.93 348.219C1020.11 348.219 1020.42 348.429 1020.84 348.848C1021.26 349.267 1021.49 349.593 1021.53 349.826C1021.58 350.059 1021.37 350.409 1020.91 350.875C1020.44 351.34 1019.76 351.993 1018.88 352.831C1017.99 353.67 1016.94 354.369 1015.73 354.928C1014.52 355.487 1013.03 356.069 1011.26 356.675C1009.49 357.28 1007.63 357.536 1005.67 357.443C1002.17 357.443 999.354 356.325 997.21 354.089C995.067 351.853 993.972 349.011 993.925 345.564Z" fill="black"/>
<path d="M1172.98 274.649H1051.89V268.72H1172.98V274.649Z" fill="black"/>
<path d="M1122.47 162.087C1122.53 162.087 1124.91 161.922 1129.58 161.593C1134.26 161.264 1136.67 161.066 1136.8 161C1137.59 161 1137.99 161.264 1137.99 161.791C1137.99 162.252 1135.58 172.2 1130.77 191.636C1125.96 211.072 1123.49 220.987 1123.36 221.382C1123.22 221.778 1123.19 222.272 1123.26 222.865C1123.26 225.632 1124.18 227.015 1126.03 227.015C1126.62 226.95 1127.28 226.653 1128 226.126C1129.39 224.808 1130.74 221.646 1132.06 216.639C1132.45 215.321 1132.78 214.629 1133.04 214.563C1133.18 214.498 1133.51 214.465 1134.03 214.465H1134.43H1134.82C1135.81 214.465 1136.31 214.728 1136.31 215.255C1136.31 215.585 1136.21 216.112 1136.01 216.836C1135.15 220.131 1134.16 222.799 1133.04 224.841C1131.92 226.884 1131 228.201 1130.28 228.794C1129.55 229.387 1128.63 229.914 1127.51 230.376C1126.98 230.507 1126.19 230.573 1125.14 230.573C1122.9 230.573 1121.02 230.079 1119.5 229.091C1117.99 228.103 1117 227.081 1116.54 226.027L1115.94 224.545C1115.88 224.479 1115.74 224.512 1115.55 224.644C1115.42 224.775 1115.28 224.907 1115.15 225.039C1111.26 228.728 1107.31 230.573 1103.29 230.573C1099.66 230.573 1096.47 229.256 1093.7 226.62C1090.93 223.985 1089.55 219.801 1089.55 214.069C1089.55 210.907 1090.21 207.679 1091.53 204.384C1092.84 201.09 1094.43 198.257 1096.27 195.885C1099.37 192.13 1102.47 189.528 1105.56 188.078C1108.66 186.629 1111.46 185.904 1113.97 185.904C1117.66 185.904 1120.42 187.288 1122.27 190.055C1122.6 190.45 1122.76 190.582 1122.76 190.45C1122.83 190.186 1123.72 186.596 1125.43 179.678C1127.15 172.76 1128.07 169.104 1128.2 168.708C1128.2 167.852 1127.97 167.325 1127.51 167.127C1127.05 166.93 1125.76 166.765 1123.65 166.633H1121.58C1121.18 166.238 1120.98 165.974 1120.98 165.842C1120.98 165.711 1121.05 165.085 1121.18 163.965C1121.51 162.713 1121.94 162.087 1122.47 162.087ZM1121.08 197.368C1119.57 192.163 1117.1 189.561 1113.67 189.561C1111.36 189.561 1109.15 190.582 1107.05 192.624C1104.94 194.667 1103.29 197.335 1102.1 200.629C1100.19 205.834 1098.84 211.236 1098.05 216.836C1098.05 217.034 1098.05 217.396 1098.05 217.924C1098.05 218.451 1098.02 218.846 1097.95 219.109C1097.95 222.074 1098.54 224.117 1099.73 225.237C1100.92 226.357 1102.33 226.95 1103.98 227.015C1107.54 227.015 1111.2 224.644 1114.95 219.9L1115.74 218.813L1121.08 197.368Z" fill="black"/>
<path d="M1094 297.577C1094.06 297.577 1096.44 297.412 1101.11 297.083C1105.79 296.753 1108.2 296.556 1108.33 296.49C1109.12 296.49 1109.52 296.753 1109.52 297.28C1109.52 297.742 1107.11 307.69 1102.3 327.126C1097.49 346.561 1095.02 356.477 1094.89 356.872C1094.76 357.268 1094.72 357.762 1094.79 358.355C1094.79 361.122 1095.71 362.505 1097.56 362.505C1098.15 362.439 1098.81 362.143 1099.53 361.616C1100.92 360.298 1102.27 357.136 1103.59 352.129C1103.98 350.811 1104.31 350.119 1104.57 350.053C1104.71 349.987 1105.04 349.954 1105.56 349.954H1105.96H1106.35C1107.34 349.954 1107.84 350.218 1107.84 350.745C1107.84 351.074 1107.74 351.602 1107.54 352.326C1106.68 355.62 1105.69 358.289 1104.57 360.331C1103.45 362.374 1102.53 363.691 1101.81 364.284C1101.08 364.877 1100.16 365.404 1099.04 365.865C1098.51 365.997 1097.72 366.063 1096.67 366.063C1094.43 366.063 1092.55 365.569 1091.03 364.581C1089.52 363.592 1088.53 362.571 1088.07 361.517L1087.47 360.035C1087.41 359.969 1087.28 360.002 1087.08 360.133C1086.95 360.265 1086.81 360.397 1086.68 360.529C1082.79 364.218 1078.84 366.063 1074.82 366.063C1071.2 366.063 1068 364.745 1065.23 362.11C1062.46 359.475 1061.08 355.291 1061.08 349.559C1061.08 346.397 1061.74 343.168 1063.06 339.874C1064.37 336.58 1065.96 333.747 1067.8 331.375C1070.9 327.62 1074 325.017 1077.09 323.568C1080.19 322.119 1082.99 321.394 1085.5 321.394C1089.19 321.394 1091.95 322.777 1093.8 325.545C1094.13 325.94 1094.29 326.072 1094.29 325.94C1094.36 325.676 1095.25 322.086 1096.96 315.168C1098.68 308.25 1099.6 304.593 1099.73 304.198C1099.73 303.342 1099.5 302.815 1099.04 302.617C1098.58 302.419 1097.29 302.255 1095.18 302.123H1093.11C1092.71 301.728 1092.51 301.464 1092.51 301.332C1092.51 301.2 1092.58 300.575 1092.71 299.455C1093.04 298.203 1093.47 297.577 1094 297.577ZM1092.61 332.858C1091.1 327.653 1088.63 325.05 1085.2 325.05C1082.89 325.05 1080.69 326.072 1078.58 328.114C1076.47 330.156 1074.82 332.825 1073.63 336.119C1071.72 341.324 1070.37 346.726 1069.58 352.326C1069.58 352.524 1069.58 352.886 1069.58 353.413C1069.58 353.94 1069.55 354.336 1069.48 354.599C1069.48 357.564 1070.08 359.606 1071.26 360.726C1072.45 361.846 1073.86 362.439 1075.51 362.505C1079.07 362.505 1082.73 360.133 1086.48 355.39L1087.28 354.303L1092.61 332.858Z" fill="black"/>
<path d="M1115.15 336.514C1115.61 333.747 1117.39 330.552 1120.49 326.928C1123.59 323.305 1127.41 321.46 1131.96 321.394C1134.26 321.394 1136.37 321.987 1138.28 323.173C1140.19 324.359 1141.61 325.841 1142.53 327.62C1145.3 323.469 1148.63 321.394 1152.52 321.394C1154.96 321.394 1157.06 322.119 1158.84 323.568C1160.62 325.017 1161.55 326.961 1161.61 329.399C1161.61 331.309 1161.15 332.858 1160.23 334.044C1159.31 335.229 1158.42 335.954 1157.56 336.218C1156.7 336.481 1155.94 336.613 1155.29 336.613C1154.03 336.613 1153.01 336.251 1152.22 335.526C1151.43 334.801 1151.03 333.846 1151.03 332.66C1151.03 329.629 1152.68 327.554 1155.98 326.434C1155.25 325.578 1153.93 325.149 1152.02 325.149C1151.17 325.149 1150.54 325.215 1150.15 325.347C1147.64 326.401 1145.8 328.575 1144.61 331.869C1140.66 346.43 1138.68 354.929 1138.68 357.366C1138.68 359.211 1139.21 360.529 1140.26 361.319C1141.31 362.11 1142.47 362.505 1143.72 362.505C1146.16 362.505 1148.56 361.418 1150.94 359.244C1153.31 357.07 1154.92 354.402 1155.78 351.239C1155.98 350.58 1156.18 350.218 1156.37 350.152C1156.57 350.086 1157.1 350.02 1157.95 349.954H1158.35C1159.34 349.954 1159.83 350.218 1159.83 350.745C1159.83 350.811 1159.77 351.173 1159.64 351.832C1158.58 355.588 1156.54 358.915 1153.51 361.814C1150.47 364.712 1146.95 366.162 1142.93 366.162C1138.32 366.162 1134.82 364.087 1132.45 359.936C1129.75 364.021 1126.65 366.063 1123.16 366.063H1122.57C1119.34 366.063 1117.03 365.207 1115.65 363.494C1114.26 361.781 1113.54 359.969 1113.47 358.058C1113.47 355.95 1114.1 354.237 1115.35 352.919C1116.6 351.602 1118.08 350.943 1119.8 350.943C1122.63 350.943 1124.05 352.326 1124.05 355.093C1124.05 356.411 1123.65 357.564 1122.86 358.552C1122.07 359.541 1121.31 360.199 1120.59 360.529C1119.86 360.858 1119.44 361.023 1119.3 361.023L1119.01 361.122C1119.01 361.188 1119.2 361.319 1119.6 361.517C1120 361.715 1120.52 361.945 1121.18 362.209C1121.84 362.472 1122.47 362.571 1123.06 362.505C1125.43 362.505 1127.48 361.023 1129.19 358.058C1129.78 357.004 1130.54 354.764 1131.46 351.338C1132.38 347.912 1133.31 344.354 1134.23 340.665C1135.15 336.975 1135.68 334.801 1135.81 334.142C1136.14 332.364 1136.31 331.079 1136.31 330.288C1136.31 328.443 1135.81 327.126 1134.82 326.335C1133.83 325.545 1132.71 325.149 1131.46 325.149C1128.83 325.149 1126.35 326.203 1124.05 328.312C1121.74 330.42 1120.13 333.121 1119.2 336.415C1119.07 337.008 1118.91 337.338 1118.71 337.404C1118.51 337.47 1117.99 337.535 1117.13 337.601H1115.74C1115.35 337.206 1115.15 336.844 1115.15 336.514Z" fill="black"/>
<path d="M1213.01 312.401C1213.15 312.401 1213.34 312.467 1213.61 312.598C1213.87 312.73 1214.23 312.829 1214.7 312.895C1215.16 312.961 1215.55 312.994 1215.88 312.994C1216.74 312.994 1217.53 312.565 1218.25 311.709C1218.98 310.852 1219.51 309.897 1219.84 308.843C1220.49 307.064 1221.61 302.024 1223.2 293.723C1224.78 285.421 1226.29 277.515 1227.74 270.004C1229.19 262.494 1229.92 258.705 1229.92 258.64V258.343H1225.27C1222.18 258.343 1220.53 258.277 1220.33 258.145C1220.07 257.948 1219.93 257.618 1219.93 257.157L1220.63 254.39C1220.76 254.061 1221.02 253.896 1221.42 253.896C1221.81 253.896 1223.36 253.863 1226.06 253.797C1229.23 253.797 1230.81 253.764 1230.81 253.698C1230.81 253.567 1231.1 251.919 1231.7 248.757C1232.29 245.595 1232.69 243.684 1232.88 243.025C1235.32 232.154 1240.13 226.719 1247.32 226.719C1249.75 226.851 1251.76 227.575 1253.35 228.893C1254.93 230.211 1255.72 231.957 1255.72 234.131C1255.72 236.503 1255.03 238.216 1253.64 239.27C1252.26 240.324 1250.88 240.884 1249.49 240.95C1246.59 240.95 1245.14 239.566 1245.14 236.799C1245.14 235.547 1245.5 234.46 1246.23 233.538C1246.95 232.615 1247.74 231.924 1248.6 231.463L1249.49 230.968C1248.44 230.573 1247.45 230.375 1246.53 230.375C1245.73 230.375 1244.98 230.705 1244.25 231.364C1243.53 232.023 1243.03 232.945 1242.77 234.131C1242.31 236.041 1241.78 238.611 1241.19 241.839C1240.59 245.068 1240.07 247.802 1239.61 250.042C1239.14 252.282 1238.91 253.468 1238.91 253.599C1238.91 253.731 1240.73 253.797 1244.35 253.797C1247.32 253.797 1249.03 253.83 1249.49 253.896C1249.95 253.962 1250.31 254.159 1250.58 254.489C1250.64 254.752 1250.58 255.312 1250.38 256.169C1250.18 257.025 1250.02 257.552 1249.89 257.75C1249.75 258.08 1249.46 258.244 1249 258.244C1248.54 258.244 1246.76 258.277 1243.66 258.343H1238.12L1235.85 270.4C1232.69 286.739 1230.48 296.951 1229.23 301.036C1227.45 306.636 1225.14 310.786 1222.31 313.488C1219.87 315.596 1217.46 316.65 1215.09 316.65C1212.98 316.65 1211.07 316.024 1209.36 314.772C1207.64 313.521 1206.79 311.742 1206.79 309.436C1206.79 306.998 1207.48 305.219 1208.86 304.099C1210.25 302.979 1211.63 302.419 1213.01 302.419C1215.91 302.419 1217.36 303.803 1217.36 306.57C1217.36 307.822 1217 308.909 1216.28 309.831C1215.55 310.754 1214.76 311.445 1213.9 311.907L1213.01 312.401Z" fill="black"/>
<path d="M1265.51 271.685C1265.51 267.139 1265.83 262.823 1266.49 258.738C1267.15 254.654 1267.91 251.129 1268.77 248.164C1269.62 245.199 1270.84 242.301 1272.42 239.468C1274.01 236.635 1275.26 234.427 1276.18 232.846C1277.1 231.265 1278.49 229.552 1280.33 227.707C1282.18 225.863 1283.27 224.743 1283.6 224.347C1283.92 223.952 1284.75 223.26 1286.07 222.272H1287.35H1287.75C1288.67 222.272 1289.13 222.568 1289.13 223.161C1289.13 223.359 1288.57 224.051 1287.45 225.237C1286.33 226.423 1284.98 228.168 1283.4 230.474C1281.82 232.78 1280.2 235.613 1278.55 238.973C1276.91 242.333 1275.52 246.879 1274.4 252.611C1273.28 258.343 1272.72 264.701 1272.72 271.685C1272.72 278.668 1273.28 284.993 1274.4 290.659C1275.52 296.325 1276.87 300.904 1278.45 304.396C1280.04 307.888 1281.65 310.721 1283.3 312.895C1284.95 315.069 1286.33 316.815 1287.45 318.133C1288.57 319.45 1289.13 320.142 1289.13 320.208C1289.13 320.801 1288.64 321.097 1287.65 321.097H1287.35H1286.07L1283.3 318.726C1277.1 313.125 1272.59 306.142 1269.76 297.775C1266.92 289.407 1265.51 280.711 1265.51 271.685Z" fill="black"/>
<path d="M1300.3 267.83C1300.76 265.063 1302.54 261.868 1305.64 258.244C1308.74 254.621 1312.56 252.776 1317.11 252.71C1319.41 252.71 1321.52 253.303 1323.43 254.489C1325.34 255.675 1326.76 257.157 1327.68 258.936C1330.45 254.785 1333.78 252.71 1337.67 252.71C1340.11 252.71 1342.21 253.435 1343.99 254.884C1345.77 256.334 1346.7 258.277 1346.76 260.715C1346.76 262.626 1346.3 264.174 1345.38 265.36C1344.45 266.546 1343.57 267.27 1342.71 267.534C1341.85 267.797 1341.09 267.929 1340.43 267.929C1339.18 267.929 1338.16 267.567 1337.37 266.842C1336.58 266.117 1336.18 265.162 1336.18 263.976C1336.18 260.946 1337.83 258.87 1341.13 257.75C1340.4 256.894 1339.08 256.465 1337.17 256.465C1336.32 256.465 1335.69 256.531 1335.29 256.663C1332.79 257.717 1330.95 259.891 1329.76 263.186C1325.8 277.746 1323.83 286.245 1323.83 288.683C1323.83 290.527 1324.36 291.845 1325.41 292.636C1326.46 293.426 1327.62 293.821 1328.87 293.821C1331.31 293.821 1333.71 292.734 1336.09 290.56C1338.46 288.386 1340.07 285.718 1340.93 282.555C1341.13 281.897 1341.32 281.534 1341.52 281.468C1341.72 281.402 1342.25 281.337 1343.1 281.271H1343.5C1344.49 281.271 1344.98 281.534 1344.98 282.061C1344.98 282.127 1344.92 282.489 1344.78 283.148C1343.73 286.904 1341.69 290.231 1338.66 293.13C1335.62 296.029 1332.1 297.478 1328.08 297.478C1323.47 297.478 1319.97 295.403 1317.6 291.252C1314.9 295.337 1311.8 297.379 1308.31 297.379H1307.71C1304.49 297.379 1302.18 296.523 1300.8 294.81C1299.41 293.097 1298.69 291.285 1298.62 289.374C1298.62 287.266 1299.25 285.553 1300.5 284.235C1301.75 282.918 1303.23 282.259 1304.95 282.259C1307.78 282.259 1309.2 283.642 1309.2 286.41C1309.2 287.727 1308.8 288.88 1308.01 289.868C1307.22 290.857 1306.46 291.516 1305.74 291.845C1305.01 292.174 1304.58 292.339 1304.45 292.339L1304.16 292.438C1304.16 292.504 1304.35 292.636 1304.75 292.833C1305.14 293.031 1305.67 293.261 1306.33 293.525C1306.99 293.789 1307.62 293.887 1308.21 293.821C1310.58 293.821 1312.62 292.339 1314.34 289.374C1314.93 288.32 1315.69 286.08 1316.61 282.654C1317.53 279.228 1318.46 275.671 1319.38 271.981C1320.3 268.292 1320.83 266.117 1320.96 265.459C1321.29 263.68 1321.46 262.395 1321.46 261.604C1321.46 259.76 1320.96 258.442 1319.97 257.651C1318.98 256.861 1317.86 256.465 1316.61 256.465C1313.98 256.465 1311.5 257.52 1309.2 259.628C1306.89 261.736 1305.28 264.437 1304.35 267.732C1304.22 268.324 1304.06 268.654 1303.86 268.72C1303.66 268.786 1303.13 268.852 1302.28 268.917H1300.89C1300.5 268.522 1300.3 268.16 1300.3 267.83Z" fill="black"/>
<path d="M1359.91 292.932C1359.91 292.932 1359.91 292.109 1359.91 290.461C1359.91 288.814 1360.44 287.398 1361.49 286.212C1362.54 285.026 1363.96 284.433 1365.74 284.433C1367.59 284.433 1369.23 285.257 1370.68 286.904C1372.13 288.551 1372.89 291.45 1372.96 295.6C1372.96 297.906 1372.66 300.146 1372.07 302.321C1371.47 304.495 1370.78 306.372 1369.99 307.954C1369.2 309.535 1368.34 310.885 1367.42 312.005C1366.5 313.125 1365.71 314.015 1365.05 314.674C1364.39 315.333 1363.96 315.629 1363.76 315.563C1363.5 315.563 1363.07 315.267 1362.48 314.674C1361.89 314.081 1361.59 313.653 1361.59 313.389C1361.59 313.125 1361.95 312.598 1362.68 311.808C1363.4 311.017 1364.23 310.029 1365.15 308.843C1366.07 307.657 1366.93 306.01 1367.72 303.902C1368.51 301.793 1369.04 299.389 1369.3 296.687V295.502L1369.2 295.6C1369.07 295.666 1368.9 295.732 1368.71 295.798C1368.51 295.864 1368.31 295.963 1368.11 296.095C1367.92 296.226 1367.62 296.292 1367.22 296.292C1366.83 296.292 1366.43 296.325 1366.04 296.391C1364.26 296.391 1362.81 295.831 1361.69 294.711L1359.91 292.932Z" fill="black"/>
<path d="M1398.76 268.028C1398.76 267.106 1399.25 265.524 1400.24 263.284C1401.23 261.044 1402.81 258.705 1404.99 256.268C1407.16 253.83 1409.6 252.644 1412.3 252.71C1415 252.71 1417.18 253.468 1418.82 254.983C1420.47 256.498 1421.33 258.607 1421.39 261.308C1421.26 262.56 1421.16 263.251 1421.1 263.383C1421.1 263.581 1420.57 265.096 1419.52 267.929C1418.46 270.762 1417.37 273.958 1416.25 277.515C1415.13 281.073 1414.61 283.906 1414.67 286.014C1414.67 288.847 1415.13 290.824 1416.06 291.944C1416.98 293.064 1418.36 293.657 1420.21 293.723C1421.72 293.723 1423.14 293.36 1424.46 292.636C1425.78 291.911 1426.8 291.153 1427.52 290.363C1428.25 289.572 1429.14 288.485 1430.19 287.101C1430.19 287.035 1430.36 286.377 1430.69 285.125C1431.02 283.873 1431.48 281.929 1432.07 279.294C1432.66 276.659 1433.29 274.221 1433.95 271.981C1436.45 262.098 1437.84 256.927 1438.1 256.465C1438.96 254.687 1440.37 253.797 1442.35 253.797C1443.21 253.797 1443.9 254.028 1444.43 254.489C1444.95 254.95 1445.32 255.345 1445.51 255.675C1445.71 256.004 1445.78 256.301 1445.71 256.564C1445.71 257.421 1444.1 264.338 1440.87 277.318C1437.64 290.297 1435.79 297.412 1435.33 298.664C1433.49 304.132 1430.29 308.481 1425.74 311.709C1421.2 314.937 1416.65 316.584 1412.1 316.65C1409.14 316.65 1406.53 315.925 1404.29 314.476C1402.05 313.027 1400.93 310.852 1400.93 307.953C1400.93 306.504 1401.16 305.285 1401.62 304.297C1402.09 303.309 1402.71 302.584 1403.5 302.123C1404.29 301.662 1404.95 301.332 1405.48 301.135C1406.01 300.937 1406.57 300.838 1407.16 300.838C1410.06 300.838 1411.51 302.222 1411.51 304.989C1411.51 306.306 1411.11 307.459 1410.32 308.448C1409.53 309.436 1408.77 310.095 1408.05 310.424C1407.32 310.754 1406.9 310.918 1406.76 310.918L1406.47 311.017C1406.6 311.347 1407.23 311.742 1408.35 312.203C1409.47 312.664 1410.59 312.895 1411.71 312.895H1412.5C1413.62 312.895 1414.47 312.829 1415.07 312.697C1417.24 312.104 1419.25 310.852 1421.1 308.942C1422.94 307.031 1424.36 304.989 1425.35 302.815C1426.34 300.64 1427.09 298.796 1427.62 297.28C1428.15 295.765 1428.41 294.777 1428.41 294.316L1427.82 294.711C1427.42 294.974 1426.8 295.337 1425.94 295.798C1425.08 296.259 1424.23 296.654 1423.37 296.984C1422.05 297.313 1420.77 297.478 1419.52 297.478C1416.48 297.478 1413.82 296.753 1411.51 295.304C1409.2 293.854 1407.69 291.516 1406.96 288.287C1406.9 287.826 1406.86 286.805 1406.86 285.224C1406.86 281.468 1408.02 276.56 1410.32 270.499C1412.63 264.437 1413.78 260.583 1413.78 258.936C1413.78 258.87 1413.78 258.804 1413.78 258.738C1413.78 258.145 1413.78 257.75 1413.78 257.552C1413.78 257.355 1413.65 257.124 1413.39 256.861C1413.12 256.597 1412.76 256.465 1412.3 256.465H1411.9C1410.39 256.465 1409.01 257.091 1407.75 258.343C1406.5 259.595 1405.51 260.945 1404.79 262.395C1404.06 263.844 1403.5 265.228 1403.11 266.546C1402.71 267.863 1402.45 268.588 1402.32 268.72C1402.18 268.852 1401.66 268.917 1400.73 268.917H1399.35C1398.96 268.522 1398.76 268.226 1398.76 268.028Z" fill="black"/>
<path d="M1452.24 222.371L1452.63 222.272C1452.96 222.272 1453.29 222.272 1453.62 222.272H1454.81L1457.57 224.644C1463.77 230.244 1468.28 237.227 1471.12 245.595C1473.95 253.962 1475.37 262.659 1475.37 271.685C1475.37 276.165 1475.04 280.48 1474.38 284.631C1473.72 288.781 1472.96 292.306 1472.11 295.205C1471.25 298.104 1470.03 301.003 1468.45 303.902C1466.87 306.801 1465.61 309.008 1464.69 310.523C1463.77 312.038 1462.42 313.718 1460.64 315.563C1458.86 317.408 1457.8 318.495 1457.48 318.824C1457.15 319.154 1456.39 319.78 1455.2 320.702C1455 320.9 1454.87 321.032 1454.81 321.097H1453.62C1453.09 321.097 1452.73 321.097 1452.53 321.097C1452.34 321.097 1452.17 320.999 1452.04 320.801C1451.91 320.603 1451.81 320.307 1451.74 319.912C1451.81 319.846 1452.17 319.417 1452.83 318.627C1463.04 308.019 1468.15 292.372 1468.15 271.685C1468.15 250.997 1463.04 235.35 1452.83 224.743C1452.17 223.952 1451.81 223.524 1451.74 223.458C1451.74 222.931 1451.91 222.568 1452.24 222.371Z" fill="black"/>
</svg>
