<svg width="1640" height="531" viewBox="0 0 1640 531" fill="none" xmlns="http://www.w3.org/2000/svg">
<g clip-path="url(#clip0_24_143)">
<rect width="1640" height="531" fill="black"/>
<path d="M30 30H1610V501H30V30Z" fill="white"/>
<path d="M221.362 354.537C222.348 355.96 223.744 356.672 225.551 356.672H225.715C227.248 356.672 228.781 355.03 230.314 351.746C231.847 348.461 233.27 343.973 234.584 338.28C235.898 332.587 237.13 326.866 238.28 321.119C239.43 315.371 240.58 309.158 241.729 302.48C241.894 301.33 242.03 300.482 242.14 299.935C246.082 276.67 250.352 255.103 254.951 235.232C259.55 215.362 262.89 202.443 264.971 196.477C265.299 195.491 265.573 194.67 265.792 194.013C266.011 193.357 266.476 192.152 267.188 190.401C267.9 188.649 268.639 187.116 269.405 185.803C270.172 184.489 271.103 183.148 272.198 181.779C273.293 180.411 274.497 179.316 275.811 178.495C277.125 177.674 278.521 177.291 280 177.345C283.066 177.345 285.365 178.303 286.898 180.219C288.431 182.135 289.307 184.325 289.526 186.788C289.526 188.156 289.198 189.251 288.541 190.072C287.884 190.893 287.254 191.413 286.652 191.632C286.049 191.851 285.447 191.933 284.845 191.879C283.695 191.879 282.655 191.468 281.724 190.647C280.793 189.826 280.328 188.704 280.328 187.28C280.328 184.653 281.779 183.093 284.681 182.6L284.434 182.272C284.27 182.108 284.051 181.916 283.777 181.697C283.504 181.478 283.285 181.314 283.12 181.204C282.299 180.657 281.396 180.383 280.41 180.383C279.644 180.383 278.932 180.712 278.275 181.369C277.618 182.026 276.742 183.558 275.647 185.967C274.552 188.375 273.484 191.55 272.444 195.491C271.404 199.433 270.117 204.989 268.584 212.16C267.051 219.331 265.518 227.76 263.985 237.449C260.755 255.787 257.388 273.112 253.884 289.425C250.38 305.737 247.642 317.561 245.671 324.896C243.7 332.231 242.195 337.486 241.154 340.661C236.939 353.415 231.737 359.792 225.551 359.792C223.361 359.792 221.362 358.944 219.556 357.247C217.749 355.55 216.736 353.223 216.517 350.268C216.517 348.352 217.037 347.038 218.077 346.326C219.118 345.615 220.158 345.259 221.198 345.259C222.348 345.259 223.388 345.669 224.319 346.491C225.25 347.312 225.715 348.434 225.715 349.857C225.715 352.485 224.264 354.045 221.362 354.537Z" fill="black"/>
<path d="M315.018 162.153C315.018 159.366 315.56 157.972 316.644 157.972C317.341 157.972 317.69 158.301 317.69 158.959C317.69 159.153 317.631 159.598 317.515 160.295C317.399 160.992 317.341 161.553 317.341 161.979C317.341 162.404 317.36 162.695 317.399 162.849V163.082H317.748C318.793 162.966 319.664 162.908 320.361 162.908C323.574 162.908 325.181 163.546 325.181 164.824C325.026 166.294 323.381 167.068 320.245 167.146H319.432C318.735 167.146 318.212 167.088 317.864 166.972C317.515 166.856 316.993 166.527 316.296 165.985C315.018 166.604 313.779 167.785 312.579 169.526C311.379 171.268 310.779 173.204 310.779 175.332C310.779 176.261 310.895 177.055 311.127 177.713C311.36 178.371 311.553 178.797 311.708 178.99C311.863 179.184 311.999 179.28 312.115 179.28C313.973 178.893 315.522 178.7 316.76 178.7C319.741 178.7 321.232 179.339 321.232 180.616C321.193 181.274 320.883 181.777 320.303 182.125C319.722 182.474 319.103 182.687 318.444 182.764C317.786 182.841 316.877 182.88 315.715 182.88C313.934 182.88 312.541 182.725 311.534 182.416L310.779 182.242C308.998 183.248 307.527 184.641 306.366 186.422C305.204 188.202 304.604 189.828 304.565 191.299C304.565 191.841 304.604 192.267 304.682 192.576C305.107 193.699 305.862 194.57 306.946 195.189C308.03 195.808 309.966 196.64 312.753 197.686C313.102 197.802 313.373 197.898 313.566 197.976C317.206 199.369 319.354 200.298 320.012 200.763C321.135 201.537 321.696 202.717 321.696 204.304C321.696 205.969 321.077 207.459 319.838 208.775C318.599 210.091 317.089 210.749 315.309 210.749C314.031 210.749 312.657 210.459 311.186 209.878C309.714 209.298 308.863 208.852 308.63 208.543C308.553 208.388 308.514 208.233 308.514 208.078C308.514 207.769 308.611 207.517 308.805 207.323C308.998 207.13 309.289 207.014 309.676 206.975C309.908 206.975 310.16 207.033 310.431 207.149C312.095 208.117 313.741 208.601 315.367 208.601C315.831 208.601 316.18 208.543 316.412 208.427C317.225 207.885 317.631 207.188 317.631 206.336C317.631 205.678 317.399 205.195 316.935 204.885C316.47 204.575 315.134 204.014 312.928 203.201C312.231 202.93 311.689 202.717 311.302 202.563C311.069 202.485 310.431 202.253 309.385 201.866C308.34 201.479 307.663 201.208 307.353 201.053C307.043 200.898 306.482 200.627 305.669 200.24C304.856 199.853 304.294 199.543 303.985 199.311C303.675 199.079 303.249 198.692 302.707 198.15C302.165 197.608 301.778 197.124 301.546 196.698C301.313 196.273 301.12 195.711 300.965 195.015C300.81 194.318 300.713 193.602 300.675 192.867C300.675 191.086 301.333 189.093 302.649 186.886C303.965 184.68 305.708 182.841 307.876 181.371L308.398 181.022L308.05 180.674C307.779 180.442 307.546 180.248 307.353 180.093C307.159 179.938 306.927 179.648 306.656 179.222C306.385 178.797 306.133 178.41 305.901 178.061C305.669 177.713 305.514 177.248 305.437 176.668C305.359 176.087 305.282 175.487 305.204 174.868C305.204 172.623 306.056 170.475 307.759 168.423C309.463 166.372 311.708 164.862 314.496 163.895L315.192 163.604C315.076 163.178 315.018 162.695 315.018 162.153Z" fill="black"/>
<path d="M259.967 354.39C259.967 350.48 261.438 346.764 264.38 343.242C267.322 339.72 270.633 337.939 274.31 337.901C276.285 337.901 278.027 338.849 279.537 340.746C280.156 339.584 281.047 339.004 282.208 339.004C282.711 339.004 283.157 339.159 283.544 339.468C283.931 339.778 284.124 340.165 284.124 340.629C284.124 341.133 283.408 344.229 281.976 349.919C280.543 355.609 279.808 358.822 279.769 359.557C279.769 360.525 279.905 361.163 280.176 361.473C280.447 361.783 280.853 361.957 281.395 361.996C281.743 361.957 282.131 361.783 282.556 361.473C283.369 360.699 284.163 358.841 284.937 355.899C285.17 355.125 285.363 354.719 285.518 354.68C285.596 354.641 285.789 354.622 286.099 354.622H286.331C287.067 354.622 287.434 354.796 287.434 355.144C287.434 355.377 287.338 355.899 287.144 356.712C286.951 357.525 286.563 358.57 285.983 359.847C285.402 361.125 284.783 362.092 284.124 362.75C283.621 363.253 283.002 363.66 282.266 363.97C281.956 364.047 281.492 364.086 280.872 364.086C279.556 364.086 278.453 363.795 277.562 363.215C276.672 362.634 276.091 362.034 275.82 361.415L275.472 360.544C275.433 360.505 275.356 360.525 275.24 360.602C275.162 360.68 275.085 360.757 275.007 360.834C272.723 363.002 270.4 364.086 268.039 364.086C265.909 364.086 264.032 363.312 262.406 361.763C260.78 360.215 259.967 357.757 259.967 354.39ZM278.433 344.461C278.433 344.229 278.337 343.803 278.143 343.184C277.95 342.565 277.504 341.887 276.807 341.152C276.111 340.417 275.22 340.029 274.136 339.991C272.781 339.991 271.484 340.591 270.245 341.791C269.007 342.991 268.039 344.558 267.342 346.493C266.219 349.551 265.425 352.725 264.961 356.015C264.961 356.131 264.961 356.344 264.961 356.654C264.961 356.964 264.942 357.196 264.903 357.351C264.903 359.093 265.251 360.292 265.948 360.95C266.645 361.608 267.477 361.957 268.445 361.996C269.916 361.996 271.368 361.357 272.801 360.08C274.233 358.802 275.085 357.815 275.356 357.118C275.433 356.964 275.956 354.893 276.924 350.906C277.891 346.919 278.395 344.771 278.433 344.461Z" fill="black"/>
<path d="M357.033 302.316C357.142 302.316 357.307 302.37 357.526 302.48C357.745 302.589 358.046 302.672 358.429 302.726C358.812 302.781 359.141 302.808 359.414 302.808C360.126 302.808 360.783 302.453 361.385 301.741C361.988 301.029 362.426 300.236 362.699 299.36C363.247 297.882 364.178 293.694 365.492 286.797C366.806 279.9 368.065 273.331 369.269 267.091C370.474 260.851 371.076 257.703 371.076 257.648V257.402H367.216C364.643 257.402 363.274 257.347 363.11 257.238C362.891 257.073 362.782 256.8 362.782 256.417L363.356 254.118C363.466 253.844 363.685 253.707 364.013 253.707C364.342 253.707 365.629 253.68 367.873 253.625C370.501 253.625 371.815 253.598 371.815 253.543C371.815 253.433 372.062 252.065 372.554 249.437C373.047 246.81 373.376 245.222 373.54 244.675C375.566 235.643 379.562 231.127 385.53 231.127C387.556 231.236 389.226 231.839 390.54 232.933C391.854 234.028 392.511 235.479 392.511 237.285C392.511 239.256 391.936 240.679 390.786 241.555C389.636 242.431 388.487 242.896 387.337 242.951C384.928 242.951 383.723 241.801 383.723 239.502C383.723 238.462 384.025 237.559 384.627 236.792C385.229 236.026 385.886 235.451 386.598 235.068L387.337 234.658C386.461 234.329 385.64 234.165 384.873 234.165C384.216 234.165 383.587 234.439 382.984 234.986C382.382 235.533 381.971 236.3 381.752 237.285C381.369 238.873 380.931 241.007 380.438 243.69C379.946 246.372 379.508 248.644 379.124 250.505C378.741 252.366 378.55 253.351 378.55 253.461C378.55 253.57 380.055 253.625 383.066 253.625C385.53 253.625 386.954 253.652 387.337 253.707C387.72 253.762 388.021 253.926 388.24 254.2C388.295 254.419 388.24 254.884 388.076 255.596C387.912 256.307 387.775 256.745 387.665 256.909C387.556 257.183 387.31 257.32 386.926 257.32C386.543 257.32 385.065 257.347 382.492 257.402H377.893L376.004 267.419C373.376 280.995 371.542 289.479 370.501 292.873C369.023 297.526 367.107 300.975 364.753 303.219C362.727 304.971 360.728 305.846 358.757 305.846C357.005 305.846 355.418 305.326 353.994 304.286C352.571 303.246 351.859 301.768 351.859 299.852C351.859 297.827 352.434 296.349 353.584 295.419C354.733 294.488 355.883 294.023 357.033 294.023C359.442 294.023 360.646 295.172 360.646 297.471C360.646 298.511 360.345 299.415 359.743 300.181C359.141 300.947 358.484 301.522 357.772 301.905L357.033 302.316Z" fill="black"/>
<path d="M400.641 268.487C400.641 264.71 400.915 261.124 401.462 257.73C402.01 254.336 402.64 251.408 403.351 248.945C404.063 246.481 405.076 244.073 406.39 241.719C407.704 239.365 408.744 237.531 409.511 236.218C410.277 234.904 411.427 233.481 412.96 231.948C414.493 230.415 415.396 229.485 415.67 229.156C415.944 228.828 416.628 228.253 417.723 227.432H418.791H419.119C419.886 227.432 420.269 227.678 420.269 228.171C420.269 228.335 419.804 228.91 418.873 229.895C417.942 230.881 416.82 232.331 415.506 234.247C414.192 236.163 412.85 238.517 411.482 241.308C410.113 244.1 408.963 247.877 408.032 252.639C407.102 257.402 406.636 262.684 406.636 268.487C406.636 274.289 407.102 279.544 408.032 284.252C408.963 288.959 410.086 292.764 411.4 295.665C412.714 298.566 414.055 300.92 415.424 302.726C416.792 304.533 417.942 305.983 418.873 307.078C419.804 308.173 420.269 308.748 420.269 308.802C420.269 309.295 419.858 309.541 419.037 309.541H418.791H417.723L415.424 307.571C410.277 302.918 406.527 297.115 404.173 290.163C401.818 283.212 400.641 275.986 400.641 268.487Z" fill="black"/>
<path d="M429.549 265.284C429.932 262.985 431.411 260.331 433.984 257.32C436.557 254.309 439.733 252.776 443.511 252.722C445.427 252.722 447.179 253.214 448.767 254.2C450.354 255.185 451.531 256.417 452.298 257.895C454.597 254.446 457.362 252.722 460.593 252.722C462.618 252.722 464.37 253.324 465.849 254.528C467.327 255.732 468.093 257.347 468.148 259.373C468.148 260.96 467.765 262.246 466.998 263.232C466.232 264.217 465.493 264.819 464.781 265.038C464.069 265.257 463.44 265.367 462.892 265.367C461.852 265.367 461.003 265.065 460.346 264.463C459.689 263.861 459.361 263.067 459.361 262.082C459.361 259.564 460.729 257.84 463.467 256.909C462.865 256.198 461.77 255.842 460.182 255.842C459.47 255.842 458.95 255.897 458.622 256.006C456.541 256.882 455.008 258.688 454.023 261.425C450.738 273.523 449.095 280.584 449.095 282.61C449.095 284.142 449.533 285.237 450.409 285.894C451.285 286.551 452.243 286.879 453.283 286.879C455.309 286.879 457.308 285.976 459.279 284.17C461.25 282.363 462.591 280.146 463.303 277.519C463.467 276.971 463.631 276.67 463.795 276.616C463.96 276.561 464.398 276.506 465.109 276.451H465.438C466.259 276.451 466.67 276.67 466.67 277.108C466.67 277.163 466.615 277.464 466.506 278.011C465.63 281.132 463.932 283.896 461.414 286.304C458.895 288.713 455.966 289.917 452.626 289.917C448.794 289.917 445.892 288.193 443.921 284.744C441.676 288.138 439.103 289.835 436.201 289.835H435.709C433.026 289.835 431.11 289.124 429.96 287.7C428.81 286.277 428.208 284.772 428.153 283.184C428.153 281.433 428.673 280.009 429.713 278.915C430.754 277.82 431.986 277.272 433.409 277.272C435.763 277.272 436.941 278.422 436.941 280.721C436.941 281.816 436.612 282.774 435.955 283.595C435.298 284.416 434.668 284.963 434.066 285.237C433.464 285.511 433.108 285.648 432.999 285.648L432.752 285.73C432.752 285.784 432.916 285.894 433.245 286.058C433.573 286.222 434.011 286.414 434.559 286.633C435.106 286.852 435.627 286.934 436.119 286.879C438.09 286.879 439.788 285.648 441.211 283.184C441.704 282.308 442.333 280.447 443.1 277.601C443.866 274.754 444.633 271.798 445.399 268.733C446.166 265.668 446.604 263.861 446.713 263.314C446.987 261.836 447.124 260.768 447.124 260.112C447.124 258.579 446.713 257.484 445.892 256.827C445.071 256.17 444.14 255.842 443.1 255.842C440.91 255.842 438.857 256.718 436.941 258.469C435.024 260.221 433.683 262.465 432.916 265.202C432.807 265.695 432.67 265.969 432.506 266.023C432.341 266.078 431.903 266.133 431.192 266.188H430.042C429.713 265.859 429.549 265.558 429.549 265.284Z" fill="black"/>
<path d="M479.071 286.14C479.071 286.14 479.071 285.456 479.071 284.087C479.071 282.719 479.509 281.542 480.385 280.557C481.261 279.571 482.438 279.079 483.916 279.079C485.449 279.079 486.818 279.763 488.022 281.132C489.227 282.5 489.856 284.909 489.911 288.357C489.911 290.273 489.665 292.134 489.172 293.941C488.679 295.747 488.104 297.307 487.447 298.621C486.79 299.935 486.079 301.057 485.312 301.987C484.546 302.918 483.889 303.657 483.341 304.204C482.794 304.752 482.438 304.998 482.274 304.943C482.055 304.943 481.699 304.697 481.206 304.204C480.713 303.712 480.467 303.356 480.467 303.137C480.467 302.918 480.768 302.48 481.37 301.823C481.972 301.166 482.657 300.345 483.423 299.36C484.19 298.374 484.902 297.006 485.559 295.254C486.216 293.503 486.654 291.505 486.873 289.26V288.275L486.79 288.357C486.681 288.412 486.544 288.467 486.38 288.521C486.216 288.576 486.051 288.658 485.887 288.768C485.723 288.877 485.476 288.932 485.148 288.932C484.819 288.932 484.491 288.959 484.162 289.014C482.684 289.014 481.48 288.549 480.549 287.618L479.071 286.14Z" fill="black"/>
<path d="M511.346 265.449C511.346 264.682 511.756 263.369 512.578 261.507C513.399 259.646 514.713 257.703 516.52 255.678C518.326 253.652 520.352 252.667 522.597 252.722C524.842 252.722 526.648 253.351 528.017 254.61C529.386 255.869 530.098 257.621 530.152 259.865C530.043 260.905 529.961 261.48 529.906 261.589C529.906 261.754 529.468 263.013 528.592 265.367C527.716 267.72 526.813 270.375 525.882 273.331C524.951 276.287 524.513 278.641 524.568 280.393C524.568 282.746 524.951 284.389 525.718 285.319C526.484 286.25 527.634 286.742 529.167 286.797C530.426 286.797 531.603 286.496 532.698 285.894C533.793 285.292 534.642 284.662 535.244 284.005C535.846 283.348 536.586 282.445 537.462 281.296C537.462 281.241 537.598 280.694 537.872 279.654C538.146 278.614 538.529 276.999 539.022 274.809C539.515 272.62 540.035 270.594 540.582 268.733C542.663 260.522 543.813 256.225 544.032 255.842C544.743 254.364 545.92 253.625 547.563 253.625C548.275 253.625 548.85 253.816 549.288 254.2C549.726 254.583 550.027 254.911 550.191 255.185C550.355 255.459 550.41 255.705 550.355 255.924C550.355 256.636 549.014 262.383 546.331 273.167C543.648 283.951 542.115 289.862 541.732 290.903C540.199 295.446 537.544 299.059 533.766 301.741C529.988 304.423 526.21 305.792 522.433 305.846C519.969 305.846 517.806 305.244 515.945 304.04C514.083 302.836 513.153 301.029 513.153 298.621C513.153 297.417 513.344 296.404 513.727 295.583C514.111 294.762 514.631 294.16 515.288 293.776C515.945 293.393 516.492 293.119 516.93 292.955C517.368 292.791 517.834 292.709 518.326 292.709C520.735 292.709 521.94 293.858 521.94 296.158C521.94 297.252 521.611 298.21 520.954 299.031C520.297 299.852 519.668 300.4 519.066 300.674C518.463 300.947 518.107 301.084 517.998 301.084L517.752 301.166C517.861 301.44 518.381 301.768 519.312 302.152C520.243 302.535 521.173 302.726 522.104 302.726H522.761C523.692 302.726 524.404 302.672 524.896 302.562C526.703 302.069 528.373 301.029 529.906 299.442C531.439 297.854 532.616 296.158 533.437 294.351C534.259 292.545 534.888 291.012 535.326 289.753C535.764 288.494 535.983 287.673 535.983 287.29L535.491 287.618C535.162 287.837 534.642 288.138 533.93 288.521C533.218 288.905 532.507 289.233 531.795 289.507C530.7 289.78 529.632 289.917 528.592 289.917C526.074 289.917 523.856 289.315 521.94 288.111C520.024 286.907 518.764 284.963 518.162 282.281C518.107 281.898 518.08 281.049 518.08 279.736C518.08 276.616 519.038 272.537 520.954 267.501C522.871 262.465 523.829 259.263 523.829 257.895C523.829 257.84 523.829 257.785 523.829 257.73C523.829 257.238 523.829 256.909 523.829 256.745C523.829 256.581 523.719 256.389 523.5 256.17C523.281 255.951 522.98 255.842 522.597 255.842H522.268C521.009 255.842 519.859 256.362 518.819 257.402C517.779 258.442 516.958 259.564 516.355 260.768C515.753 261.973 515.288 263.122 514.959 264.217C514.631 265.312 514.412 265.914 514.302 266.023C514.193 266.133 513.755 266.188 512.988 266.188H511.839C511.51 265.859 511.346 265.613 511.346 265.449Z" fill="black"/>
<path d="M555.775 227.514L556.104 227.432C556.378 227.432 556.651 227.432 556.925 227.432H557.911L560.21 229.403C565.357 234.055 569.107 239.858 571.461 246.81C573.816 253.762 574.993 260.987 574.993 268.487C574.993 272.209 574.719 275.794 574.171 279.243C573.624 282.692 572.994 285.62 572.283 288.029C571.571 290.437 570.558 292.846 569.244 295.254C567.93 297.663 566.89 299.497 566.123 300.756C565.357 302.015 564.234 303.41 562.756 304.943C561.278 306.476 560.402 307.379 560.128 307.653C559.854 307.926 559.225 308.446 558.239 309.213C558.075 309.377 557.965 309.487 557.911 309.541H556.925C556.487 309.541 556.186 309.541 556.022 309.541C555.858 309.541 555.721 309.459 555.611 309.295C555.502 309.131 555.42 308.884 555.365 308.556C555.42 308.501 555.721 308.145 556.268 307.489C564.754 298.675 568.998 285.675 568.998 268.487C568.998 251.298 564.754 238.298 556.268 229.485C555.721 228.828 555.42 228.472 555.365 228.417C555.365 227.979 555.502 227.678 555.775 227.514Z" fill="black"/>
<path d="M613.263 232.933C613.318 232.933 615.289 232.797 619.176 232.523C623.063 232.249 625.062 232.085 625.171 232.03C625.828 232.03 626.157 232.249 626.157 232.687C626.157 233.07 624.158 241.336 620.161 257.484C616.165 273.632 614.112 281.871 614.002 282.199C613.893 282.527 613.865 282.938 613.92 283.431C613.92 285.73 614.686 286.879 616.219 286.879C616.712 286.825 617.26 286.578 617.862 286.14C619.012 285.045 620.134 282.418 621.229 278.258C621.558 277.163 621.831 276.588 622.05 276.533C622.16 276.479 622.434 276.451 622.872 276.451H623.2H623.529C624.35 276.451 624.76 276.67 624.76 277.108C624.76 277.382 624.678 277.82 624.514 278.422C623.802 281.159 622.981 283.376 622.05 285.073C621.12 286.77 620.353 287.865 619.751 288.357C619.149 288.85 618.382 289.288 617.451 289.671C617.013 289.78 616.356 289.835 615.48 289.835C613.619 289.835 612.058 289.425 610.799 288.604C609.54 287.782 608.719 286.934 608.335 286.058L607.843 284.827C607.788 284.772 607.678 284.799 607.514 284.909C607.405 285.018 607.295 285.128 607.186 285.237C603.955 288.302 600.67 289.835 597.331 289.835C594.319 289.835 591.664 288.74 589.365 286.551C587.065 284.361 585.915 280.885 585.915 276.123C585.915 273.495 586.463 270.813 587.558 268.076C588.653 265.339 589.967 262.985 591.5 261.015C594.073 257.895 596.646 255.732 599.22 254.528C601.793 253.324 604.12 252.722 606.2 252.722C609.266 252.722 611.566 253.871 613.099 256.17C613.372 256.499 613.509 256.608 613.509 256.499C613.564 256.28 614.303 253.297 615.727 247.549C617.15 241.801 617.917 238.763 618.026 238.435C618.026 237.723 617.835 237.285 617.451 237.121C617.068 236.957 616 236.82 614.248 236.71H612.524C612.195 236.382 612.031 236.163 612.031 236.054C612.031 235.944 612.086 235.424 612.195 234.494C612.469 233.453 612.825 232.933 613.263 232.933ZM612.113 262.246C610.854 257.922 608.801 255.76 605.954 255.76C604.038 255.76 602.203 256.608 600.451 258.305C598.699 260.002 597.331 262.219 596.345 264.956C594.757 269.281 593.635 273.769 592.978 278.422C592.978 278.586 592.978 278.887 592.978 279.325C592.978 279.763 592.951 280.092 592.896 280.311C592.896 282.774 593.389 284.471 594.374 285.401C595.36 286.332 596.537 286.825 597.906 286.879C600.862 286.879 603.901 284.909 607.021 280.967L607.678 280.064L612.113 262.246Z" fill="black"/>
<path d="M630.838 265.284C631.221 262.985 632.699 260.331 635.272 257.32C637.846 254.309 641.021 252.776 644.799 252.722C646.715 252.722 648.467 253.214 650.055 254.2C651.643 255.185 652.82 256.417 653.586 257.895C655.886 254.446 658.651 252.722 661.881 252.722C663.907 252.722 665.659 253.324 667.137 254.528C668.615 255.732 669.382 257.347 669.437 259.373C669.437 260.96 669.053 262.246 668.287 263.232C667.52 264.217 666.781 264.819 666.069 265.038C665.358 265.257 664.728 265.367 664.181 265.367C663.14 265.367 662.292 265.065 661.635 264.463C660.978 263.861 660.649 263.067 660.649 262.082C660.649 259.564 662.018 257.84 664.755 256.909C664.153 256.198 663.058 255.842 661.47 255.842C660.759 255.842 660.239 255.897 659.91 256.006C657.83 256.882 656.297 258.688 655.311 261.425C652.026 273.523 650.384 280.584 650.384 282.61C650.384 284.142 650.822 285.237 651.698 285.894C652.574 286.551 653.532 286.879 654.572 286.879C656.598 286.879 658.596 285.976 660.567 284.17C662.538 282.363 663.879 280.146 664.591 277.519C664.755 276.971 664.92 276.67 665.084 276.616C665.248 276.561 665.686 276.506 666.398 276.451H666.726C667.548 276.451 667.958 276.67 667.958 277.108C667.958 277.163 667.904 277.464 667.794 278.011C666.918 281.132 665.221 283.896 662.702 286.304C660.184 288.713 657.255 289.917 653.915 289.917C650.082 289.917 647.181 288.193 645.21 284.744C642.965 288.138 640.392 289.835 637.49 289.835H636.997C634.314 289.835 632.398 289.124 631.248 287.7C630.099 286.277 629.496 284.772 629.442 283.184C629.442 281.433 629.962 280.009 631.002 278.915C632.042 277.82 633.274 277.272 634.698 277.272C637.052 277.272 638.229 278.422 638.229 280.721C638.229 281.816 637.901 282.774 637.243 283.595C636.586 284.416 635.957 284.963 635.355 285.237C634.752 285.511 634.396 285.648 634.287 285.648L634.041 285.73C634.041 285.784 634.205 285.894 634.533 286.058C634.862 286.222 635.3 286.414 635.847 286.633C636.395 286.852 636.915 286.934 637.408 286.879C639.379 286.879 641.076 285.648 642.5 283.184C642.992 282.308 643.622 280.447 644.388 277.601C645.155 274.754 645.921 271.798 646.688 268.733C647.454 265.668 647.892 263.861 648.002 263.314C648.276 261.836 648.413 260.768 648.413 260.112C648.413 258.579 648.002 257.484 647.181 256.827C646.359 256.17 645.429 255.842 644.388 255.842C642.198 255.842 640.145 256.718 638.229 258.469C636.313 260.221 634.971 262.465 634.205 265.202C634.095 265.695 633.958 265.969 633.794 266.023C633.63 266.078 633.192 266.133 632.48 266.188H631.33C631.002 265.859 630.838 265.558 630.838 265.284Z" fill="black"/>
<path d="M975.379 354.505C976.366 355.933 977.765 356.646 979.575 356.646H979.739C981.275 356.646 982.81 354.999 984.346 351.706C985.882 348.412 987.308 343.911 988.624 338.203C989.941 332.494 991.175 326.758 992.326 320.994C993.478 315.231 994.63 309 995.782 302.304C995.946 301.151 996.083 300.3 996.193 299.751C1000.14 276.422 1004.42 254.795 1009.03 234.87C1013.63 214.944 1016.98 201.99 1019.06 196.007C1019.39 195.019 1019.67 194.195 1019.89 193.537C1020.11 192.878 1020.57 191.67 1021.29 189.914C1022 188.157 1022.74 186.62 1023.51 185.303C1024.27 183.985 1025.21 182.641 1026.3 181.268C1027.4 179.896 1028.61 178.798 1029.92 177.975C1031.24 177.151 1032.64 176.767 1034.12 176.822C1037.19 176.822 1039.49 177.783 1041.03 179.704C1042.57 181.625 1043.44 183.821 1043.66 186.291C1043.66 187.663 1043.33 188.761 1042.68 189.584C1042.02 190.408 1041.39 190.929 1040.78 191.149C1040.18 191.368 1039.58 191.451 1038.97 191.396C1037.82 191.396 1036.78 190.984 1035.85 190.161C1034.91 189.337 1034.45 188.212 1034.45 186.785C1034.45 184.15 1035.9 182.586 1038.81 182.092L1038.56 181.762C1038.4 181.598 1038.18 181.406 1037.9 181.186C1037.63 180.966 1037.41 180.802 1037.25 180.692C1036.42 180.143 1035.52 179.869 1034.53 179.869C1033.76 179.869 1033.05 180.198 1032.39 180.857C1031.73 181.515 1030.86 183.052 1029.76 185.467C1028.66 187.883 1027.59 191.066 1026.55 195.019C1025.51 198.971 1024.22 204.542 1022.68 211.733C1021.15 218.924 1019.61 227.377 1018.08 237.093C1014.84 255.481 1011.47 272.854 1007.96 289.212C1004.45 305.57 1001.71 317.426 999.731 324.782C997.756 332.137 996.248 337.407 995.206 340.59C990.983 353.38 985.772 359.775 979.575 359.775C977.381 359.775 975.379 358.924 973.569 357.222C971.759 355.521 970.744 353.188 970.525 350.224C970.525 348.303 971.046 346.985 972.088 346.272C973.13 345.558 974.172 345.201 975.214 345.201C976.366 345.201 977.408 345.613 978.34 346.436C979.273 347.26 979.739 348.385 979.739 349.812C979.739 352.447 978.286 354.011 975.379 354.505Z" fill="black"/>
<path d="M1057.86 160.714C1057.86 160.326 1057.93 159.88 1058.09 159.375C1058.24 158.871 1058.48 158.618 1058.79 158.618C1058.83 158.618 1060.22 158.521 1062.98 158.327C1065.73 158.133 1067.14 158.017 1067.22 157.978C1067.69 157.978 1067.92 158.153 1067.92 158.502C1067.92 158.851 1067.26 161.626 1065.94 166.827C1065.63 168.147 1065.3 169.506 1064.95 170.903C1064.6 172.3 1064.31 173.348 1064.08 174.047L1063.85 175.153C1063.85 175.269 1063.96 175.211 1064.2 174.978C1066.1 173.426 1068.06 172.65 1070.07 172.65C1072.48 172.65 1074.42 173.542 1075.89 175.328C1077.36 177.113 1078.12 179.364 1078.16 182.081C1078.16 186.39 1076.63 190.291 1073.56 193.784C1070.5 197.277 1067.2 199.024 1063.67 199.024C1061.73 199.024 1059.97 198.286 1058.38 196.811C1056.79 195.336 1055.98 192.949 1055.94 189.65V189.126C1055.94 188.311 1056.09 187.185 1056.4 185.749C1056.71 184.313 1057.66 180.49 1059.25 174.28C1061.19 166.633 1062.16 162.577 1062.16 162.112C1062.16 161.646 1061.42 161.374 1059.95 161.296C1059.76 161.296 1059.6 161.296 1059.48 161.296H1059.19C1058.81 161.296 1058.55 161.296 1058.44 161.296C1058.32 161.296 1058.19 161.238 1058.03 161.122C1057.88 161.005 1057.82 160.869 1057.86 160.714ZM1073.16 179.461V179.112C1073.16 176.24 1071.97 174.804 1069.61 174.804C1068.95 174.804 1068.27 174.959 1067.57 175.269C1066.87 175.58 1066.23 175.988 1065.65 176.492C1065.07 176.997 1064.57 177.462 1064.14 177.889C1063.71 178.316 1063.36 178.743 1063.09 179.17L1062.74 179.636L1061.52 184.643C1060.67 187.981 1060.24 190.349 1060.24 191.746C1060.24 193.609 1060.71 195.006 1061.64 195.938C1062.26 196.559 1063.03 196.87 1063.96 196.87C1065.24 196.87 1066.54 196.248 1067.86 195.006C1068.83 194.114 1069.61 193.027 1070.19 191.746C1070.77 190.465 1071.41 188.427 1072.11 185.633C1072.81 182.838 1073.16 180.781 1073.16 179.461Z" fill="black"/>
<path d="M1014.05 354.357C1014.05 350.437 1015.53 346.711 1018.47 343.179C1021.42 339.647 1024.74 337.861 1028.42 337.823C1030.4 337.823 1032.14 338.774 1033.66 340.675C1034.28 339.511 1035.17 338.929 1036.33 338.929C1036.84 338.929 1037.28 339.084 1037.67 339.395C1038.06 339.705 1038.25 340.093 1038.25 340.559C1038.25 341.064 1037.53 344.169 1036.1 349.874C1034.66 355.58 1033.93 358.802 1033.89 359.539C1033.89 360.509 1034.02 361.15 1034.3 361.46C1034.57 361.771 1034.97 361.946 1035.52 361.984C1035.87 361.946 1036.25 361.771 1036.68 361.46C1037.5 360.684 1038.29 358.821 1039.07 355.871C1039.3 355.095 1039.49 354.687 1039.65 354.649C1039.73 354.61 1039.92 354.59 1040.23 354.59H1040.46C1041.2 354.59 1041.57 354.765 1041.57 355.114C1041.57 355.347 1041.47 355.871 1041.28 356.686C1041.08 357.501 1040.69 358.549 1040.11 359.83C1039.53 361.111 1038.91 362.081 1038.25 362.741C1037.75 363.246 1037.13 363.653 1036.39 363.964C1036.08 364.042 1035.61 364.08 1034.99 364.08C1033.68 364.08 1032.57 363.789 1031.68 363.207C1030.79 362.625 1030.2 362.023 1029.93 361.402L1029.58 360.529C1029.54 360.49 1029.47 360.509 1029.35 360.587C1029.27 360.665 1029.2 360.742 1029.12 360.82C1026.83 362.994 1024.5 364.08 1022.14 364.08C1020 364.08 1018.12 363.304 1016.49 361.751C1014.87 360.199 1014.05 357.734 1014.05 354.357ZM1032.55 344.402C1032.55 344.169 1032.45 343.742 1032.26 343.121C1032.07 342.5 1031.62 341.82 1030.92 341.083C1030.22 340.346 1029.33 339.957 1028.25 339.919C1026.89 339.919 1025.59 340.52 1024.35 341.723C1023.11 342.927 1022.14 344.499 1021.44 346.439C1020.31 349.506 1019.52 352.688 1019.05 355.988C1019.05 356.104 1019.05 356.318 1019.05 356.628C1019.05 356.939 1019.03 357.171 1019 357.327C1019 359.073 1019.35 360.277 1020.04 360.936C1020.74 361.596 1021.58 361.946 1022.54 361.984C1024.02 361.984 1025.47 361.344 1026.91 360.063C1028.34 358.782 1029.2 357.792 1029.47 357.094C1029.54 356.939 1030.07 354.862 1031.04 350.864C1032.01 346.866 1032.51 344.712 1032.55 344.402Z" fill="black"/>
<path d="M1110.55 302.139C1110.66 302.139 1110.82 302.194 1111.04 302.304C1111.26 302.414 1111.56 302.496 1111.95 302.551C1112.33 302.606 1112.66 302.633 1112.93 302.633C1113.65 302.633 1114.31 302.276 1114.91 301.563C1115.51 300.849 1115.95 300.053 1116.22 299.175C1116.77 297.693 1117.71 293.494 1119.02 286.578C1120.34 279.661 1121.6 273.074 1122.81 266.817C1124.01 260.559 1124.62 257.403 1124.62 257.348V257.101H1120.75C1118.17 257.101 1116.8 257.046 1116.64 256.936C1116.42 256.772 1116.31 256.497 1116.31 256.113L1116.88 253.807C1116.99 253.533 1117.21 253.396 1117.54 253.396C1117.87 253.396 1119.16 253.368 1121.41 253.313C1124.04 253.313 1125.36 253.286 1125.36 253.231C1125.36 253.121 1125.6 251.749 1126.1 249.114C1126.59 246.479 1126.92 244.888 1127.08 244.339C1129.11 235.282 1133.12 230.753 1139.1 230.753C1141.13 230.863 1142.8 231.467 1144.11 232.564C1145.43 233.662 1146.09 235.117 1146.09 236.928C1146.09 238.904 1145.51 240.332 1144.36 241.21C1143.21 242.088 1142.06 242.555 1140.91 242.61C1138.49 242.61 1137.29 241.457 1137.29 239.151C1137.29 238.108 1137.59 237.203 1138.19 236.434C1138.79 235.666 1139.45 235.089 1140.17 234.705L1140.91 234.294C1140.03 233.964 1139.21 233.8 1138.44 233.8C1137.78 233.8 1137.15 234.074 1136.55 234.623C1135.94 235.172 1135.53 235.94 1135.31 236.928C1134.93 238.52 1134.49 240.661 1134 243.351C1133.5 246.04 1133.06 248.318 1132.68 250.185C1132.29 252.051 1132.1 253.039 1132.1 253.149C1132.1 253.258 1133.61 253.313 1136.63 253.313C1139.1 253.313 1140.52 253.341 1140.91 253.396C1141.29 253.451 1141.59 253.615 1141.81 253.89C1141.87 254.109 1141.81 254.576 1141.65 255.289C1141.48 256.003 1141.34 256.442 1141.23 256.607C1141.13 256.881 1140.88 257.019 1140.49 257.019C1140.11 257.019 1138.63 257.046 1136.05 257.101H1131.44L1129.55 267.146C1126.92 280.759 1125.08 289.267 1124.04 292.67C1122.56 297.336 1120.64 300.794 1118.28 303.045C1116.25 304.801 1114.25 305.68 1112.28 305.68C1110.52 305.68 1108.93 305.158 1107.5 304.115C1106.08 303.072 1105.37 301.59 1105.37 299.669C1105.37 297.638 1105.94 296.156 1107.09 295.223C1108.24 294.29 1109.4 293.823 1110.55 293.823C1112.96 293.823 1114.17 294.976 1114.17 297.281C1114.17 298.324 1113.87 299.23 1113.26 299.998C1112.66 300.767 1112 301.343 1111.29 301.728L1110.55 302.139Z" fill="black"/>
<path d="M1154.23 268.216C1154.23 264.429 1154.51 260.833 1155.06 257.43C1155.6 254.027 1156.24 251.09 1156.95 248.62C1157.66 246.15 1158.68 243.735 1159.99 241.374C1161.31 239.014 1162.35 237.175 1163.12 235.858C1163.89 234.54 1165.04 233.113 1166.57 231.576C1168.11 230.039 1169.01 229.106 1169.29 228.777C1169.56 228.448 1170.25 227.871 1171.35 227.048H1172.41H1172.74C1173.51 227.048 1173.9 227.295 1173.9 227.789C1173.9 227.953 1173.43 228.53 1172.5 229.518C1171.56 230.506 1170.44 231.961 1169.12 233.882C1167.81 235.803 1166.46 238.163 1165.09 240.963C1163.72 243.762 1162.57 247.55 1161.64 252.325C1160.71 257.101 1160.24 262.398 1160.24 268.216C1160.24 274.035 1160.71 279.304 1161.64 284.025C1162.57 288.746 1163.69 292.561 1165.01 295.47C1166.33 298.379 1167.67 300.739 1169.04 302.551C1170.41 304.362 1171.56 305.817 1172.5 306.915C1173.43 308.012 1173.9 308.589 1173.9 308.644C1173.9 309.138 1173.48 309.385 1172.66 309.385H1172.41H1171.35L1169.04 307.409C1163.89 302.743 1160.13 296.924 1157.77 289.953C1155.41 282.982 1154.23 275.736 1154.23 268.216Z" fill="black"/>
<path d="M1183.19 265.005C1183.58 262.7 1185.06 260.038 1187.63 257.019C1190.21 253.999 1193.39 252.463 1197.18 252.408C1199.1 252.408 1200.85 252.902 1202.44 253.89C1204.03 254.878 1205.21 256.113 1205.98 257.595C1208.28 254.137 1211.05 252.408 1214.29 252.408C1216.32 252.408 1218.07 253.011 1219.56 254.219C1221.04 255.427 1221.8 257.046 1221.86 259.077C1221.86 260.669 1221.48 261.959 1220.71 262.947C1219.94 263.935 1219.2 264.539 1218.49 264.758C1217.77 264.978 1217.14 265.088 1216.59 265.088C1215.55 265.088 1214.7 264.786 1214.04 264.182C1213.39 263.578 1213.06 262.782 1213.06 261.794C1213.06 259.269 1214.43 257.54 1217.17 256.607C1216.57 255.893 1215.47 255.536 1213.88 255.536C1213.17 255.536 1212.64 255.591 1212.32 255.701C1210.23 256.579 1208.7 258.391 1207.71 261.135C1204.42 273.266 1202.77 280.347 1202.77 282.378C1202.77 283.915 1203.21 285.013 1204.09 285.672C1204.97 286.33 1205.93 286.66 1206.97 286.66C1209 286.66 1211 285.754 1212.97 283.943C1214.95 282.131 1216.29 279.908 1217.01 277.273C1217.17 276.724 1217.33 276.423 1217.5 276.368C1217.66 276.313 1218.1 276.258 1218.82 276.203H1219.14C1219.97 276.203 1220.38 276.423 1220.38 276.862C1220.38 276.917 1220.32 277.219 1220.21 277.767C1219.34 280.896 1217.64 283.668 1215.11 286.083C1212.59 288.499 1209.66 289.706 1206.31 289.706C1202.47 289.706 1199.56 287.977 1197.59 284.519C1195.34 287.922 1192.76 289.624 1189.86 289.624H1189.36C1186.68 289.624 1184.76 288.91 1183.6 287.483C1182.45 286.056 1181.85 284.547 1181.79 282.955C1181.79 281.198 1182.31 279.771 1183.36 278.673C1184.4 277.575 1185.63 277.026 1187.06 277.026C1189.42 277.026 1190.6 278.179 1190.6 280.485C1190.6 281.582 1190.27 282.543 1189.61 283.366C1188.95 284.19 1188.32 284.739 1187.72 285.013C1187.11 285.288 1186.76 285.425 1186.65 285.425L1186.4 285.507C1186.4 285.562 1186.57 285.672 1186.89 285.836C1187.22 286.001 1187.66 286.193 1188.21 286.413C1188.76 286.632 1189.28 286.715 1189.77 286.66C1191.75 286.66 1193.45 285.425 1194.87 282.955C1195.37 282.076 1196 280.21 1196.77 277.356C1197.53 274.501 1198.3 271.537 1199.07 268.463C1199.84 265.389 1200.28 263.578 1200.39 263.029C1200.66 261.547 1200.8 260.477 1200.8 259.818C1200.8 258.281 1200.39 257.183 1199.56 256.524C1198.74 255.866 1197.81 255.536 1196.77 255.536C1194.57 255.536 1192.52 256.415 1190.6 258.171C1188.68 259.928 1187.33 262.178 1186.57 264.923C1186.46 265.417 1186.32 265.691 1186.15 265.746C1185.99 265.801 1185.55 265.856 1184.84 265.911H1183.69C1183.36 265.582 1183.19 265.28 1183.19 265.005Z" fill="black"/>
<path d="M1232.8 285.919C1232.8 285.919 1232.8 285.232 1232.8 283.86C1232.8 282.488 1233.24 281.308 1234.12 280.32C1234.99 279.332 1236.17 278.838 1237.65 278.838C1239.19 278.838 1240.56 279.524 1241.77 280.896C1242.98 282.268 1243.61 284.684 1243.66 288.142C1243.66 290.063 1243.41 291.929 1242.92 293.741C1242.43 295.552 1241.85 297.116 1241.19 298.434C1240.53 299.751 1239.82 300.876 1239.05 301.81C1238.29 302.743 1237.63 303.484 1237.08 304.033C1236.53 304.582 1236.17 304.829 1236.01 304.774C1235.79 304.774 1235.43 304.527 1234.94 304.033C1234.45 303.539 1234.2 303.182 1234.2 302.962C1234.2 302.743 1234.5 302.304 1235.1 301.645C1235.71 300.986 1236.39 300.163 1237.16 299.175C1237.93 298.187 1238.64 296.815 1239.3 295.058C1239.96 293.301 1240.4 291.298 1240.62 289.047V288.059L1240.53 288.142C1240.42 288.197 1240.29 288.251 1240.12 288.306C1239.96 288.361 1239.79 288.444 1239.63 288.553C1239.46 288.663 1239.22 288.718 1238.89 288.718C1238.56 288.718 1238.23 288.745 1237.9 288.8C1236.42 288.8 1235.21 288.334 1234.28 287.401L1232.8 285.919Z" fill="black"/>
<path d="M1265.05 265.17C1265.05 264.401 1265.46 263.084 1266.28 261.218C1267.11 259.351 1268.42 257.403 1270.23 255.372C1272.04 253.341 1274.07 252.353 1276.32 252.408C1278.57 252.408 1280.38 253.039 1281.75 254.301C1283.12 255.564 1283.84 257.32 1283.89 259.571C1283.78 260.614 1283.7 261.19 1283.64 261.3C1283.64 261.465 1283.21 262.727 1282.33 265.088C1281.45 267.448 1280.55 270.11 1279.61 273.074C1278.68 276.038 1278.24 278.399 1278.3 280.155C1278.3 282.516 1278.68 284.162 1279.45 285.095C1280.22 286.029 1281.37 286.523 1282.9 286.578C1284.16 286.578 1285.34 286.276 1286.44 285.672C1287.54 285.068 1288.39 284.437 1288.99 283.778C1289.59 283.119 1290.34 282.214 1291.21 281.061C1291.21 281.006 1291.35 280.457 1291.62 279.414C1291.9 278.371 1292.28 276.752 1292.78 274.556C1293.27 272.361 1293.79 270.33 1294.34 268.463C1296.42 260.23 1297.57 255.921 1297.79 255.536C1298.51 254.054 1299.69 253.313 1301.33 253.313C1302.04 253.313 1302.62 253.505 1303.06 253.89C1303.5 254.274 1303.8 254.603 1303.96 254.878C1304.13 255.152 1304.18 255.399 1304.13 255.619C1304.13 256.332 1302.79 262.096 1300.1 272.91C1297.41 283.723 1295.87 289.651 1295.49 290.694C1293.96 295.25 1291.29 298.873 1287.51 301.563C1283.73 304.253 1279.94 305.625 1276.16 305.68C1273.69 305.68 1271.52 305.076 1269.66 303.868C1267.79 302.661 1266.86 300.849 1266.86 298.434C1266.86 297.226 1267.05 296.211 1267.44 295.388C1267.82 294.564 1268.34 293.96 1269 293.576C1269.66 293.192 1270.21 292.917 1270.65 292.753C1271.08 292.588 1271.55 292.506 1272.04 292.506C1274.46 292.506 1275.66 293.658 1275.66 295.964C1275.66 297.062 1275.33 298.022 1274.68 298.846C1274.02 299.669 1273.39 300.218 1272.78 300.492C1272.18 300.767 1271.82 300.904 1271.71 300.904L1271.47 300.986C1271.58 301.261 1272.1 301.59 1273.03 301.975C1273.96 302.359 1274.9 302.551 1275.83 302.551H1276.49C1277.42 302.551 1278.13 302.496 1278.63 302.386C1280.44 301.892 1282.11 300.849 1283.64 299.257C1285.18 297.666 1286.36 295.964 1287.18 294.153C1288 292.341 1288.63 290.804 1289.07 289.542C1289.51 288.279 1289.73 287.456 1289.73 287.072L1289.24 287.401C1288.91 287.62 1288.39 287.922 1287.68 288.307C1286.96 288.691 1286.25 289.02 1285.54 289.295C1284.44 289.569 1283.37 289.706 1282.33 289.706C1279.8 289.706 1277.58 289.103 1275.66 287.895C1273.74 286.687 1272.48 284.739 1271.88 282.049C1271.82 281.665 1271.8 280.814 1271.8 279.497C1271.8 276.368 1272.76 272.278 1274.68 267.228C1276.6 262.178 1277.56 258.967 1277.56 257.595C1277.56 257.54 1277.56 257.485 1277.56 257.43C1277.56 256.936 1277.56 256.607 1277.56 256.442C1277.56 256.277 1277.45 256.085 1277.23 255.866C1277.01 255.646 1276.71 255.536 1276.32 255.536H1275.99C1274.73 255.536 1273.58 256.058 1272.54 257.101C1271.5 258.144 1270.67 259.269 1270.07 260.477C1269.47 261.684 1269 262.837 1268.67 263.935C1268.34 265.033 1268.12 265.636 1268.01 265.746C1267.9 265.856 1267.46 265.911 1266.7 265.911H1265.54C1265.22 265.582 1265.05 265.335 1265.05 265.17Z" fill="black"/>
<path d="M1309.56 227.13L1309.89 227.048C1310.16 227.048 1310.44 227.048 1310.71 227.048H1311.7L1314 229.024C1319.16 233.69 1322.91 239.508 1325.27 246.479C1327.63 253.451 1328.81 260.696 1328.81 268.216C1328.81 271.949 1328.54 275.544 1327.99 279.002C1327.44 282.461 1326.81 285.397 1326.1 287.812C1325.38 290.228 1324.37 292.643 1323.05 295.058C1321.73 297.473 1320.69 299.312 1319.92 300.575C1319.16 301.837 1318.03 303.237 1316.55 304.774C1315.07 306.311 1314.19 307.217 1313.92 307.491C1313.64 307.765 1313.01 308.287 1312.03 309.055C1311.86 309.22 1311.75 309.33 1311.7 309.385H1310.71C1310.27 309.385 1309.97 309.385 1309.81 309.385C1309.64 309.385 1309.5 309.302 1309.39 309.138C1309.28 308.973 1309.2 308.726 1309.15 308.397C1309.2 308.342 1309.5 307.985 1310.05 307.326C1318.55 298.489 1322.8 285.452 1322.8 268.216C1322.8 250.98 1318.55 237.944 1310.05 229.106C1309.5 228.448 1309.2 228.091 1309.15 228.036C1309.15 227.597 1309.28 227.295 1309.56 227.13Z" fill="black"/>
<path d="M1367.15 232.564C1367.2 232.564 1369.18 232.427 1373.07 232.153C1376.97 231.878 1378.97 231.713 1379.08 231.659C1379.73 231.659 1380.06 231.878 1380.06 232.317C1380.06 232.701 1378.06 240.99 1374.06 257.183C1370.05 273.376 1368 281.637 1367.89 281.966C1367.78 282.296 1367.75 282.707 1367.81 283.201C1367.81 285.507 1368.57 286.66 1370.11 286.66C1370.6 286.605 1371.15 286.358 1371.75 285.919C1372.91 284.821 1374.03 282.186 1375.13 278.014C1375.46 276.916 1375.73 276.34 1375.95 276.285C1376.06 276.23 1376.33 276.203 1376.77 276.203H1377.1H1377.43C1378.25 276.203 1378.67 276.422 1378.67 276.862C1378.67 277.136 1378.58 277.575 1378.42 278.179C1377.71 280.924 1376.88 283.147 1375.95 284.848C1375.02 286.55 1374.25 287.648 1373.65 288.142C1373.04 288.636 1372.28 289.075 1371.34 289.459C1370.9 289.569 1370.25 289.624 1369.37 289.624C1367.5 289.624 1365.94 289.212 1364.68 288.389C1363.42 287.565 1362.6 286.715 1362.21 285.836L1361.72 284.601C1361.66 284.546 1361.55 284.574 1361.39 284.684C1361.28 284.793 1361.17 284.903 1361.06 285.013C1357.82 288.087 1354.53 289.624 1351.19 289.624C1348.17 289.624 1345.51 288.526 1343.21 286.33C1340.9 284.135 1339.75 280.649 1339.75 275.874C1339.75 273.239 1340.3 270.549 1341.4 267.804C1342.49 265.06 1343.81 262.7 1345.35 260.723C1347.92 257.595 1350.5 255.426 1353.08 254.219C1355.66 253.011 1357.99 252.407 1360.07 252.407C1363.14 252.407 1365.45 253.56 1366.98 255.866C1367.26 256.195 1367.39 256.305 1367.39 256.195C1367.45 255.975 1368.19 252.984 1369.62 247.22C1371.04 241.457 1371.81 238.41 1371.92 238.081C1371.92 237.367 1371.73 236.928 1371.34 236.763C1370.96 236.599 1369.89 236.462 1368.13 236.352H1366.41C1366.08 236.022 1365.91 235.803 1365.91 235.693C1365.91 235.583 1365.97 235.062 1366.08 234.129C1366.35 233.086 1366.71 232.564 1367.15 232.564ZM1366 261.959C1364.73 257.622 1362.68 255.454 1359.83 255.454C1357.91 255.454 1356.07 256.305 1354.31 258.006C1352.56 259.708 1351.19 261.931 1350.2 264.676C1348.61 269.012 1347.49 273.513 1346.83 278.179C1346.83 278.344 1346.83 278.646 1346.83 279.085C1346.83 279.524 1346.8 279.853 1346.74 280.073C1346.74 282.543 1347.24 284.244 1348.23 285.178C1349.21 286.111 1350.39 286.605 1351.76 286.66C1354.72 286.66 1357.77 284.684 1360.9 280.731L1361.55 279.826L1366 261.959Z" fill="black"/>
<path d="M1384.75 265.005C1385.14 262.7 1386.62 260.038 1389.2 257.019C1391.77 253.999 1394.95 252.463 1398.74 252.408C1400.66 252.408 1402.41 252.902 1404 253.89C1405.6 254.878 1406.77 256.113 1407.54 257.595C1409.85 254.137 1412.62 252.408 1415.85 252.408C1417.88 252.408 1419.64 253.011 1421.12 254.219C1422.6 255.427 1423.37 257.046 1423.42 259.077C1423.42 260.669 1423.04 261.959 1422.27 262.947C1421.5 263.935 1420.76 264.539 1420.05 264.758C1419.33 264.978 1418.7 265.088 1418.15 265.088C1417.11 265.088 1416.26 264.786 1415.6 264.182C1414.95 263.578 1414.62 262.782 1414.62 261.794C1414.62 259.269 1415.99 257.54 1418.73 256.607C1418.13 255.893 1417.03 255.536 1415.44 255.536C1414.73 255.536 1414.21 255.591 1413.88 255.701C1411.79 256.579 1410.26 258.391 1409.27 261.135C1405.98 273.266 1404.33 280.347 1404.33 282.378C1404.33 283.915 1404.77 285.013 1405.65 285.672C1406.53 286.33 1407.49 286.66 1408.53 286.66C1410.56 286.66 1412.56 285.754 1414.54 283.943C1416.51 282.131 1417.85 279.908 1418.57 277.273C1418.73 276.724 1418.9 276.423 1419.06 276.368C1419.22 276.313 1419.66 276.258 1420.38 276.203H1420.71C1421.53 276.203 1421.94 276.423 1421.94 276.862C1421.94 276.917 1421.88 277.219 1421.77 277.767C1420.9 280.896 1419.2 283.668 1416.67 286.083C1414.15 288.499 1411.22 289.706 1407.87 289.706C1404.03 289.706 1401.13 287.977 1399.15 284.519C1396.9 287.922 1394.32 289.624 1391.42 289.624H1390.92C1388.24 289.624 1386.32 288.91 1385.16 287.483C1384.01 286.056 1383.41 284.547 1383.35 282.955C1383.35 281.198 1383.88 279.771 1384.92 278.673C1385.96 277.575 1387.19 277.026 1388.62 277.026C1390.98 277.026 1392.16 278.179 1392.16 280.485C1392.16 281.582 1391.83 282.543 1391.17 283.366C1390.51 284.19 1389.88 284.739 1389.28 285.013C1388.67 285.288 1388.32 285.425 1388.21 285.425L1387.96 285.507C1387.96 285.562 1388.13 285.672 1388.46 285.836C1388.78 286.001 1389.22 286.193 1389.77 286.413C1390.32 286.632 1390.84 286.715 1391.34 286.66C1393.31 286.66 1395.01 285.425 1396.44 282.955C1396.93 282.076 1397.56 280.21 1398.33 277.356C1399.1 274.501 1399.86 271.537 1400.63 268.463C1401.4 265.389 1401.84 263.578 1401.95 263.029C1402.22 261.547 1402.36 260.477 1402.36 259.818C1402.36 258.281 1401.95 257.183 1401.13 256.524C1400.3 255.866 1399.37 255.536 1398.33 255.536C1396.13 255.536 1394.08 256.415 1392.16 258.171C1390.24 259.928 1388.89 262.178 1388.13 264.923C1388.02 265.417 1387.88 265.691 1387.72 265.746C1387.55 265.801 1387.11 265.856 1386.4 265.911H1385.25C1384.92 265.582 1384.75 265.28 1384.75 265.005Z" fill="black"/>
<path d="M774.96 337.407C774.96 335.262 775.376 334.189 776.209 334.189C776.745 334.189 777.012 334.442 777.012 334.949C777.012 335.098 776.968 335.44 776.878 335.977C776.789 336.513 776.745 336.945 776.745 337.273C776.745 337.6 776.759 337.824 776.789 337.943V338.122H777.057C777.86 338.032 778.53 337.988 779.065 337.988C781.534 337.988 782.769 338.479 782.769 339.462C782.65 340.594 781.386 341.19 778.976 341.25H778.351C777.816 341.25 777.414 341.205 777.146 341.116C776.878 341.026 776.477 340.773 775.941 340.356C774.96 340.833 774.008 341.741 773.085 343.082C772.163 344.423 771.702 345.912 771.702 347.551C771.702 348.266 771.791 348.877 771.97 349.383C772.148 349.89 772.297 350.217 772.416 350.366C772.535 350.515 772.639 350.59 772.728 350.59C774.156 350.292 775.346 350.143 776.298 350.143C778.589 350.143 779.735 350.634 779.735 351.618C779.705 352.124 779.467 352.511 779.021 352.78C778.574 353.048 778.098 353.212 777.593 353.271C777.087 353.331 776.388 353.36 775.495 353.36C774.127 353.36 773.056 353.241 772.282 353.003L771.702 352.869C770.333 353.644 769.203 354.716 768.31 356.086C767.418 357.457 766.957 358.708 766.927 359.84C766.927 360.257 766.957 360.585 767.016 360.823C767.344 361.687 767.924 362.358 768.757 362.834C769.59 363.311 771.077 363.952 773.219 364.756C773.487 364.845 773.695 364.92 773.844 364.98C776.64 366.052 778.292 366.767 778.797 367.125C779.66 367.72 780.092 368.629 780.092 369.851C780.092 371.132 779.616 372.279 778.664 373.292C777.712 374.305 776.551 374.811 775.183 374.811C774.201 374.811 773.145 374.588 772.014 374.141C770.884 373.694 770.229 373.351 770.051 373.113C769.991 372.994 769.962 372.875 769.962 372.755C769.962 372.517 770.036 372.323 770.185 372.174C770.333 372.025 770.557 371.936 770.854 371.906C771.033 371.906 771.226 371.951 771.434 372.04C772.713 372.785 773.978 373.158 775.227 373.158C775.584 373.158 775.852 373.113 776.031 373.023C776.655 372.606 776.968 372.07 776.968 371.415C776.968 370.908 776.789 370.536 776.432 370.297C776.075 370.059 775.049 369.627 773.353 369.002C772.818 368.793 772.401 368.629 772.104 368.51C771.925 368.45 771.434 368.272 770.631 367.974C769.828 367.676 769.307 367.467 769.069 367.348C768.831 367.229 768.4 367.02 767.775 366.722C767.15 366.424 766.719 366.186 766.481 366.007C766.243 365.829 765.916 365.531 765.499 365.114C765.083 364.697 764.785 364.324 764.607 363.996C764.428 363.669 764.279 363.237 764.16 362.7C764.041 362.164 763.967 361.613 763.937 361.047C763.937 359.676 764.443 358.142 765.454 356.444C766.466 354.746 767.805 353.331 769.471 352.199L769.872 351.93L769.605 351.662C769.396 351.484 769.218 351.335 769.069 351.215C768.92 351.096 768.742 350.873 768.534 350.545C768.325 350.217 768.132 349.919 767.953 349.651C767.775 349.383 767.656 349.026 767.596 348.579C767.537 348.132 767.477 347.67 767.418 347.193C767.418 345.465 768.072 343.812 769.381 342.233C770.69 340.654 772.416 339.492 774.558 338.747L775.093 338.524C775.004 338.196 774.96 337.824 774.96 337.407Z" fill="black"/>
<path d="M797.852 355.059C797.852 355.059 797.852 354.865 797.852 354.478C797.852 354.09 798.061 353.792 798.477 353.584H832.616C829.165 350.992 827.037 347.67 826.234 343.618C826.234 343.588 826.234 343.544 826.234 343.484C826.234 343.425 826.219 343.38 826.19 343.35C826.19 342.993 826.442 342.814 826.948 342.814H827.082C827.35 342.814 827.528 342.829 827.618 342.859C827.707 342.888 827.796 342.948 827.885 343.037C827.975 343.127 828.019 343.261 828.019 343.44C828.019 343.618 828.064 343.857 828.153 344.155C828.242 344.452 828.361 344.825 828.51 345.272C829.165 347.268 830.25 349.055 831.768 350.634C833.285 352.213 835.055 353.331 837.078 353.986C837.346 354.075 837.48 354.239 837.48 354.478C837.48 354.656 837.405 354.79 837.257 354.88C837.108 354.969 836.751 355.118 836.186 355.327C835.62 355.535 835.055 355.818 834.49 356.176C833.27 356.95 832.214 357.844 831.321 358.857C830.429 359.87 829.76 360.868 829.313 361.851C828.867 362.834 828.555 363.579 828.376 364.086C828.198 364.592 828.079 365.054 828.019 365.471C827.96 365.769 827.885 365.948 827.796 366.007C827.707 366.067 827.469 366.112 827.082 366.141C826.487 366.141 826.19 365.977 826.19 365.65C826.19 365.441 826.264 365.069 826.413 364.533C827.365 360.779 829.432 357.725 832.616 355.371H798.477C798.061 355.163 797.852 354.865 797.852 354.478V355.059Z" fill="black"/>
<path d="M855.865 336.736C855.865 336.438 855.925 336.096 856.044 335.708C856.163 335.321 856.341 335.127 856.579 335.127C856.609 335.127 857.68 335.053 859.792 334.904C861.905 334.755 862.991 334.666 863.05 334.636C863.407 334.636 863.586 334.77 863.586 335.038C863.586 335.306 863.08 337.436 862.068 341.429C861.83 342.441 861.578 343.484 861.31 344.557C861.042 345.629 860.819 346.434 860.64 346.97L860.462 347.819C860.462 347.908 860.551 347.864 860.73 347.685C862.187 346.493 863.69 345.897 865.237 345.897C867.081 345.897 868.569 346.583 869.699 347.953C870.83 349.324 871.41 351.051 871.44 353.137C871.44 356.444 870.265 359.438 867.914 362.119C865.564 364.801 863.035 366.141 860.328 366.141C858.84 366.141 857.487 365.575 856.267 364.443C855.047 363.311 854.423 361.479 854.393 358.946V358.544C854.393 357.919 854.512 357.055 854.75 355.952C854.988 354.85 855.717 351.915 856.936 347.149C858.424 341.28 859.168 338.166 859.168 337.809C859.168 337.451 858.602 337.243 857.472 337.183C857.323 337.183 857.204 337.183 857.115 337.183H856.892C856.594 337.183 856.401 337.183 856.312 337.183C856.222 337.183 856.118 337.138 855.999 337.049C855.88 336.96 855.836 336.855 855.865 336.736ZM867.602 351.126V350.858C867.602 348.653 866.695 347.551 864.88 347.551C864.374 347.551 863.853 347.67 863.318 347.908C862.782 348.147 862.292 348.46 861.845 348.847C861.399 349.234 861.012 349.592 860.685 349.919C860.358 350.247 860.09 350.575 859.882 350.903L859.614 351.26L858.677 355.103C858.022 357.665 857.695 359.483 857.695 360.555C857.695 361.985 858.052 363.058 858.766 363.773C859.242 364.25 859.837 364.488 860.551 364.488C861.533 364.488 862.53 364.011 863.541 363.058C864.285 362.373 864.88 361.538 865.326 360.555C865.772 359.572 866.263 358.008 866.799 355.863C867.334 353.718 867.602 352.139 867.602 351.126Z" fill="black"/>
<path d="M757 188.095C757 187.641 757.243 186.864 757.729 185.763C758.215 184.661 758.992 183.511 760.061 182.313C761.13 181.114 762.328 180.531 763.657 180.564C764.985 180.564 766.053 180.936 766.863 181.681C767.673 182.426 768.094 183.463 768.127 184.791C768.062 185.406 768.013 185.747 767.981 185.811C767.981 185.908 767.722 186.653 767.203 188.046C766.685 189.439 766.151 191.01 765.6 192.759C765.049 194.508 764.79 195.901 764.823 196.938C764.823 198.331 765.049 199.302 765.503 199.853C765.956 200.404 766.637 200.695 767.544 200.728C768.289 200.728 768.985 200.55 769.633 200.193C770.281 199.837 770.783 199.464 771.139 199.076C771.495 198.687 771.933 198.153 772.451 197.472C772.451 197.44 772.532 197.116 772.694 196.501C772.856 195.885 773.082 194.93 773.374 193.634C773.666 192.338 773.973 191.14 774.297 190.038C775.528 185.18 776.208 182.637 776.338 182.41C776.759 181.536 777.455 181.098 778.427 181.098C778.848 181.098 779.188 181.212 779.447 181.438C779.707 181.665 779.885 181.86 779.982 182.021C780.079 182.183 780.111 182.329 780.079 182.459C780.079 182.88 779.286 186.281 777.698 192.662C776.111 199.043 775.204 202.542 774.977 203.157C774.07 205.846 772.499 207.983 770.264 209.571C768.029 211.158 765.794 211.968 763.559 212C762.102 212 760.822 211.644 759.721 210.931C758.62 210.218 758.069 209.15 758.069 207.724C758.069 207.012 758.182 206.412 758.409 205.927C758.636 205.441 758.944 205.084 759.332 204.858C759.721 204.631 760.045 204.469 760.304 204.372C760.563 204.275 760.838 204.226 761.13 204.226C762.555 204.226 763.268 204.906 763.268 206.267C763.268 206.915 763.073 207.481 762.685 207.967C762.296 208.453 761.924 208.777 761.567 208.939C761.211 209.101 761 209.182 760.936 209.182L760.79 209.231C760.855 209.392 761.162 209.587 761.713 209.814C762.264 210.04 762.814 210.154 763.365 210.154H763.754C764.304 210.154 764.725 210.121 765.017 210.056C766.086 209.765 767.074 209.15 767.981 208.21C768.888 207.271 769.584 206.267 770.07 205.198C770.556 204.129 770.928 203.222 771.188 202.477C771.447 201.732 771.576 201.246 771.576 201.019L771.285 201.214C771.09 201.343 770.783 201.521 770.362 201.748C769.94 201.975 769.519 202.169 769.098 202.331C768.45 202.493 767.819 202.574 767.203 202.574C765.713 202.574 764.402 202.218 763.268 201.505C762.134 200.792 761.389 199.643 761.033 198.055C761 197.829 760.984 197.327 760.984 196.549C760.984 194.703 761.551 192.29 762.685 189.31C763.818 186.33 764.385 184.435 764.385 183.625C764.385 183.592 764.385 183.56 764.385 183.528C764.385 183.236 764.385 183.042 764.385 182.945C764.385 182.847 764.321 182.734 764.191 182.605C764.061 182.475 763.883 182.41 763.657 182.41H763.462C762.717 182.41 762.037 182.718 761.421 183.333C760.806 183.949 760.32 184.613 759.964 185.325C759.608 186.038 759.332 186.718 759.138 187.366C758.944 188.014 758.814 188.37 758.749 188.435C758.684 188.5 758.425 188.532 757.972 188.532H757.292C757.097 188.338 757 188.192 757 188.095Z" fill="black"/>
<path d="M797.911 189.893C797.911 185.941 799.239 182.702 801.895 180.175C804.551 177.649 807.693 176.207 811.321 175.851C811.353 175.851 811.629 175.851 812.147 175.851C812.665 175.851 813.345 175.835 814.188 175.802C815.03 175.77 815.84 175.77 816.617 175.802H821.427C821.913 176.061 822.156 176.385 822.156 176.774C822.156 177.066 821.945 177.373 821.524 177.697L816.471 177.746C812.876 177.778 810.657 177.875 809.815 178.037C808.228 178.426 806.818 179.009 805.588 179.787C804.357 180.564 803.401 181.358 802.721 182.167C802.041 182.977 801.458 183.868 800.972 184.84C800.486 185.811 800.194 186.589 800.097 187.172C800 187.755 799.919 188.306 799.854 188.824V188.921H821.427C821.913 189.18 822.156 189.504 822.156 189.893C822.156 190.281 821.913 190.605 821.427 190.865H799.854V190.962C799.854 191.642 800.016 192.468 800.34 193.44C800.664 194.411 801.199 195.464 801.944 196.598C802.689 197.732 803.725 198.768 805.053 199.707C806.381 200.647 807.952 201.311 809.766 201.7C810.641 201.894 812.876 202.007 816.471 202.04H821.524C821.945 202.364 822.156 202.687 822.156 203.011C822.156 203.4 821.913 203.724 821.427 203.983H816.714C816.487 203.983 816.083 203.983 815.499 203.983C814.916 203.983 814.447 203.999 814.09 204.032C809.07 204.032 805.102 202.639 802.186 199.853C799.336 197.197 797.911 193.877 797.911 189.893Z" fill="black"/>
<path d="M863.893 191.69C863.245 191.69 862.921 191.48 862.921 191.059C862.921 190.929 863.002 190.54 863.164 189.893C863.326 189.245 863.407 188.678 863.407 188.192C863.407 187.188 863.067 186.573 862.386 186.346C861.706 186.119 860.135 186.006 857.674 186.006H855.147C855.115 186.07 854.548 188.305 853.446 192.711C852.345 197.116 851.794 199.383 851.794 199.513C851.794 199.643 851.973 199.707 852.329 199.707C852.685 199.707 853.981 199.74 856.216 199.805C859.261 199.805 861.269 199.772 862.241 199.707C863.212 199.643 864.184 199.432 865.156 199.076C866.743 198.557 868.055 197.65 869.092 196.355C870.128 195.059 871.278 192.937 872.541 189.99C872.865 189.277 873.076 188.889 873.173 188.824C873.4 188.759 873.643 188.727 873.902 188.727C874.55 188.727 874.874 188.937 874.874 189.358C871.472 197.586 869.691 201.78 869.529 201.942C869.432 202.007 864.8 202.04 855.633 202.04H846.45C843.146 202.04 841.494 201.861 841.494 201.505C841.494 201.44 841.542 201.214 841.64 200.825C841.769 200.307 841.899 200.015 842.028 199.95C842.158 199.886 842.53 199.837 843.146 199.805C844.02 199.805 844.992 199.756 846.061 199.659C846.515 199.562 846.822 199.367 846.984 199.076C847.049 198.914 848.199 194.363 850.434 185.423C852.669 176.482 853.803 171.948 853.835 171.818C853.835 171.591 853.77 171.478 853.641 171.478C853.382 171.381 852.523 171.3 851.066 171.235H849.559C849.365 171.041 849.268 170.911 849.268 170.846C849.268 170.782 849.3 170.506 849.365 170.02C849.495 169.47 849.657 169.13 849.851 169H876.768C876.995 169.13 877.109 169.308 877.109 169.534C877.109 169.696 876.898 171.51 876.477 174.976C876.056 178.442 875.829 180.224 875.797 180.321C875.732 180.548 875.408 180.661 874.825 180.661H874.242C874.015 180.499 873.902 180.289 873.902 180.029L874.048 178.912C874.145 178.134 874.193 177.292 874.193 176.385C874.193 175.414 874.08 174.604 873.853 173.956C873.626 173.308 873.319 172.806 872.93 172.45C872.541 172.093 871.974 171.834 871.229 171.672C870.484 171.51 869.723 171.397 868.946 171.332C868.168 171.267 867.132 171.235 865.836 171.235H863.553C860.702 171.267 859.196 171.316 859.034 171.381C858.904 171.446 858.807 171.591 858.742 171.818C858.71 171.915 858.208 173.907 857.236 177.794C856.264 181.681 855.762 183.657 855.73 183.722C856.475 183.754 857.252 183.771 858.062 183.771H859.325C861.463 183.771 862.937 183.528 863.747 183.042C864.557 182.556 865.286 181.244 865.933 179.106C866.063 178.588 866.16 178.296 866.225 178.232C866.29 178.167 866.565 178.118 867.051 178.086C867.213 178.086 867.342 178.086 867.44 178.086C867.537 178.086 867.618 178.102 867.683 178.134C867.747 178.167 867.78 178.183 867.78 178.183C867.78 178.183 867.812 178.248 867.877 178.377C867.942 178.507 867.99 178.572 868.023 178.572L866.419 184.985C865.35 189.293 864.767 191.48 864.67 191.545C864.573 191.642 864.314 191.69 863.893 191.69Z" fill="black"/>
<path d="M872.414 252.414C873.195 251.633 873.195 250.367 872.414 249.586L859.686 236.858C858.905 236.077 857.639 236.077 856.858 236.858C856.077 237.639 856.077 238.905 856.858 239.686L868.172 251L856.858 262.314C856.077 263.095 856.077 264.361 856.858 265.142C857.639 265.923 858.905 265.923 859.686 265.142L872.414 252.414ZM762 251V253H871V251V249H762V251Z" fill="black"/>
<path d="M872.414 285.414C873.195 284.633 873.195 283.367 872.414 282.586L859.686 269.858C858.905 269.077 857.639 269.077 856.858 269.858C856.077 270.639 856.077 271.905 856.858 272.686L868.172 284L856.858 295.314C856.077 296.095 856.077 297.361 856.858 298.142C857.639 298.923 858.905 298.923 859.686 298.142L872.414 285.414ZM762 284V286H871V284V282H762V284Z" fill="black"/>
</g>
<defs>
<clipPath id="clip0_24_143">
<rect width="1640" height="531" fill="white"/>
</clipPath>
</defs>
</svg>
