<svg width="1640" height="531" viewBox="0 0 1640 531" fill="none" xmlns="http://www.w3.org/2000/svg">
<rect width="1640" height="531" fill="black"/>
<path d="M30 30H1610V501H30V30Z" fill="white"/>
<path d="M127.721 291.843H128.961C131.265 291.843 132.653 291.429 133.126 290.602V289.893C133.126 289.361 133.126 288.682 133.126 287.855C133.126 287.028 133.126 286.053 133.126 284.931C133.126 283.809 133.155 282.538 133.214 281.121C133.273 279.703 133.273 278.226 133.214 276.69C133.155 275.154 133.155 273.53 133.214 271.817C133.273 270.103 133.273 268.42 133.214 266.766C133.214 264.58 133.214 262.276 133.214 259.854C133.214 257.432 133.214 255.217 133.214 253.208C133.214 251.2 133.214 249.428 133.214 247.892C133.214 246.356 133.185 245.056 133.126 243.993C133.067 242.93 133.067 242.427 133.126 242.487C132.948 241.364 132.535 240.626 131.885 240.271C131.235 239.917 129.906 239.651 127.898 239.474H126.303V237.436C126.303 236.077 126.363 235.398 126.481 235.398L127.367 235.309C127.957 235.25 128.814 235.191 129.936 235.132C131.058 235.073 132.151 235.014 133.214 234.955C134.218 234.896 135.311 234.837 136.492 234.777C137.674 234.718 138.56 234.63 139.15 234.512C139.741 234.393 140.066 234.364 140.125 234.423H140.391V262.335C140.391 281.062 140.42 290.484 140.479 290.602C140.716 291.075 141.07 291.399 141.542 291.577C142.783 291.754 144.23 291.843 145.884 291.843H147.301V295.919H146.593L144.555 295.83C143.196 295.771 141.749 295.741 140.214 295.741C138.678 295.741 137.556 295.712 136.847 295.653C136.138 295.594 135.016 295.594 133.48 295.653C131.944 295.712 130.468 295.771 129.05 295.83L127.012 295.919H126.303V291.843H127.721Z" fill="black"/>
<path d="M155.187 241.955C155.187 240.301 155.718 239.001 156.781 238.056C157.845 237.111 159.144 236.638 160.68 236.638C162.038 236.756 163.22 237.259 164.224 238.145C165.228 239.031 165.73 240.301 165.73 241.955C165.73 243.727 165.228 245.056 164.224 245.942C163.22 246.828 161.979 247.272 160.503 247.272C159.026 247.272 157.786 246.828 156.781 245.942C155.777 245.056 155.246 243.727 155.187 241.955ZM170.957 295.919C170.071 295.741 167 295.653 161.743 295.653C161.093 295.653 160.001 295.653 158.465 295.653C156.929 295.653 155.453 295.712 154.035 295.83L152.086 295.919H151.377V291.843H152.795C154.448 291.843 155.896 291.754 157.136 291.577C157.667 291.34 157.992 291.015 158.11 290.602C158.229 290.188 158.288 288.948 158.288 286.88V277.753V269.956C158.288 266.884 158.229 264.935 158.11 264.107C157.992 263.28 157.579 262.719 156.87 262.424C156.043 262.01 154.655 261.804 152.706 261.804H151.731V259.766C151.731 258.407 151.79 257.728 151.909 257.728L152.795 257.639C153.385 257.58 154.212 257.521 155.275 257.462C156.338 257.403 157.402 257.344 158.465 257.284C159.469 257.225 160.532 257.166 161.654 257.107C162.777 257.048 163.633 256.96 164.224 256.841C164.814 256.723 165.139 256.694 165.198 256.753H165.464V290.425C165.76 291.015 166.114 291.37 166.527 291.488C166.941 291.606 167.975 291.724 169.628 291.843H171.666V295.919H170.957Z" fill="black"/>
<path d="M177.779 291.843H179.02C181.323 291.843 182.711 291.429 183.184 290.602V289.893C183.184 289.361 183.184 288.682 183.184 287.855C183.184 287.028 183.184 286.112 183.184 285.108C183.184 284.104 183.213 282.952 183.273 281.652C183.332 280.353 183.332 279.112 183.273 277.931C183.273 276.099 183.273 274.15 183.273 272.082C183.273 270.015 183.243 268.272 183.184 266.854V264.816C183.007 263.694 182.593 262.956 181.944 262.601C181.294 262.247 179.965 261.981 177.957 261.804H176.362V259.766C176.362 258.407 176.421 257.728 176.539 257.728L177.425 257.639C178.016 257.58 178.843 257.521 179.906 257.462C180.969 257.403 182.062 257.344 183.184 257.285C184.188 257.225 185.251 257.166 186.374 257.107C187.496 257.048 188.352 256.96 188.943 256.841C189.534 256.723 189.858 256.694 189.917 256.753H190.183V260.297C190.183 262.542 190.213 263.664 190.272 263.664C190.331 263.664 190.479 263.517 190.715 263.221C190.951 262.926 191.306 262.483 191.778 261.892C192.251 261.302 192.812 260.77 193.461 260.297C194.111 259.825 194.968 259.263 196.031 258.614C197.094 257.964 198.216 257.491 199.398 257.196C200.579 256.901 202.085 256.753 203.916 256.753C204.802 256.753 205.629 256.812 206.397 256.93C207.165 257.048 207.844 257.225 208.435 257.462C209.025 257.698 209.586 257.934 210.118 258.171C210.65 258.407 211.093 258.673 211.447 258.968C211.801 259.263 212.126 259.588 212.422 259.943C212.717 260.297 212.983 260.622 213.219 260.918C213.455 261.213 213.662 261.538 213.839 261.892C214.016 262.247 214.135 262.542 214.194 262.778C214.253 263.015 214.341 263.251 214.459 263.487L214.637 263.93L214.902 263.576C215.08 263.34 215.257 263.103 215.434 262.867C215.611 262.631 215.877 262.306 216.231 261.892C216.586 261.479 216.97 261.095 217.383 260.74C217.797 260.386 218.24 260.002 218.712 259.588C219.185 259.175 219.775 258.82 220.484 258.525C221.193 258.23 221.872 257.934 222.522 257.639C223.172 257.344 223.94 257.137 224.826 257.019C225.712 256.901 226.627 256.812 227.572 256.753C235.014 256.753 239.06 260.09 239.71 266.766C239.769 267.179 239.799 271.285 239.799 279.083V286.703C239.799 288.948 239.858 290.277 239.976 290.691C240.094 291.104 240.419 291.399 240.951 291.577C242.191 291.754 243.638 291.843 245.292 291.843H246.709V295.919H246.001L243.963 295.83C242.545 295.771 241.039 295.741 239.444 295.741C237.85 295.741 236.727 295.712 236.078 295.653C229.994 295.653 226.686 295.741 226.155 295.919H225.446V291.843H226.863C230.466 291.843 232.268 291.37 232.268 290.425C232.327 290.307 232.356 286.231 232.356 278.197C232.297 270.222 232.238 265.998 232.179 265.525C231.825 263.871 231.234 262.631 230.407 261.804C229.58 260.977 228.872 260.474 228.281 260.297C227.69 260.12 226.922 260.061 225.977 260.12C223.319 260.12 220.986 261.124 218.978 263.133C217.383 264.728 216.379 266.352 215.966 268.006C215.552 269.66 215.316 272.112 215.257 275.361V281.032V286.349C215.257 288.121 215.286 289.302 215.345 289.893C215.404 290.484 215.493 290.868 215.611 291.045C215.729 291.222 215.995 291.399 216.409 291.577C217.649 291.754 219.096 291.843 220.75 291.843H222.168V295.919H221.459L219.332 295.83C217.974 295.771 216.497 295.741 214.902 295.741C213.308 295.741 212.185 295.712 211.536 295.653C205.452 295.653 202.144 295.741 201.613 295.919H200.904V291.843H202.321C205.924 291.843 207.726 291.37 207.726 290.425C207.785 290.307 207.814 286.231 207.814 278.197C207.755 270.222 207.696 265.998 207.637 265.525C207.283 263.871 206.692 262.631 205.865 261.804C205.038 260.977 204.33 260.474 203.739 260.297C203.148 260.12 202.38 260.061 201.435 260.12C198.777 260.12 196.444 261.124 194.436 263.133C192.841 264.728 191.837 266.352 191.424 268.006C191.01 269.66 190.774 272.112 190.715 275.361V281.032V286.349C190.715 288.121 190.744 289.302 190.803 289.893C190.863 290.484 190.951 290.868 191.069 291.045C191.187 291.222 191.453 291.399 191.867 291.577C193.107 291.754 194.554 291.843 196.208 291.843H197.626V295.919H196.917L194.879 295.83C193.461 295.771 191.955 295.741 190.36 295.741C188.766 295.741 187.643 295.712 186.994 295.653C180.91 295.653 177.602 295.741 177.071 295.919H176.362V291.843H177.779Z" fill="black"/>
<path d="M126.556 331.988C126.556 331.404 126.869 330.401 127.496 328.981C128.122 327.561 129.125 326.078 130.503 324.532C131.881 322.987 133.426 322.235 135.139 322.277C136.851 322.277 138.23 322.757 139.274 323.718C140.318 324.678 140.861 326.015 140.903 327.728C140.819 328.521 140.756 328.96 140.715 329.044C140.715 329.169 140.38 330.13 139.712 331.926C139.044 333.722 138.355 335.748 137.645 338.004C136.935 340.259 136.601 342.055 136.642 343.392C136.642 345.188 136.935 346.441 137.519 347.151C138.104 347.862 138.981 348.237 140.151 348.279C141.111 348.279 142.009 348.05 142.845 347.59C143.68 347.131 144.327 346.65 144.787 346.149C145.246 345.648 145.81 344.958 146.478 344.081C146.478 344.039 146.583 343.622 146.792 342.828C147 342.034 147.293 340.802 147.669 339.131C148.045 337.46 148.441 335.915 148.859 334.495C150.446 328.229 151.323 324.95 151.49 324.658C152.033 323.53 152.931 322.966 154.184 322.966C154.727 322.966 155.166 323.112 155.5 323.404C155.834 323.697 156.064 323.947 156.189 324.156C156.314 324.365 156.356 324.553 156.314 324.72C156.314 325.263 155.291 329.649 153.244 337.878C151.198 346.107 150.028 350.618 149.736 351.412C148.567 354.879 146.541 357.636 143.659 359.683C140.777 361.73 137.895 362.774 135.014 362.816C133.134 362.816 131.484 362.356 130.064 361.437C128.644 360.518 127.934 359.14 127.934 357.302C127.934 356.383 128.08 355.61 128.373 354.984C128.665 354.357 129.062 353.897 129.563 353.605C130.064 353.313 130.482 353.104 130.816 352.979C131.15 352.853 131.505 352.791 131.881 352.791C133.719 352.791 134.638 353.668 134.638 355.422C134.638 356.258 134.387 356.989 133.886 357.615C133.385 358.242 132.904 358.659 132.445 358.868C131.985 359.077 131.714 359.182 131.63 359.182L131.443 359.244C131.526 359.453 131.923 359.704 132.633 359.996C133.343 360.289 134.053 360.435 134.763 360.435H135.264C135.974 360.435 136.517 360.393 136.893 360.309C138.271 359.933 139.545 359.14 140.715 357.928C141.884 356.717 142.782 355.422 143.408 354.044C144.035 352.665 144.515 351.496 144.849 350.535C145.184 349.574 145.351 348.948 145.351 348.655L144.975 348.906C144.724 349.073 144.327 349.303 143.784 349.595C143.241 349.887 142.698 350.138 142.156 350.347C141.32 350.556 140.506 350.66 139.712 350.66C137.791 350.66 136.099 350.201 134.638 349.282C133.176 348.363 132.215 346.88 131.756 344.833C131.714 344.541 131.693 343.893 131.693 342.891C131.693 340.51 132.424 337.398 133.886 333.555C135.348 329.712 136.079 327.268 136.079 326.224C136.079 326.182 136.079 326.14 136.079 326.099C136.079 325.723 136.079 325.472 136.079 325.347C136.079 325.221 135.995 325.075 135.828 324.908C135.661 324.741 135.431 324.658 135.139 324.658H134.888C133.928 324.658 133.051 325.054 132.257 325.848C131.463 326.642 130.837 327.498 130.377 328.417C129.918 329.336 129.563 330.213 129.312 331.049C129.062 331.884 128.895 332.344 128.811 332.427C128.728 332.511 128.394 332.552 127.809 332.552H126.932C126.681 332.302 126.556 332.114 126.556 331.988Z" fill="black"/>
<path d="M160.198 335.121C160.198 335.121 160.198 334.85 160.198 334.307C160.198 333.764 160.491 333.346 161.075 333.054H209.002C204.157 329.419 201.171 324.762 200.043 319.081C200.043 319.039 200.043 318.977 200.043 318.893C200.043 318.81 200.022 318.747 199.98 318.705C199.98 318.204 200.335 317.953 201.045 317.953H201.233C201.609 317.953 201.86 317.974 201.985 318.016C202.11 318.058 202.236 318.141 202.361 318.267C202.486 318.392 202.549 318.58 202.549 318.83C202.549 319.081 202.612 319.415 202.737 319.833C202.862 320.251 203.029 320.773 203.238 321.399C204.157 324.198 205.681 326.704 207.811 328.918C209.942 331.132 212.427 332.699 215.267 333.617C215.643 333.743 215.831 333.973 215.831 334.307C215.831 334.557 215.726 334.745 215.517 334.871C215.308 334.996 214.807 335.205 214.014 335.497C213.22 335.79 212.427 336.186 211.633 336.688C209.921 337.774 208.438 339.027 207.185 340.447C205.932 341.867 204.992 343.267 204.366 344.645C203.739 346.024 203.301 347.068 203.05 347.778C202.8 348.488 202.633 349.136 202.549 349.72C202.465 350.138 202.361 350.389 202.236 350.472C202.11 350.556 201.776 350.618 201.233 350.66C200.398 350.66 199.98 350.43 199.98 349.971C199.98 349.679 200.085 349.156 200.294 348.405C201.63 343.141 204.533 338.86 209.002 335.56H161.075C160.491 335.267 160.198 334.85 160.198 334.307V335.121Z" fill="black"/>
<path d="M221.782 340.008C221.782 335.455 223.578 331.362 227.17 327.728C230.762 324.094 234.646 322.277 238.823 322.277C241.162 322.277 242.999 322.778 244.336 323.78C245.672 324.783 246.362 326.099 246.403 327.728C246.403 328.939 246.007 329.962 245.213 330.798C244.419 331.633 243.417 332.072 242.206 332.114C241.412 332.114 240.786 331.905 240.326 331.487C239.867 331.069 239.637 330.443 239.637 329.607C239.637 328.772 239.867 328.062 240.326 327.477C240.786 326.892 241.245 326.454 241.705 326.161C242.164 325.869 242.456 325.744 242.582 325.785H242.644C242.644 325.702 242.519 325.577 242.268 325.409C242.018 325.242 241.579 325.075 240.953 324.908C240.326 324.741 239.616 324.658 238.823 324.658C237.57 324.658 236.379 324.95 235.252 325.535C234.375 325.911 233.477 326.558 232.558 327.477C230.72 329.315 229.384 331.905 228.548 335.247C227.713 338.588 227.274 341.011 227.233 342.515C227.233 344.436 227.776 345.877 228.862 346.838C229.78 347.841 230.992 348.342 232.495 348.342H232.746C237.424 348.342 241.287 346.567 244.336 343.016C244.712 342.598 244.962 342.389 245.088 342.389C245.255 342.389 245.526 342.577 245.902 342.953C246.278 343.329 246.487 343.622 246.529 343.831C246.57 344.039 246.382 344.353 245.965 344.77C245.547 345.188 244.941 345.773 244.148 346.525C243.354 347.277 242.415 347.903 241.329 348.405C240.243 348.906 238.906 349.428 237.319 349.971C235.732 350.514 234.061 350.744 232.307 350.66C229.175 350.66 226.648 349.658 224.727 347.653C222.805 345.648 221.824 343.1 221.782 340.008Z" fill="black"/>
<path d="M273.201 366.63C274.264 368.166 275.77 368.934 277.719 368.934H277.896C279.55 368.934 281.204 367.161 282.858 363.617C284.512 360.073 286.048 355.229 287.465 349.085C288.883 342.941 290.212 336.768 291.452 330.565C292.693 324.363 293.933 317.658 295.173 310.451C295.351 309.21 295.498 308.295 295.616 307.704C299.869 282.598 304.476 259.323 309.438 237.879C314.399 216.435 318.002 202.494 320.247 196.055C320.601 194.992 320.897 194.106 321.133 193.397C321.369 192.688 321.871 191.388 322.639 189.498C323.407 187.607 324.204 185.953 325.031 184.536C325.858 183.118 326.862 181.671 328.044 180.194C329.225 178.717 330.524 177.535 331.942 176.649C333.36 175.763 334.866 175.35 336.46 175.409C339.768 175.409 342.249 176.443 343.903 178.51C345.557 180.578 346.502 182.941 346.738 185.599C346.738 187.076 346.384 188.257 345.675 189.143C344.966 190.029 344.287 190.591 343.637 190.827C342.987 191.063 342.338 191.152 341.688 191.093C340.447 191.093 339.325 190.65 338.321 189.764C337.317 188.878 336.815 187.667 336.815 186.131C336.815 183.295 338.38 181.611 341.511 181.08L341.245 180.725C341.068 180.548 340.831 180.341 340.536 180.105C340.241 179.869 340.004 179.692 339.827 179.573C338.941 178.983 337.967 178.687 336.903 178.687C336.077 178.687 335.309 179.042 334.6 179.751C333.891 180.46 332.946 182.114 331.765 184.713C330.583 187.312 329.432 190.738 328.309 194.992C327.187 199.245 325.799 205.241 324.145 212.98C322.491 220.718 320.838 229.815 319.184 240.271C315.699 260.061 312.066 278.758 308.286 296.362C304.506 313.966 301.552 326.726 299.426 334.641C297.3 342.557 295.675 348.228 294.553 351.655C290.005 365.419 284.394 372.301 277.719 372.301C275.357 372.301 273.201 371.385 271.252 369.554C269.302 367.723 268.21 365.212 267.973 362.022C267.973 359.954 268.535 358.537 269.657 357.769C270.779 357.001 271.901 356.617 273.024 356.617C274.264 356.617 275.386 357.06 276.39 357.946C277.394 358.832 277.896 360.043 277.896 361.579C277.896 364.414 276.331 366.098 273.201 366.63Z" fill="black"/>
<path d="M362.023 158.073C362.023 157.656 362.107 157.175 362.274 156.632C362.441 156.089 362.691 155.818 363.026 155.818C363.067 155.818 364.571 155.713 367.536 155.504C370.502 155.296 372.026 155.17 372.11 155.129C372.611 155.129 372.862 155.316 372.862 155.692C372.862 156.068 372.151 159.055 370.731 164.652C370.397 166.073 370.042 167.535 369.666 169.038C369.291 170.542 368.977 171.67 368.727 172.422L368.476 173.612C368.476 173.738 368.601 173.675 368.852 173.424C370.899 171.753 373.008 170.918 375.18 170.918C377.769 170.918 379.857 171.879 381.444 173.8C383.032 175.722 383.846 178.144 383.888 181.068C383.888 185.705 382.238 189.903 378.938 193.663C375.639 197.422 372.089 199.302 368.288 199.302C366.2 199.302 364.299 198.508 362.587 196.921C360.875 195.333 359.998 192.764 359.956 189.214V188.65C359.956 187.773 360.123 186.561 360.457 185.016C360.791 183.47 361.814 179.356 363.527 172.672C365.615 164.444 366.659 160.078 366.659 159.577C366.659 159.076 365.866 158.784 364.279 158.7C364.07 158.7 363.903 158.7 363.777 158.7H363.464C363.046 158.7 362.775 158.7 362.65 158.7C362.524 158.7 362.378 158.637 362.211 158.512C362.044 158.387 361.981 158.24 362.023 158.073ZM378.5 178.249V177.873C378.5 174.782 377.226 173.236 374.678 173.236C373.968 173.236 373.237 173.403 372.486 173.738C371.734 174.072 371.045 174.51 370.418 175.053C369.792 175.596 369.249 176.098 368.789 176.557C368.33 177.017 367.954 177.476 367.662 177.936L367.286 178.437L365.97 183.825C365.051 187.418 364.592 189.966 364.592 191.47C364.592 193.475 365.093 194.978 366.095 195.981C366.764 196.649 367.599 196.983 368.601 196.983C369.98 196.983 371.379 196.315 372.799 194.978C373.843 194.018 374.678 192.848 375.305 191.47C375.931 190.091 376.62 187.898 377.372 184.891C378.124 181.883 378.5 179.669 378.5 178.249Z" fill="black"/>
<path d="M314.848 366.47C314.848 362.251 316.435 358.241 319.61 354.44C322.784 350.639 326.355 348.718 330.323 348.676C332.453 348.676 334.332 349.699 335.961 351.746C336.629 350.493 337.59 349.866 338.843 349.866C339.386 349.866 339.866 350.033 340.284 350.368C340.702 350.702 340.91 351.119 340.91 351.621C340.91 352.164 340.138 355.505 338.592 361.646C337.047 367.786 336.253 371.253 336.212 372.047C336.212 373.091 336.358 373.78 336.65 374.115C336.943 374.449 337.381 374.637 337.966 374.678C338.342 374.637 338.759 374.449 339.219 374.115C340.096 373.279 340.952 371.274 341.787 368.099C342.038 367.264 342.247 366.825 342.414 366.784C342.498 366.742 342.706 366.721 343.04 366.721H343.291C344.085 366.721 344.481 366.909 344.481 367.285C344.481 367.536 344.377 368.099 344.168 368.977C343.959 369.854 343.542 370.982 342.915 372.36C342.289 373.739 341.62 374.783 340.91 375.493C340.367 376.036 339.699 376.475 338.906 376.809C338.571 376.892 338.07 376.934 337.402 376.934C335.982 376.934 334.792 376.621 333.831 375.994C332.87 375.368 332.244 374.72 331.952 374.052L331.576 373.112C331.534 373.07 331.45 373.091 331.325 373.175C331.242 373.258 331.158 373.342 331.074 373.425C328.61 375.764 326.104 376.934 323.557 376.934C321.259 376.934 319.234 376.099 317.48 374.428C315.725 372.757 314.848 370.104 314.848 366.47ZM334.771 355.756C334.771 355.505 334.666 355.046 334.458 354.378C334.249 353.709 333.768 352.978 333.017 352.185C332.265 351.391 331.304 350.973 330.135 350.931C328.673 350.931 327.274 351.579 325.937 352.874C324.601 354.169 323.557 355.86 322.805 357.949C321.594 361.249 320.737 364.674 320.236 368.225C320.236 368.35 320.236 368.58 320.236 368.914C320.236 369.248 320.215 369.499 320.174 369.666C320.174 371.546 320.549 372.84 321.301 373.551C322.053 374.261 322.951 374.637 323.995 374.678C325.582 374.678 327.148 373.989 328.694 372.611C330.239 371.232 331.158 370.167 331.45 369.415C331.534 369.248 332.098 367.013 333.142 362.711C334.186 358.409 334.729 356.09 334.771 355.756Z" fill="black"/>
<path d="M418.769 310.274C418.887 310.274 419.064 310.333 419.3 310.451C419.537 310.569 419.861 310.657 420.275 310.717C420.688 310.776 421.043 310.805 421.338 310.805C422.106 310.805 422.815 310.421 423.464 309.653C424.114 308.885 424.587 308.029 424.882 307.084C425.473 305.489 426.477 300.969 427.894 293.526C429.312 286.083 430.671 278.994 431.97 272.26C433.269 265.525 433.919 262.129 433.919 262.07V261.804H429.755C426.979 261.804 425.502 261.745 425.325 261.626C425.089 261.449 424.971 261.154 424.971 260.74L425.591 258.259C425.709 257.964 425.945 257.816 426.3 257.816C426.654 257.816 428.042 257.787 430.464 257.728C433.299 257.728 434.717 257.698 434.717 257.639C434.717 257.521 434.982 256.044 435.514 253.209C436.046 250.373 436.4 248.66 436.577 248.069C438.763 238.322 443.074 233.448 449.513 233.448C451.698 233.567 453.5 234.216 454.917 235.398C456.335 236.579 457.044 238.145 457.044 240.094C457.044 242.221 456.423 243.757 455.183 244.702C453.943 245.647 452.702 246.149 451.462 246.208C448.863 246.208 447.563 244.968 447.563 242.487C447.563 241.364 447.888 240.39 448.538 239.563C449.188 238.736 449.897 238.115 450.664 237.702L451.462 237.259C450.517 236.904 449.631 236.727 448.804 236.727C448.095 236.727 447.416 237.022 446.766 237.613C446.116 238.204 445.673 239.031 445.437 240.094C445.024 241.807 444.551 244.111 444.019 247.006C443.488 249.9 443.015 252.352 442.602 254.36C442.188 256.369 441.982 257.432 441.982 257.55C441.982 257.669 443.606 257.728 446.855 257.728C449.513 257.728 451.048 257.757 451.462 257.816C451.875 257.875 452.2 258.053 452.436 258.348C452.495 258.584 452.436 259.086 452.259 259.854C452.082 260.622 451.934 261.095 451.816 261.272C451.698 261.567 451.432 261.715 451.019 261.715C450.605 261.715 449.011 261.745 446.234 261.804H441.273L439.235 272.614C436.4 287.264 434.421 296.421 433.299 300.083C431.704 305.105 429.637 308.826 427.097 311.248C424.912 313.139 422.756 314.084 420.629 314.084C418.739 314.084 417.026 313.523 415.491 312.4C413.955 311.278 413.187 309.683 413.187 307.615C413.187 305.429 413.807 303.834 415.048 302.83C416.288 301.826 417.528 301.324 418.769 301.324C421.368 301.324 422.667 302.564 422.667 305.045C422.667 306.168 422.342 307.143 421.693 307.97C421.043 308.797 420.334 309.417 419.566 309.83L418.769 310.274Z" fill="black"/>
<path d="M465.815 273.766C465.815 269.69 466.111 265.821 466.701 262.158C467.292 258.496 467.971 255.335 468.739 252.677C469.507 250.018 470.6 247.419 472.017 244.879C473.435 242.339 474.557 240.36 475.384 238.942C476.211 237.524 477.451 235.989 479.105 234.334C480.759 232.68 481.733 231.676 482.029 231.322C482.324 230.967 483.062 230.347 484.244 229.461H485.396H485.75C486.577 229.461 486.99 229.727 486.99 230.258C486.99 230.436 486.488 231.056 485.484 232.119C484.48 233.183 483.269 234.748 481.852 236.816C480.434 238.883 478.987 241.423 477.51 244.436C476.034 247.449 474.793 251.525 473.789 256.664C472.785 261.804 472.283 267.504 472.283 273.766C472.283 280.028 472.785 285.699 473.789 290.779C474.793 295.86 476.004 299.965 477.422 303.096C478.839 306.227 480.286 308.767 481.763 310.717C483.24 312.666 484.48 314.231 485.484 315.413C486.488 316.594 486.99 317.215 486.99 317.274C486.99 317.805 486.547 318.071 485.661 318.071H485.396H484.244L481.763 315.945C476.211 310.923 472.165 304.661 469.625 297.159C467.085 289.657 465.815 281.859 465.815 273.766Z" fill="black"/>
<path d="M497.002 270.31C497.416 267.829 499.011 264.964 501.787 261.715C504.563 258.466 507.989 256.812 512.064 256.753C514.131 256.753 516.022 257.284 517.734 258.348C519.447 259.411 520.717 260.74 521.544 262.335C524.025 258.614 527.008 256.753 530.493 256.753C532.678 256.753 534.568 257.403 536.163 258.702C537.758 260.002 538.585 261.745 538.644 263.93C538.644 265.643 538.23 267.032 537.403 268.095C536.577 269.158 535.779 269.808 535.011 270.044C534.243 270.281 533.564 270.399 532.973 270.399C531.851 270.399 530.936 270.074 530.227 269.424C529.518 268.774 529.164 267.918 529.164 266.854C529.164 264.137 530.64 262.276 533.594 261.272C532.944 260.504 531.763 260.12 530.05 260.12C529.282 260.12 528.721 260.179 528.366 260.297C526.122 261.242 524.468 263.192 523.405 266.146C519.861 279.201 518.089 286.821 518.089 289.007C518.089 290.661 518.561 291.843 519.506 292.551C520.451 293.26 521.485 293.615 522.607 293.615C524.793 293.615 526.949 292.64 529.075 290.691C531.202 288.741 532.649 286.349 533.416 283.513C533.594 282.922 533.771 282.598 533.948 282.538C534.125 282.479 534.598 282.42 535.366 282.361H535.72C536.606 282.361 537.049 282.598 537.049 283.07C537.049 283.129 536.99 283.454 536.872 284.045C535.927 287.412 534.096 290.395 531.379 292.994C528.662 295.594 525.502 296.893 521.899 296.893C517.764 296.893 514.633 295.032 512.507 291.311C510.085 294.973 507.309 296.805 504.179 296.805H503.647C500.753 296.805 498.686 296.037 497.445 294.501C496.205 292.965 495.555 291.34 495.496 289.627C495.496 287.737 496.057 286.201 497.179 285.02C498.302 283.838 499.631 283.247 501.166 283.247C503.706 283.247 504.976 284.488 504.976 286.969C504.976 288.15 504.622 289.184 503.913 290.07C503.204 290.956 502.525 291.547 501.875 291.843C501.225 292.138 500.842 292.286 500.723 292.286L500.458 292.374C500.458 292.433 500.635 292.551 500.989 292.729C501.344 292.906 501.816 293.113 502.407 293.349C502.997 293.585 503.559 293.674 504.09 293.615C506.217 293.615 508.048 292.286 509.583 289.627C510.115 288.682 510.794 286.674 511.621 283.602C512.448 280.53 513.275 277.34 514.102 274.032C514.929 270.724 515.401 268.774 515.519 268.184C515.815 266.589 515.962 265.437 515.962 264.728C515.962 263.074 515.519 261.892 514.633 261.183C513.747 260.474 512.743 260.12 511.621 260.12C509.258 260.12 507.044 261.065 504.976 262.956C502.909 264.846 501.462 267.268 500.635 270.222C500.517 270.753 500.369 271.049 500.192 271.108C500.015 271.167 499.542 271.226 498.774 271.285H497.534C497.179 270.93 497.002 270.606 497.002 270.31Z" fill="black"/>
<path d="M550.427 292.817C550.427 292.817 550.427 292.079 550.427 290.602C550.427 289.125 550.9 287.855 551.845 286.792C552.79 285.728 554.06 285.197 555.654 285.197C557.308 285.197 558.785 285.935 560.084 287.412C561.384 288.889 562.063 291.488 562.122 295.21C562.122 297.277 561.856 299.286 561.325 301.235C560.793 303.185 560.173 304.868 559.464 306.286C558.755 307.704 557.987 308.915 557.161 309.919C556.334 310.923 555.625 311.721 555.034 312.312C554.443 312.902 554.06 313.168 553.882 313.109C553.646 313.109 553.262 312.843 552.731 312.312C552.199 311.78 551.933 311.396 551.933 311.16C551.933 310.923 552.258 310.451 552.908 309.742C553.558 309.033 554.296 308.147 555.123 307.084C555.95 306.02 556.718 304.543 557.426 302.653C558.135 300.763 558.608 298.606 558.844 296.184V295.121L558.755 295.21C558.637 295.269 558.49 295.328 558.312 295.387C558.135 295.446 557.958 295.535 557.781 295.653C557.604 295.771 557.338 295.83 556.983 295.83C556.629 295.83 556.275 295.86 555.92 295.919C554.325 295.919 553.026 295.416 552.022 294.412L550.427 292.817Z" fill="black"/>
<path d="M585.247 270.487C585.247 269.66 585.69 268.243 586.576 266.234C587.462 264.226 588.879 262.129 590.828 259.943C592.778 257.757 594.963 256.694 597.385 256.753C599.806 256.753 601.756 257.432 603.232 258.791C604.709 260.15 605.477 262.04 605.536 264.462C605.418 265.584 605.329 266.205 605.27 266.323C605.27 266.5 604.797 267.859 603.852 270.399C602.907 272.939 601.933 275.804 600.929 278.994C599.924 282.184 599.452 284.724 599.511 286.615C599.511 289.155 599.924 290.927 600.751 291.931C601.578 292.935 602.819 293.467 604.473 293.526C605.831 293.526 607.101 293.201 608.282 292.551C609.464 291.902 610.379 291.222 611.029 290.513C611.679 289.805 612.476 288.83 613.421 287.589C613.421 287.53 613.569 286.939 613.864 285.817C614.159 284.695 614.573 282.952 615.104 280.589C615.636 278.226 616.197 276.04 616.788 274.032C619.032 265.171 620.273 260.534 620.509 260.12C621.277 258.525 622.547 257.728 624.319 257.728C625.087 257.728 625.707 257.934 626.179 258.348C626.652 258.761 626.977 259.116 627.154 259.411C627.331 259.707 627.39 259.972 627.331 260.209C627.331 260.977 625.884 267.179 622.99 278.817C620.096 290.454 618.442 296.834 618.028 297.957C616.374 302.86 613.51 306.759 609.434 309.653C605.359 312.548 601.283 314.025 597.207 314.084C594.549 314.084 592.216 313.434 590.208 312.134C588.2 310.835 587.196 308.885 587.196 306.286C587.196 304.986 587.402 303.894 587.816 303.007C588.229 302.121 588.791 301.472 589.499 301.058C590.208 300.645 590.799 300.349 591.271 300.172C591.744 299.995 592.246 299.906 592.778 299.906C595.376 299.906 596.676 301.147 596.676 303.628C596.676 304.809 596.321 305.843 595.613 306.729C594.904 307.615 594.225 308.206 593.575 308.501C592.925 308.797 592.541 308.944 592.423 308.944L592.157 309.033C592.275 309.328 592.837 309.683 593.841 310.096C594.845 310.51 595.849 310.717 596.853 310.717H597.562C598.566 310.717 599.334 310.657 599.865 310.539C601.815 310.008 603.616 308.885 605.27 307.172C606.924 305.459 608.194 303.628 609.08 301.678C609.966 299.729 610.645 298.075 611.118 296.716C611.59 295.357 611.826 294.471 611.826 294.058L611.295 294.412C610.94 294.649 610.379 294.973 609.611 295.387C608.843 295.8 608.076 296.155 607.308 296.45C606.126 296.746 604.975 296.893 603.852 296.893C601.135 296.893 598.743 296.244 596.676 294.944C594.609 293.644 593.25 291.547 592.6 288.653C592.541 288.239 592.512 287.323 592.512 285.906C592.512 282.538 593.545 278.137 595.613 272.703C597.68 267.268 598.714 263.812 598.714 262.335C598.714 262.276 598.714 262.217 598.714 262.158C598.714 261.626 598.714 261.272 598.714 261.095C598.714 260.918 598.596 260.711 598.359 260.474C598.123 260.238 597.798 260.12 597.385 260.12H597.03C595.672 260.12 594.431 260.681 593.309 261.804C592.187 262.926 591.301 264.137 590.651 265.437C590.001 266.736 589.499 267.977 589.145 269.158C588.791 270.34 588.554 270.99 588.436 271.108C588.318 271.226 587.845 271.285 587.019 271.285H585.778C585.424 270.931 585.247 270.665 585.247 270.487Z" fill="black"/>
<path d="M633.179 229.55L633.533 229.461C633.828 229.461 634.124 229.461 634.419 229.461H635.482L637.963 231.588C643.515 236.609 647.561 242.871 650.101 250.373C652.641 257.875 653.911 265.673 653.911 273.766C653.911 277.783 653.615 281.652 653.025 285.374C652.434 289.096 651.755 292.256 650.987 294.855C650.219 297.455 649.126 300.054 647.709 302.653C646.291 305.252 645.169 307.231 644.342 308.59C643.515 309.949 642.304 311.455 640.71 313.109C639.115 314.763 638.17 315.738 637.874 316.033C637.579 316.328 636.9 316.89 635.837 317.717C635.659 317.894 635.541 318.012 635.482 318.071H634.419C633.946 318.071 633.622 318.071 633.444 318.071C633.267 318.071 633.12 317.983 633.001 317.805C632.883 317.628 632.795 317.362 632.736 317.008C632.795 316.949 633.12 316.565 633.71 315.856C642.865 306.345 647.443 292.315 647.443 273.766C647.443 255.217 642.865 241.187 633.71 231.676C633.12 230.967 632.795 230.583 632.736 230.524C632.736 230.052 632.883 229.727 633.179 229.55Z" fill="black"/>
<path d="M695.198 235.398C695.257 235.398 697.384 235.25 701.577 234.955C705.771 234.659 707.927 234.482 708.045 234.423C708.754 234.423 709.108 234.659 709.108 235.132C709.108 235.545 706.952 244.466 702.641 261.892C698.329 279.319 696.114 288.209 695.996 288.564C695.878 288.918 695.848 289.361 695.907 289.893C695.907 292.374 696.734 293.615 698.388 293.615C698.919 293.556 699.51 293.29 700.16 292.817C701.4 291.636 702.611 288.8 703.792 284.311C704.147 283.129 704.442 282.509 704.678 282.45C704.797 282.391 705.092 282.361 705.564 282.361H705.919H706.273C707.159 282.361 707.602 282.598 707.602 283.07C707.602 283.365 707.514 283.838 707.336 284.488C706.569 287.442 705.683 289.834 704.678 291.665C703.674 293.497 702.847 294.678 702.198 295.21C701.548 295.741 700.721 296.214 699.717 296.627C699.244 296.746 698.536 296.805 697.591 296.805C695.582 296.805 693.899 296.362 692.54 295.476C691.182 294.589 690.296 293.674 689.882 292.729L689.351 291.399C689.292 291.34 689.174 291.37 688.996 291.488C688.878 291.606 688.76 291.724 688.642 291.843C685.157 295.151 681.613 296.805 678.01 296.805C674.761 296.805 671.897 295.623 669.416 293.26C666.935 290.897 665.695 287.146 665.695 282.007C665.695 279.171 666.285 276.277 667.467 273.323C668.648 270.369 670.066 267.829 671.72 265.702C674.496 262.335 677.272 260.002 680.048 258.702C682.824 257.403 685.334 256.753 687.579 256.753C690.887 256.753 693.367 257.993 695.021 260.474C695.316 260.829 695.464 260.947 695.464 260.829C695.523 260.593 696.321 257.373 697.856 251.17C699.392 244.968 700.219 241.689 700.337 241.335C700.337 240.567 700.13 240.094 699.717 239.917C699.303 239.74 698.152 239.592 696.262 239.474H694.401C694.047 239.119 693.869 238.883 693.869 238.765C693.869 238.647 693.928 238.086 694.047 237.081C694.342 235.959 694.726 235.398 695.198 235.398ZM693.958 267.032C692.599 262.365 690.384 260.031 687.313 260.031C685.246 260.031 683.267 260.947 681.377 262.778C679.487 264.61 678.01 267.002 676.947 269.956C675.234 274.623 674.023 279.467 673.314 284.488C673.314 284.665 673.314 284.99 673.314 285.463C673.314 285.935 673.285 286.29 673.226 286.526C673.226 289.184 673.757 291.015 674.821 292.02C675.884 293.024 677.154 293.556 678.63 293.615C681.82 293.615 685.098 291.488 688.465 287.235L689.174 286.26L693.958 267.032Z" fill="black"/>
<path d="M714.159 270.31C714.572 267.829 716.167 264.964 718.943 261.715C721.719 258.466 725.145 256.812 729.22 256.753C731.288 256.753 733.178 257.284 734.891 258.348C736.604 259.411 737.874 260.74 738.7 262.335C741.181 258.614 744.164 256.753 747.649 256.753C749.834 256.753 751.725 257.403 753.319 258.702C754.914 260.002 755.741 261.745 755.8 263.93C755.8 265.643 755.387 267.032 754.56 268.095C753.733 269.158 752.935 269.808 752.168 270.044C751.4 270.281 750.72 270.399 750.13 270.399C749.007 270.399 748.092 270.074 747.383 269.424C746.674 268.774 746.32 267.918 746.32 266.854C746.32 264.137 747.797 262.276 750.75 261.272C750.1 260.504 748.919 260.12 747.206 260.12C746.438 260.12 745.877 260.179 745.523 260.297C743.278 261.242 741.624 263.192 740.561 266.146C737.017 279.201 735.245 286.821 735.245 289.007C735.245 290.661 735.718 291.843 736.663 292.551C737.608 293.26 738.641 293.615 739.764 293.615C741.949 293.615 744.105 292.64 746.231 290.691C748.358 288.741 749.805 286.349 750.573 283.513C750.75 282.922 750.927 282.598 751.104 282.538C751.282 282.479 751.754 282.42 752.522 282.361H752.876C753.762 282.361 754.205 282.598 754.205 283.07C754.205 283.129 754.146 283.454 754.028 284.045C753.083 287.412 751.252 290.395 748.535 292.994C745.818 295.594 742.658 296.893 739.055 296.893C734.92 296.893 731.79 295.032 729.663 291.311C727.242 294.973 724.466 296.805 721.335 296.805H720.803C717.909 296.805 715.842 296.037 714.602 294.501C713.361 292.965 712.711 291.34 712.652 289.627C712.652 287.737 713.213 286.201 714.336 285.02C715.458 283.838 716.787 283.247 718.323 283.247C720.863 283.247 722.132 284.488 722.132 286.969C722.132 288.15 721.778 289.184 721.069 290.07C720.36 290.956 719.681 291.547 719.031 291.843C718.382 292.138 717.998 292.286 717.88 292.286L717.614 292.374C717.614 292.433 717.791 292.551 718.145 292.729C718.5 292.906 718.972 293.113 719.563 293.349C720.154 293.585 720.715 293.674 721.246 293.615C723.373 293.615 725.204 292.286 726.74 289.627C727.271 288.682 727.95 286.674 728.777 283.602C729.604 280.53 730.431 277.34 731.258 274.032C732.085 270.724 732.558 268.774 732.676 268.184C732.971 266.589 733.119 265.437 733.119 264.728C733.119 263.074 732.676 261.892 731.79 261.183C730.904 260.474 729.9 260.12 728.777 260.12C726.415 260.12 724.2 261.065 722.132 262.956C720.065 264.846 718.618 267.268 717.791 270.222C717.673 270.753 717.525 271.049 717.348 271.108C717.171 271.167 716.698 271.226 715.931 271.285H714.69C714.336 270.93 714.159 270.606 714.159 270.31Z" fill="black"/>
<path d="M790.265 265.171C790.265 264.403 790.679 263.812 791.506 263.399H847.943C848.829 263.871 849.272 264.462 849.272 265.171C849.272 265.821 848.859 266.382 848.032 266.854L819.857 266.943H791.683C790.738 266.648 790.265 266.057 790.265 265.171ZM790.265 282.361C790.265 281.475 790.738 280.884 791.683 280.589H848.032C848.859 281.18 849.272 281.77 849.272 282.361C849.272 283.129 848.829 283.72 847.943 284.133H791.506C790.679 283.72 790.265 283.129 790.265 282.361Z" fill="black"/>
<path d="M819.196 202.936C817.693 202.936 816.356 203.186 815.187 203.688C814.017 204.189 813.224 204.69 812.806 205.191L812.18 205.881C812.263 205.881 812.368 205.901 812.493 205.943C812.618 205.985 812.848 206.069 813.182 206.194C813.516 206.319 813.829 206.507 814.122 206.758C814.414 207.008 814.665 207.343 814.874 207.76C815.082 208.178 815.187 208.679 815.187 209.264C815.187 210.225 814.874 211.018 814.247 211.645C813.621 212.272 812.827 212.585 811.866 212.585C810.906 212.585 810.112 212.292 809.486 211.708C808.859 211.123 808.525 210.329 808.483 209.327C808.483 206.862 809.423 204.878 811.303 203.374C813.182 201.871 815.249 200.972 817.505 200.68C817.588 200.68 817.818 200.68 818.194 200.68C818.57 200.68 818.862 200.659 819.071 200.617H819.322C821.535 200.617 823.456 200.889 825.085 201.432C826.714 201.975 827.925 202.727 828.719 203.688C829.513 204.648 830.118 205.567 830.536 206.445C830.953 207.322 831.141 208.262 831.1 209.264C831.1 211.937 829.951 214.13 827.654 215.843C823.728 218.642 821.347 221.963 820.512 225.806C820.303 226.808 820.199 228.103 820.199 229.69V230.755C820.199 231.549 820.136 232.009 820.011 232.134C819.886 232.259 819.53 232.343 818.946 232.384C818.361 232.426 818.006 232.364 817.881 232.197C817.755 232.029 817.693 231.674 817.693 231.131V229.189C817.776 226.223 818.152 223.675 818.82 221.545C819.489 219.415 820.22 217.869 821.013 216.908C821.807 215.947 822.579 214.987 823.331 214.026C824.083 213.065 824.563 212.105 824.772 211.144C824.856 210.768 824.897 209.995 824.897 208.825V208.011C824.897 207.301 824.856 206.716 824.772 206.257C824.689 205.797 824.459 205.275 824.083 204.69C823.707 204.105 823.143 203.667 822.391 203.374C821.64 203.082 820.575 202.936 819.196 202.936ZM815.187 240.968C815.187 239.799 815.563 238.88 816.315 238.212C817.066 237.543 817.985 237.209 819.071 237.209C820.032 237.293 820.867 237.648 821.577 238.274C822.287 238.901 822.642 239.799 822.642 240.968C822.642 242.222 822.287 243.161 821.577 243.788C820.867 244.415 819.99 244.728 818.946 244.728C817.902 244.728 817.025 244.415 816.315 243.788C815.604 243.161 815.229 242.222 815.187 240.968Z" fill="black"/>
<path d="M889.319 366.63C890.382 368.166 891.888 368.934 893.837 368.934H894.014C895.668 368.934 897.322 367.161 898.976 363.617C900.63 360.073 902.166 355.229 903.583 349.085C905.001 342.941 906.33 336.768 907.57 330.565C908.81 324.363 910.051 317.658 911.291 310.451C911.468 309.21 911.616 308.295 911.734 307.704C915.987 282.598 920.594 259.323 925.556 237.879C930.517 216.435 934.12 202.494 936.365 196.055C936.719 194.992 937.014 194.106 937.251 193.397C937.487 192.688 937.989 191.388 938.757 189.498C939.525 187.607 940.322 185.953 941.149 184.536C941.976 183.118 942.98 181.671 944.161 180.194C945.343 178.717 946.642 177.535 948.06 176.649C949.477 175.763 950.984 175.35 952.578 175.409C955.886 175.409 958.367 176.443 960.021 178.51C961.675 180.578 962.62 182.941 962.856 185.599C962.856 187.076 962.501 188.257 961.793 189.143C961.084 190.029 960.405 190.591 959.755 190.827C959.105 191.063 958.455 191.152 957.806 191.093C956.565 191.093 955.443 190.65 954.439 189.764C953.435 188.878 952.933 187.667 952.933 186.131C952.933 183.295 954.498 181.611 957.629 181.08L957.363 180.725C957.186 180.548 956.949 180.341 956.654 180.105C956.359 179.869 956.122 179.692 955.945 179.573C955.059 178.983 954.085 178.687 953.021 178.687C952.194 178.687 951.427 179.042 950.718 179.751C950.009 180.46 949.064 182.114 947.883 184.713C946.701 187.312 945.55 190.738 944.427 194.992C943.305 199.245 941.917 205.241 940.263 212.98C938.609 220.718 936.955 229.815 935.302 240.271C931.817 260.061 928.184 278.758 924.404 296.362C920.624 313.966 917.67 326.726 915.544 334.641C913.418 342.557 911.793 348.228 910.671 351.655C906.123 365.419 900.512 372.301 893.837 372.301C891.475 372.301 889.319 371.385 887.369 369.554C885.42 367.723 884.328 365.212 884.091 362.022C884.091 359.954 884.652 358.537 885.775 357.769C886.897 357.001 888.019 356.617 889.141 356.617C890.382 356.617 891.504 357.06 892.508 357.946C893.512 358.832 894.014 360.043 894.014 361.579C894.014 364.414 892.449 366.098 889.319 366.63Z" fill="black"/>
<path d="M978.141 158.073C978.141 157.656 978.225 157.175 978.392 156.632C978.559 156.089 978.809 155.818 979.144 155.818C979.185 155.818 980.689 155.713 983.654 155.504C986.62 155.296 988.144 155.17 988.228 155.129C988.729 155.129 988.979 155.316 988.979 155.692C988.979 156.068 988.269 159.055 986.849 164.652C986.515 166.073 986.16 167.535 985.784 169.038C985.408 170.542 985.095 171.67 984.845 172.422L984.594 173.612C984.594 173.738 984.719 173.675 984.97 173.424C987.016 171.753 989.126 170.918 991.297 170.918C993.887 170.918 995.975 171.879 997.562 173.8C999.149 175.722 999.964 178.144 1000.01 181.068C1000.01 185.705 998.356 189.903 995.056 193.663C991.757 197.422 988.207 199.302 984.406 199.302C982.318 199.302 980.417 198.508 978.705 196.921C976.993 195.333 976.115 192.764 976.074 189.214V188.65C976.074 187.773 976.241 186.561 976.575 185.016C976.909 183.47 977.932 179.356 979.645 172.672C981.733 164.444 982.777 160.078 982.777 159.577C982.777 159.076 981.984 158.784 980.397 158.7C980.188 158.7 980.021 158.7 979.895 158.7H979.582C979.164 158.7 978.893 158.7 978.768 158.7C978.642 158.7 978.496 158.637 978.329 158.512C978.162 158.387 978.099 158.24 978.141 158.073ZM994.618 178.249V177.873C994.618 174.782 993.344 173.236 990.796 173.236C990.086 173.236 989.355 173.403 988.604 173.738C987.852 174.072 987.163 174.51 986.536 175.053C985.91 175.596 985.367 176.098 984.907 176.557C984.448 177.017 984.072 177.476 983.78 177.936L983.404 178.437L982.088 183.825C981.169 187.418 980.71 189.966 980.71 191.47C980.71 193.475 981.211 194.978 982.213 195.981C982.882 196.649 983.717 196.983 984.719 196.983C986.098 196.983 987.497 196.315 988.917 194.978C989.961 194.018 990.796 192.848 991.423 191.47C992.049 190.091 992.738 187.898 993.49 184.891C994.242 181.883 994.618 179.669 994.618 178.249Z" fill="black"/>
<path d="M930.967 366.47C930.967 362.251 932.554 358.241 935.728 354.44C938.902 350.639 942.473 348.718 946.441 348.676C948.571 348.676 950.45 349.699 952.079 351.746C952.748 350.493 953.708 349.866 954.961 349.866C955.504 349.866 955.984 350.033 956.402 350.368C956.82 350.702 957.029 351.119 957.029 351.621C957.029 352.164 956.256 355.505 954.711 361.646C953.165 367.786 952.372 371.253 952.33 372.047C952.33 373.091 952.476 373.78 952.768 374.115C953.061 374.449 953.499 374.637 954.084 374.678C954.46 374.637 954.878 374.449 955.337 374.115C956.214 373.279 957.07 371.274 957.906 368.099C958.156 367.264 958.365 366.825 958.532 366.784C958.616 366.742 958.824 366.721 959.159 366.721H959.409C960.203 366.721 960.6 366.909 960.6 367.285C960.6 367.536 960.495 368.099 960.286 368.977C960.077 369.854 959.66 370.982 959.033 372.36C958.407 373.739 957.739 374.783 957.029 375.493C956.486 376.036 955.817 376.475 955.024 376.809C954.69 376.892 954.188 376.934 953.52 376.934C952.1 376.934 950.91 376.621 949.949 375.994C948.989 375.368 948.362 374.72 948.07 374.052L947.694 373.112C947.652 373.07 947.569 373.091 947.443 373.175C947.36 373.258 947.276 373.342 947.193 373.425C944.728 375.764 942.222 376.934 939.675 376.934C937.378 376.934 935.352 376.099 933.598 374.428C931.844 372.757 930.967 370.104 930.967 366.47ZM950.889 355.756C950.889 355.505 950.785 355.046 950.576 354.378C950.367 353.709 949.887 352.978 949.135 352.185C948.383 351.391 947.422 350.973 946.253 350.931C944.791 350.931 943.392 351.579 942.055 352.874C940.719 354.169 939.675 355.86 938.923 357.949C937.712 361.249 936.856 364.674 936.354 368.225C936.354 368.35 936.354 368.58 936.354 368.914C936.354 369.248 936.333 369.499 936.292 369.666C936.292 371.546 936.668 372.84 937.419 373.551C938.171 374.261 939.069 374.637 940.113 374.678C941.7 374.678 943.267 373.989 944.812 372.611C946.357 371.232 947.276 370.167 947.569 369.415C947.652 369.248 948.216 367.013 949.26 362.711C950.304 358.409 950.847 356.09 950.889 355.756Z" fill="black"/>
<path d="M1028.15 291.843H1029.39C1031.7 291.843 1033.09 291.429 1033.56 290.602V289.893C1033.56 289.362 1033.56 288.682 1033.56 287.855C1033.56 287.028 1033.56 286.053 1033.56 284.931C1033.56 283.809 1033.59 282.539 1033.65 281.121C1033.71 279.703 1033.71 278.226 1033.65 276.69C1033.59 275.154 1033.59 273.53 1033.65 271.817C1033.71 270.104 1033.71 268.42 1033.65 266.766C1033.65 264.58 1033.65 262.276 1033.65 259.854C1033.65 257.432 1033.65 255.217 1033.65 253.209C1033.65 251.2 1033.65 249.428 1033.65 247.892C1033.65 246.356 1033.62 245.056 1033.56 243.993C1033.5 242.93 1033.5 242.428 1033.56 242.487C1033.38 241.364 1032.97 240.626 1032.32 240.271C1031.67 239.917 1030.34 239.651 1028.33 239.474H1026.74V237.436C1026.74 236.077 1026.79 235.398 1026.91 235.398L1027.8 235.309C1028.39 235.25 1029.25 235.191 1030.37 235.132C1031.49 235.073 1032.58 235.014 1033.65 234.955C1034.65 234.896 1035.74 234.837 1036.92 234.778C1038.11 234.719 1038.99 234.63 1039.58 234.512C1040.17 234.394 1040.5 234.364 1040.56 234.423H1040.82V262.335C1040.82 281.062 1040.85 290.484 1040.91 290.602C1041.15 291.075 1041.5 291.4 1041.97 291.577C1043.22 291.754 1044.66 291.843 1046.32 291.843H1047.73V295.919H1047.03L1044.99 295.83C1043.63 295.771 1042.18 295.741 1040.65 295.741C1039.11 295.741 1037.99 295.712 1037.28 295.653C1036.57 295.594 1035.45 295.594 1033.91 295.653C1032.38 295.712 1030.9 295.771 1029.48 295.83L1027.44 295.919H1026.74V291.843H1028.15Z" fill="black"/>
<path d="M1055.62 241.955C1055.62 240.301 1056.15 239.001 1057.21 238.056C1058.28 237.111 1059.58 236.638 1061.11 236.638C1062.47 236.757 1063.65 237.259 1064.66 238.145C1065.66 239.031 1066.16 240.301 1066.16 241.955C1066.16 243.727 1065.66 245.056 1064.66 245.942C1063.65 246.829 1062.41 247.272 1060.94 247.272C1059.46 247.272 1058.22 246.829 1057.21 245.942C1056.21 245.056 1055.68 243.727 1055.62 241.955ZM1071.39 295.919C1070.5 295.741 1067.43 295.653 1062.18 295.653C1061.53 295.653 1060.43 295.653 1058.9 295.653C1057.36 295.653 1055.88 295.712 1054.47 295.83L1052.52 295.919H1051.81V291.843H1053.23C1054.88 291.843 1056.33 291.754 1057.57 291.577C1058.1 291.341 1058.42 291.016 1058.54 290.602C1058.66 290.189 1058.72 288.948 1058.72 286.88V277.754V269.956C1058.72 266.884 1058.66 264.935 1058.54 264.108C1058.42 263.281 1058.01 262.719 1057.3 262.424C1056.48 262.01 1055.09 261.804 1053.14 261.804H1052.16V259.766C1052.16 258.407 1052.22 257.728 1052.34 257.728L1053.23 257.639C1053.82 257.58 1054.64 257.521 1055.71 257.462C1056.77 257.403 1057.83 257.344 1058.9 257.285C1059.9 257.226 1060.96 257.166 1062.09 257.107C1063.21 257.048 1064.07 256.96 1064.66 256.842C1065.25 256.723 1065.57 256.694 1065.63 256.753H1065.9V290.425C1066.19 291.016 1066.55 291.37 1066.96 291.488C1067.37 291.606 1068.41 291.724 1070.06 291.843H1072.1V295.919H1071.39Z" fill="black"/>
<path d="M1078.21 291.843H1079.45C1081.76 291.843 1083.14 291.429 1083.62 290.602V289.893C1083.62 289.362 1083.62 288.682 1083.62 287.855C1083.62 287.028 1083.62 286.112 1083.62 285.108C1083.62 284.104 1083.65 282.952 1083.7 281.652C1083.76 280.353 1083.76 279.112 1083.7 277.931C1083.7 276.1 1083.7 274.15 1083.7 272.083C1083.7 270.015 1083.68 268.272 1083.62 266.855V264.816C1083.44 263.694 1083.03 262.956 1082.38 262.601C1081.73 262.247 1080.4 261.981 1078.39 261.804H1076.79V259.766C1076.79 258.407 1076.85 257.728 1076.97 257.728L1077.86 257.639C1078.45 257.58 1079.27 257.521 1080.34 257.462C1081.4 257.403 1082.49 257.344 1083.62 257.285C1084.62 257.226 1085.68 257.166 1086.81 257.107C1087.93 257.048 1088.78 256.96 1089.38 256.842C1089.97 256.723 1090.29 256.694 1090.35 256.753H1090.62V260.297C1090.62 262.542 1090.65 263.665 1090.7 263.665C1090.76 263.665 1090.91 263.517 1091.15 263.222C1091.38 262.926 1091.74 262.483 1092.21 261.892C1092.68 261.302 1093.24 260.77 1093.89 260.297C1094.54 259.825 1095.4 259.264 1096.46 258.614C1097.53 257.964 1098.65 257.491 1099.83 257.196C1101.01 256.901 1102.52 256.753 1104.35 256.753C1105.23 256.753 1106.06 256.812 1106.83 256.93C1107.6 257.048 1108.28 257.226 1108.87 257.462C1109.46 257.698 1110.02 257.934 1110.55 258.171C1111.08 258.407 1111.53 258.673 1111.88 258.968C1112.23 259.264 1112.56 259.588 1112.85 259.943C1113.15 260.297 1113.42 260.622 1113.65 260.918C1113.89 261.213 1114.09 261.538 1114.27 261.892C1114.45 262.247 1114.57 262.542 1114.63 262.778C1114.69 263.015 1114.77 263.251 1114.89 263.487L1115.07 263.93L1115.33 263.576C1115.51 263.34 1115.69 263.103 1115.87 262.867C1116.04 262.631 1116.31 262.306 1116.66 261.892C1117.02 261.479 1117.4 261.095 1117.82 260.74C1118.23 260.386 1118.67 260.002 1119.14 259.588C1119.62 259.175 1120.21 258.821 1120.92 258.525C1121.63 258.23 1122.3 257.934 1122.95 257.639C1123.6 257.344 1124.37 257.137 1125.26 257.019C1126.14 256.901 1127.06 256.812 1128 256.753C1135.45 256.753 1139.49 260.091 1140.14 266.766C1140.2 267.179 1140.23 271.285 1140.23 279.083V286.703C1140.23 288.948 1140.29 290.277 1140.41 290.691C1140.53 291.104 1140.85 291.4 1141.38 291.577C1142.62 291.754 1144.07 291.843 1145.72 291.843H1147.14V295.919H1146.43L1144.4 295.83C1142.98 295.771 1141.47 295.741 1139.88 295.741C1138.28 295.741 1137.16 295.712 1136.51 295.653C1130.43 295.653 1127.12 295.741 1126.59 295.919H1125.88V291.843H1127.3C1130.9 291.843 1132.7 291.37 1132.7 290.425C1132.76 290.307 1132.79 286.231 1132.79 278.197C1132.73 270.222 1132.67 265.998 1132.61 265.525C1132.26 263.871 1131.67 262.631 1130.84 261.804C1130.01 260.977 1129.3 260.475 1128.71 260.297C1128.12 260.12 1127.35 260.061 1126.41 260.12C1123.75 260.12 1121.42 261.124 1119.41 263.133C1117.82 264.728 1116.81 266.352 1116.4 268.006C1115.98 269.661 1115.75 272.112 1115.69 275.361V281.032V286.349C1115.69 288.121 1115.72 289.302 1115.78 289.893C1115.84 290.484 1115.93 290.868 1116.04 291.045C1116.16 291.222 1116.43 291.4 1116.84 291.577C1118.08 291.754 1119.53 291.843 1121.18 291.843H1122.6V295.919H1121.89L1119.76 295.83C1118.41 295.771 1116.93 295.741 1115.33 295.741C1113.74 295.741 1112.62 295.712 1111.97 295.653C1105.88 295.653 1102.58 295.741 1102.04 295.919H1101.34V291.843H1102.75C1106.36 291.843 1108.16 291.37 1108.16 290.425C1108.22 290.307 1108.25 286.231 1108.25 278.197C1108.19 270.222 1108.13 265.998 1108.07 265.525C1107.72 263.871 1107.12 262.631 1106.3 261.804C1105.47 260.977 1104.76 260.475 1104.17 260.297C1103.58 260.12 1102.81 260.061 1101.87 260.12C1099.21 260.12 1096.88 261.124 1094.87 263.133C1093.27 264.728 1092.27 266.352 1091.86 268.006C1091.44 269.661 1091.21 272.112 1091.15 275.361V281.032V286.349C1091.15 288.121 1091.18 289.302 1091.24 289.893C1091.29 290.484 1091.38 290.868 1091.5 291.045C1091.62 291.222 1091.89 291.4 1092.3 291.577C1093.54 291.754 1094.99 291.843 1096.64 291.843H1098.06V295.919H1097.35L1095.31 295.83C1093.89 295.771 1092.39 295.741 1090.79 295.741C1089.2 295.741 1088.08 295.712 1087.43 295.653C1081.34 295.653 1078.03 295.741 1077.5 295.919H1076.79V291.843H1078.21Z" fill="black"/>
<path d="M1026.99 331.988C1026.99 331.404 1027.3 330.401 1027.93 328.981C1028.55 327.561 1029.56 326.078 1030.94 324.532C1032.31 322.987 1033.86 322.235 1035.57 322.277C1037.28 322.277 1038.66 322.757 1039.71 323.718C1040.75 324.678 1041.29 326.015 1041.33 327.728C1041.25 328.521 1041.19 328.96 1041.15 329.044C1041.15 329.169 1040.81 330.13 1040.14 331.926C1039.48 333.722 1038.79 335.748 1038.08 338.004C1037.37 340.259 1037.03 342.055 1037.07 343.392C1037.07 345.188 1037.37 346.441 1037.95 347.151C1038.54 347.862 1039.41 348.237 1040.58 348.279C1041.54 348.279 1042.44 348.05 1043.28 347.59C1044.11 347.131 1044.76 346.65 1045.22 346.149C1045.68 345.648 1046.24 344.958 1046.91 344.081C1046.91 344.039 1047.02 343.622 1047.22 342.828C1047.43 342.034 1047.73 340.802 1048.1 339.131C1048.48 337.46 1048.87 335.915 1049.29 334.495C1050.88 328.229 1051.76 324.95 1051.92 324.658C1052.47 323.53 1053.36 322.966 1054.62 322.966C1055.16 322.966 1055.6 323.112 1055.93 323.404C1056.27 323.697 1056.5 323.947 1056.62 324.156C1056.75 324.365 1056.79 324.553 1056.75 324.72C1056.75 325.263 1055.72 329.649 1053.68 337.878C1051.63 346.107 1050.46 350.618 1050.17 351.412C1049 354.879 1046.97 357.636 1044.09 359.683C1041.21 361.73 1038.33 362.774 1035.45 362.816C1033.57 362.816 1031.92 362.356 1030.5 361.437C1029.08 360.518 1028.37 359.14 1028.37 357.302C1028.37 356.383 1028.51 355.61 1028.81 354.984C1029.1 354.357 1029.49 353.897 1030 353.605C1030.5 353.313 1030.91 353.104 1031.25 352.979C1031.58 352.853 1031.94 352.791 1032.31 352.791C1034.15 352.791 1035.07 353.668 1035.07 355.422C1035.07 356.258 1034.82 356.989 1034.32 357.615C1033.82 358.242 1033.34 358.659 1032.88 358.868C1032.42 359.077 1032.15 359.182 1032.06 359.182L1031.87 359.244C1031.96 359.453 1032.36 359.704 1033.07 359.996C1033.78 360.289 1034.49 360.435 1035.2 360.435H1035.7C1036.41 360.435 1036.95 360.393 1037.33 360.309C1038.7 359.933 1039.98 359.14 1041.15 357.928C1042.32 356.717 1043.21 355.422 1043.84 354.044C1044.47 352.665 1044.95 351.496 1045.28 350.535C1045.62 349.574 1045.78 348.948 1045.78 348.655L1045.41 348.906C1045.16 349.073 1044.76 349.303 1044.22 349.595C1043.67 349.887 1043.13 350.138 1042.59 350.347C1041.75 350.556 1040.94 350.66 1040.14 350.66C1038.22 350.66 1036.53 350.201 1035.07 349.282C1033.61 348.363 1032.65 346.88 1032.19 344.833C1032.15 344.541 1032.13 343.893 1032.13 342.891C1032.13 340.51 1032.86 337.398 1034.32 333.555C1035.78 329.712 1036.51 327.268 1036.51 326.224C1036.51 326.182 1036.51 326.14 1036.51 326.099C1036.51 325.723 1036.51 325.472 1036.51 325.347C1036.51 325.221 1036.43 325.075 1036.26 324.908C1036.09 324.741 1035.86 324.658 1035.57 324.658H1035.32C1034.36 324.658 1033.48 325.054 1032.69 325.848C1031.9 326.642 1031.27 327.498 1030.81 328.417C1030.35 329.336 1030 330.213 1029.74 331.049C1029.49 331.884 1029.33 332.344 1029.24 332.427C1029.16 332.511 1028.83 332.552 1028.24 332.552H1027.36C1027.11 332.302 1026.99 332.114 1026.99 331.988Z" fill="black"/>
<path d="M1060.63 335.121C1060.63 335.121 1060.63 334.85 1060.63 334.307C1060.63 333.764 1060.92 333.346 1061.51 333.054H1109.43C1104.59 329.419 1101.6 324.762 1100.48 319.081C1100.48 319.039 1100.48 318.977 1100.48 318.893C1100.48 318.81 1100.45 318.747 1100.41 318.705C1100.41 318.204 1100.77 317.953 1101.48 317.953H1101.67C1102.04 317.953 1102.29 317.974 1102.42 318.016C1102.54 318.058 1102.67 318.141 1102.79 318.267C1102.92 318.392 1102.98 318.58 1102.98 318.83C1102.98 319.081 1103.04 319.415 1103.17 319.833C1103.29 320.251 1103.46 320.773 1103.67 321.399C1104.59 324.198 1106.11 326.704 1108.24 328.918C1110.37 331.132 1112.86 332.699 1115.7 333.617C1116.07 333.743 1116.26 333.973 1116.26 334.307C1116.26 334.557 1116.16 334.745 1115.95 334.871C1115.74 334.996 1115.24 335.205 1114.45 335.497C1113.65 335.79 1112.86 336.186 1112.07 336.688C1110.35 337.774 1108.87 339.027 1107.62 340.447C1106.36 341.867 1105.42 343.267 1104.8 344.645C1104.17 346.024 1103.73 347.068 1103.48 347.778C1103.23 348.488 1103.06 349.136 1102.98 349.72C1102.9 350.138 1102.79 350.389 1102.67 350.472C1102.54 350.556 1102.21 350.618 1101.67 350.66C1100.83 350.66 1100.41 350.43 1100.41 349.971C1100.41 349.679 1100.52 349.156 1100.73 348.405C1102.06 343.141 1104.97 338.86 1109.43 335.56H1061.51C1060.92 335.267 1060.63 334.85 1060.63 334.307V335.121Z" fill="black"/>
<path d="M1122.21 340.008C1122.21 335.455 1124.01 331.362 1127.6 327.728C1131.19 324.094 1135.08 322.277 1139.26 322.277C1141.59 322.277 1143.43 322.778 1144.77 323.78C1146.1 324.783 1146.79 326.099 1146.84 327.728C1146.84 328.939 1146.44 329.962 1145.65 330.798C1144.85 331.633 1143.85 332.072 1142.64 332.114C1141.84 332.114 1141.22 331.905 1140.76 331.487C1140.3 331.069 1140.07 330.443 1140.07 329.607C1140.07 328.772 1140.3 328.062 1140.76 327.477C1141.22 326.892 1141.68 326.454 1142.14 326.161C1142.6 325.869 1142.89 325.744 1143.01 325.785H1143.08C1143.08 325.702 1142.95 325.577 1142.7 325.409C1142.45 325.242 1142.01 325.075 1141.39 324.908C1140.76 324.741 1140.05 324.658 1139.26 324.658C1138 324.658 1136.81 324.95 1135.68 325.535C1134.81 325.911 1133.91 326.558 1132.99 327.477C1131.15 329.315 1129.82 331.905 1128.98 335.247C1128.15 338.588 1127.71 341.011 1127.67 342.515C1127.67 344.436 1128.21 345.877 1129.29 346.838C1130.21 347.841 1131.42 348.342 1132.93 348.342H1133.18C1137.86 348.342 1141.72 346.567 1144.77 343.016C1145.14 342.598 1145.39 342.389 1145.52 342.389C1145.69 342.389 1145.96 342.577 1146.33 342.953C1146.71 343.329 1146.92 343.622 1146.96 343.831C1147 344.039 1146.81 344.353 1146.4 344.77C1145.98 345.188 1145.37 345.773 1144.58 346.525C1143.79 347.277 1142.85 347.903 1141.76 348.405C1140.68 348.906 1139.34 349.428 1137.75 349.971C1136.16 350.514 1134.49 350.744 1132.74 350.66C1129.61 350.66 1127.08 349.658 1125.16 347.653C1123.24 345.648 1122.26 343.1 1122.21 340.008Z" fill="black"/>
<path d="M1174.08 310.274C1174.19 310.274 1174.37 310.333 1174.61 310.451C1174.84 310.569 1175.17 310.657 1175.58 310.717C1176 310.776 1176.35 310.805 1176.65 310.805C1177.41 310.805 1178.12 310.421 1178.77 309.653C1179.42 308.885 1179.89 308.029 1180.19 307.084C1180.78 305.489 1181.78 300.969 1183.2 293.526C1184.62 286.083 1185.98 278.994 1187.28 272.26C1188.58 265.525 1189.23 262.129 1189.23 262.07V261.804H1185.06C1182.29 261.804 1180.81 261.745 1180.63 261.626C1180.4 261.449 1180.28 261.154 1180.28 260.74L1180.9 258.259C1181.02 257.964 1181.25 257.816 1181.61 257.816C1181.96 257.816 1183.35 257.787 1185.77 257.728C1188.61 257.728 1190.02 257.698 1190.02 257.639C1190.02 257.521 1190.29 256.044 1190.82 253.209C1191.35 250.373 1191.71 248.66 1191.88 248.069C1194.07 238.322 1198.38 233.448 1204.82 233.448C1207.01 233.567 1208.81 234.216 1210.22 235.398C1211.64 236.579 1212.35 238.145 1212.35 240.094C1212.35 242.221 1211.73 243.757 1210.49 244.702C1209.25 245.647 1208.01 246.149 1206.77 246.208C1204.17 246.208 1202.87 244.968 1202.87 242.487C1202.87 241.364 1203.2 240.39 1203.85 239.563C1204.5 238.736 1205.2 238.115 1205.97 237.702L1206.77 237.259C1205.82 236.904 1204.94 236.727 1204.11 236.727C1203.4 236.727 1202.72 237.022 1202.07 237.613C1201.42 238.204 1200.98 239.031 1200.74 240.094C1200.33 241.807 1199.86 244.111 1199.33 247.006C1198.8 249.9 1198.32 252.352 1197.91 254.36C1197.5 256.369 1197.29 257.432 1197.29 257.55C1197.29 257.669 1198.91 257.728 1202.16 257.728C1204.82 257.728 1206.36 257.757 1206.77 257.816C1207.18 257.875 1207.51 258.053 1207.74 258.348C1207.8 258.584 1207.74 259.086 1207.57 259.854C1207.39 260.622 1207.24 261.095 1207.12 261.272C1207.01 261.567 1206.74 261.715 1206.33 261.715C1205.91 261.715 1204.32 261.745 1201.54 261.804H1196.58L1194.54 272.614C1191.71 287.264 1189.73 296.421 1188.61 300.083C1187.01 305.105 1184.94 308.826 1182.4 311.248C1180.22 313.139 1178.06 314.084 1175.94 314.084C1174.05 314.084 1172.33 313.523 1170.8 312.4C1169.26 311.278 1168.49 309.683 1168.49 307.615C1168.49 305.429 1169.11 303.834 1170.36 302.83C1171.6 301.826 1172.84 301.324 1174.08 301.324C1176.68 301.324 1177.97 302.564 1177.97 305.045C1177.97 306.168 1177.65 307.143 1177 307.97C1176.35 308.797 1175.64 309.417 1174.87 309.83L1174.08 310.274Z" fill="black"/>
<path d="M1221.12 273.766C1221.12 269.69 1221.42 265.821 1222.01 262.158C1222.6 258.496 1223.28 255.335 1224.05 252.677C1224.81 250.018 1225.91 247.419 1227.32 244.879C1228.74 242.339 1229.86 240.36 1230.69 238.942C1231.52 237.524 1232.76 235.989 1234.41 234.334C1236.07 232.68 1237.04 231.676 1237.34 231.322C1237.63 230.967 1238.37 230.347 1239.55 229.461H1240.7H1241.06C1241.88 229.461 1242.3 229.727 1242.3 230.258C1242.3 230.436 1241.8 231.056 1240.79 232.119C1239.79 233.183 1238.58 234.748 1237.16 236.816C1235.74 238.883 1234.29 241.423 1232.82 244.436C1231.34 247.449 1230.1 251.525 1229.1 256.664C1228.09 261.804 1227.59 267.504 1227.59 273.766C1227.59 280.028 1228.09 285.699 1229.1 290.779C1230.1 295.86 1231.31 299.965 1232.73 303.096C1234.15 306.227 1235.59 308.767 1237.07 310.717C1238.55 312.666 1239.79 314.231 1240.79 315.413C1241.8 316.594 1242.3 317.215 1242.3 317.274C1242.3 317.805 1241.85 318.071 1240.97 318.071H1240.7H1239.55L1237.07 315.945C1231.52 310.923 1227.47 304.661 1224.93 297.159C1222.39 289.657 1221.12 281.859 1221.12 273.766Z" fill="black"/>
<path d="M1252.31 270.31C1252.72 267.829 1254.32 264.964 1257.09 261.715C1259.87 258.466 1263.3 256.812 1267.37 256.753C1269.44 256.753 1271.33 257.284 1273.04 258.348C1274.75 259.411 1276.02 260.74 1276.85 262.335C1279.33 258.614 1282.32 256.753 1285.8 256.753C1287.99 256.753 1289.88 257.403 1291.47 258.702C1293.07 260.002 1293.89 261.745 1293.95 263.93C1293.95 265.643 1293.54 267.032 1292.71 268.095C1291.88 269.158 1291.09 269.808 1290.32 270.044C1289.55 270.281 1288.87 270.399 1288.28 270.399C1287.16 270.399 1286.24 270.074 1285.53 269.424C1284.83 268.774 1284.47 267.918 1284.47 266.854C1284.47 264.137 1285.95 262.276 1288.9 261.272C1288.25 260.504 1287.07 260.12 1285.36 260.12C1284.59 260.12 1284.03 260.179 1283.67 260.297C1281.43 261.242 1279.78 263.192 1278.71 266.146C1275.17 279.201 1273.4 286.821 1273.4 289.007C1273.4 290.661 1273.87 291.843 1274.81 292.551C1275.76 293.26 1276.79 293.615 1277.92 293.615C1280.1 293.615 1282.26 292.64 1284.38 290.691C1286.51 288.741 1287.96 286.349 1288.72 283.513C1288.9 282.922 1289.08 282.598 1289.26 282.538C1289.43 282.479 1289.91 282.42 1290.67 282.361H1291.03C1291.91 282.361 1292.36 282.598 1292.36 283.07C1292.36 283.129 1292.3 283.454 1292.18 284.045C1291.23 287.412 1289.4 290.395 1286.69 292.994C1283.97 295.594 1280.81 296.893 1277.21 296.893C1273.07 296.893 1269.94 295.032 1267.81 291.311C1265.39 294.973 1262.62 296.805 1259.49 296.805H1258.95C1256.06 296.805 1253.99 296.037 1252.75 294.501C1251.51 292.965 1250.86 291.34 1250.8 289.627C1250.8 287.737 1251.36 286.201 1252.49 285.02C1253.61 283.838 1254.94 283.247 1256.47 283.247C1259.01 283.247 1260.28 284.488 1260.28 286.969C1260.28 288.15 1259.93 289.184 1259.22 290.07C1258.51 290.956 1257.83 291.547 1257.18 291.843C1256.53 292.138 1256.15 292.286 1256.03 292.286L1255.77 292.374C1255.77 292.433 1255.94 292.551 1256.3 292.729C1256.65 292.906 1257.12 293.113 1257.71 293.349C1258.31 293.585 1258.87 293.674 1259.4 293.615C1261.52 293.615 1263.36 292.286 1264.89 289.627C1265.42 288.682 1266.1 286.674 1266.93 283.602C1267.76 280.53 1268.58 277.34 1269.41 274.032C1270.24 270.724 1270.71 268.774 1270.83 268.184C1271.12 266.589 1271.27 265.437 1271.27 264.728C1271.27 263.074 1270.83 261.892 1269.94 261.183C1269.06 260.474 1268.05 260.12 1266.93 260.12C1264.57 260.12 1262.35 261.065 1260.28 262.956C1258.22 264.846 1256.77 267.268 1255.94 270.222C1255.82 270.753 1255.68 271.049 1255.5 271.108C1255.32 271.167 1254.85 271.226 1254.08 271.285H1252.84C1252.49 270.93 1252.31 270.606 1252.31 270.31Z" fill="black"/>
<path d="M1305.74 292.817C1305.74 292.817 1305.74 292.079 1305.74 290.602C1305.74 289.125 1306.21 287.855 1307.15 286.792C1308.1 285.728 1309.37 285.197 1310.96 285.197C1312.62 285.197 1314.09 285.935 1315.39 287.412C1316.69 288.889 1317.37 291.488 1317.43 295.21C1317.43 297.277 1317.16 299.286 1316.63 301.235C1316.1 303.185 1315.48 304.868 1314.77 306.286C1314.06 307.704 1313.3 308.915 1312.47 309.919C1311.64 310.923 1310.93 311.721 1310.34 312.312C1309.75 312.902 1309.37 313.168 1309.19 313.109C1308.95 313.109 1308.57 312.843 1308.04 312.312C1307.51 311.78 1307.24 311.396 1307.24 311.16C1307.24 310.923 1307.57 310.451 1308.22 309.742C1308.87 309.033 1309.6 308.147 1310.43 307.084C1311.26 306.02 1312.03 304.543 1312.73 302.653C1313.44 300.763 1313.92 298.606 1314.15 296.184V295.121L1314.06 295.21C1313.95 295.269 1313.8 295.328 1313.62 295.387C1313.44 295.446 1313.27 295.535 1313.09 295.653C1312.91 295.771 1312.65 295.83 1312.29 295.83C1311.94 295.83 1311.58 295.86 1311.23 295.919C1309.63 295.919 1308.33 295.416 1307.33 294.412L1305.74 292.817Z" fill="black"/>
<path d="M1340.55 270.487C1340.55 269.66 1341 268.243 1341.88 266.234C1342.77 264.226 1344.19 262.129 1346.13 259.943C1348.08 257.757 1350.27 256.694 1352.69 256.753C1355.11 256.753 1357.06 257.432 1358.54 258.791C1360.02 260.15 1360.78 262.04 1360.84 264.462C1360.72 265.584 1360.64 266.205 1360.58 266.323C1360.58 266.5 1360.1 267.859 1359.16 270.399C1358.21 272.939 1357.24 275.804 1356.24 278.994C1355.23 282.184 1354.76 284.724 1354.82 286.615C1354.82 289.155 1355.23 290.927 1356.06 291.931C1356.88 292.935 1358.13 293.467 1359.78 293.526C1361.14 293.526 1362.41 293.201 1363.59 292.551C1364.77 291.902 1365.69 291.222 1366.34 290.513C1366.99 289.805 1367.78 288.83 1368.73 287.589C1368.73 287.53 1368.88 286.939 1369.17 285.817C1369.47 284.695 1369.88 282.952 1370.41 280.589C1370.94 278.226 1371.5 276.04 1372.09 274.032C1374.34 265.171 1375.58 260.534 1375.82 260.12C1376.58 258.525 1377.85 257.728 1379.63 257.728C1380.39 257.728 1381.01 257.934 1381.49 258.348C1381.96 258.761 1382.28 259.116 1382.46 259.411C1382.64 259.707 1382.7 259.972 1382.64 260.209C1382.64 260.977 1381.19 267.179 1378.3 278.817C1375.4 290.454 1373.75 296.834 1373.33 297.957C1371.68 302.86 1368.82 306.759 1364.74 309.653C1360.67 312.548 1356.59 314.025 1352.51 314.084C1349.86 314.084 1347.52 313.434 1345.51 312.134C1343.51 310.835 1342.5 308.885 1342.5 306.286C1342.5 304.986 1342.71 303.894 1343.12 303.007C1343.54 302.121 1344.1 301.472 1344.81 301.058C1345.51 300.645 1346.11 300.349 1346.58 300.172C1347.05 299.995 1347.55 299.906 1348.08 299.906C1350.68 299.906 1351.98 301.147 1351.98 303.628C1351.98 304.809 1351.63 305.843 1350.92 306.729C1350.21 307.615 1349.53 308.206 1348.88 308.501C1348.23 308.797 1347.85 308.944 1347.73 308.944L1347.46 309.033C1347.58 309.328 1348.14 309.683 1349.15 310.096C1350.15 310.51 1351.16 310.717 1352.16 310.717H1352.87C1353.87 310.717 1354.64 310.657 1355.17 310.539C1357.12 310.008 1358.92 308.885 1360.58 307.172C1362.23 305.459 1363.5 303.628 1364.39 301.678C1365.27 299.729 1365.95 298.075 1366.42 296.716C1366.9 295.357 1367.13 294.471 1367.13 294.058L1366.6 294.412C1366.25 294.649 1365.69 294.973 1364.92 295.387C1364.15 295.8 1363.38 296.155 1362.61 296.45C1361.43 296.746 1360.28 296.893 1359.16 296.893C1356.44 296.893 1354.05 296.244 1351.98 294.944C1349.92 293.644 1348.56 291.547 1347.91 288.653C1347.85 288.239 1347.82 287.323 1347.82 285.906C1347.82 282.538 1348.85 278.137 1350.92 272.703C1352.99 267.268 1354.02 263.812 1354.02 262.335C1354.02 262.276 1354.02 262.217 1354.02 262.158C1354.02 261.626 1354.02 261.272 1354.02 261.095C1354.02 260.918 1353.9 260.711 1353.67 260.474C1353.43 260.238 1353.1 260.12 1352.69 260.12H1352.34C1350.98 260.12 1349.74 260.681 1348.62 261.804C1347.49 262.926 1346.61 264.137 1345.96 265.437C1345.31 266.736 1344.81 267.977 1344.45 269.158C1344.1 270.34 1343.86 270.99 1343.74 271.108C1343.62 271.226 1343.15 271.285 1342.33 271.285H1341.08C1340.73 270.931 1340.55 270.665 1340.55 270.487Z" fill="black"/>
<path d="M1388.49 229.55L1388.84 229.461C1389.14 229.461 1389.43 229.461 1389.73 229.461H1390.79L1393.27 231.588C1398.82 236.609 1402.87 242.871 1405.41 250.373C1407.95 257.875 1409.22 265.673 1409.22 273.766C1409.22 277.783 1408.92 281.652 1408.33 285.374C1407.74 289.096 1407.06 292.256 1406.3 294.855C1405.53 297.455 1404.43 300.054 1403.02 302.653C1401.6 305.252 1400.48 307.231 1399.65 308.59C1398.82 309.949 1397.61 311.455 1396.02 313.109C1394.42 314.763 1393.48 315.738 1393.18 316.033C1392.89 316.328 1392.21 316.89 1391.14 317.717C1390.97 317.894 1390.85 318.012 1390.79 318.071H1389.73C1389.25 318.071 1388.93 318.071 1388.75 318.071C1388.58 318.071 1388.43 317.983 1388.31 317.805C1388.19 317.628 1388.1 317.362 1388.04 317.008C1388.1 316.949 1388.43 316.565 1389.02 315.856C1398.17 306.345 1402.75 292.315 1402.75 273.766C1402.75 255.217 1398.17 241.187 1389.02 231.676C1388.43 230.967 1388.1 230.583 1388.04 230.524C1388.04 230.052 1388.19 229.727 1388.49 229.55Z" fill="black"/>
<path d="M1450.51 235.398C1450.56 235.398 1452.69 235.25 1456.88 234.955C1461.08 234.659 1463.23 234.482 1463.35 234.423C1464.06 234.423 1464.42 234.659 1464.42 235.132C1464.42 235.545 1462.26 244.466 1457.95 261.892C1453.64 279.319 1451.42 288.209 1451.3 288.564C1451.18 288.918 1451.16 289.361 1451.21 289.893C1451.21 292.374 1452.04 293.615 1453.7 293.615C1454.23 293.556 1454.82 293.29 1455.47 292.817C1456.71 291.636 1457.92 288.8 1459.1 284.311C1459.45 283.129 1459.75 282.509 1459.99 282.45C1460.1 282.391 1460.4 282.361 1460.87 282.361H1461.23H1461.58C1462.47 282.361 1462.91 282.598 1462.91 283.07C1462.91 283.365 1462.82 283.838 1462.64 284.488C1461.88 287.442 1460.99 289.834 1459.99 291.665C1458.98 293.497 1458.15 294.678 1457.5 295.21C1456.86 295.741 1456.03 296.214 1455.02 296.627C1454.55 296.746 1453.84 296.805 1452.9 296.805C1450.89 296.805 1449.21 296.362 1447.85 295.476C1446.49 294.589 1445.6 293.674 1445.19 292.729L1444.66 291.399C1444.6 291.34 1444.48 291.37 1444.3 291.488C1444.19 291.606 1444.07 291.724 1443.95 291.843C1440.46 295.151 1436.92 296.805 1433.32 296.805C1430.07 296.805 1427.2 295.623 1424.72 293.26C1422.24 290.897 1421 287.146 1421 282.007C1421 279.171 1421.59 276.277 1422.77 273.323C1423.96 270.369 1425.37 267.829 1427.03 265.702C1429.8 262.335 1432.58 260.002 1435.36 258.702C1438.13 257.403 1440.64 256.753 1442.89 256.753C1446.19 256.753 1448.67 257.993 1450.33 260.474C1450.62 260.829 1450.77 260.947 1450.77 260.829C1450.83 260.593 1451.63 257.373 1453.16 251.17C1454.7 244.968 1455.53 241.689 1455.64 241.335C1455.64 240.567 1455.44 240.094 1455.02 239.917C1454.61 239.74 1453.46 239.592 1451.57 239.474H1449.71C1449.35 239.119 1449.18 238.883 1449.18 238.765C1449.18 238.647 1449.24 238.086 1449.35 237.081C1449.65 235.959 1450.03 235.398 1450.51 235.398ZM1449.27 267.032C1447.91 262.365 1445.69 260.031 1442.62 260.031C1440.55 260.031 1438.57 260.947 1436.68 262.778C1434.79 264.61 1433.32 267.002 1432.25 269.956C1430.54 274.623 1429.33 279.467 1428.62 284.488C1428.62 284.665 1428.62 284.99 1428.62 285.463C1428.62 285.935 1428.59 286.29 1428.53 286.526C1428.53 289.184 1429.06 291.015 1430.13 292.02C1431.19 293.024 1432.46 293.556 1433.94 293.615C1437.13 293.615 1440.41 291.488 1443.77 287.235L1444.48 286.26L1449.27 267.032Z" fill="black"/>
<path d="M1469.47 270.31C1469.88 267.829 1471.47 264.964 1474.25 261.715C1477.03 258.466 1480.45 256.812 1484.53 256.753C1486.6 256.753 1488.49 257.284 1490.2 258.348C1491.91 259.411 1493.18 260.74 1494.01 262.335C1496.49 258.614 1499.47 256.753 1502.96 256.753C1505.14 256.753 1507.03 257.403 1508.63 258.702C1510.22 260.002 1511.05 261.745 1511.11 263.93C1511.11 265.643 1510.69 267.032 1509.87 268.095C1509.04 269.158 1508.24 269.808 1507.48 270.044C1506.71 270.281 1506.03 270.399 1505.44 270.399C1504.32 270.399 1503.4 270.074 1502.69 269.424C1501.98 268.774 1501.63 267.918 1501.63 266.854C1501.63 264.137 1503.1 262.276 1506.06 261.272C1505.41 260.504 1504.23 260.12 1502.51 260.12C1501.75 260.12 1501.18 260.179 1500.83 260.297C1498.59 261.242 1496.93 263.192 1495.87 266.146C1492.32 279.201 1490.55 286.821 1490.55 289.007C1490.55 290.661 1491.03 291.843 1491.97 292.551C1492.92 293.26 1493.95 293.615 1495.07 293.615C1497.26 293.615 1499.41 292.64 1501.54 290.691C1503.67 288.741 1505.11 286.349 1505.88 283.513C1506.06 282.922 1506.23 282.598 1506.41 282.538C1506.59 282.479 1507.06 282.42 1507.83 282.361H1508.18C1509.07 282.361 1509.51 282.598 1509.51 283.07C1509.51 283.129 1509.45 283.454 1509.34 284.045C1508.39 287.412 1506.56 290.395 1503.84 292.994C1501.13 295.594 1497.97 296.893 1494.36 296.893C1490.23 296.893 1487.1 295.032 1484.97 291.311C1482.55 294.973 1479.77 296.805 1476.64 296.805H1476.11C1473.22 296.805 1471.15 296.037 1469.91 294.501C1468.67 292.965 1468.02 291.34 1467.96 289.627C1467.96 287.737 1468.52 286.201 1469.64 285.02C1470.77 283.838 1472.09 283.247 1473.63 283.247C1476.17 283.247 1477.44 284.488 1477.44 286.969C1477.44 288.15 1477.09 289.184 1476.38 290.07C1475.67 290.956 1474.99 291.547 1474.34 291.843C1473.69 292.138 1473.31 292.286 1473.19 292.286L1472.92 292.374C1472.92 292.433 1473.1 292.551 1473.45 292.729C1473.81 292.906 1474.28 293.113 1474.87 293.349C1475.46 293.585 1476.02 293.674 1476.55 293.615C1478.68 293.615 1480.51 292.286 1482.05 289.627C1482.58 288.682 1483.26 286.674 1484.08 283.602C1484.91 280.53 1485.74 277.34 1486.57 274.032C1487.39 270.724 1487.87 268.774 1487.98 268.184C1488.28 266.589 1488.43 265.437 1488.43 264.728C1488.43 263.074 1487.98 261.892 1487.1 261.183C1486.21 260.474 1485.21 260.12 1484.08 260.12C1481.72 260.12 1479.51 261.065 1477.44 262.956C1475.37 264.846 1473.93 267.268 1473.1 270.222C1472.98 270.753 1472.83 271.049 1472.66 271.108C1472.48 271.167 1472.01 271.226 1471.24 271.285H1470C1469.64 270.93 1469.47 270.606 1469.47 270.31Z" fill="black"/>
</svg>
