<svg width="1640" height="531" viewBox="0 0 1640 531" fill="none" xmlns="http://www.w3.org/2000/svg">
<rect width="1640" height="531" fill="black"/>
<path d="M30 30H1610V501H30V30Z" fill="white"/>
<path d="M151.431 333.828C152.213 334.958 153.321 335.523 154.755 335.523H154.885C156.102 335.523 157.319 334.219 158.536 331.611C159.753 329.003 160.882 325.439 161.925 320.919C162.968 316.398 163.946 311.856 164.859 307.292C165.771 302.728 166.684 297.795 167.596 292.492C167.727 291.579 167.835 290.906 167.922 290.471C171.051 271.998 174.44 254.873 178.091 239.095C181.741 223.317 184.392 213.059 186.043 208.321C186.304 207.538 186.521 206.886 186.695 206.365C186.869 205.843 187.238 204.887 187.803 203.496C188.368 202.105 188.955 200.888 189.563 199.845C190.171 198.802 190.91 197.737 191.779 196.65C192.648 195.564 193.604 194.694 194.647 194.042C195.69 193.39 196.798 193.086 197.972 193.13C200.405 193.13 202.23 193.89 203.447 195.412C204.664 196.933 205.359 198.671 205.533 200.627C205.533 201.714 205.272 202.583 204.751 203.235C204.229 203.887 203.73 204.3 203.252 204.474C202.774 204.648 202.295 204.713 201.817 204.67C200.905 204.67 200.079 204.344 199.341 203.692C198.602 203.04 198.232 202.149 198.232 201.019C198.232 198.932 199.384 197.693 201.687 197.302L201.492 197.042C201.361 196.911 201.187 196.759 200.97 196.585C200.753 196.411 200.579 196.281 200.449 196.194C199.797 195.759 199.08 195.542 198.298 195.542C197.689 195.542 197.124 195.803 196.603 196.324C196.081 196.846 195.386 198.063 194.517 199.975C193.648 201.888 192.8 204.409 191.975 207.538C191.149 210.668 190.128 215.08 188.911 220.774C187.694 226.468 186.478 233.162 185.261 240.855C182.697 255.416 180.025 269.173 177.243 282.126C174.462 295.078 172.289 304.467 170.725 310.291C169.161 316.116 167.966 320.289 167.14 322.81C163.794 332.937 159.666 338.001 154.755 338.001C153.017 338.001 151.431 337.327 149.997 335.98C148.563 334.632 147.759 332.785 147.585 330.438C147.585 328.917 147.998 327.873 148.823 327.308C149.649 326.743 150.475 326.461 151.3 326.461C152.213 326.461 153.039 326.787 153.777 327.439C154.516 328.091 154.885 328.982 154.885 330.112C154.885 332.198 153.734 333.437 151.431 333.828Z" fill="black"/>
<path d="M216.778 180.374C216.778 180.067 216.84 179.714 216.963 179.314C217.086 178.914 217.27 178.715 217.516 178.715C217.547 178.715 218.653 178.638 220.834 178.484C223.016 178.33 224.138 178.238 224.199 178.208C224.568 178.208 224.752 178.346 224.752 178.622C224.752 178.899 224.23 181.097 223.185 185.215C222.939 186.26 222.678 187.336 222.402 188.442C222.125 189.549 221.895 190.379 221.71 190.932L221.526 191.808C221.526 191.9 221.618 191.854 221.802 191.669C223.308 190.44 224.86 189.825 226.458 189.825C228.363 189.825 229.899 190.532 231.067 191.946C232.234 193.36 232.834 195.142 232.864 197.294C232.864 200.706 231.651 203.794 229.223 206.561C226.796 209.327 224.184 210.71 221.388 210.71C219.851 210.71 218.453 210.126 217.193 208.958C215.933 207.79 215.288 205.9 215.257 203.287V202.872C215.257 202.227 215.38 201.336 215.626 200.198C215.872 199.061 216.625 196.034 217.885 191.116C219.421 185.061 220.189 181.85 220.189 181.481C220.189 181.112 219.605 180.897 218.438 180.835C218.284 180.835 218.161 180.835 218.069 180.835H217.838C217.531 180.835 217.331 180.835 217.239 180.835C217.147 180.835 217.04 180.789 216.917 180.697C216.794 180.605 216.748 180.497 216.778 180.374ZM228.9 195.219V194.943C228.9 192.668 227.963 191.531 226.089 191.531C225.566 191.531 225.029 191.654 224.476 191.9C223.923 192.146 223.416 192.469 222.955 192.868C222.494 193.268 222.094 193.636 221.756 193.975C221.418 194.313 221.142 194.651 220.927 194.989L220.65 195.358L219.682 199.322C219.006 201.966 218.668 203.84 218.668 204.947C218.668 206.422 219.037 207.529 219.774 208.266C220.266 208.758 220.88 209.004 221.618 209.004C222.632 209.004 223.661 208.512 224.706 207.529C225.474 206.822 226.089 205.961 226.55 204.947C227.011 203.933 227.518 202.319 228.071 200.106C228.624 197.893 228.9 196.264 228.9 195.219Z" fill="black"/>
<path d="M182.072 333.711C182.072 330.607 183.239 327.656 185.574 324.859C187.91 322.062 190.537 320.649 193.456 320.618C195.023 320.618 196.406 321.371 197.604 322.877C198.096 321.955 198.803 321.494 199.725 321.494C200.124 321.494 200.477 321.617 200.785 321.863C201.092 322.109 201.246 322.416 201.246 322.785C201.246 323.184 200.677 325.643 199.54 330.161C198.403 334.679 197.819 337.23 197.789 337.814C197.789 338.582 197.896 339.09 198.111 339.335C198.326 339.581 198.649 339.72 199.079 339.75C199.356 339.72 199.663 339.581 200.001 339.335C200.646 338.721 201.276 337.245 201.891 334.91C202.075 334.295 202.229 333.972 202.352 333.941C202.413 333.911 202.567 333.895 202.813 333.895H202.997C203.581 333.895 203.873 334.034 203.873 334.31C203.873 334.495 203.796 334.91 203.642 335.555C203.489 336.2 203.181 337.03 202.721 338.045C202.26 339.059 201.768 339.827 201.246 340.35C200.846 340.749 200.355 341.072 199.771 341.318C199.525 341.379 199.156 341.41 198.664 341.41C197.62 341.41 196.744 341.18 196.037 340.718C195.331 340.257 194.87 339.781 194.655 339.289L194.378 338.598C194.347 338.567 194.286 338.582 194.194 338.644C194.132 338.705 194.071 338.767 194.009 338.828C192.196 340.549 190.353 341.41 188.478 341.41C186.788 341.41 185.298 340.795 184.007 339.566C182.717 338.337 182.072 336.385 182.072 333.711ZM196.729 325.827C196.729 325.643 196.652 325.305 196.498 324.813C196.345 324.321 195.991 323.784 195.438 323.2C194.885 322.616 194.178 322.308 193.318 322.278C192.242 322.278 191.213 322.754 190.23 323.707C189.246 324.66 188.478 325.904 187.925 327.441C187.034 329.869 186.404 332.389 186.035 335.002C186.035 335.094 186.035 335.263 186.035 335.509C186.035 335.755 186.02 335.939 185.989 336.062C185.989 337.445 186.266 338.398 186.819 338.921C187.372 339.443 188.033 339.72 188.801 339.75C189.969 339.75 191.121 339.243 192.258 338.229C193.395 337.215 194.071 336.431 194.286 335.878C194.347 335.755 194.762 334.11 195.53 330.945C196.298 327.779 196.698 326.073 196.729 325.827Z" fill="black"/>
<path d="M268.37 363.233V167.702H288.446V172.462H273.128V358.473H288.446V363.233H268.37Z" fill="black"/>
<path d="M296.594 333.828C297.376 334.958 298.484 335.523 299.918 335.523H300.049C301.266 335.523 302.482 334.219 303.699 331.611C304.916 329.003 306.046 325.439 307.089 320.919C308.132 316.398 309.109 311.856 310.022 307.292C310.934 302.728 311.847 297.795 312.76 292.492C312.89 291.579 312.999 290.906 313.085 290.471C316.214 271.998 319.604 254.873 323.254 239.095C326.904 223.317 329.555 213.059 331.206 208.321C331.467 207.538 331.684 206.886 331.858 206.365C332.032 205.843 332.401 204.887 332.966 203.496C333.531 202.105 334.118 200.888 334.726 199.845C335.335 198.802 336.073 197.737 336.943 196.65C337.812 195.564 338.768 194.694 339.811 194.042C340.854 193.39 341.962 193.086 343.135 193.13C345.569 193.13 347.394 193.89 348.61 195.412C349.827 196.933 350.522 198.671 350.696 200.627C350.696 201.714 350.436 202.583 349.914 203.235C349.393 203.887 348.893 204.3 348.415 204.474C347.937 204.648 347.459 204.713 346.981 204.67C346.068 204.67 345.243 204.344 344.504 203.692C343.765 203.04 343.396 202.149 343.396 201.019C343.396 198.932 344.547 197.693 346.85 197.302L346.655 197.042C346.525 196.911 346.351 196.759 346.133 196.585C345.916 196.411 345.742 196.281 345.612 196.194C344.96 195.759 344.243 195.542 343.461 195.542C342.853 195.542 342.288 195.803 341.766 196.324C341.245 196.846 340.549 198.063 339.68 199.975C338.811 201.888 337.964 204.409 337.138 207.538C336.312 210.668 335.291 215.08 334.075 220.774C332.858 226.468 331.641 233.162 330.424 240.855C327.86 255.416 325.188 269.173 322.407 282.126C319.626 295.078 317.453 304.467 315.888 310.291C314.324 316.116 313.129 320.289 312.303 322.81C308.957 332.937 304.829 338.001 299.918 338.001C298.18 338.001 296.594 337.327 295.16 335.98C293.726 334.632 292.922 332.785 292.748 330.438C292.748 328.917 293.161 327.873 293.987 327.308C294.812 326.743 295.638 326.461 296.464 326.461C297.376 326.461 298.202 326.787 298.941 327.439C299.679 328.091 300.049 328.982 300.049 330.112C300.049 332.198 298.897 333.437 296.594 333.828Z" fill="black"/>
<path d="M375.447 178.715C375.477 178.715 376.584 178.638 378.765 178.484C380.947 178.331 382.068 178.238 382.13 178.208C382.499 178.208 382.683 178.331 382.683 178.576C382.683 178.792 381.561 183.433 379.318 192.499C377.075 201.566 375.923 206.192 375.861 206.376C375.8 206.561 375.785 206.791 375.815 207.068C375.815 208.359 376.246 209.004 377.106 209.004C377.382 208.973 377.69 208.835 378.028 208.589C378.673 207.974 379.303 206.499 379.918 204.163C380.102 203.549 380.256 203.226 380.378 203.195C380.44 203.164 380.594 203.149 380.839 203.149H381.024H381.208C381.669 203.149 381.899 203.272 381.899 203.518C381.899 203.672 381.853 203.917 381.761 204.255C381.362 205.792 380.901 207.037 380.378 207.99C379.856 208.943 379.426 209.557 379.088 209.834C378.75 210.11 378.32 210.356 377.797 210.571C377.551 210.633 377.183 210.664 376.691 210.664C375.646 210.664 374.771 210.433 374.064 209.972C373.357 209.511 372.896 209.035 372.681 208.543L372.405 207.851C372.374 207.821 372.312 207.836 372.22 207.898C372.159 207.959 372.097 208.02 372.036 208.082C370.223 209.803 368.379 210.664 366.505 210.664C364.815 210.664 363.325 210.049 362.034 208.82C360.743 207.59 360.098 205.639 360.098 202.965C360.098 201.489 360.405 199.983 361.02 198.447C361.635 196.91 362.372 195.588 363.232 194.482C364.677 192.73 366.121 191.516 367.565 190.84C369.009 190.164 370.315 189.825 371.483 189.825C373.204 189.825 374.494 190.471 375.354 191.762C375.508 191.946 375.585 192.008 375.585 191.946C375.616 191.823 376.03 190.148 376.829 186.921C377.628 183.694 378.058 181.988 378.12 181.804C378.12 181.404 378.012 181.158 377.797 181.066C377.582 180.974 376.983 180.897 376 180.835H375.032C374.847 180.651 374.755 180.528 374.755 180.467C374.755 180.405 374.786 180.113 374.847 179.591C375.001 179.007 375.201 178.715 375.447 178.715ZM374.801 195.173C374.095 192.745 372.942 191.531 371.344 191.531C370.269 191.531 369.24 192.008 368.256 192.96C367.273 193.913 366.505 195.158 365.952 196.695C365.061 199.123 364.431 201.643 364.062 204.255C364.062 204.348 364.062 204.517 364.062 204.763C364.062 205.008 364.047 205.193 364.016 205.316C364.016 206.699 364.292 207.652 364.846 208.174C365.399 208.697 366.059 208.973 366.828 209.004C368.487 209.004 370.192 207.898 371.944 205.685L372.312 205.178L374.801 195.173Z" fill="black"/>
<path d="M327.281 333.619C327.281 330.269 328.602 327.257 331.245 324.583C333.887 321.909 336.745 320.572 339.818 320.572C341.539 320.572 342.891 320.941 343.874 321.678C344.857 322.416 345.364 323.384 345.395 324.583C345.395 325.474 345.103 326.227 344.519 326.842C343.935 327.456 343.198 327.779 342.307 327.81C341.723 327.81 341.262 327.656 340.924 327.349C340.586 327.041 340.417 326.58 340.417 325.966C340.417 325.351 340.586 324.829 340.924 324.398C341.262 323.968 341.6 323.645 341.938 323.43C342.276 323.215 342.491 323.123 342.583 323.153H342.629C342.629 323.092 342.537 323 342.353 322.877C342.169 322.754 341.846 322.631 341.385 322.508C340.924 322.385 340.402 322.324 339.818 322.324C338.896 322.324 338.02 322.539 337.191 322.969C336.545 323.246 335.885 323.722 335.209 324.398C333.857 325.751 332.873 327.656 332.259 330.115C331.644 332.574 331.322 334.356 331.291 335.463C331.291 336.877 331.69 337.937 332.489 338.644C333.165 339.381 334.056 339.75 335.163 339.75H335.347C338.789 339.75 341.631 338.444 343.874 335.832C344.151 335.524 344.335 335.371 344.427 335.371C344.55 335.371 344.75 335.509 345.026 335.785C345.303 336.062 345.456 336.277 345.487 336.431C345.518 336.585 345.38 336.815 345.072 337.122C344.765 337.43 344.32 337.86 343.736 338.413C343.152 338.967 342.46 339.428 341.662 339.796C340.863 340.165 339.879 340.549 338.712 340.949C337.544 341.349 336.315 341.518 335.024 341.456C332.72 341.456 330.861 340.718 329.447 339.243C328.034 337.768 327.312 335.893 327.281 333.619Z" fill="black"/>
<path d="M407.992 292.362C408.079 292.362 408.21 292.405 408.383 292.492C408.557 292.579 408.796 292.644 409.1 292.688C409.405 292.731 409.665 292.753 409.883 292.753C410.448 292.753 410.969 292.47 411.447 291.905C411.925 291.34 412.273 290.71 412.49 290.015C412.924 288.841 413.663 285.516 414.706 280.039C415.749 274.563 416.749 269.347 417.705 264.392C418.661 259.436 419.139 256.937 419.139 256.894V256.698H416.075C414.033 256.698 412.946 256.655 412.816 256.568C412.642 256.437 412.555 256.22 412.555 255.916L413.011 254.09C413.098 253.873 413.272 253.764 413.533 253.764C413.794 253.764 414.815 253.742 416.596 253.699C418.682 253.699 419.725 253.677 419.725 253.634C419.725 253.547 419.921 252.46 420.312 250.374C420.703 248.287 420.964 247.027 421.094 246.592C422.702 239.42 425.874 235.835 430.611 235.835C432.219 235.921 433.544 236.4 434.587 237.269C435.63 238.138 436.151 239.29 436.151 240.724C436.151 242.289 435.695 243.419 434.783 244.115C433.87 244.81 432.957 245.18 432.045 245.223C430.133 245.223 429.177 244.31 429.177 242.485C429.177 241.659 429.416 240.942 429.894 240.333C430.372 239.725 430.893 239.268 431.458 238.964L432.045 238.638C431.35 238.377 430.698 238.247 430.089 238.247C429.568 238.247 429.068 238.464 428.59 238.899C428.112 239.334 427.786 239.942 427.612 240.724C427.308 241.985 426.961 243.68 426.57 245.81C426.178 247.94 425.831 249.744 425.527 251.221C425.222 252.699 425.07 253.482 425.07 253.569C425.07 253.656 426.265 253.699 428.655 253.699C430.611 253.699 431.741 253.721 432.045 253.764C432.349 253.808 432.588 253.938 432.762 254.155C432.805 254.329 432.762 254.699 432.632 255.264C432.501 255.829 432.393 256.177 432.306 256.307C432.219 256.524 432.023 256.633 431.719 256.633C431.415 256.633 430.242 256.655 428.199 256.698H424.549L423.05 264.652C420.964 275.432 419.508 282.169 418.682 284.864C417.509 288.558 415.988 291.297 414.12 293.079C412.512 294.47 410.926 295.165 409.361 295.165C407.971 295.165 406.71 294.752 405.581 293.927C404.451 293.101 403.886 291.927 403.886 290.406C403.886 288.798 404.342 287.624 405.255 286.885C406.167 286.146 407.08 285.777 407.992 285.777C409.904 285.777 410.86 286.689 410.86 288.515C410.86 289.341 410.621 290.058 410.143 290.667C409.665 291.275 409.144 291.731 408.579 292.036L407.992 292.362Z" fill="black"/>
<path d="M442.605 265.5C442.605 262.501 442.822 259.654 443.257 256.959C443.691 254.264 444.191 251.939 444.756 249.983C445.321 248.027 446.125 246.114 447.168 244.245C448.211 242.376 449.036 240.92 449.645 239.877C450.253 238.834 451.165 237.704 452.382 236.487C453.599 235.27 454.316 234.531 454.533 234.27C454.751 234.009 455.294 233.553 456.163 232.901H457.01H457.271C457.879 232.901 458.184 233.096 458.184 233.487C458.184 233.618 457.814 234.074 457.075 234.857C456.337 235.639 455.446 236.791 454.403 238.312C453.36 239.833 452.295 241.702 451.209 243.919C450.123 246.136 449.21 249.135 448.471 252.917C447.732 256.698 447.363 260.893 447.363 265.5C447.363 270.107 447.732 274.28 448.471 278.018C449.21 281.756 450.101 284.777 451.144 287.081C452.187 289.384 453.251 291.253 454.338 292.688C455.424 294.122 456.337 295.274 457.075 296.143C457.814 297.013 458.184 297.469 458.184 297.512C458.184 297.904 457.858 298.099 457.206 298.099H457.01H456.163L454.338 296.534C450.253 292.84 447.276 288.233 445.408 282.712C443.539 277.192 442.605 271.455 442.605 265.5Z" fill="black"/>
<path d="M465.549 262.957C465.853 261.132 467.027 259.024 469.069 256.633C471.112 254.242 473.632 253.025 476.63 252.982C478.151 252.982 479.542 253.373 480.802 254.155C482.062 254.938 482.997 255.916 483.605 257.089C485.43 254.351 487.625 252.982 490.189 252.982C491.796 252.982 493.187 253.46 494.36 254.416C495.534 255.372 496.142 256.655 496.185 258.263C496.185 259.523 495.881 260.545 495.273 261.327C494.664 262.11 494.078 262.588 493.513 262.762C492.948 262.936 492.448 263.022 492.014 263.022C491.188 263.022 490.514 262.783 489.993 262.305C489.472 261.827 489.211 261.197 489.211 260.415C489.211 258.415 490.297 257.046 492.47 256.307C491.992 255.742 491.123 255.459 489.863 255.459C489.298 255.459 488.885 255.503 488.624 255.59C486.973 256.285 485.756 257.72 484.974 259.893C482.367 269.499 481.063 275.106 481.063 276.714C481.063 277.931 481.411 278.801 482.106 279.322C482.801 279.844 483.562 280.104 484.387 280.104C485.995 280.104 487.581 279.387 489.146 277.953C490.71 276.519 491.775 274.758 492.34 272.672C492.47 272.237 492.6 271.998 492.731 271.955C492.861 271.911 493.209 271.868 493.774 271.824H494.034C494.686 271.824 495.012 271.998 495.012 272.346C495.012 272.389 494.969 272.628 494.882 273.063C494.186 275.541 492.839 277.736 490.84 279.648C488.841 281.561 486.517 282.517 483.866 282.517C480.824 282.517 478.521 281.148 476.956 278.409C475.175 281.104 473.132 282.452 470.829 282.452H470.438C468.309 282.452 466.788 281.887 465.875 280.756C464.963 279.626 464.485 278.431 464.441 277.171C464.441 275.78 464.854 274.65 465.68 273.78C466.505 272.911 467.483 272.476 468.613 272.476C470.481 272.476 471.416 273.389 471.416 275.215C471.416 276.084 471.155 276.845 470.634 277.497C470.112 278.149 469.612 278.583 469.134 278.801C468.656 279.018 468.374 279.127 468.287 279.127L468.091 279.192C468.091 279.235 468.222 279.322 468.483 279.453C468.743 279.583 469.091 279.735 469.525 279.909C469.96 280.083 470.373 280.148 470.764 280.104C472.328 280.104 473.675 279.127 474.805 277.171C475.196 276.475 475.696 274.997 476.305 272.737C476.913 270.477 477.521 268.13 478.13 265.696C478.738 263.262 479.086 261.827 479.173 261.393C479.39 260.219 479.499 259.371 479.499 258.85C479.499 257.633 479.173 256.763 478.521 256.242C477.869 255.72 477.13 255.459 476.305 255.459C474.566 255.459 472.937 256.155 471.416 257.546C469.895 258.937 468.83 260.719 468.222 262.892C468.135 263.283 468.026 263.501 467.896 263.544C467.766 263.588 467.418 263.631 466.853 263.674H465.94C465.68 263.414 465.549 263.175 465.549 262.957Z" fill="black"/>
<path d="M504.855 279.518C504.855 279.518 504.855 278.974 504.855 277.888C504.855 276.801 505.202 275.867 505.898 275.084C506.593 274.302 507.528 273.911 508.701 273.911C509.918 273.911 511.005 274.454 511.961 275.541C512.917 276.627 513.417 278.54 513.46 281.278C513.46 282.799 513.265 284.277 512.874 285.712C512.482 287.146 512.026 288.385 511.505 289.428C510.983 290.471 510.418 291.362 509.809 292.101C509.201 292.84 508.679 293.427 508.245 293.861C507.81 294.296 507.528 294.492 507.397 294.448C507.223 294.448 506.941 294.253 506.55 293.861C506.159 293.47 505.963 293.188 505.963 293.014C505.963 292.84 506.202 292.492 506.68 291.971C507.158 291.449 507.702 290.797 508.31 290.015C508.919 289.232 509.484 288.146 510.005 286.755C510.527 285.364 510.874 283.777 511.048 281.995V281.213L510.983 281.278C510.896 281.322 510.787 281.365 510.657 281.408C510.527 281.452 510.396 281.517 510.266 281.604C510.135 281.691 509.94 281.734 509.679 281.734C509.418 281.734 509.158 281.756 508.897 281.8C507.723 281.8 506.767 281.43 506.028 280.691L504.855 279.518Z" fill="black"/>
<path d="M530.472 263.088C530.472 262.479 530.798 261.436 531.449 259.958C532.101 258.48 533.144 256.937 534.578 255.329C536.012 253.721 537.62 252.938 539.402 252.982C541.183 252.982 542.618 253.482 543.704 254.481C544.79 255.481 545.355 256.872 545.399 258.654C545.312 259.48 545.247 259.936 545.203 260.023C545.203 260.154 544.855 261.153 544.16 263.022C543.465 264.891 542.748 266.999 542.009 269.347C541.27 271.694 540.923 273.563 540.966 274.954C540.966 276.823 541.27 278.127 541.879 278.866C542.487 279.605 543.4 279.996 544.616 280.039C545.616 280.039 546.55 279.8 547.419 279.322C548.288 278.844 548.962 278.344 549.44 277.822C549.918 277.301 550.505 276.584 551.2 275.671C551.2 275.627 551.309 275.193 551.526 274.367C551.743 273.541 552.047 272.259 552.438 270.52C552.83 268.782 553.242 267.173 553.677 265.696C555.328 259.176 556.241 255.764 556.415 255.459C556.98 254.286 557.914 253.699 559.218 253.699C559.782 253.699 560.239 253.851 560.586 254.155C560.934 254.46 561.173 254.72 561.303 254.938C561.434 255.155 561.477 255.351 561.434 255.525C561.434 256.09 560.369 260.653 558.24 269.216C556.11 277.779 554.894 282.473 554.59 283.299C553.373 286.907 551.265 289.776 548.267 291.905C545.268 294.035 542.27 295.122 539.271 295.165C537.316 295.165 535.599 294.687 534.122 293.731C532.644 292.775 531.906 291.34 531.906 289.428C531.906 288.472 532.058 287.667 532.362 287.015C532.666 286.363 533.079 285.885 533.6 285.581C534.122 285.277 534.557 285.06 534.904 284.929C535.252 284.799 535.621 284.734 536.012 284.734C537.924 284.734 538.88 285.646 538.88 287.472C538.88 288.341 538.62 289.102 538.098 289.754C537.577 290.406 537.077 290.84 536.599 291.058C536.121 291.275 535.838 291.384 535.752 291.384L535.556 291.449C535.643 291.666 536.056 291.927 536.794 292.231C537.533 292.536 538.272 292.688 539.011 292.688H539.532C540.271 292.688 540.836 292.644 541.227 292.557C542.661 292.166 543.986 291.34 545.203 290.08C546.42 288.819 547.354 287.472 548.006 286.037C548.658 284.603 549.158 283.386 549.505 282.386C549.853 281.387 550.027 280.735 550.027 280.43L549.636 280.691C549.375 280.865 548.962 281.104 548.397 281.408C547.832 281.713 547.267 281.973 546.702 282.191C545.833 282.408 544.986 282.517 544.16 282.517C542.161 282.517 540.401 282.039 538.88 281.082C537.359 280.126 536.36 278.583 535.882 276.453C535.838 276.149 535.817 275.475 535.817 274.432C535.817 271.955 536.577 268.716 538.098 264.718C539.619 260.719 540.38 258.176 540.38 257.089C540.38 257.046 540.38 257.002 540.38 256.959C540.38 256.568 540.38 256.307 540.38 256.177C540.38 256.046 540.293 255.894 540.119 255.72C539.945 255.546 539.706 255.459 539.402 255.459H539.141C538.142 255.459 537.229 255.872 536.403 256.698C535.578 257.524 534.926 258.415 534.448 259.371C533.97 260.328 533.6 261.24 533.34 262.11C533.079 262.979 532.905 263.457 532.818 263.544C532.731 263.631 532.384 263.674 531.775 263.674H530.863C530.602 263.414 530.472 263.218 530.472 263.088Z" fill="black"/>
<path d="M565.736 232.966L565.997 232.901C566.214 232.901 566.431 232.901 566.648 232.901H567.431L569.256 234.465C573.341 238.16 576.317 242.767 578.186 248.288C580.054 253.808 580.989 259.545 580.989 265.5C580.989 268.456 580.771 271.303 580.337 274.041C579.902 276.779 579.403 279.105 578.838 281.017C578.273 282.93 577.469 284.842 576.426 286.755C575.383 288.667 574.557 290.123 573.949 291.123C573.341 292.123 572.45 293.231 571.276 294.448C570.103 295.665 569.408 296.382 569.191 296.6C568.973 296.817 568.474 297.23 567.691 297.838C567.561 297.969 567.474 298.056 567.431 298.099H566.648C566.301 298.099 566.062 298.099 565.931 298.099C565.801 298.099 565.692 298.034 565.605 297.904C565.519 297.773 565.453 297.578 565.41 297.317C565.453 297.273 565.692 296.991 566.127 296.469C572.863 289.471 576.23 279.148 576.23 265.5C576.23 251.852 572.863 241.529 566.127 234.531C565.692 234.009 565.453 233.726 565.41 233.683C565.41 233.335 565.519 233.096 565.736 232.966Z" fill="black"/>
<path d="M611.364 237.269C611.408 237.269 612.972 237.16 616.057 236.943C619.143 236.726 620.729 236.595 620.816 236.552C621.337 236.552 621.598 236.726 621.598 237.073C621.598 237.378 620.012 243.941 616.84 256.763C613.667 269.586 612.038 276.127 611.951 276.388C611.864 276.649 611.842 276.975 611.886 277.366C611.886 279.192 612.494 280.105 613.711 280.105C614.102 280.061 614.537 279.865 615.015 279.518C615.927 278.648 616.818 276.562 617.687 273.259C617.948 272.389 618.165 271.933 618.339 271.889C618.426 271.846 618.643 271.824 618.991 271.824H619.251H619.512C620.164 271.824 620.49 271.998 620.49 272.346C620.49 272.563 620.425 272.911 620.294 273.389C619.729 275.562 619.078 277.323 618.339 278.67C617.6 280.018 616.992 280.887 616.514 281.278C616.036 281.669 615.427 282.017 614.689 282.321C614.341 282.408 613.819 282.452 613.124 282.452C611.647 282.452 610.408 282.126 609.409 281.474C608.409 280.822 607.757 280.148 607.453 279.453L607.062 278.475C607.019 278.431 606.932 278.453 606.801 278.54C606.715 278.627 606.628 278.714 606.541 278.801C603.977 281.235 601.369 282.452 598.719 282.452C596.329 282.452 594.221 281.582 592.396 279.844C590.571 278.105 589.658 275.345 589.658 271.563C589.658 269.477 590.093 267.347 590.962 265.174C591.831 263.001 592.874 261.132 594.091 259.567C596.133 257.089 598.175 255.373 600.218 254.416C602.26 253.46 604.107 252.982 605.758 252.982C608.192 252.982 610.017 253.895 611.234 255.72C611.451 255.981 611.56 256.068 611.56 255.981C611.603 255.807 612.19 253.438 613.32 248.874C614.45 244.31 615.058 241.898 615.145 241.637C615.145 241.072 614.993 240.725 614.689 240.594C614.384 240.464 613.537 240.355 612.146 240.268H610.778C610.517 240.007 610.386 239.834 610.386 239.747C610.386 239.66 610.43 239.247 610.517 238.508C610.734 237.682 611.017 237.269 611.364 237.269ZM610.452 260.545C609.452 257.111 607.823 255.394 605.563 255.394C604.042 255.394 602.586 256.068 601.196 257.415C599.805 258.763 598.719 260.523 597.936 262.696C596.676 266.13 595.785 269.694 595.264 273.389C595.264 273.519 595.264 273.759 595.264 274.106C595.264 274.454 595.242 274.715 595.199 274.889C595.199 276.845 595.59 278.192 596.372 278.931C597.154 279.67 598.089 280.061 599.175 280.105C601.522 280.105 603.933 278.54 606.41 275.41L606.932 274.693L610.452 260.545Z" fill="black"/>
<path d="M623.293 263.088C623.293 262.479 623.619 261.436 624.27 259.958C624.922 258.48 625.965 256.937 627.399 255.329C628.833 253.721 630.441 252.938 632.223 252.982C634.005 252.982 635.439 253.482 636.525 254.481C637.611 255.481 638.176 256.872 638.22 258.654C638.133 259.48 638.068 259.936 638.024 260.023C638.024 260.154 637.677 261.153 636.981 263.022C636.286 264.891 635.569 266.999 634.83 269.347C634.091 271.694 633.744 273.563 633.787 274.954C633.787 276.823 634.091 278.127 634.7 278.866C635.308 279.605 636.221 279.996 637.438 280.039C638.437 280.039 639.371 279.8 640.24 279.322C641.109 278.844 641.783 278.344 642.261 277.822C642.739 277.301 643.326 276.584 644.021 275.671C644.021 275.627 644.13 275.193 644.347 274.367C644.564 273.541 644.868 272.259 645.26 270.52C645.651 268.782 646.063 267.173 646.498 265.696C648.149 259.176 649.062 255.764 649.236 255.459C649.801 254.286 650.735 253.699 652.039 253.699C652.603 253.699 653.06 253.851 653.407 254.155C653.755 254.46 653.994 254.72 654.124 254.938C654.255 255.155 654.298 255.351 654.255 255.525C654.255 256.09 653.19 260.653 651.061 269.216C648.931 277.779 647.715 282.473 647.411 283.299C646.194 286.907 644.086 289.776 641.088 291.905C638.089 294.035 635.091 295.122 632.092 295.165C630.137 295.165 628.42 294.687 626.943 293.731C625.466 292.775 624.727 291.34 624.727 289.428C624.727 288.472 624.879 287.667 625.183 287.015C625.487 286.363 625.9 285.885 626.422 285.581C626.943 285.277 627.378 285.06 627.725 284.929C628.073 284.799 628.442 284.734 628.833 284.734C630.745 284.734 631.701 285.646 631.701 287.472C631.701 288.341 631.441 289.102 630.919 289.754C630.398 290.406 629.898 290.84 629.42 291.058C628.942 291.275 628.659 291.384 628.573 291.384L628.377 291.449C628.464 291.666 628.877 291.927 629.616 292.231C630.354 292.536 631.093 292.688 631.832 292.688H632.353C633.092 292.688 633.657 292.644 634.048 292.557C635.482 292.166 636.807 291.34 638.024 290.08C639.241 288.819 640.175 287.472 640.827 286.037C641.479 284.603 641.979 283.386 642.326 282.386C642.674 281.387 642.848 280.735 642.848 280.43L642.457 280.691C642.196 280.865 641.783 281.104 641.218 281.408C640.653 281.713 640.088 281.973 639.523 282.191C638.654 282.408 637.807 282.517 636.981 282.517C634.982 282.517 633.222 282.039 631.701 281.082C630.18 280.126 629.181 278.583 628.703 276.453C628.659 276.149 628.638 275.475 628.638 274.432C628.638 271.955 629.398 268.716 630.919 264.718C632.44 260.719 633.201 258.176 633.201 257.089C633.201 257.046 633.201 257.002 633.201 256.959C633.201 256.568 633.201 256.307 633.201 256.177C633.201 256.046 633.114 255.894 632.94 255.72C632.766 255.546 632.527 255.459 632.223 255.459H631.962C630.963 255.459 630.05 255.872 629.224 256.698C628.399 257.524 627.747 258.415 627.269 259.371C626.791 260.328 626.422 261.24 626.161 262.11C625.9 262.979 625.726 263.457 625.639 263.544C625.552 263.631 625.205 263.674 624.596 263.674H623.684C623.423 263.414 623.293 263.218 623.293 263.088Z" fill="black"/>
<path d="M654.972 172.527V167.767H675.048V363.298H654.972V358.538H670.29V172.527H654.972Z" fill="black"/>
<path d="M727.651 237.269C727.695 237.269 729.259 237.16 732.345 236.943C735.43 236.726 737.016 236.595 737.103 236.552C737.624 236.552 737.885 236.726 737.885 237.073C737.885 237.378 736.299 243.941 733.127 256.763C729.954 269.586 728.325 276.127 728.238 276.388C728.151 276.649 728.129 276.975 728.173 277.366C728.173 279.192 728.781 280.105 729.998 280.105C730.389 280.061 730.824 279.865 731.302 279.518C732.214 278.648 733.105 276.562 733.974 273.259C734.235 272.389 734.452 271.933 734.626 271.889C734.713 271.846 734.93 271.824 735.278 271.824H735.539H735.799C736.451 271.824 736.777 271.998 736.777 272.346C736.777 272.563 736.712 272.911 736.581 273.389C736.017 275.562 735.365 277.323 734.626 278.67C733.887 280.018 733.279 280.887 732.801 281.278C732.323 281.669 731.714 282.017 730.976 282.321C730.628 282.408 730.107 282.452 729.411 282.452C727.934 282.452 726.695 282.126 725.696 281.474C724.696 280.822 724.045 280.148 723.74 279.453L723.349 278.475C723.306 278.431 723.219 278.453 723.089 278.54C723.002 278.627 722.915 278.714 722.828 278.801C720.264 281.235 717.657 282.452 715.006 282.452C712.616 282.452 710.508 281.582 708.683 279.844C706.858 278.105 705.945 275.345 705.945 271.563C705.945 269.477 706.38 267.347 707.249 265.174C708.118 263.001 709.161 261.132 710.378 259.567C712.42 257.089 714.463 255.373 716.505 254.416C718.547 253.46 720.394 252.982 722.046 252.982C724.479 252.982 726.304 253.895 727.521 255.72C727.738 255.981 727.847 256.068 727.847 255.981C727.89 255.807 728.477 253.438 729.607 248.874C730.737 244.31 731.345 241.898 731.432 241.637C731.432 241.072 731.28 240.725 730.976 240.594C730.672 240.464 729.824 240.355 728.434 240.268H727.065C726.804 240.007 726.674 239.834 726.674 239.747C726.674 239.66 726.717 239.247 726.804 238.508C727.021 237.682 727.304 237.269 727.651 237.269ZM726.739 260.545C725.739 257.111 724.11 255.394 721.85 255.394C720.329 255.394 718.873 256.068 717.483 257.415C716.092 258.763 715.006 260.523 714.224 262.696C712.963 266.13 712.073 269.694 711.551 273.389C711.551 273.519 711.551 273.759 711.551 274.106C711.551 274.454 711.529 274.715 711.486 274.889C711.486 276.845 711.877 278.192 712.659 278.931C713.441 279.67 714.376 280.061 715.462 280.105C717.809 280.105 720.22 278.54 722.697 275.41L723.219 274.693L726.739 260.545Z" fill="black"/>
<path d="M741.601 262.957C741.905 261.132 743.078 259.024 745.12 256.633C747.163 254.242 749.683 253.025 752.682 252.982C754.203 252.982 755.593 253.373 756.853 254.155C758.114 254.938 759.048 255.916 759.656 257.089C761.481 254.351 763.676 252.982 766.24 252.982C767.848 252.982 769.238 253.46 770.412 254.416C771.585 255.372 772.193 256.655 772.237 258.263C772.237 259.523 771.933 260.545 771.324 261.327C770.716 262.11 770.129 262.588 769.564 262.762C768.999 262.936 768.5 263.022 768.065 263.022C767.239 263.022 766.566 262.783 766.044 262.305C765.523 261.827 765.262 261.197 765.262 260.415C765.262 258.415 766.348 257.046 768.521 256.307C768.043 255.742 767.174 255.459 765.914 255.459C765.349 255.459 764.936 255.503 764.675 255.59C763.024 256.285 761.807 257.72 761.025 259.893C758.418 269.499 757.114 275.106 757.114 276.714C757.114 277.931 757.462 278.801 758.157 279.322C758.852 279.844 759.613 280.104 760.439 280.104C762.046 280.104 763.633 279.387 765.197 277.953C766.761 276.519 767.826 274.758 768.391 272.672C768.521 272.237 768.652 271.998 768.782 271.955C768.912 271.911 769.26 271.868 769.825 271.824H770.086C770.737 271.824 771.063 271.998 771.063 272.346C771.063 272.389 771.02 272.628 770.933 273.063C770.238 275.541 768.891 277.736 766.892 279.648C764.893 281.561 762.568 282.517 759.917 282.517C756.875 282.517 754.572 281.148 753.008 278.409C751.226 281.104 749.184 282.452 746.88 282.452H746.489C744.36 282.452 742.839 281.887 741.926 280.756C741.014 279.626 740.536 278.431 740.492 277.171C740.492 275.78 740.905 274.65 741.731 273.78C742.557 272.911 743.534 272.476 744.664 272.476C746.533 272.476 747.467 273.389 747.467 275.215C747.467 276.084 747.206 276.845 746.685 277.497C746.163 278.149 745.664 278.583 745.186 278.801C744.708 279.018 744.425 279.127 744.338 279.127L744.143 279.192C744.143 279.235 744.273 279.322 744.534 279.453C744.795 279.583 745.142 279.735 745.577 279.909C746.011 280.083 746.424 280.148 746.815 280.104C748.38 280.104 749.727 279.127 750.857 277.171C751.248 276.475 751.747 274.997 752.356 272.737C752.964 270.477 753.573 268.13 754.181 265.696C754.789 263.262 755.137 261.827 755.224 261.393C755.441 260.219 755.55 259.371 755.55 258.85C755.55 257.633 755.224 256.763 754.572 256.242C753.92 255.72 753.181 255.459 752.356 255.459C750.618 255.459 748.988 256.155 747.467 257.546C745.946 258.937 744.881 260.719 744.273 262.892C744.186 263.283 744.078 263.501 743.947 263.544C743.817 263.588 743.469 263.631 742.904 263.674H741.992C741.731 263.414 741.601 263.175 741.601 262.957Z" fill="black"/>
<path d="M797.593 259.176C797.593 258.611 797.897 258.176 798.506 257.872H840.027C840.679 258.219 841.005 258.654 841.005 259.176C841.005 259.654 840.701 260.067 840.093 260.414L819.364 260.48H798.636C797.941 260.262 797.593 259.828 797.593 259.176ZM797.593 271.824C797.593 271.172 797.941 270.738 798.636 270.52H840.093C840.701 270.955 841.005 271.39 841.005 271.824C841.005 272.389 840.679 272.824 840.027 273.128H798.506C797.897 272.824 797.593 272.389 797.593 271.824Z" fill="black"/>
<path d="M818.878 213.384C817.772 213.384 816.789 213.568 815.928 213.937C815.068 214.306 814.484 214.674 814.177 215.043L813.716 215.55C813.777 215.55 813.854 215.566 813.946 215.597C814.039 215.627 814.208 215.689 814.453 215.781C814.699 215.873 814.93 216.011 815.145 216.196C815.36 216.38 815.544 216.626 815.698 216.934C815.852 217.241 815.928 217.61 815.928 218.04C815.928 218.747 815.698 219.331 815.237 219.792C814.776 220.253 814.192 220.483 813.486 220.483C812.779 220.483 812.195 220.268 811.734 219.838C811.273 219.408 811.027 218.824 810.997 218.086C810.997 216.273 811.688 214.813 813.071 213.706C814.453 212.6 815.974 211.939 817.634 211.724C817.695 211.724 817.864 211.724 818.141 211.724C818.417 211.724 818.632 211.709 818.786 211.678H818.97C820.599 211.678 822.012 211.878 823.211 212.277C824.409 212.677 825.3 213.23 825.884 213.937C826.468 214.644 826.914 215.32 827.221 215.965C827.528 216.611 827.666 217.302 827.636 218.04C827.636 220.007 826.791 221.621 825.101 222.881C822.212 224.94 820.461 227.383 819.846 230.211C819.693 230.949 819.616 231.901 819.616 233.069V233.853C819.616 234.437 819.57 234.775 819.477 234.867C819.385 234.96 819.124 235.021 818.694 235.052C818.264 235.082 818.003 235.036 817.91 234.913C817.818 234.79 817.772 234.529 817.772 234.13V232.701C817.833 230.518 818.11 228.644 818.602 227.076C819.093 225.509 819.631 224.371 820.215 223.664C820.799 222.958 821.367 222.251 821.92 221.544C822.473 220.837 822.827 220.13 822.98 219.423C823.042 219.146 823.073 218.578 823.073 217.717V217.118C823.073 216.595 823.042 216.165 822.98 215.827C822.919 215.489 822.75 215.105 822.473 214.674C822.197 214.244 821.782 213.921 821.229 213.706C820.676 213.491 819.892 213.384 818.878 213.384ZM815.928 241.368C815.928 240.507 816.205 239.831 816.758 239.339C817.311 238.848 817.987 238.602 818.786 238.602C819.493 238.663 820.107 238.924 820.63 239.385C821.152 239.846 821.413 240.507 821.413 241.368C821.413 242.29 821.152 242.981 820.63 243.442C820.107 243.903 819.462 244.134 818.694 244.134C817.926 244.134 817.28 243.903 816.758 243.442C816.236 242.981 815.959 242.29 815.928 241.368Z" fill="black"/>
<path d="M870.533 333.828C871.315 334.958 872.423 335.523 873.857 335.523H873.988C875.205 335.523 876.421 334.219 877.638 331.611C878.855 329.003 879.985 325.439 881.028 320.919C882.071 316.398 883.048 311.856 883.961 307.292C884.873 302.728 885.786 297.795 886.699 292.492C886.829 291.579 886.938 290.906 887.024 290.471C890.153 271.998 893.543 254.873 897.193 239.095C900.843 223.317 903.494 213.059 905.145 208.321C905.406 207.538 905.623 206.886 905.797 206.365C905.971 205.843 906.34 204.887 906.905 203.496C907.47 202.105 908.057 200.888 908.665 199.845C909.274 198.802 910.012 197.737 910.882 196.65C911.751 195.564 912.707 194.694 913.75 194.042C914.793 193.39 915.901 193.086 917.074 193.13C919.507 193.13 921.333 193.89 922.549 195.412C923.766 196.933 924.461 198.671 924.635 200.627C924.635 201.714 924.374 202.583 923.853 203.235C923.332 203.887 922.832 204.3 922.354 204.474C921.876 204.648 921.398 204.713 920.92 204.67C920.007 204.67 919.182 204.344 918.443 203.692C917.704 203.04 917.335 202.149 917.335 201.019C917.335 198.932 918.486 197.693 920.789 197.302L920.594 197.042C920.463 196.911 920.29 196.759 920.072 196.585C919.855 196.411 919.681 196.281 919.551 196.194C918.899 195.759 918.182 195.542 917.4 195.542C916.792 195.542 916.227 195.803 915.705 196.324C915.184 196.846 914.488 198.063 913.619 199.975C912.75 201.888 911.903 204.409 911.077 207.538C910.251 210.668 909.23 215.08 908.013 220.774C906.797 226.468 905.58 233.162 904.363 240.855C901.799 255.416 899.127 269.173 896.346 282.126C893.565 295.078 891.392 304.467 889.827 310.291C888.263 316.116 887.068 320.289 886.242 322.81C882.896 332.937 878.768 338.001 873.857 338.001C872.119 338.001 870.533 337.327 869.099 335.98C867.665 334.632 866.861 332.785 866.687 330.438C866.687 328.917 867.1 327.873 867.926 327.308C868.751 326.743 869.577 326.461 870.403 326.461C871.315 326.461 872.141 326.787 872.88 327.439C873.618 328.091 873.988 328.982 873.988 330.112C873.988 332.198 872.836 333.437 870.533 333.828Z" fill="black"/>
<path d="M949.386 178.715C949.416 178.715 950.523 178.638 952.704 178.484C954.886 178.331 956.007 178.238 956.069 178.208C956.438 178.208 956.622 178.331 956.622 178.576C956.622 178.792 955.5 183.433 953.257 192.499C951.014 201.566 949.862 206.192 949.8 206.376C949.739 206.561 949.724 206.791 949.754 207.068C949.754 208.359 950.185 209.004 951.045 209.004C951.321 208.973 951.629 208.835 951.967 208.589C952.612 207.974 953.242 206.499 953.856 204.163C954.041 203.549 954.194 203.226 954.317 203.195C954.379 203.164 954.532 203.149 954.778 203.149H954.963H955.147C955.608 203.149 955.838 203.272 955.838 203.518C955.838 203.672 955.792 203.917 955.7 204.255C955.301 205.792 954.84 207.037 954.317 207.99C953.795 208.943 953.365 209.557 953.027 209.834C952.689 210.11 952.259 210.356 951.736 210.571C951.49 210.633 951.122 210.664 950.63 210.664C949.585 210.664 948.71 210.433 948.003 209.972C947.296 209.511 946.835 209.035 946.62 208.543L946.344 207.851C946.313 207.821 946.251 207.836 946.159 207.898C946.098 207.959 946.036 208.02 945.975 208.082C944.162 209.803 942.318 210.664 940.444 210.664C938.754 210.664 937.264 210.049 935.973 208.82C934.682 207.59 934.037 205.639 934.037 202.965C934.037 201.489 934.344 199.983 934.959 198.447C935.573 196.91 936.311 195.588 937.171 194.482C938.616 192.73 940.06 191.516 941.504 190.84C942.948 190.164 944.254 189.825 945.422 189.825C947.142 189.825 948.433 190.471 949.293 191.762C949.447 191.946 949.524 192.008 949.524 191.946C949.555 191.823 949.969 190.148 950.768 186.921C951.567 183.694 951.997 181.988 952.059 181.804C952.059 181.404 951.951 181.158 951.736 181.066C951.521 180.974 950.922 180.897 949.939 180.835H948.971C948.786 180.651 948.694 180.528 948.694 180.467C948.694 180.405 948.725 180.113 948.786 179.591C948.94 179.007 949.14 178.715 949.386 178.715ZM948.74 195.173C948.034 192.745 946.881 191.531 945.283 191.531C944.208 191.531 943.179 192.008 942.195 192.96C941.212 193.913 940.444 195.158 939.891 196.695C939 199.123 938.37 201.643 938.001 204.255C938.001 204.348 938.001 204.517 938.001 204.763C938.001 205.008 937.986 205.193 937.955 205.316C937.955 206.699 938.231 207.652 938.785 208.174C939.338 208.697 939.998 208.973 940.766 209.004C942.426 209.004 944.131 207.898 945.883 205.685L946.251 205.178L948.74 195.173Z" fill="black"/>
<path d="M901.22 333.619C901.22 330.269 902.541 327.257 905.184 324.583C907.826 321.909 910.684 320.572 913.757 320.572C915.478 320.572 916.83 320.941 917.813 321.678C918.796 322.416 919.303 323.384 919.334 324.583C919.334 325.474 919.042 326.227 918.458 326.842C917.874 327.456 917.137 327.779 916.246 327.81C915.662 327.81 915.201 327.656 914.863 327.349C914.525 327.041 914.356 326.58 914.356 325.966C914.356 325.351 914.525 324.829 914.863 324.398C915.201 323.968 915.539 323.645 915.877 323.43C916.215 323.215 916.43 323.123 916.522 323.153H916.568C916.568 323.092 916.476 323 916.292 322.877C916.108 322.754 915.785 322.631 915.324 322.508C914.863 322.385 914.341 322.324 913.757 322.324C912.835 322.324 911.959 322.539 911.13 322.969C910.484 323.246 909.824 323.722 909.148 324.398C907.796 325.751 906.812 327.656 906.198 330.115C905.583 332.574 905.261 334.356 905.23 335.463C905.23 336.877 905.629 337.937 906.428 338.644C907.104 339.381 907.995 339.75 909.102 339.75H909.286C912.727 339.75 915.57 338.444 917.813 335.832C918.089 335.524 918.274 335.371 918.366 335.371C918.489 335.371 918.689 335.509 918.965 335.785C919.242 336.062 919.395 336.277 919.426 336.431C919.457 336.585 919.319 336.815 919.011 337.122C918.704 337.43 918.258 337.86 917.675 338.413C917.091 338.967 916.399 339.428 915.601 339.796C914.802 340.165 913.818 340.549 912.651 340.949C911.483 341.349 910.254 341.518 908.963 341.456C906.659 341.456 904.8 340.718 903.386 339.243C901.973 337.768 901.251 335.893 901.22 333.619Z" fill="black"/>
<path d="M991.774 363.233V167.702H1011.85V172.462H996.533V358.473H1011.85V363.233H991.774Z" fill="black"/>
<path d="M1020 333.828C1020.78 334.958 1021.89 335.523 1023.32 335.523H1023.45C1024.67 335.523 1025.89 334.219 1027.1 331.611C1028.32 329.003 1029.45 325.439 1030.49 320.919C1031.54 316.398 1032.51 311.856 1033.43 307.292C1034.34 302.728 1035.25 297.795 1036.16 292.492C1036.29 291.579 1036.4 290.906 1036.49 290.471C1039.62 271.998 1043.01 254.873 1046.66 239.094C1050.31 223.316 1052.96 213.059 1054.61 208.321C1054.87 207.538 1055.09 206.886 1055.26 206.365C1055.44 205.843 1055.81 204.887 1056.37 203.496C1056.94 202.105 1057.52 200.888 1058.13 199.845C1058.74 198.802 1059.48 197.737 1060.35 196.65C1061.22 195.564 1062.17 194.694 1063.22 194.042C1064.26 193.39 1065.37 193.086 1066.54 193.129C1068.97 193.129 1070.8 193.89 1072.01 195.411C1073.23 196.933 1073.93 198.671 1074.1 200.627C1074.1 201.714 1073.84 202.583 1073.32 203.235C1072.8 203.887 1072.3 204.3 1071.82 204.474C1071.34 204.648 1070.86 204.713 1070.39 204.67C1069.47 204.67 1068.65 204.344 1067.91 203.692C1067.17 203.04 1066.8 202.149 1066.8 201.019C1066.8 198.932 1067.95 197.693 1070.25 197.302L1070.06 197.041C1069.93 196.911 1069.76 196.759 1069.54 196.585C1069.32 196.411 1069.15 196.281 1069.02 196.194C1068.36 195.759 1067.65 195.542 1066.87 195.542C1066.26 195.542 1065.69 195.803 1065.17 196.324C1064.65 196.846 1063.95 198.063 1063.08 199.975C1062.22 201.888 1061.37 204.409 1060.54 207.538C1059.72 210.668 1058.7 215.08 1057.48 220.774C1056.26 226.468 1055.05 233.161 1053.83 240.855C1051.26 255.416 1048.59 269.173 1045.81 282.126C1043.03 295.078 1040.86 304.467 1039.29 310.291C1037.73 316.116 1036.53 320.288 1035.71 322.809C1032.36 332.937 1028.23 338.001 1023.32 338.001C1021.58 338.001 1020 337.327 1018.56 335.98C1017.13 334.632 1016.33 332.785 1016.15 330.438C1016.15 328.916 1016.57 327.873 1017.39 327.308C1018.22 326.743 1019.04 326.461 1019.87 326.461C1020.78 326.461 1021.61 326.787 1022.35 327.439C1023.08 328.091 1023.45 328.982 1023.45 330.112C1023.45 332.198 1022.3 333.437 1020 333.828Z" fill="black"/>
<path d="M1085.35 180.374C1085.35 180.067 1085.41 179.714 1085.53 179.314C1085.65 178.914 1085.84 178.715 1086.08 178.715C1086.11 178.715 1087.22 178.638 1089.4 178.484C1091.58 178.33 1092.71 178.238 1092.77 178.208C1093.14 178.208 1093.32 178.346 1093.32 178.622C1093.32 178.899 1092.8 181.097 1091.75 185.215C1091.51 186.26 1091.25 187.336 1090.97 188.442C1090.69 189.549 1090.46 190.379 1090.28 190.932L1090.09 191.808C1090.09 191.9 1090.19 191.854 1090.37 191.669C1091.88 190.44 1093.43 189.825 1095.03 189.825C1096.93 189.825 1098.47 190.532 1099.63 191.946C1100.8 193.36 1101.4 195.142 1101.43 197.294C1101.43 200.706 1100.22 203.794 1097.79 206.561C1095.36 209.327 1092.75 210.71 1089.96 210.71C1088.42 210.71 1087.02 210.126 1085.76 208.958C1084.5 207.79 1083.86 205.9 1083.83 203.287V202.872C1083.83 202.227 1083.95 201.336 1084.19 200.198C1084.44 199.061 1085.19 196.034 1086.45 191.116C1087.99 185.061 1088.76 181.85 1088.76 181.481C1088.76 181.112 1088.17 180.897 1087.01 180.835C1086.85 180.835 1086.73 180.835 1086.64 180.835H1086.41C1086.1 180.835 1085.9 180.835 1085.81 180.835C1085.71 180.835 1085.61 180.789 1085.48 180.697C1085.36 180.605 1085.32 180.497 1085.35 180.374ZM1097.47 195.219V194.943C1097.47 192.668 1096.53 191.531 1094.66 191.531C1094.13 191.531 1093.6 191.654 1093.04 191.9C1092.49 192.146 1091.98 192.469 1091.52 192.868C1091.06 193.268 1090.66 193.636 1090.32 193.975C1089.99 194.313 1089.71 194.651 1089.49 194.989L1089.22 195.358L1088.25 199.322C1087.57 201.966 1087.24 203.84 1087.24 204.947C1087.24 206.422 1087.6 207.529 1088.34 208.266C1088.83 208.758 1089.45 209.004 1090.19 209.004C1091.2 209.004 1092.23 208.512 1093.27 207.529C1094.04 206.822 1094.66 205.961 1095.12 204.947C1095.58 203.933 1096.09 202.319 1096.64 200.106C1097.19 197.893 1097.47 196.264 1097.47 195.219Z" fill="black"/>
<path d="M1050.64 333.711C1050.64 330.607 1051.81 327.656 1054.14 324.859C1056.48 322.062 1059.1 320.648 1062.02 320.618C1063.59 320.618 1064.97 321.371 1066.17 322.877C1066.66 321.955 1067.37 321.494 1068.29 321.494C1068.69 321.494 1069.05 321.617 1069.35 321.863C1069.66 322.108 1069.81 322.416 1069.81 322.785C1069.81 323.184 1069.25 325.643 1068.11 330.161C1066.97 334.679 1066.39 337.23 1066.36 337.814C1066.36 338.582 1066.46 339.089 1066.68 339.335C1066.89 339.581 1067.22 339.719 1067.65 339.75C1067.92 339.719 1068.23 339.581 1068.57 339.335C1069.21 338.721 1069.84 337.245 1070.46 334.909C1070.64 334.295 1070.8 333.972 1070.92 333.941C1070.98 333.911 1071.13 333.895 1071.38 333.895H1071.56C1072.15 333.895 1072.44 334.034 1072.44 334.31C1072.44 334.495 1072.36 334.909 1072.21 335.555C1072.06 336.2 1071.75 337.03 1071.29 338.044C1070.83 339.059 1070.34 339.827 1069.81 340.35C1069.41 340.749 1068.92 341.072 1068.34 341.318C1068.09 341.379 1067.72 341.41 1067.23 341.41C1066.19 341.41 1065.31 341.179 1064.61 340.718C1063.9 340.257 1063.44 339.781 1063.22 339.289L1062.95 338.598C1062.92 338.567 1062.85 338.582 1062.76 338.644C1062.7 338.705 1062.64 338.767 1062.58 338.828C1060.76 340.549 1058.92 341.41 1057.05 341.41C1055.36 341.41 1053.87 340.795 1052.58 339.566C1051.28 338.336 1050.64 336.385 1050.64 333.711ZM1065.3 325.827C1065.3 325.643 1065.22 325.305 1065.07 324.813C1064.91 324.321 1064.56 323.783 1064.01 323.199C1063.45 322.616 1062.75 322.308 1061.89 322.277C1060.81 322.277 1059.78 322.754 1058.8 323.707C1057.81 324.659 1057.05 325.904 1056.49 327.441C1055.6 329.869 1054.97 332.389 1054.6 335.002C1054.6 335.094 1054.6 335.263 1054.6 335.509C1054.6 335.755 1054.59 335.939 1054.56 336.062C1054.56 337.445 1054.83 338.398 1055.39 338.92C1055.94 339.443 1056.6 339.719 1057.37 339.75C1058.54 339.75 1059.69 339.243 1060.83 338.229C1061.96 337.215 1062.64 336.431 1062.85 335.878C1062.92 335.755 1063.33 334.11 1064.1 330.945C1064.87 327.779 1065.27 326.073 1065.3 325.827Z" fill="black"/>
<path d="M1127.09 292.362C1127.18 292.362 1127.31 292.405 1127.49 292.492C1127.66 292.579 1127.9 292.644 1128.2 292.688C1128.51 292.731 1128.77 292.753 1128.99 292.753C1129.55 292.753 1130.07 292.47 1130.55 291.905C1131.03 291.34 1131.38 290.71 1131.59 290.015C1132.03 288.841 1132.77 285.516 1133.81 280.039C1134.85 274.563 1135.85 269.347 1136.81 264.392C1137.76 259.436 1138.24 256.937 1138.24 256.894V256.698H1135.18C1133.14 256.698 1132.05 256.655 1131.92 256.568C1131.74 256.437 1131.66 256.22 1131.66 255.916L1132.11 254.09C1132.2 253.873 1132.37 253.764 1132.64 253.764C1132.9 253.764 1133.92 253.742 1135.7 253.699C1137.78 253.699 1138.83 253.677 1138.83 253.634C1138.83 253.547 1139.02 252.46 1139.41 250.374C1139.81 248.287 1140.07 247.027 1140.2 246.592C1141.8 239.42 1144.98 235.835 1149.71 235.835C1151.32 235.921 1152.65 236.4 1153.69 237.269C1154.73 238.138 1155.25 239.29 1155.25 240.724C1155.25 242.289 1154.8 243.419 1153.89 244.115C1152.97 244.81 1152.06 245.18 1151.15 245.223C1149.24 245.223 1148.28 244.31 1148.28 242.485C1148.28 241.659 1148.52 240.942 1149 240.333C1149.47 239.725 1150 239.268 1150.56 238.964L1151.15 238.638C1150.45 238.377 1149.8 238.247 1149.19 238.247C1148.67 238.247 1148.17 238.464 1147.69 238.899C1147.21 239.334 1146.89 239.942 1146.72 240.724C1146.41 241.985 1146.06 243.68 1145.67 245.81C1145.28 247.94 1144.93 249.744 1144.63 251.221C1144.32 252.699 1144.17 253.482 1144.17 253.569C1144.17 253.656 1145.37 253.699 1147.76 253.699C1149.71 253.699 1150.84 253.721 1151.15 253.764C1151.45 253.808 1151.69 253.938 1151.86 254.155C1151.91 254.329 1151.86 254.699 1151.73 255.264C1151.6 255.829 1151.5 256.177 1151.41 256.307C1151.32 256.524 1151.13 256.633 1150.82 256.633C1150.52 256.633 1149.34 256.655 1147.3 256.698H1143.65L1142.15 264.652C1140.07 275.432 1138.61 282.169 1137.78 284.864C1136.61 288.558 1135.09 291.297 1133.22 293.079C1131.61 294.47 1130.03 295.165 1128.46 295.165C1127.07 295.165 1125.81 294.752 1124.68 293.927C1123.55 293.101 1122.99 291.927 1122.99 290.406C1122.99 288.798 1123.44 287.624 1124.36 286.885C1125.27 286.146 1126.18 285.777 1127.09 285.777C1129.01 285.777 1129.96 286.689 1129.96 288.515C1129.96 289.341 1129.72 290.058 1129.25 290.667C1128.77 291.275 1128.25 291.731 1127.68 292.036L1127.09 292.362Z" fill="black"/>
<path d="M1161.71 265.5C1161.71 262.501 1161.92 259.654 1162.36 256.959C1162.79 254.264 1163.29 251.939 1163.86 249.983C1164.42 248.027 1165.23 246.114 1166.27 244.245C1167.31 242.376 1168.14 240.92 1168.75 239.877C1169.36 238.834 1170.27 237.704 1171.48 236.487C1172.7 235.27 1173.42 234.531 1173.64 234.27C1173.85 234.009 1174.4 233.553 1175.27 232.901H1176.11H1176.37C1176.98 232.901 1177.29 233.096 1177.29 233.487C1177.29 233.618 1176.92 234.074 1176.18 234.857C1175.44 235.639 1174.55 236.791 1173.51 238.312C1172.46 239.833 1171.4 241.702 1170.31 243.919C1169.22 246.136 1168.31 249.135 1167.57 252.917C1166.83 256.698 1166.47 260.893 1166.47 265.5C1166.47 270.107 1166.83 274.28 1167.57 278.018C1168.31 281.756 1169.2 284.777 1170.25 287.081C1171.29 289.384 1172.35 291.253 1173.44 292.688C1174.53 294.122 1175.44 295.274 1176.18 296.143C1176.92 297.013 1177.29 297.469 1177.29 297.512C1177.29 297.904 1176.96 298.099 1176.31 298.099H1176.11H1175.27L1173.44 296.534C1169.36 292.84 1166.38 288.233 1164.51 282.712C1162.64 277.192 1161.71 271.455 1161.71 265.5Z" fill="black"/>
<path d="M1184.65 262.957C1184.96 261.132 1186.13 259.024 1188.17 256.633C1190.21 254.242 1192.73 253.025 1195.73 252.982C1197.25 252.982 1198.64 253.373 1199.9 254.155C1201.16 254.938 1202.1 255.916 1202.71 257.089C1204.53 254.351 1206.73 252.982 1209.29 252.982C1210.9 252.982 1212.29 253.46 1213.46 254.416C1214.64 255.372 1215.24 256.655 1215.29 258.263C1215.29 259.523 1214.98 260.545 1214.38 261.327C1213.77 262.11 1213.18 262.588 1212.62 262.762C1212.05 262.936 1211.55 263.022 1211.12 263.022C1210.29 263.022 1209.62 262.783 1209.1 262.305C1208.57 261.827 1208.31 261.197 1208.31 260.415C1208.31 258.415 1209.4 257.046 1211.57 256.307C1211.09 255.742 1210.23 255.459 1208.96 255.459C1208.4 255.459 1207.99 255.503 1207.73 255.59C1206.08 256.285 1204.86 257.72 1204.08 259.893C1201.47 269.499 1200.17 275.106 1200.17 276.714C1200.17 277.931 1200.51 278.801 1201.21 279.322C1201.9 279.844 1202.66 280.104 1203.49 280.104C1205.1 280.104 1206.68 279.387 1208.25 277.953C1209.81 276.519 1210.88 274.758 1211.44 272.672C1211.57 272.237 1211.7 271.998 1211.83 271.955C1211.96 271.911 1212.31 271.868 1212.88 271.824H1213.14C1213.79 271.824 1214.11 271.998 1214.11 272.346C1214.11 272.389 1214.07 272.628 1213.98 273.063C1213.29 275.541 1211.94 277.736 1209.94 279.648C1207.94 281.561 1205.62 282.517 1202.97 282.517C1199.93 282.517 1197.62 281.148 1196.06 278.409C1194.28 281.104 1192.23 282.452 1189.93 282.452H1189.54C1187.41 282.452 1185.89 281.887 1184.98 280.756C1184.06 279.626 1183.59 278.431 1183.54 277.171C1183.54 275.78 1183.96 274.65 1184.78 273.78C1185.61 272.911 1186.59 272.476 1187.72 272.476C1189.58 272.476 1190.52 273.389 1190.52 275.215C1190.52 276.084 1190.26 276.845 1189.74 277.497C1189.21 278.149 1188.71 278.583 1188.24 278.801C1187.76 279.018 1187.48 279.127 1187.39 279.127L1187.19 279.192C1187.19 279.235 1187.32 279.322 1187.58 279.453C1187.85 279.583 1188.19 279.735 1188.63 279.909C1189.06 280.083 1189.48 280.148 1189.87 280.104C1191.43 280.104 1192.78 279.127 1193.91 277.171C1194.3 276.475 1194.8 274.997 1195.41 272.737C1196.02 270.477 1196.62 268.13 1197.23 265.696C1197.84 263.262 1198.19 261.827 1198.27 261.393C1198.49 260.219 1198.6 259.371 1198.6 258.85C1198.6 257.633 1198.27 256.763 1197.62 256.242C1196.97 255.72 1196.23 255.459 1195.41 255.459C1193.67 255.459 1192.04 256.155 1190.52 257.546C1189 258.937 1187.93 260.719 1187.32 262.892C1187.24 263.283 1187.13 263.501 1187 263.544C1186.87 263.588 1186.52 263.631 1185.96 263.674H1185.04C1184.78 263.414 1184.65 263.175 1184.65 262.957Z" fill="black"/>
<path d="M1223.96 279.518C1223.96 279.518 1223.96 278.974 1223.96 277.888C1223.96 276.801 1224.3 275.867 1225 275.084C1225.7 274.302 1226.63 273.911 1227.8 273.911C1229.02 273.911 1230.11 274.454 1231.06 275.541C1232.02 276.627 1232.52 278.54 1232.56 281.278C1232.56 282.799 1232.37 284.277 1231.98 285.712C1231.58 287.146 1231.13 288.385 1230.61 289.428C1230.09 290.471 1229.52 291.362 1228.91 292.101C1228.3 292.84 1227.78 293.427 1227.35 293.861C1226.91 294.296 1226.63 294.492 1226.5 294.448C1226.33 294.448 1226.04 294.253 1225.65 293.861C1225.26 293.47 1225.07 293.188 1225.07 293.014C1225.07 292.84 1225.3 292.492 1225.78 291.971C1226.26 291.449 1226.8 290.797 1227.41 290.015C1228.02 289.232 1228.59 288.146 1229.11 286.755C1229.63 285.364 1229.98 283.777 1230.15 281.995V281.213L1230.09 281.278C1230 281.322 1229.89 281.365 1229.76 281.408C1229.63 281.452 1229.5 281.517 1229.37 281.604C1229.24 281.691 1229.04 281.734 1228.78 281.734C1228.52 281.734 1228.26 281.756 1228 281.8C1226.83 281.8 1225.87 281.43 1225.13 280.691L1223.96 279.518Z" fill="black"/>
<path d="M1249.51 263.088C1249.51 262.479 1249.83 261.436 1250.49 259.958C1251.14 258.48 1252.18 256.937 1253.62 255.329C1255.05 253.721 1256.66 252.938 1258.44 252.982C1260.22 252.982 1261.65 253.482 1262.74 254.481C1263.83 255.481 1264.39 256.872 1264.44 258.654C1264.35 259.48 1264.28 259.936 1264.24 260.023C1264.24 260.154 1263.89 261.153 1263.2 263.022C1262.5 264.891 1261.78 266.999 1261.05 269.347C1260.31 271.694 1259.96 273.563 1260 274.954C1260 276.823 1260.31 278.127 1260.92 278.866C1261.52 279.605 1262.44 279.996 1263.65 280.039C1264.65 280.039 1265.59 279.8 1266.46 279.322C1267.33 278.844 1268 278.344 1268.48 277.822C1268.96 277.301 1269.54 276.584 1270.24 275.671C1270.24 275.627 1270.35 275.193 1270.56 274.367C1270.78 273.541 1271.08 272.259 1271.48 270.52C1271.87 268.782 1272.28 267.173 1272.71 265.696C1274.37 259.176 1275.28 255.764 1275.45 255.459C1276.02 254.286 1276.95 253.699 1278.25 253.699C1278.82 253.699 1279.28 253.851 1279.62 254.155C1279.97 254.46 1280.21 254.72 1280.34 254.938C1280.47 255.155 1280.51 255.351 1280.47 255.525C1280.47 256.09 1279.41 260.653 1277.28 269.216C1275.15 277.779 1273.93 282.473 1273.63 283.299C1272.41 286.907 1270.3 289.776 1267.3 291.905C1264.31 294.035 1261.31 295.122 1258.31 295.165C1256.35 295.165 1254.64 294.687 1253.16 293.731C1251.68 292.775 1250.94 291.34 1250.94 289.428C1250.94 288.472 1251.09 287.667 1251.4 287.015C1251.7 286.363 1252.12 285.885 1252.64 285.581C1253.16 285.277 1253.59 285.06 1253.94 284.929C1254.29 284.799 1254.66 284.734 1255.05 284.734C1256.96 284.734 1257.92 285.646 1257.92 287.472C1257.92 288.341 1257.66 289.102 1257.14 289.754C1256.61 290.406 1256.11 290.84 1255.64 291.058C1255.16 291.275 1254.88 291.384 1254.79 291.384L1254.59 291.449C1254.68 291.666 1255.09 291.927 1255.83 292.231C1256.57 292.536 1257.31 292.688 1258.05 292.688H1258.57C1259.31 292.688 1259.87 292.644 1260.26 292.557C1261.7 292.166 1263.02 291.34 1264.24 290.08C1265.46 288.819 1266.39 287.472 1267.04 286.037C1267.69 284.603 1268.19 283.386 1268.54 282.386C1268.89 281.387 1269.06 280.735 1269.06 280.43L1268.67 280.691C1268.41 280.865 1268 281.104 1267.43 281.408C1266.87 281.713 1266.3 281.973 1265.74 282.191C1264.87 282.408 1264.02 282.517 1263.2 282.517C1261.2 282.517 1259.44 282.039 1257.92 281.082C1256.4 280.126 1255.4 278.583 1254.92 276.453C1254.88 276.149 1254.85 275.475 1254.85 274.432C1254.85 271.955 1255.61 268.716 1257.14 264.718C1258.66 260.719 1259.42 258.176 1259.42 257.089C1259.42 257.046 1259.42 257.002 1259.42 256.959C1259.42 256.568 1259.42 256.307 1259.42 256.177C1259.42 256.046 1259.33 255.894 1259.16 255.72C1258.98 255.546 1258.74 255.459 1258.44 255.459H1258.18C1257.18 255.459 1256.27 255.872 1255.44 256.698C1254.61 257.524 1253.96 258.415 1253.48 259.371C1253.01 260.328 1252.64 261.24 1252.38 262.11C1252.12 262.979 1251.94 263.457 1251.86 263.544C1251.77 263.631 1251.42 263.674 1250.81 263.674H1249.9C1249.64 263.414 1249.51 263.218 1249.51 263.088Z" fill="black"/>
<path d="M1284.77 232.966L1285.03 232.901C1285.25 232.901 1285.47 232.901 1285.69 232.901H1286.47L1288.29 234.465C1292.38 238.16 1295.35 242.767 1297.22 248.288C1299.09 253.808 1300.03 259.545 1300.03 265.5C1300.03 268.456 1299.81 271.303 1299.37 274.041C1298.94 276.779 1298.44 279.105 1297.88 281.017C1297.31 282.93 1296.51 284.842 1295.46 286.755C1294.42 288.667 1293.59 290.123 1292.99 291.123C1292.38 292.123 1291.49 293.231 1290.31 294.448C1289.14 295.665 1288.45 296.382 1288.23 296.6C1288.01 296.817 1287.51 297.23 1286.73 297.838C1286.6 297.969 1286.51 298.056 1286.47 298.099H1285.69C1285.34 298.099 1285.1 298.099 1284.97 298.099C1284.84 298.099 1284.73 298.034 1284.64 297.904C1284.56 297.773 1284.49 297.578 1284.45 297.317C1284.49 297.273 1284.73 296.991 1285.16 296.469C1291.9 289.471 1295.27 279.148 1295.27 265.5C1295.27 251.852 1291.9 241.529 1285.16 234.531C1284.73 234.009 1284.49 233.726 1284.45 233.683C1284.45 233.335 1284.56 233.096 1284.77 232.966Z" fill="black"/>
<path d="M1330.4 237.269C1330.44 237.269 1332.01 237.16 1335.09 236.943C1338.18 236.726 1339.77 236.595 1339.85 236.552C1340.37 236.552 1340.64 236.726 1340.64 237.073C1340.64 237.378 1339.05 243.941 1335.88 256.763C1332.7 269.586 1331.07 276.127 1330.99 276.388C1330.9 276.649 1330.88 276.975 1330.92 277.366C1330.92 279.192 1331.53 280.105 1332.75 280.105C1333.14 280.061 1333.57 279.865 1334.05 279.518C1334.96 278.648 1335.86 276.562 1336.72 273.259C1336.98 272.389 1337.2 271.933 1337.38 271.889C1337.46 271.846 1337.68 271.824 1338.03 271.824H1338.29H1338.55C1339.2 271.824 1339.53 271.998 1339.53 272.346C1339.53 272.563 1339.46 272.911 1339.33 273.389C1338.77 275.562 1338.11 277.323 1337.38 278.67C1336.64 280.018 1336.03 280.887 1335.55 281.278C1335.07 281.669 1334.46 282.017 1333.73 282.321C1333.38 282.408 1332.86 282.452 1332.16 282.452C1330.68 282.452 1329.45 282.126 1328.45 281.474C1327.45 280.822 1326.79 280.148 1326.49 279.453L1326.1 278.475C1326.06 278.431 1325.97 278.453 1325.84 278.54C1325.75 278.627 1325.66 278.714 1325.58 278.801C1323.01 281.235 1320.41 282.452 1317.76 282.452C1315.37 282.452 1313.26 281.582 1311.43 279.844C1309.61 278.105 1308.7 275.345 1308.7 271.563C1308.7 269.477 1309.13 267.347 1310 265.174C1310.87 263.001 1311.91 261.132 1313.13 259.567C1315.17 257.089 1317.21 255.373 1319.26 254.416C1321.3 253.46 1323.14 252.982 1324.8 252.982C1327.23 252.982 1329.05 253.895 1330.27 255.72C1330.49 255.981 1330.6 256.068 1330.6 255.981C1330.64 255.807 1331.23 253.438 1332.36 248.874C1333.49 244.31 1334.1 241.898 1334.18 241.637C1334.18 241.072 1334.03 240.725 1333.73 240.594C1333.42 240.464 1332.57 240.355 1331.18 240.268H1329.81C1329.55 240.007 1329.42 239.834 1329.42 239.747C1329.42 239.66 1329.47 239.247 1329.55 238.508C1329.77 237.682 1330.05 237.269 1330.4 237.269ZM1329.49 260.545C1328.49 257.111 1326.86 255.394 1324.6 255.394C1323.08 255.394 1321.62 256.068 1320.23 257.415C1318.84 258.763 1317.76 260.523 1316.97 262.696C1315.71 266.13 1314.82 269.694 1314.3 273.389C1314.3 273.519 1314.3 273.759 1314.3 274.106C1314.3 274.454 1314.28 274.715 1314.24 274.889C1314.24 276.845 1314.63 278.192 1315.41 278.931C1316.19 279.67 1317.13 280.061 1318.21 280.105C1320.56 280.105 1322.97 278.54 1325.45 275.41L1325.97 274.693L1329.49 260.545Z" fill="black"/>
<path d="M1344.35 262.957C1344.65 261.132 1345.83 259.024 1347.87 256.633C1349.91 254.242 1352.43 253.025 1355.43 252.982C1356.95 252.982 1358.34 253.373 1359.6 254.155C1360.86 254.938 1361.8 255.916 1362.41 257.089C1364.23 254.351 1366.43 252.982 1368.99 252.982C1370.6 252.982 1371.99 253.46 1373.16 254.416C1374.34 255.372 1374.94 256.655 1374.99 258.263C1374.99 259.523 1374.68 260.545 1374.07 261.327C1373.47 262.11 1372.88 262.588 1372.31 262.762C1371.75 262.936 1371.25 263.022 1370.82 263.022C1369.99 263.022 1369.32 262.783 1368.79 262.305C1368.27 261.827 1368.01 261.197 1368.01 260.415C1368.01 258.415 1369.1 257.046 1371.27 256.307C1370.79 255.742 1369.92 255.459 1368.66 255.459C1368.1 255.459 1367.69 255.503 1367.43 255.59C1365.77 256.285 1364.56 257.72 1363.78 259.893C1361.17 269.499 1359.86 275.106 1359.86 276.714C1359.86 277.931 1360.21 278.801 1360.91 279.322C1361.6 279.844 1362.36 280.104 1363.19 280.104C1364.8 280.104 1366.38 279.387 1367.95 277.953C1369.51 276.519 1370.58 274.758 1371.14 272.672C1371.27 272.237 1371.4 271.998 1371.53 271.955C1371.66 271.911 1372.01 271.868 1372.58 271.824H1372.84C1373.49 271.824 1373.81 271.998 1373.81 272.346C1373.81 272.389 1373.77 272.628 1373.68 273.063C1372.99 275.541 1371.64 277.736 1369.64 279.648C1367.64 281.561 1365.32 282.517 1362.67 282.517C1359.63 282.517 1357.32 281.148 1355.76 278.409C1353.98 281.104 1351.93 282.452 1349.63 282.452H1349.24C1347.11 282.452 1345.59 281.887 1344.68 280.756C1343.76 279.626 1343.29 278.431 1343.24 277.171C1343.24 275.78 1343.66 274.65 1344.48 273.78C1345.31 272.911 1346.28 272.476 1347.41 272.476C1349.28 272.476 1350.22 273.389 1350.22 275.215C1350.22 276.084 1349.96 276.845 1349.44 277.497C1348.91 278.149 1348.41 278.583 1347.94 278.801C1347.46 279.018 1347.18 279.127 1347.09 279.127L1346.89 279.192C1346.89 279.235 1347.02 279.322 1347.28 279.453C1347.54 279.583 1347.89 279.735 1348.33 279.909C1348.76 280.083 1349.17 280.148 1349.57 280.104C1351.13 280.104 1352.48 279.127 1353.61 277.171C1354 276.475 1354.5 274.997 1355.11 272.737C1355.71 270.477 1356.32 268.13 1356.93 265.696C1357.54 263.262 1357.89 261.827 1357.97 261.393C1358.19 260.219 1358.3 259.371 1358.3 258.85C1358.3 257.633 1357.97 256.763 1357.32 256.242C1356.67 255.72 1355.93 255.459 1355.11 255.459C1353.37 255.459 1351.74 256.155 1350.22 257.546C1348.7 258.937 1347.63 260.719 1347.02 262.892C1346.94 263.283 1346.83 263.501 1346.7 263.544C1346.57 263.588 1346.22 263.631 1345.65 263.674H1344.74C1344.48 263.414 1344.35 263.175 1344.35 262.957Z" fill="black"/>
<path d="M1378.9 172.527V167.767H1398.97V363.298H1378.9V358.538H1394.22V172.527H1378.9Z" fill="black"/>
<path d="M1451.71 237.269C1451.75 237.269 1453.32 237.16 1456.4 236.943C1459.49 236.726 1461.07 236.595 1461.16 236.552C1461.68 236.552 1461.94 236.726 1461.94 237.073C1461.94 237.378 1460.36 243.941 1457.18 256.763C1454.01 269.586 1452.38 276.127 1452.29 276.388C1452.21 276.649 1452.19 276.975 1452.23 277.366C1452.23 279.192 1452.84 280.105 1454.05 280.105C1454.45 280.061 1454.88 279.865 1455.36 279.518C1456.27 278.648 1457.16 276.562 1458.03 273.259C1458.29 272.389 1458.51 271.933 1458.68 271.889C1458.77 271.846 1458.99 271.824 1459.33 271.824H1459.59H1459.86C1460.51 271.824 1460.83 271.998 1460.83 272.346C1460.83 272.563 1460.77 272.911 1460.64 273.389C1460.07 275.562 1459.42 277.323 1458.68 278.67C1457.94 280.018 1457.34 280.887 1456.86 281.278C1456.38 281.669 1455.77 282.017 1455.03 282.321C1454.68 282.408 1454.16 282.452 1453.47 282.452C1451.99 282.452 1450.75 282.126 1449.75 281.474C1448.75 280.822 1448.1 280.148 1447.8 279.453L1447.41 278.475C1447.36 278.431 1447.28 278.453 1447.14 278.54C1447.06 278.627 1446.97 278.714 1446.88 278.801C1444.32 281.235 1441.71 282.452 1439.06 282.452C1436.67 282.452 1434.56 281.582 1432.74 279.844C1430.91 278.105 1430 275.345 1430 271.563C1430 269.477 1430.44 267.347 1431.31 265.174C1432.17 263.001 1433.22 261.132 1434.43 259.567C1436.48 257.089 1438.52 255.373 1440.56 254.416C1442.6 253.46 1444.45 252.982 1446.1 252.982C1448.54 252.982 1450.36 253.895 1451.58 255.72C1451.79 255.981 1451.9 256.068 1451.9 255.981C1451.95 255.807 1452.53 253.438 1453.66 248.874C1454.79 244.31 1455.4 241.898 1455.49 241.637C1455.49 241.072 1455.34 240.725 1455.03 240.594C1454.73 240.464 1453.88 240.355 1452.49 240.268H1451.12C1450.86 240.007 1450.73 239.834 1450.73 239.747C1450.73 239.66 1450.77 239.247 1450.86 238.508C1451.08 237.682 1451.36 237.269 1451.71 237.269ZM1450.79 260.545C1449.8 257.111 1448.17 255.394 1445.91 255.394C1444.39 255.394 1442.93 256.068 1441.54 257.415C1440.15 258.763 1439.06 260.523 1438.28 262.696C1437.02 266.13 1436.13 269.694 1435.61 273.389C1435.61 273.519 1435.61 273.759 1435.61 274.106C1435.61 274.454 1435.59 274.715 1435.54 274.889C1435.54 276.845 1435.93 278.192 1436.72 278.931C1437.5 279.67 1438.43 280.061 1439.52 280.105C1441.86 280.105 1444.28 278.54 1446.75 275.41L1447.28 274.693L1450.79 260.545Z" fill="black"/>
<path d="M1463.64 263.088C1463.64 262.479 1463.96 261.436 1464.61 259.958C1465.27 258.48 1466.31 256.937 1467.74 255.329C1469.18 253.721 1470.78 252.938 1472.57 252.982C1474.35 252.982 1475.78 253.482 1476.87 254.481C1477.95 255.481 1478.52 256.872 1478.56 258.654C1478.48 259.48 1478.41 259.936 1478.37 260.023C1478.37 260.154 1478.02 261.153 1477.32 263.022C1476.63 264.891 1475.91 266.999 1475.17 269.347C1474.43 271.694 1474.09 273.563 1474.13 274.954C1474.13 276.823 1474.43 278.127 1475.04 278.866C1475.65 279.605 1476.56 279.996 1477.78 280.039C1478.78 280.039 1479.71 279.8 1480.58 279.322C1481.45 278.844 1482.13 278.344 1482.6 277.822C1483.08 277.301 1483.67 276.584 1484.36 275.671C1484.36 275.627 1484.47 275.193 1484.69 274.367C1484.91 273.541 1485.21 272.259 1485.6 270.52C1485.99 268.782 1486.41 267.173 1486.84 265.696C1488.49 259.176 1489.41 255.764 1489.58 255.459C1490.14 254.286 1491.08 253.699 1492.38 253.699C1492.95 253.699 1493.4 253.851 1493.75 254.155C1494.1 254.46 1494.34 254.72 1494.47 254.938C1494.6 255.155 1494.64 255.351 1494.6 255.525C1494.6 256.09 1493.53 260.653 1491.4 269.216C1489.28 277.779 1488.06 282.473 1487.75 283.299C1486.54 286.907 1484.43 289.776 1481.43 291.905C1478.43 294.035 1475.43 295.122 1472.44 295.165C1470.48 295.165 1468.76 294.687 1467.29 293.731C1465.81 292.775 1465.07 291.34 1465.07 289.428C1465.07 288.472 1465.22 287.667 1465.53 287.015C1465.83 286.363 1466.24 285.885 1466.77 285.581C1467.29 285.277 1467.72 285.06 1468.07 284.929C1468.42 284.799 1468.79 284.734 1469.18 284.734C1471.09 284.734 1472.04 285.646 1472.04 287.472C1472.04 288.341 1471.78 289.102 1471.26 289.754C1470.74 290.406 1470.24 290.84 1469.76 291.058C1469.29 291.275 1469 291.384 1468.92 291.384L1468.72 291.449C1468.81 291.666 1469.22 291.927 1469.96 292.231C1470.7 292.536 1471.44 292.688 1472.18 292.688H1472.7C1473.44 292.688 1474 292.644 1474.39 292.557C1475.83 292.166 1477.15 291.34 1478.37 290.08C1479.58 288.819 1480.52 287.472 1481.17 286.037C1481.82 284.603 1482.32 283.386 1482.67 282.386C1483.02 281.387 1483.19 280.735 1483.19 280.43L1482.8 280.691C1482.54 280.865 1482.13 281.104 1481.56 281.408C1481 281.713 1480.43 281.973 1479.87 282.191C1479 282.408 1478.15 282.517 1477.32 282.517C1475.33 282.517 1473.57 282.039 1472.04 281.082C1470.52 280.126 1469.52 278.583 1469.05 276.453C1469 276.149 1468.98 275.475 1468.98 274.432C1468.98 271.955 1469.74 268.716 1471.26 264.718C1472.78 260.719 1473.54 258.176 1473.54 257.089C1473.54 257.046 1473.54 257.002 1473.54 256.959C1473.54 256.568 1473.54 256.307 1473.54 256.177C1473.54 256.046 1473.46 255.894 1473.28 255.72C1473.11 255.546 1472.87 255.459 1472.57 255.459H1472.31C1471.31 255.459 1470.39 255.872 1469.57 256.698C1468.74 257.524 1468.09 258.415 1467.61 259.371C1467.13 260.328 1466.77 261.24 1466.5 262.11C1466.24 262.979 1466.07 263.457 1465.98 263.544C1465.9 263.631 1465.55 263.674 1464.94 263.674H1464.03C1463.77 263.414 1463.64 263.218 1463.64 263.088Z" fill="black"/>
</svg>
