<svg width="1640" height="531" viewBox="0 0 1640 531" fill="none" xmlns="http://www.w3.org/2000/svg">
<rect width="1640" height="531" fill="black"/>
<path d="M30 30H1610V501H30V30Z" fill="white"/>
<g clip-path="url(#clip0_6_2)">
<path d="M830.506 344.501C830.506 344.114 830.714 343.451 831.131 342.512C831.547 341.572 832.213 340.591 833.129 339.568C834.045 338.546 835.072 338.048 836.21 338.076C837.348 338.076 838.264 338.394 838.958 339.029C839.652 339.665 840.013 340.549 840.041 341.682C839.985 342.208 839.944 342.498 839.916 342.553C839.916 342.636 839.694 343.272 839.25 344.46C838.805 345.648 838.347 346.989 837.876 348.481C837.404 349.973 837.182 351.162 837.209 352.046C837.209 353.234 837.404 354.064 837.792 354.533C838.181 355.003 838.764 355.252 839.541 355.28C840.179 355.28 840.776 355.128 841.331 354.824C841.887 354.52 842.317 354.202 842.622 353.87C842.927 353.538 843.302 353.082 843.746 352.502C843.746 352.474 843.816 352.198 843.955 351.673C844.093 351.148 844.288 350.333 844.537 349.227C844.787 348.122 845.051 347.099 845.329 346.16C846.383 342.014 846.966 339.845 847.077 339.651C847.438 338.905 848.035 338.532 848.868 338.532C849.228 338.532 849.52 338.629 849.742 338.822C849.964 339.015 850.117 339.181 850.2 339.319C850.283 339.458 850.311 339.582 850.283 339.693C850.283 340.052 849.603 342.954 848.243 348.398C846.883 353.842 846.106 356.827 845.911 357.352C845.134 359.646 843.788 361.47 841.873 362.824C839.957 364.178 838.042 364.869 836.127 364.897C834.878 364.897 833.781 364.593 832.838 363.985C831.894 363.377 831.422 362.465 831.422 361.249C831.422 360.641 831.519 360.13 831.713 359.715C831.908 359.301 832.171 358.997 832.505 358.803C832.838 358.61 833.115 358.472 833.337 358.389C833.559 358.306 833.795 358.264 834.045 358.264C835.266 358.264 835.877 358.845 835.877 360.005C835.877 360.558 835.711 361.042 835.377 361.456C835.044 361.871 834.725 362.147 834.42 362.285C834.114 362.424 833.934 362.493 833.879 362.493L833.754 362.534C833.809 362.672 834.073 362.838 834.545 363.032C835.017 363.225 835.488 363.322 835.96 363.322H836.293C836.765 363.322 837.126 363.294 837.376 363.239C838.292 362.99 839.139 362.465 839.916 361.664C840.693 360.862 841.29 360.005 841.706 359.093C842.123 358.181 842.442 357.408 842.664 356.772C842.886 356.136 842.997 355.722 842.997 355.528L842.747 355.694C842.581 355.805 842.317 355.957 841.956 356.15C841.595 356.344 841.234 356.509 840.873 356.648C840.318 356.786 839.777 356.855 839.25 356.855C837.973 356.855 836.849 356.551 835.877 355.943C834.906 355.335 834.267 354.354 833.962 353C833.934 352.806 833.92 352.378 833.92 351.714C833.92 350.139 834.406 348.08 835.377 345.538C836.349 342.995 836.835 341.378 836.835 340.688C836.835 340.66 836.835 340.632 836.835 340.605C836.835 340.356 836.835 340.19 836.835 340.107C836.835 340.024 836.779 339.927 836.668 339.817C836.557 339.706 836.404 339.651 836.21 339.651H836.044C835.405 339.651 834.822 339.914 834.295 340.439C833.767 340.964 833.351 341.53 833.046 342.138C832.74 342.746 832.505 343.327 832.338 343.88C832.171 344.432 832.06 344.736 832.005 344.792C831.949 344.847 831.727 344.874 831.339 344.874H830.756C830.589 344.709 830.506 344.584 830.506 344.501Z" fill="black"/>
<path d="M864.398 346.574C864.398 346.574 864.398 346.394 864.398 346.035C864.398 345.676 864.592 345.4 864.981 345.206H896.833C893.613 342.802 891.628 339.72 890.879 335.962C890.879 335.934 890.879 335.893 890.879 335.837C890.879 335.782 890.865 335.741 890.837 335.713C890.837 335.381 891.073 335.215 891.545 335.215H891.67C891.92 335.215 892.086 335.229 892.169 335.257C892.253 335.285 892.336 335.34 892.419 335.423C892.502 335.506 892.544 335.63 892.544 335.796C892.544 335.962 892.586 336.183 892.669 336.459C892.752 336.735 892.863 337.081 893.002 337.495C893.613 339.347 894.626 341.005 896.042 342.47C897.457 343.935 899.109 344.971 900.996 345.579C901.246 345.662 901.371 345.814 901.371 346.035C901.371 346.201 901.302 346.325 901.163 346.408C901.024 346.491 900.691 346.629 900.164 346.823C899.636 347.016 899.109 347.279 898.581 347.61C897.443 348.329 896.458 349.158 895.625 350.098C894.792 351.037 894.168 351.963 893.752 352.875C893.335 353.787 893.044 354.478 892.877 354.948C892.711 355.418 892.6 355.846 892.544 356.233C892.489 356.509 892.419 356.675 892.336 356.73C892.253 356.786 892.031 356.827 891.67 356.855C891.115 356.855 890.837 356.703 890.837 356.399C890.837 356.205 890.906 355.86 891.045 355.362C891.933 351.88 893.863 349.048 896.833 346.864H864.981C864.592 346.671 864.398 346.394 864.398 346.035V346.574Z" fill="black"/>
<path d="M918.525 329.578C918.525 329.301 918.581 328.983 918.692 328.624C918.803 328.265 918.969 328.085 919.191 328.085C919.219 328.085 920.218 328.016 922.189 327.878C924.16 327.74 925.173 327.657 925.229 327.629C925.562 327.629 925.728 327.754 925.728 328.002C925.728 328.251 925.256 330.227 924.313 333.93C924.091 334.87 923.855 335.837 923.605 336.832C923.355 337.827 923.147 338.573 922.98 339.071L922.814 339.858C922.814 339.941 922.897 339.9 923.063 339.734C924.424 338.629 925.825 338.076 927.269 338.076C928.99 338.076 930.378 338.711 931.432 339.983C932.487 341.254 933.028 342.857 933.056 344.792C933.056 347.859 931.96 350.637 929.767 353.124C927.574 355.611 925.215 356.855 922.689 356.855C921.301 356.855 920.038 356.33 918.9 355.28C917.762 354.229 917.179 352.53 917.151 350.181V349.808C917.151 349.227 917.262 348.426 917.484 347.403C917.706 346.381 918.386 343.658 919.524 339.237C920.912 333.792 921.606 330.904 921.606 330.573C921.606 330.241 921.079 330.047 920.024 329.992C919.885 329.992 919.774 329.992 919.691 329.992H919.483C919.205 329.992 919.025 329.992 918.941 329.992C918.858 329.992 918.761 329.951 918.65 329.868C918.539 329.785 918.497 329.688 918.525 329.578ZM929.475 342.926V342.677C929.475 340.632 928.629 339.61 926.936 339.61C926.464 339.61 925.978 339.72 925.478 339.941C924.979 340.162 924.521 340.453 924.104 340.812C923.688 341.171 923.327 341.503 923.022 341.807C922.717 342.111 922.467 342.415 922.272 342.719L922.023 343.05L921.148 346.616C920.538 348.992 920.232 350.678 920.232 351.673C920.232 353 920.565 353.994 921.231 354.658C921.676 355.1 922.231 355.321 922.897 355.321C923.813 355.321 924.743 354.879 925.687 353.994C926.381 353.359 926.936 352.585 927.352 351.673C927.768 350.761 928.226 349.31 928.726 347.32C929.226 345.33 929.475 343.866 929.475 342.926Z" fill="black"/>
</g>
<path d="M817.804 187.362C818.041 185.94 818.957 184.298 820.552 182.436C822.146 180.573 824.114 179.625 826.454 179.591C827.642 179.591 828.727 179.896 829.711 180.506C830.695 181.115 831.424 181.877 831.899 182.791C833.324 180.658 835.037 179.591 837.038 179.591C838.293 179.591 839.379 179.964 840.295 180.709C841.211 181.454 841.686 182.453 841.72 183.705C841.72 184.687 841.482 185.483 841.007 186.092C840.532 186.702 840.074 187.074 839.633 187.21C839.192 187.345 838.802 187.413 838.463 187.413C837.819 187.413 837.293 187.227 836.886 186.854C836.479 186.482 836.275 185.991 836.275 185.381C836.275 183.824 837.123 182.757 838.819 182.182C838.446 181.741 837.768 181.521 836.784 181.521C836.343 181.521 836.021 181.555 835.817 181.623C834.528 182.165 833.578 183.282 832.968 184.975C830.932 192.458 829.914 196.826 829.914 198.079C829.914 199.027 830.186 199.704 830.729 200.11C831.271 200.516 831.865 200.72 832.51 200.72C833.765 200.72 835.003 200.161 836.224 199.044C837.445 197.926 838.277 196.555 838.718 194.93C838.819 194.591 838.921 194.405 839.023 194.371C839.125 194.337 839.396 194.303 839.837 194.269H840.04C840.549 194.269 840.804 194.405 840.804 194.676C840.804 194.71 840.77 194.896 840.702 195.234C840.159 197.164 839.108 198.874 837.547 200.364C835.987 201.854 834.172 202.599 832.103 202.599C829.728 202.599 827.93 201.532 826.709 199.399C825.318 201.498 823.724 202.548 821.926 202.548H821.62C819.958 202.548 818.771 202.108 818.058 201.227C817.346 200.347 816.973 199.416 816.939 198.434C816.939 197.351 817.261 196.47 817.906 195.793C818.55 195.116 819.314 194.777 820.196 194.777C821.654 194.777 822.384 195.488 822.384 196.91C822.384 197.588 822.18 198.18 821.773 198.688C821.366 199.196 820.976 199.534 820.603 199.704C820.229 199.873 820.009 199.958 819.941 199.958L819.788 200.008C819.788 200.042 819.89 200.11 820.094 200.212C820.297 200.313 820.569 200.432 820.908 200.567C821.247 200.703 821.569 200.753 821.875 200.72C823.096 200.72 824.148 199.958 825.03 198.434C825.335 197.892 825.725 196.741 826.2 194.98C826.675 193.22 827.15 191.391 827.625 189.495C828.1 187.599 828.371 186.482 828.439 186.143C828.608 185.229 828.693 184.569 828.693 184.162C828.693 183.214 828.439 182.537 827.93 182.131C827.421 181.725 826.844 181.521 826.2 181.521C824.843 181.521 823.571 182.063 822.384 183.147C821.196 184.23 820.365 185.618 819.89 187.311C819.822 187.616 819.738 187.785 819.636 187.819C819.534 187.853 819.263 187.887 818.822 187.921H818.109C817.906 187.718 817.804 187.531 817.804 187.362Z" fill="black"/>
<path d="M862.888 189.343C862.888 185.212 864.278 181.826 867.06 179.185C869.842 176.544 873.132 175.037 876.932 174.665C876.966 174.665 877.254 174.665 877.797 174.665C878.339 174.665 879.052 174.648 879.934 174.614C880.816 174.58 881.664 174.58 882.478 174.614H887.516C888.024 174.885 888.279 175.224 888.279 175.63C888.279 175.935 888.058 176.256 887.617 176.595L882.325 176.646C878.56 176.68 876.236 176.781 875.354 176.95C873.692 177.357 872.216 177.966 870.927 178.779C869.638 179.591 868.638 180.421 867.925 181.267C867.213 182.114 866.602 183.045 866.093 184.061C865.584 185.077 865.279 185.889 865.177 186.499C865.076 187.108 864.991 187.684 864.923 188.225V188.327H887.516C888.024 188.598 888.279 188.937 888.279 189.343C888.279 189.749 888.024 190.088 887.516 190.359H864.923V190.46C864.923 191.171 865.093 192.035 865.432 193.05C865.771 194.066 866.331 195.167 867.111 196.352C867.891 197.537 868.977 198.62 870.368 199.602C871.758 200.584 873.404 201.278 875.303 201.685C876.219 201.888 878.56 202.006 882.325 202.04H887.617C888.058 202.379 888.279 202.717 888.279 203.056C888.279 203.462 888.024 203.801 887.516 204.072H882.58C882.342 204.072 881.918 204.072 881.308 204.072C880.697 204.072 880.205 204.089 879.832 204.122C874.574 204.122 870.418 202.666 867.365 199.755C864.38 196.978 862.888 193.508 862.888 189.343Z" fill="black"/>
<path d="M921.557 170.145C921.557 169.908 920.591 169.755 918.657 169.688C917.877 169.688 917.368 169.671 917.131 169.637C916.893 169.603 916.774 169.451 916.774 169.18C916.774 168.909 916.842 168.57 916.978 168.164C917.114 167.758 917.232 167.504 917.334 167.402C917.402 167.368 920.777 167.351 927.46 167.351C933.125 167.385 936.297 167.402 936.975 167.402C937.654 167.402 938.332 167.504 939.011 167.707C941.453 168.282 943.523 169.62 945.219 171.719C946.915 173.818 947.78 176.629 947.814 180.15C947.814 185.432 945.999 190.172 942.369 194.371C938.739 198.569 934.465 201.075 929.546 201.888L928.834 201.989L918.962 202.04H913.314H910.617C909.803 202.04 909.277 202.006 909.04 201.938C908.802 201.871 908.667 201.718 908.633 201.481C908.633 201.414 908.684 201.177 908.785 200.77C908.921 200.229 909.057 199.924 909.193 199.856C909.328 199.788 909.718 199.738 910.363 199.704C911.279 199.704 912.296 199.653 913.416 199.551C913.891 199.45 914.213 199.247 914.383 198.942C914.485 198.806 915.706 194.1 918.046 184.823C920.387 175.545 921.557 170.653 921.557 170.145ZM942.725 178.22C942.725 176.933 942.539 175.782 942.166 174.766C941.792 173.751 941.352 172.955 940.843 172.379C940.334 171.804 939.706 171.313 938.96 170.907C938.214 170.5 937.552 170.229 936.975 170.094C936.399 169.958 935.805 169.84 935.194 169.738C935.127 169.738 934.889 169.738 934.482 169.738C934.075 169.738 933.583 169.738 933.006 169.738C932.43 169.738 931.87 169.721 931.327 169.688H929.139C927.647 169.688 926.799 169.857 926.595 170.195C926.527 170.331 925.289 175.207 922.88 184.823C920.472 194.439 919.268 199.297 919.268 199.399C919.268 199.534 919.454 199.602 919.827 199.602C920.201 199.602 921.507 199.619 923.745 199.653C923.915 199.653 924.237 199.653 924.712 199.653C925.187 199.653 925.594 199.67 925.934 199.704C930.208 199.704 933.736 198.316 936.517 195.539C937.739 194.32 938.739 192.898 939.52 191.273C940.3 189.648 941.029 187.498 941.708 184.823C942.386 182.148 942.725 179.947 942.725 178.22Z" fill="black"/>
<path d="M1005.23 271.505C1005.23 274.252 1005.79 276.716 1006.92 278.897C1008.05 281.079 1009.5 282.735 1011.28 283.866C1013.05 284.997 1014.78 285.926 1016.47 286.653C1018.17 287.38 1019.58 287.905 1020.71 288.228L1022.52 288.471L1022.76 288.35L1024.33 283.381C1025.79 278.695 1027.12 274.696 1028.32 271.384C1029.53 268.072 1031.11 264.517 1033.04 260.72C1034.98 256.923 1036.91 253.853 1038.84 251.51C1040.78 249.167 1043.16 247.228 1045.98 245.693C1048.8 244.158 1051.74 243.391 1054.81 243.391C1058.43 243.391 1061.66 244.683 1064.48 247.269C1067.3 249.854 1068.75 254.216 1068.83 260.356C1068.83 266.658 1067.1 272.717 1063.63 278.534C1060.17 284.351 1055.41 289.077 1049.36 292.712C1043.32 296.348 1036.95 298.166 1030.26 298.166C1028.16 298.166 1027.12 298.246 1027.12 298.408L1026.27 302.77C1025.79 305.598 1025.22 308.708 1024.58 312.102C1023.93 315.495 1023.49 317.676 1023.25 318.645C1022.84 320.584 1021.8 321.917 1020.1 322.644C1019.22 323.129 1018.21 323.372 1017.08 323.372C1014.58 323.129 1013.33 321.796 1013.33 319.373C1013.33 318.565 1015.55 311.172 1019.98 297.196L1019.38 296.954C1018.97 296.792 1018.41 296.59 1017.68 296.348C1016.96 296.105 1016.07 295.742 1015.02 295.257C1013.98 294.772 1012.93 294.207 1011.88 293.561C1010.83 292.914 1009.74 292.187 1008.62 291.379C1007.49 290.571 1006.44 289.562 1005.47 288.35C1004.5 287.138 1003.58 285.845 1002.69 284.472C1001.8 283.098 1001.2 281.523 1000.88 279.746C1000.55 277.968 1000.31 276.029 1000.15 273.929C1000.15 270.051 1001.2 265.163 1003.29 259.266C1005.39 253.368 1008.33 248.521 1012.12 244.724H1013.69C1015.39 244.724 1016.23 245.047 1016.23 245.693C1016.23 246.178 1015.91 246.743 1015.27 247.39C1011.96 251.268 1009.5 255.671 1007.89 260.599C1006.28 265.527 1005.39 269.162 1005.23 271.505ZM1063.51 263.265C1063.51 259.872 1062.54 257.206 1060.61 255.267C1058.68 253.328 1056.1 252.318 1052.87 252.237C1048.92 252.237 1045.21 253.853 1041.75 257.084C1038.28 260.316 1035.42 264.8 1033.16 270.536C1032.03 273.283 1030.9 277.686 1029.78 283.745L1028.69 289.198C1030.14 289.36 1030.94 289.44 1031.11 289.44C1040.54 289.44 1048.28 286.653 1054.32 281.079C1060.37 275.504 1063.43 269.566 1063.51 263.265Z" fill="black"/>
<path d="M1085.16 266.658C1085.16 261.083 1085.56 255.792 1086.37 250.783C1087.17 245.774 1088.1 241.452 1089.15 237.816C1090.19 234.181 1091.69 230.626 1093.62 227.152C1095.55 223.678 1097.09 220.972 1098.22 219.033C1099.34 217.094 1101.04 214.994 1103.29 212.731C1105.55 210.469 1106.88 209.096 1107.28 208.611C1107.69 208.126 1108.69 207.278 1110.31 206.066H1111.88H1112.36C1113.49 206.066 1114.06 206.43 1114.06 207.157C1114.06 207.399 1113.37 208.248 1112 209.702C1110.63 211.156 1108.98 213.297 1107.04 216.125C1105.11 218.952 1103.13 222.426 1101.12 226.546C1099.1 230.667 1097.41 236.241 1096.04 243.27C1094.67 250.298 1093.98 258.094 1093.98 266.658C1093.98 275.221 1094.67 282.977 1096.04 289.925C1097.41 296.873 1099.06 302.488 1101 306.769C1102.93 311.051 1104.91 314.525 1106.92 317.191C1108.94 319.857 1110.63 321.998 1112 323.614C1113.37 325.23 1114.06 326.078 1114.06 326.159C1114.06 326.886 1113.45 327.249 1112.24 327.249H1111.88H1110.31L1106.92 324.341C1099.34 317.474 1093.82 308.91 1090.36 298.65C1086.89 288.39 1085.16 277.726 1085.16 266.658Z" fill="black"/>
<path d="M1127.72 261.932C1128.28 258.539 1130.46 254.62 1134.25 250.177C1138.04 245.734 1142.71 243.472 1148.27 243.391C1151.1 243.391 1153.68 244.118 1156.01 245.572C1158.35 247.026 1160.08 248.844 1161.21 251.025C1164.6 245.936 1168.67 243.391 1173.43 243.391C1176.41 243.391 1178.99 244.279 1181.16 246.057C1183.34 247.834 1184.47 250.217 1184.55 253.207C1184.55 255.549 1183.99 257.448 1182.86 258.902C1181.73 260.356 1180.64 261.245 1179.59 261.568C1178.54 261.891 1177.62 262.053 1176.81 262.053C1175.28 262.053 1174.03 261.609 1173.06 260.72C1172.1 259.831 1171.61 258.66 1171.61 257.206C1171.61 253.489 1173.63 250.944 1177.66 249.571C1176.77 248.521 1175.16 247.996 1172.82 247.996C1171.77 247.996 1171.01 248.077 1170.52 248.238C1167.46 249.531 1165.2 252.197 1163.75 256.236C1158.92 274.09 1156.5 284.512 1156.5 287.501C1156.5 289.763 1157.14 291.379 1158.43 292.349C1159.72 293.318 1161.13 293.803 1162.66 293.803C1165.65 293.803 1168.59 292.47 1171.49 289.804C1174.39 287.138 1176.37 283.866 1177.42 279.988C1177.66 279.18 1177.9 278.736 1178.14 278.655C1178.38 278.574 1179.03 278.493 1180.08 278.413H1180.56C1181.77 278.413 1182.37 278.736 1182.37 279.382C1182.37 279.463 1182.29 279.907 1182.13 280.715C1180.84 285.32 1178.34 289.4 1174.63 292.955C1170.93 296.509 1166.61 298.287 1161.7 298.287C1156.05 298.287 1151.78 295.742 1148.88 290.652C1145.57 295.661 1141.79 298.165 1137.51 298.165H1136.79C1132.84 298.165 1130.02 297.115 1128.32 295.015C1126.63 292.914 1125.74 290.693 1125.66 288.35C1125.66 285.764 1126.43 283.664 1127.96 282.048C1129.49 280.432 1131.31 279.624 1133.4 279.624C1136.87 279.624 1138.6 281.321 1138.6 284.714C1138.6 286.33 1138.12 287.744 1137.15 288.956C1136.18 290.167 1135.26 290.975 1134.37 291.379C1133.48 291.783 1132.96 291.985 1132.8 291.985L1132.43 292.106C1132.43 292.187 1132.68 292.349 1133.16 292.591C1133.64 292.833 1134.29 293.116 1135.09 293.439C1135.9 293.763 1136.67 293.884 1137.39 293.803C1140.29 293.803 1142.79 291.985 1144.89 288.35C1145.61 287.057 1146.54 284.31 1147.67 280.109C1148.8 275.908 1149.93 271.546 1151.06 267.021C1152.18 262.497 1152.83 259.831 1152.99 259.023C1153.39 256.842 1153.6 255.267 1153.6 254.297C1153.6 252.035 1152.99 250.419 1151.78 249.45C1150.57 248.48 1149.2 247.996 1147.67 247.996C1144.45 247.996 1141.42 249.288 1138.6 251.874C1135.78 254.459 1133.81 257.771 1132.68 261.811C1132.52 262.538 1132.31 262.942 1132.07 263.022C1131.83 263.103 1131.19 263.184 1130.14 263.265H1128.44C1127.96 262.78 1127.72 262.336 1127.72 261.932Z" fill="black"/>
<path d="M1198.46 206.188L1198.94 206.066C1199.34 206.066 1199.75 206.066 1200.15 206.066H1201.6L1204.99 208.975C1212.56 215.842 1218.08 224.405 1221.55 234.666C1225.02 244.926 1226.75 255.59 1226.75 266.658C1226.75 272.152 1226.35 277.443 1225.54 282.533C1224.74 287.623 1223.81 291.945 1222.76 295.499C1221.71 299.054 1220.22 302.609 1218.29 306.164C1216.35 309.718 1214.82 312.425 1213.69 314.283C1212.56 316.141 1210.91 318.201 1208.73 320.463C1206.56 322.725 1205.27 324.058 1204.86 324.462C1204.46 324.866 1203.53 325.634 1202.08 326.765C1201.84 327.007 1201.68 327.169 1201.6 327.249H1200.15C1199.5 327.249 1199.06 327.249 1198.82 327.249C1198.58 327.249 1198.38 327.128 1198.21 326.886C1198.05 326.644 1197.93 326.28 1197.85 325.795C1197.93 325.714 1198.38 325.189 1199.18 324.22C1211.68 311.213 1217.92 292.026 1217.92 266.658C1217.92 241.29 1211.68 222.103 1199.18 209.096C1198.38 208.126 1197.93 207.601 1197.85 207.521C1197.85 206.874 1198.05 206.43 1198.46 206.188Z" fill="black"/>
<path d="M407.821 296.832C406.446 296.832 405.759 296.429 405.759 295.621C405.759 295.459 405.881 294.894 406.123 293.924C406.446 292.631 406.77 291.904 407.093 291.743C407.417 291.581 408.346 291.46 409.882 291.379C412.065 291.379 414.49 291.258 417.158 291.016C418.29 290.773 419.058 290.289 419.462 289.562C419.624 289.158 422.494 277.807 428.072 255.509C433.651 233.211 436.48 221.901 436.561 221.578C436.561 221.012 436.399 220.73 436.076 220.73C435.429 220.487 433.287 220.285 429.649 220.124H425.889C425.404 219.639 425.162 219.316 425.162 219.154C425.162 218.993 425.243 218.306 425.404 217.094C425.728 215.721 426.132 214.872 426.617 214.549H491.98C492.546 214.872 492.828 215.317 492.828 215.882C492.828 216.286 492.303 220.81 491.252 229.455C490.201 238.099 489.635 242.542 489.554 242.785C489.393 243.35 488.584 243.633 487.129 243.633H485.674C485.108 243.229 484.825 242.704 484.825 242.058C484.825 241.977 484.946 241.007 485.189 239.149C485.431 237.291 485.553 235.15 485.553 232.727C485.553 230.303 485.27 228.324 484.704 226.789C484.138 225.254 483.37 224.001 482.4 223.032C481.429 222.063 479.934 221.416 477.913 221.093C475.892 220.77 473.83 220.487 471.728 220.245C469.626 220.002 466.716 219.962 462.997 220.124H460.208C453.579 220.204 450.062 220.326 449.658 220.487C449.253 220.649 448.971 220.972 448.809 221.457C448.728 221.537 447.354 226.829 444.686 237.332L440.805 252.964H447.475C447.717 252.964 448.647 252.964 450.264 252.964C451.881 252.964 453.013 252.924 453.659 252.843C454.306 252.762 455.196 252.641 456.327 252.479C457.459 252.318 458.429 252.035 459.238 251.631C460.046 251.227 460.733 250.743 461.299 250.177C462.35 249.208 463.24 247.875 463.967 246.178C464.695 244.481 465.22 242.946 465.544 241.573C465.867 240.2 466.069 239.473 466.15 239.392C466.392 238.988 467.16 238.786 468.454 238.786H469.909C470.475 239.19 470.758 239.594 470.758 239.998C470.758 240.24 469.505 245.532 466.999 255.873C464.493 266.214 463.118 271.546 462.876 271.869C462.714 272.434 461.906 272.717 460.45 272.717H458.995C458.429 272.232 458.146 271.748 458.146 271.263C458.146 271.02 458.348 270.132 458.753 268.597C459.157 267.062 459.359 265.446 459.359 263.75C459.359 261.407 458.551 259.952 456.934 259.387C455.317 258.821 451.719 258.539 446.141 258.539H439.471L435.591 273.929C433.004 283.947 431.71 289.198 431.71 289.683C431.71 290.814 435.308 291.379 442.503 291.379H445.535C446.02 291.864 446.262 292.147 446.262 292.228C446.262 292.308 446.181 293.116 446.02 294.651C445.696 295.701 445.292 296.469 444.807 296.954H442.746C439.431 296.792 433.327 296.711 424.434 296.711C419.179 296.711 415.178 296.711 412.429 296.711C409.68 296.711 408.144 296.752 407.821 296.832Z" fill="black"/>
<path d="M504.834 266.658C504.834 261.083 505.238 255.792 506.047 250.783C506.855 245.774 507.785 241.452 508.836 237.816C509.887 234.181 511.382 230.626 513.323 227.152C515.263 223.678 516.799 220.972 517.931 219.033C519.062 217.094 520.76 214.994 523.024 212.731C525.287 210.469 526.621 209.096 527.026 208.611C527.43 208.126 528.44 207.278 530.057 206.066H531.634H532.119C533.251 206.066 533.817 206.43 533.817 207.157C533.817 207.399 533.129 208.248 531.755 209.702C530.381 211.156 528.723 213.297 526.783 216.125C524.843 218.952 522.862 222.426 520.841 226.546C518.82 230.667 517.122 236.241 515.748 243.27C514.373 250.298 513.686 258.094 513.686 266.658C513.686 275.221 514.373 282.977 515.748 289.925C517.122 296.873 518.779 302.488 520.72 306.769C522.66 311.051 524.641 314.525 526.662 317.191C528.683 319.857 530.381 321.998 531.755 323.614C533.129 325.23 533.817 326.078 533.817 326.159C533.817 326.886 533.21 327.249 531.998 327.249H531.634H530.057L526.662 324.341C519.062 317.474 513.525 308.91 510.048 298.65C506.572 288.39 504.834 277.726 504.834 266.658Z" fill="black"/>
<path d="M547.52 261.932C548.085 258.539 550.268 254.62 554.068 250.177C557.868 245.734 562.557 243.472 568.135 243.391C570.964 243.391 573.551 244.118 575.896 245.572C578.24 247.026 579.978 248.844 581.11 251.025C584.506 245.936 588.588 243.391 593.358 243.391C596.349 243.391 598.936 244.279 601.119 246.057C603.302 247.834 604.434 250.217 604.515 253.207C604.515 255.549 603.949 257.448 602.817 258.902C601.685 260.356 600.594 261.245 599.543 261.568C598.492 261.891 597.562 262.053 596.754 262.053C595.218 262.053 593.965 261.609 592.994 260.72C592.024 259.831 591.539 258.66 591.539 257.206C591.539 253.489 593.56 250.944 597.603 249.571C596.713 248.521 595.096 247.996 592.752 247.996C591.701 247.996 590.933 248.077 590.448 248.238C587.376 249.531 585.112 252.197 583.657 256.236C578.806 274.09 576.381 284.512 576.381 287.501C576.381 289.763 577.028 291.379 578.321 292.349C579.615 293.318 581.029 293.803 582.565 293.803C585.557 293.803 588.508 292.47 591.418 289.804C594.328 287.138 596.309 283.866 597.36 279.988C597.603 279.18 597.845 278.736 598.088 278.655C598.33 278.574 598.977 278.493 600.028 278.413H600.513C601.726 278.413 602.332 278.736 602.332 279.382C602.332 279.463 602.251 279.907 602.089 280.715C600.796 285.32 598.29 289.4 594.571 292.955C590.852 296.509 586.527 298.287 581.595 298.287C575.936 298.287 571.652 295.742 568.741 290.652C565.427 295.661 561.627 298.165 557.342 298.165H556.615C552.653 298.165 549.824 297.115 548.126 295.015C546.428 292.914 545.539 290.693 545.458 288.35C545.458 285.764 546.226 283.664 547.762 282.048C549.298 280.432 551.117 279.624 553.219 279.624C556.695 279.624 558.434 281.321 558.434 284.714C558.434 286.33 557.948 287.744 556.978 288.956C556.008 290.167 555.078 290.975 554.189 291.379C553.3 291.783 552.774 291.985 552.613 291.985L552.249 292.106C552.249 292.187 552.491 292.349 552.977 292.591C553.462 292.833 554.108 293.116 554.917 293.439C555.725 293.763 556.493 293.884 557.221 293.803C560.131 293.803 562.637 291.985 564.739 288.35C565.467 287.057 566.397 284.31 567.528 280.109C568.66 275.908 569.792 271.546 570.924 267.021C572.056 262.497 572.703 259.831 572.864 259.023C573.268 256.842 573.471 255.267 573.471 254.297C573.471 252.035 572.864 250.419 571.652 249.45C570.439 248.48 569.065 247.996 567.528 247.996C564.295 247.996 561.263 249.288 558.434 251.874C555.604 254.459 553.623 257.771 552.491 261.811C552.33 262.538 552.128 262.942 551.885 263.022C551.643 263.103 550.996 263.184 549.945 263.265H548.247C547.762 262.78 547.52 262.336 547.52 261.932Z" fill="black"/>
<path d="M620.643 292.712C620.643 292.712 620.643 291.702 620.643 289.683C620.643 287.663 621.29 285.926 622.583 284.472C623.877 283.018 625.615 282.291 627.798 282.291C630.062 282.291 632.083 283.3 633.861 285.32C635.64 287.34 636.569 290.894 636.65 295.984C636.65 298.812 636.287 301.559 635.559 304.225C634.831 306.891 633.982 309.193 633.012 311.132C632.042 313.071 630.991 314.727 629.859 316.101C628.728 317.474 627.757 318.565 626.949 319.373C626.141 320.18 625.615 320.544 625.373 320.463C625.049 320.463 624.524 320.1 623.796 319.373C623.069 318.645 622.705 318.12 622.705 317.797C622.705 317.474 623.149 316.828 624.039 315.858C624.928 314.889 625.938 313.677 627.07 312.223C628.202 310.769 629.253 308.749 630.223 306.164C631.193 303.578 631.84 300.63 632.163 297.317V295.863L632.042 295.984C631.881 296.065 631.678 296.146 631.436 296.227C631.193 296.307 630.951 296.429 630.708 296.59C630.466 296.752 630.102 296.832 629.617 296.832C629.132 296.832 628.647 296.873 628.162 296.954C625.979 296.954 624.2 296.267 622.826 294.894L620.643 292.712Z" fill="black"/>
<path d="M668.18 262.174C668.18 261.043 668.786 259.104 669.999 256.357C671.211 253.611 673.151 250.743 675.819 247.753C678.487 244.764 681.478 243.31 684.793 243.391C688.108 243.391 690.776 244.32 692.797 246.178C694.818 248.036 695.869 250.621 695.95 253.934C695.788 255.469 695.667 256.317 695.586 256.479C695.586 256.721 694.939 258.579 693.645 262.053C692.352 265.527 691.018 269.445 689.644 273.808C688.269 278.17 687.623 281.644 687.703 284.229C687.703 287.703 688.269 290.127 689.401 291.5C690.533 292.874 692.231 293.601 694.494 293.682C696.354 293.682 698.092 293.237 699.709 292.349C701.326 291.46 702.579 290.531 703.468 289.562C704.357 288.592 705.449 287.259 706.742 285.562C706.742 285.482 706.944 284.674 707.349 283.139C707.753 281.604 708.319 279.221 709.046 275.989C709.774 272.757 710.542 269.768 711.35 267.021C714.422 254.903 716.12 248.561 716.444 247.996C717.495 245.814 719.233 244.724 721.658 244.724C722.709 244.724 723.558 245.007 724.205 245.572C724.851 246.138 725.296 246.622 725.539 247.026C725.781 247.43 725.862 247.794 725.781 248.117C725.781 249.167 723.8 257.65 719.839 273.565C715.878 289.481 713.614 298.206 713.048 299.741C710.784 306.446 706.864 311.778 701.285 315.737C695.707 319.696 690.129 321.715 684.551 321.796C680.913 321.796 677.719 320.908 674.97 319.13C672.222 317.353 670.847 314.687 670.847 311.132C670.847 309.355 671.13 307.86 671.696 306.648C672.262 305.436 673.03 304.548 674 303.982C674.97 303.417 675.779 303.013 676.426 302.77C677.072 302.528 677.76 302.407 678.487 302.407C682.044 302.407 683.823 304.103 683.823 307.497C683.823 309.112 683.338 310.526 682.368 311.738C681.398 312.95 680.468 313.758 679.579 314.162C678.689 314.566 678.164 314.768 678.002 314.768L677.638 314.889C677.8 315.293 678.568 315.777 679.942 316.343C681.317 316.908 682.691 317.191 684.065 317.191H685.036C686.41 317.191 687.461 317.11 688.189 316.949C690.856 316.222 693.322 314.687 695.586 312.344C697.849 310.001 699.588 307.497 700.8 304.831C702.013 302.165 702.943 299.902 703.589 298.044C704.236 296.186 704.559 294.974 704.559 294.409L703.832 294.894C703.347 295.217 702.579 295.661 701.528 296.227C700.477 296.792 699.426 297.277 698.375 297.681C696.758 298.085 695.182 298.287 693.645 298.287C689.927 298.287 686.652 297.398 683.823 295.621C680.993 293.843 679.134 290.975 678.245 287.017C678.164 286.451 678.123 285.199 678.123 283.26C678.123 278.655 679.538 272.636 682.368 265.204C685.197 257.771 686.612 253.045 686.612 251.025C686.612 250.945 686.612 250.864 686.612 250.783C686.612 250.056 686.612 249.571 686.612 249.329C686.612 249.086 686.45 248.804 686.127 248.48C685.804 248.157 685.359 247.996 684.793 247.996H684.308C682.449 247.996 680.751 248.763 679.215 250.298C677.679 251.833 676.466 253.489 675.577 255.267C674.688 257.044 674 258.741 673.515 260.356C673.03 261.972 672.707 262.861 672.545 263.022C672.383 263.184 671.737 263.265 670.605 263.265H668.907C668.422 262.78 668.18 262.417 668.18 262.174Z" fill="black"/>
<path d="M733.785 206.188L734.27 206.066C734.674 206.066 735.078 206.066 735.482 206.066H736.937L740.333 208.975C747.932 215.842 753.47 224.405 756.946 234.666C760.423 244.926 762.161 255.59 762.161 266.658C762.161 272.152 761.757 277.443 760.948 282.533C760.14 287.623 759.21 291.945 758.159 295.499C757.108 299.054 755.612 302.609 753.672 306.164C751.732 309.718 750.196 312.425 749.064 314.283C747.932 316.141 746.275 318.201 744.092 320.463C741.909 322.725 740.616 324.058 740.212 324.462C739.807 324.866 738.878 325.634 737.423 326.765C737.18 327.007 737.018 327.169 736.937 327.249H735.482C734.836 327.249 734.391 327.249 734.148 327.249C733.906 327.249 733.704 327.128 733.542 326.886C733.38 326.644 733.259 326.28 733.178 325.795C733.259 325.714 733.704 325.189 734.512 324.22C747.043 311.213 753.308 292.026 753.308 266.658C753.308 241.29 747.043 222.103 734.512 209.096C733.704 208.126 733.259 207.601 733.178 207.521C733.178 206.874 733.38 206.43 733.785 206.188Z" fill="black"/>
<path d="M830.747 255.645C830.747 255.645 830.747 255.149 830.747 254.158C830.747 253.167 831.279 252.404 832.342 251.87H919.478C910.67 245.237 905.24 236.735 903.19 226.365C903.19 226.289 903.19 226.174 903.19 226.022C903.19 225.869 903.152 225.755 903.076 225.679C903.076 224.764 903.722 224.306 905.013 224.306H905.354C906.038 224.306 906.493 224.344 906.721 224.421C906.949 224.497 907.177 224.649 907.405 224.878C907.632 225.107 907.746 225.45 907.746 225.907C907.746 226.365 907.86 226.975 908.088 227.737C908.316 228.5 908.62 229.453 908.999 230.597C910.67 235.706 913.441 240.28 917.314 244.322C921.187 248.363 925.705 251.222 930.869 252.9C931.552 253.129 931.894 253.548 931.894 254.158C931.894 254.615 931.704 254.958 931.324 255.187C930.945 255.416 930.034 255.797 928.591 256.331C927.148 256.865 925.705 257.589 924.262 258.504C921.149 260.487 918.453 262.774 916.175 265.367C913.897 267.959 912.189 270.513 911.05 273.03C909.91 275.546 909.113 277.452 908.658 278.748C908.202 280.045 907.898 281.226 907.746 282.294C907.594 283.056 907.405 283.514 907.177 283.666C906.949 283.819 906.341 283.933 905.354 284.01C903.836 284.01 903.076 283.59 903.076 282.751C903.076 282.218 903.266 281.265 903.646 279.892C906.076 270.285 911.353 262.469 919.478 256.445H832.342C831.279 255.912 830.747 255.149 830.747 254.158V255.645Z" fill="black"/>
<path d="M830.747 289.855C830.747 289.855 830.747 289.36 830.747 288.368C830.747 287.377 831.279 286.615 832.342 286.081H919.478C910.67 279.447 905.24 270.945 903.19 260.576C903.19 260.499 903.19 260.385 903.19 260.232C903.19 260.08 903.152 259.966 903.076 259.889C903.076 258.974 903.722 258.517 905.013 258.517H905.354C906.038 258.517 906.493 258.555 906.721 258.631C906.949 258.707 907.177 258.86 907.405 259.089C907.632 259.317 907.746 259.661 907.746 260.118C907.746 260.576 907.86 261.186 908.088 261.948C908.316 262.71 908.62 263.664 908.999 264.807C910.67 269.916 913.441 274.491 917.314 278.532C921.187 282.573 925.705 285.433 930.869 287.11C931.552 287.339 931.894 287.758 931.894 288.368C931.894 288.826 931.704 289.169 931.324 289.398C930.945 289.627 930.034 290.008 928.591 290.542C927.148 291.075 925.705 291.8 924.262 292.715C921.149 294.697 918.453 296.985 916.175 299.577C913.897 302.17 912.189 304.724 911.05 307.24C909.91 309.756 909.113 311.663 908.658 312.959C908.202 314.255 907.898 315.437 907.746 316.504C907.594 317.267 907.405 317.724 907.177 317.877C906.949 318.029 906.341 318.144 905.354 318.22C903.836 318.22 903.076 317.801 903.076 316.962C903.076 316.428 903.266 315.475 903.646 314.103C906.076 304.495 911.353 296.68 919.478 290.656H832.342C831.279 290.122 830.747 289.36 830.747 288.368V289.855Z" fill="black"/>
<defs>
<clipPath id="clip0_6_2">
<rect width="103.947" height="39.4737" fill="white" transform="translate(829.632 326.526)"/>
</clipPath>
</defs>
</svg>
