<svg width="1640" height="531" viewBox="0 0 1640 531" fill="none" xmlns="http://www.w3.org/2000/svg">
<rect width="1640" height="531" fill="black"/>
<path d="M30 30H1610V501H30V30Z" fill="white"/>
<path d="M151.663 365.21C152.785 366.831 154.375 367.642 156.433 367.642H156.62C158.366 367.642 160.112 365.771 161.858 362.029C163.604 358.288 165.225 353.175 166.722 346.689C168.219 340.204 169.622 333.688 170.931 327.14C172.241 320.593 173.55 313.515 174.86 305.908C175.047 304.598 175.203 303.632 175.327 303.008C179.817 276.506 184.681 251.937 189.919 229.301C195.157 206.666 198.96 191.949 201.33 185.152C201.704 184.03 202.016 183.094 202.265 182.346C202.515 181.598 203.045 180.226 203.855 178.23C204.666 176.235 205.508 174.489 206.381 172.992C207.254 171.496 208.314 169.968 209.561 168.409C210.808 166.85 212.18 165.603 213.676 164.668C215.173 163.732 216.763 163.296 218.447 163.358C221.939 163.358 224.558 164.449 226.304 166.632C228.05 168.814 229.047 171.309 229.297 174.115C229.297 175.674 228.923 176.921 228.174 177.856C227.426 178.792 226.709 179.384 226.023 179.634C225.337 179.883 224.651 179.976 223.965 179.914C222.656 179.914 221.471 179.446 220.411 178.511C219.351 177.576 218.821 176.297 218.821 174.676C218.821 171.683 220.473 169.906 223.778 169.345L223.498 168.97C223.31 168.783 223.061 168.565 222.749 168.316C222.438 168.066 222.188 167.879 222.001 167.754C221.066 167.131 220.037 166.819 218.914 166.819C218.041 166.819 217.231 167.193 216.482 167.941C215.734 168.69 214.736 170.436 213.489 173.18C212.242 175.923 211.026 179.54 209.842 184.03C208.657 188.519 207.191 194.849 205.445 203.018C203.699 211.186 201.953 220.79 200.207 231.827C196.528 252.717 192.693 272.453 188.703 291.035C184.712 309.618 181.594 323.087 179.349 331.443C177.104 339.799 175.39 345.785 174.205 349.402C169.403 363.931 163.479 371.196 156.433 371.196C153.939 371.196 151.663 370.229 149.605 368.296C147.547 366.363 146.394 363.713 146.144 360.346C146.144 358.163 146.737 356.667 147.922 355.856C149.106 355.045 150.291 354.64 151.476 354.64C152.785 354.64 153.97 355.108 155.03 356.043C156.09 356.978 156.62 358.257 156.62 359.878C156.62 362.871 154.968 364.648 151.663 365.21Z" fill="black"/>
<path d="M242.532 200.696C242.268 200.431 242.136 200.255 242.136 200.167C242.136 200.035 243.877 192.98 247.361 179.002C250.844 165.024 252.696 157.727 252.916 157.11C253.886 154.111 255.143 151.488 256.686 149.239C258.229 146.99 259.684 145.359 261.051 144.344C263.521 142.272 266.166 141.236 268.988 141.236H269.12C271.854 141.236 274.103 142.074 275.867 143.749C277.63 145.425 278.512 147.563 278.512 150.165C278.512 154.795 276.219 158.631 271.634 161.673L272.493 162.533C274.742 164.782 275.867 167.67 275.867 171.197C275.867 176.18 273.993 180.303 270.245 183.566C266.497 186.829 262.286 188.482 257.612 188.526C256.289 188.526 255.099 188.35 254.041 187.997C252.982 187.644 252.145 187.225 251.527 186.74C250.91 186.255 250.425 185.748 250.072 185.219C249.72 184.69 249.455 184.271 249.279 183.962C249.102 183.654 248.992 183.522 248.948 183.566L244.715 200.299C244.627 200.564 244.186 200.696 243.392 200.696H242.532ZM263.961 159.358C265.681 159.358 267.313 159.623 268.856 160.152L269.186 159.954C269.363 159.777 269.517 159.623 269.649 159.491C269.782 159.358 270.002 159.138 270.311 158.829C270.619 158.521 270.884 158.212 271.104 157.903C271.325 157.595 271.567 157.198 271.832 156.713C272.097 156.228 272.361 155.699 272.626 155.125C272.89 154.552 273.089 153.913 273.221 153.207C273.353 152.502 273.53 151.708 273.75 150.826C273.838 150.429 273.882 149.702 273.882 148.644C273.882 147.85 273.86 147.343 273.816 147.122C273.155 144.874 271.479 143.749 268.79 143.749C266.938 143.749 265.196 144.278 263.565 145.337C261.933 146.395 260.588 147.74 259.53 149.371C258.472 151.003 257.612 152.502 256.951 153.869C256.289 155.236 255.782 156.536 255.43 157.771C255.209 158.476 254.371 161.717 252.916 167.494C251.461 173.27 250.712 176.356 250.668 176.753C250.623 176.974 250.601 177.437 250.601 178.142C250.601 180.259 251.086 182 252.056 183.367C253.423 185.219 255.341 186.145 257.811 186.145C259.662 186.145 261.625 185.594 263.697 184.492C265.769 183.389 267.445 181.493 268.723 178.804C269.429 177.304 269.958 175.607 270.311 173.711C270.664 171.815 270.84 170.382 270.84 169.412C270.84 166.854 270.068 164.804 268.525 163.261C266.673 163.878 265.02 164.187 263.565 164.187H262.903C259.42 164.187 257.678 163.503 257.678 162.136C257.678 161.828 257.744 161.519 257.877 161.21C258.494 159.976 260.522 159.358 263.961 159.358Z" fill="black"/>
<path d="M285.06 171.33C285.06 168.287 285.28 165.399 285.721 162.665C286.162 159.932 286.669 157.573 287.242 155.588C287.816 153.604 288.631 151.664 289.69 149.768C290.748 147.872 291.586 146.395 292.203 145.337C292.82 144.278 293.746 143.132 294.981 141.897C296.215 140.663 296.943 139.913 297.163 139.649C297.384 139.384 297.935 138.921 298.817 138.26H299.677H299.941C300.558 138.26 300.867 138.458 300.867 138.855C300.867 138.987 300.492 139.45 299.743 140.244C298.993 141.037 298.089 142.206 297.031 143.749C295.973 145.293 294.892 147.189 293.79 149.437C292.688 151.686 291.762 154.729 291.012 158.565C290.263 162.401 289.888 166.656 289.888 171.33C289.888 176.004 290.263 180.237 291.012 184.029C291.762 187.821 292.666 190.885 293.724 193.222C294.782 195.559 295.863 197.455 296.965 198.91C298.067 200.365 298.993 201.534 299.743 202.416C300.492 203.297 300.867 203.76 300.867 203.805C300.867 204.201 300.536 204.4 299.875 204.4H299.677H298.817L296.965 202.812C292.82 199.064 289.8 194.391 287.904 188.791C286.008 183.191 285.06 177.37 285.06 171.33Z" fill="black"/>
<path d="M306.29 168.882C306.29 168.265 306.621 167.207 307.282 165.708C307.944 164.209 309.002 162.643 310.457 161.012C311.912 159.38 313.544 158.587 315.351 158.631C317.159 158.631 318.614 159.138 319.717 160.152C320.819 161.166 321.392 162.577 321.436 164.385C321.348 165.223 321.282 165.686 321.238 165.774C321.238 165.906 320.885 166.92 320.18 168.816C319.474 170.712 318.747 172.851 317.997 175.232C317.247 177.613 316.895 179.509 316.939 180.92C316.939 182.816 317.247 184.139 317.865 184.888C318.482 185.638 319.408 186.035 320.643 186.079C321.657 186.079 322.605 185.836 323.487 185.351C324.368 184.866 325.052 184.359 325.537 183.83C326.022 183.301 326.617 182.574 327.323 181.648C327.323 181.603 327.433 181.163 327.653 180.325C327.874 179.487 328.182 178.186 328.579 176.422C328.976 174.659 329.395 173.027 329.836 171.528C331.511 164.914 332.437 161.453 332.614 161.144C333.187 159.954 334.135 159.358 335.458 159.358C336.031 159.358 336.494 159.513 336.847 159.821C337.199 160.13 337.442 160.395 337.574 160.615C337.706 160.835 337.751 161.034 337.706 161.21C337.706 161.783 336.626 166.413 334.466 175.1C332.305 183.786 331.07 188.548 330.762 189.386C329.527 193.046 327.389 195.956 324.346 198.116C321.304 200.277 318.262 201.379 315.219 201.423C313.235 201.423 311.493 200.938 309.994 199.968C308.495 198.998 307.745 197.543 307.745 195.603C307.745 194.633 307.9 193.817 308.208 193.156C308.517 192.495 308.936 192.01 309.465 191.701C309.994 191.392 310.435 191.172 310.788 191.039C311.141 190.907 311.515 190.841 311.912 190.841C313.852 190.841 314.822 191.767 314.822 193.619C314.822 194.501 314.558 195.272 314.029 195.934C313.5 196.595 312.992 197.036 312.507 197.257C312.022 197.477 311.736 197.587 311.648 197.587L311.449 197.653C311.537 197.874 311.956 198.139 312.706 198.447C313.455 198.756 314.205 198.91 314.955 198.91H315.484C316.233 198.91 316.807 198.866 317.203 198.778C318.658 198.381 320.003 197.543 321.238 196.265C322.472 194.986 323.42 193.619 324.082 192.164C324.743 190.709 325.25 189.474 325.603 188.46C325.956 187.446 326.132 186.784 326.132 186.476L325.735 186.74C325.471 186.917 325.052 187.159 324.479 187.468C323.905 187.777 323.332 188.041 322.759 188.262C321.877 188.482 321.017 188.592 320.18 188.592C318.151 188.592 316.366 188.107 314.822 187.137C313.279 186.167 312.265 184.602 311.78 182.441C311.736 182.133 311.714 181.449 311.714 180.391C311.714 177.878 312.485 174.593 314.029 170.536C315.572 166.479 316.344 163.9 316.344 162.798C316.344 162.754 316.344 162.709 316.344 162.665C316.344 162.268 316.344 162.004 316.344 161.872C316.344 161.739 316.255 161.585 316.079 161.409C315.903 161.232 315.66 161.144 315.351 161.144H315.087C314.073 161.144 313.147 161.563 312.309 162.401C311.471 163.239 310.81 164.142 310.325 165.113C309.84 166.083 309.465 167.009 309.201 167.89C308.936 168.772 308.76 169.257 308.671 169.345C308.583 169.434 308.23 169.478 307.613 169.478H306.687C306.423 169.213 306.29 169.015 306.29 168.882Z" fill="black"/>
<path d="M342.072 138.326L342.336 138.26C342.557 138.26 342.777 138.26 342.998 138.26H343.791L345.643 139.847C349.788 143.595 352.808 148.269 354.704 153.869C356.6 159.469 357.548 165.289 357.548 171.33C357.548 174.328 357.328 177.216 356.887 179.994C356.446 182.772 355.939 185.131 355.366 187.071C354.792 189.011 353.977 190.951 352.918 192.891C351.86 194.832 351.022 196.309 350.405 197.323C349.788 198.337 348.884 199.461 347.693 200.696C346.503 201.931 345.797 202.658 345.577 202.879C345.357 203.099 344.849 203.518 344.056 204.135C343.924 204.267 343.835 204.356 343.791 204.4H342.998C342.645 204.4 342.402 204.4 342.27 204.4C342.138 204.4 342.028 204.334 341.939 204.201C341.851 204.069 341.785 203.871 341.741 203.606C341.785 203.562 342.028 203.275 342.468 202.746C349.303 195.647 352.72 185.175 352.72 171.33C352.72 157.484 349.303 147.012 342.468 139.913C342.028 139.384 341.785 139.097 341.741 139.053C341.741 138.701 341.851 138.458 342.072 138.326Z" fill="black"/>
<path d="M195.722 365.087C195.722 360.061 197.618 355.651 201.41 351.859C205.202 348.067 209.368 346.171 213.91 346.171C216.996 346.171 219.466 347.053 221.317 348.817C223.169 350.58 224.426 352.741 225.087 355.298C225.352 356.577 225.506 358.054 225.55 359.73V361.648C227.711 358.385 229.364 354.725 230.511 350.669C230.687 350.051 230.819 349.699 230.908 349.61C230.996 349.522 231.349 349.456 231.966 349.412C232.892 349.412 233.355 349.588 233.355 349.941C233.355 350.338 233.156 351.198 232.76 352.521C232.363 353.843 231.569 355.717 230.379 358.142C229.188 360.568 227.843 362.772 226.344 364.756L225.617 365.682L225.683 367.27C225.771 369.739 225.947 371.415 226.212 372.296C226.476 373.178 226.895 373.641 227.468 373.685C228.086 373.597 228.659 373.355 229.188 372.958C229.717 372.561 230.092 372.054 230.312 371.437C230.401 371.128 230.511 370.952 230.643 370.907C230.775 370.863 231.106 370.819 231.635 370.775C232.517 370.775 232.958 370.952 232.958 371.304C232.958 371.569 232.826 371.988 232.561 372.561C232.032 373.619 231.26 374.457 230.246 375.074C229.232 375.692 228.262 376.022 227.336 376.066H226.873C223.919 376.066 221.913 374.479 220.854 371.304L220.656 370.841L219.929 371.37C219.488 371.723 218.826 372.164 217.944 372.693C217.063 373.222 216.07 373.729 214.968 374.215C213.866 374.7 212.587 375.14 211.132 375.537C209.677 375.934 208.266 376.133 206.899 376.133C203.416 376.133 200.682 375.03 198.698 372.826C196.714 370.621 195.722 368.041 195.722 365.087ZM207.23 373.685C209.39 373.685 211.551 373.222 213.711 372.296C215.872 371.37 217.481 370.422 218.54 369.452L220.127 367.997C220.039 361.692 219.884 357.768 219.664 356.224C219.047 351.154 217.018 348.618 213.579 348.618C210.537 348.618 207.869 350.228 205.576 353.446C204.386 355.21 203.416 357.591 202.666 360.59C201.917 363.588 201.52 365.881 201.476 367.468C201.476 369.629 202.027 371.194 203.129 372.164C204.232 373.134 205.598 373.641 207.23 373.685Z" fill="black"/>
<path d="M242.35 358.87C242.35 355.828 242.57 352.939 243.011 350.206C243.452 347.472 243.959 345.113 244.532 343.129C245.106 341.144 245.921 339.204 246.979 337.308C248.038 335.412 248.875 333.935 249.493 332.877C250.11 331.819 251.036 330.672 252.271 329.438C253.505 328.203 254.233 327.453 254.453 327.189C254.674 326.924 255.225 326.461 256.107 325.8H256.966H257.231C257.848 325.8 258.157 325.998 258.157 326.395C258.157 326.527 257.782 326.99 257.033 327.784C256.283 328.578 255.379 329.746 254.321 331.29C253.263 332.833 252.182 334.729 251.08 336.978C249.978 339.226 249.052 342.269 248.302 346.105C247.553 349.941 247.178 354.196 247.178 358.87C247.178 363.544 247.553 367.777 248.302 371.569C249.052 375.361 249.956 378.425 251.014 380.762C252.072 383.099 253.152 384.995 254.255 386.45C255.357 387.906 256.283 389.074 257.033 389.956C257.782 390.838 258.157 391.301 258.157 391.345C258.157 391.742 257.826 391.94 257.165 391.94H256.966H256.107L254.255 390.353C250.11 386.605 247.09 381.931 245.194 376.331C243.298 370.731 242.35 364.911 242.35 358.87Z" fill="black"/>
<path d="M263.58 356.423C263.58 355.805 263.911 354.747 264.572 353.248C265.234 351.749 266.292 350.184 267.747 348.552C269.202 346.921 270.834 346.127 272.641 346.171C274.449 346.171 275.904 346.678 277.007 347.692C278.109 348.706 278.682 350.117 278.726 351.925C278.638 352.763 278.572 353.226 278.528 353.314C278.528 353.446 278.175 354.461 277.47 356.357C276.764 358.253 276.036 360.391 275.287 362.772C274.537 365.153 274.185 367.049 274.229 368.46C274.229 370.356 274.537 371.679 275.155 372.429C275.772 373.178 276.698 373.575 277.932 373.619C278.947 373.619 279.895 373.377 280.776 372.892C281.658 372.407 282.342 371.9 282.827 371.37C283.312 370.841 283.907 370.114 284.613 369.188C284.613 369.144 284.723 368.703 284.943 367.865C285.164 367.027 285.472 365.726 285.869 363.963C286.266 362.199 286.685 360.568 287.126 359.068C288.801 352.454 289.727 348.993 289.904 348.684C290.477 347.494 291.425 346.899 292.748 346.899C293.321 346.899 293.784 347.053 294.137 347.362C294.489 347.67 294.732 347.935 294.864 348.155C294.996 348.376 295.04 348.574 294.996 348.751C294.996 349.324 293.916 353.954 291.756 362.64C289.595 371.326 288.36 376.088 288.052 376.926C286.817 380.586 284.679 383.496 281.636 385.657C278.594 387.817 275.551 388.92 272.509 388.964C270.525 388.964 268.783 388.479 267.284 387.509C265.785 386.539 265.035 385.084 265.035 383.143C265.035 382.173 265.19 381.358 265.498 380.696C265.807 380.035 266.226 379.55 266.755 379.241C267.284 378.932 267.725 378.712 268.078 378.58C268.431 378.447 268.805 378.381 269.202 378.381C271.142 378.381 272.112 379.307 272.112 381.159C272.112 382.041 271.848 382.813 271.319 383.474C270.789 384.136 270.282 384.576 269.797 384.797C269.312 385.017 269.026 385.128 268.938 385.128L268.739 385.194C268.827 385.414 269.246 385.679 269.996 385.987C270.745 386.296 271.495 386.45 272.245 386.45H272.774C273.523 386.45 274.096 386.406 274.493 386.318C275.948 385.921 277.293 385.084 278.528 383.805C279.762 382.526 280.71 381.159 281.372 379.704C282.033 378.249 282.54 377.014 282.893 376C283.246 374.986 283.422 374.325 283.422 374.016L283.025 374.281C282.761 374.457 282.342 374.7 281.769 375.008C281.195 375.317 280.622 375.581 280.049 375.802C279.167 376.022 278.307 376.133 277.47 376.133C275.441 376.133 273.655 375.648 272.112 374.677C270.569 373.707 269.555 372.142 269.07 369.982C269.026 369.673 269.004 368.989 269.004 367.931C269.004 365.418 269.775 362.133 271.319 358.076C272.862 354.02 273.633 351.44 273.633 350.338C273.633 350.294 273.633 350.25 273.633 350.206C273.633 349.809 273.633 349.544 273.633 349.412C273.633 349.28 273.545 349.125 273.369 348.949C273.193 348.773 272.95 348.684 272.641 348.684H272.377C271.363 348.684 270.437 349.103 269.599 349.941C268.761 350.779 268.1 351.683 267.615 352.653C267.13 353.623 266.755 354.549 266.49 355.431C266.226 356.313 266.05 356.798 265.961 356.886C265.873 356.974 265.52 357.018 264.903 357.018H263.977C263.713 356.753 263.58 356.555 263.58 356.423Z" fill="black"/>
<path d="M299.361 325.866L299.626 325.8C299.846 325.8 300.067 325.8 300.287 325.8H301.081L302.933 327.387C307.078 331.135 310.098 335.809 311.994 341.409C313.89 347.009 314.838 352.829 314.838 358.87C314.838 361.868 314.618 364.756 314.177 367.534C313.736 370.312 313.229 372.671 312.655 374.611C312.082 376.551 311.266 378.492 310.208 380.432C309.15 382.372 308.312 383.849 307.695 384.863C307.078 385.877 306.174 387.002 304.983 388.236C303.793 389.471 303.087 390.198 302.867 390.419C302.646 390.639 302.139 391.058 301.346 391.676C301.213 391.808 301.125 391.896 301.081 391.94H300.287C299.935 391.94 299.692 391.94 299.56 391.94C299.428 391.94 299.317 391.874 299.229 391.742C299.141 391.609 299.075 391.411 299.031 391.146C299.075 391.102 299.317 390.816 299.758 390.287C306.593 383.188 310.01 372.715 310.01 358.87C310.01 345.025 306.593 334.552 299.758 327.453C299.317 326.924 299.075 326.638 299.031 326.594C299.031 326.241 299.141 325.998 299.361 325.866Z" fill="black"/>
<path d="M404.768 258.11C404.768 257.3 405.204 256.676 406.077 256.24H465.659C466.594 256.739 467.062 257.362 467.062 258.11C467.062 258.796 466.625 259.389 465.752 259.888L436.008 259.981H406.264C405.267 259.669 404.768 259.046 404.768 258.11ZM404.768 276.256C404.768 275.321 405.267 274.698 406.264 274.386H465.752C466.625 275.009 467.062 275.633 467.062 276.256C467.062 277.067 466.594 277.691 465.659 278.127H406.077C405.204 277.691 404.768 277.067 404.768 276.256Z" fill="black"/>
<path d="M509.339 365.21C510.462 366.831 512.052 367.642 514.11 367.642H514.297C516.043 367.642 517.789 365.771 519.535 362.029C521.281 358.288 522.902 353.175 524.399 346.689C525.895 340.204 527.298 333.688 528.608 327.14C529.917 320.593 531.227 313.515 532.536 305.908C532.723 304.598 532.879 303.632 533.004 303.008C537.493 276.506 542.357 251.937 547.595 229.301C552.833 206.666 556.637 191.949 559.006 185.152C559.381 184.03 559.692 183.094 559.942 182.346C560.191 181.598 560.721 180.226 561.532 178.23C562.342 176.235 563.184 174.489 564.057 172.992C564.93 171.496 565.99 169.968 567.237 168.409C568.485 166.85 569.856 165.603 571.353 164.668C572.849 163.732 574.44 163.296 576.123 163.358C579.615 163.358 582.234 164.449 583.98 166.632C585.726 168.814 586.724 171.309 586.973 174.115C586.973 175.674 586.599 176.921 585.851 177.856C585.103 178.792 584.385 179.384 583.7 179.634C583.014 179.883 582.328 179.976 581.642 179.914C580.332 179.914 579.147 179.446 578.087 178.511C577.027 177.576 576.497 176.297 576.497 174.676C576.497 171.683 578.15 169.906 581.455 169.345L581.174 168.97C580.987 168.783 580.738 168.565 580.426 168.316C580.114 168.066 579.865 167.879 579.678 167.754C578.742 167.131 577.713 166.819 576.591 166.819C575.718 166.819 574.907 167.193 574.159 167.941C573.411 168.69 572.413 170.436 571.166 173.18C569.919 175.923 568.703 179.54 567.518 184.03C566.333 188.519 564.868 194.849 563.122 203.018C561.376 211.186 559.63 220.79 557.884 231.827C554.205 252.717 550.37 272.453 546.379 291.035C542.388 309.618 539.271 323.087 537.026 331.443C534.781 339.799 533.066 345.785 531.881 349.402C527.08 363.931 521.156 371.196 514.11 371.196C511.615 371.196 509.339 370.229 507.282 368.296C505.224 366.363 504.07 363.713 503.821 360.346C503.821 358.163 504.413 356.667 505.598 355.856C506.783 355.045 507.968 354.64 509.152 354.64C510.462 354.64 511.647 355.108 512.707 356.043C513.767 356.978 514.297 358.257 514.297 359.878C514.297 362.871 512.644 364.648 509.339 365.21Z" fill="black"/>
<path d="M600.209 200.696C599.944 200.431 599.812 200.255 599.812 200.167C599.812 200.035 601.554 192.98 605.037 179.002C608.52 165.024 610.372 157.727 610.593 157.11C611.563 154.111 612.819 151.488 614.363 149.239C615.906 146.99 617.361 145.359 618.728 144.344C621.197 142.272 623.843 141.236 626.665 141.236H626.797C629.531 141.236 631.779 142.074 633.543 143.749C635.307 145.425 636.189 147.563 636.189 150.165C636.189 154.795 633.896 158.631 629.31 161.673L630.17 162.533C632.419 164.782 633.543 167.67 633.543 171.197C633.543 176.18 631.669 180.303 627.921 183.566C624.173 186.829 619.962 188.482 615.289 188.526C613.966 188.526 612.775 188.35 611.717 187.997C610.659 187.644 609.821 187.225 609.204 186.74C608.587 186.255 608.102 185.748 607.749 185.219C607.396 184.69 607.132 184.271 606.955 183.962C606.779 183.654 606.669 183.522 606.624 183.566L602.392 200.299C602.303 200.564 601.862 200.696 601.069 200.696H600.209ZM621.638 159.358C623.358 159.358 624.989 159.623 626.532 160.152L626.863 159.954C627.039 159.777 627.194 159.623 627.326 159.491C627.458 159.358 627.679 159.138 627.987 158.829C628.296 158.521 628.561 158.212 628.781 157.903C629.001 157.595 629.244 157.198 629.509 156.713C629.773 156.228 630.038 155.699 630.302 155.125C630.567 154.552 630.765 153.913 630.897 153.207C631.03 152.502 631.206 151.708 631.427 150.826C631.515 150.429 631.559 149.702 631.559 148.644C631.559 147.85 631.537 147.343 631.493 147.122C630.831 144.874 629.156 143.749 626.466 143.749C624.614 143.749 622.873 144.278 621.241 145.337C619.61 146.395 618.265 147.74 617.207 149.371C616.148 151.003 615.289 152.502 614.627 153.869C613.966 155.236 613.459 156.536 613.106 157.771C612.886 158.476 612.048 161.717 610.593 167.494C609.138 173.27 608.388 176.356 608.344 176.753C608.3 176.974 608.278 177.437 608.278 178.142C608.278 180.259 608.763 182 609.733 183.367C611.1 185.219 613.018 186.145 615.487 186.145C617.339 186.145 619.301 185.594 621.373 184.492C623.446 183.389 625.121 181.493 626.4 178.804C627.105 177.304 627.635 175.607 627.987 173.711C628.34 171.815 628.516 170.382 628.516 169.412C628.516 166.854 627.745 164.804 626.202 163.261C624.35 163.878 622.696 164.187 621.241 164.187H620.58C617.096 164.187 615.355 163.503 615.355 162.136C615.355 161.828 615.421 161.519 615.553 161.21C616.171 159.976 618.199 159.358 621.638 159.358Z" fill="black"/>
<path d="M642.736 171.33C642.736 168.287 642.957 165.399 643.398 162.665C643.839 159.932 644.346 157.573 644.919 155.588C645.492 153.604 646.308 151.664 647.366 149.768C648.424 147.872 649.262 146.395 649.879 145.337C650.497 144.278 651.423 143.132 652.657 141.897C653.892 140.663 654.619 139.913 654.84 139.649C655.06 139.384 655.611 138.921 656.493 138.26H657.353H657.618C658.235 138.26 658.544 138.458 658.544 138.855C658.544 138.987 658.169 139.45 657.419 140.244C656.67 141.037 655.766 142.206 654.707 143.749C653.649 145.293 652.569 147.189 651.467 149.437C650.364 151.686 649.438 154.729 648.689 158.565C647.939 162.401 647.564 166.656 647.564 171.33C647.564 176.004 647.939 180.237 648.689 184.029C649.438 187.821 650.342 190.885 651.401 193.222C652.459 195.559 653.539 197.455 654.641 198.91C655.744 200.365 656.67 201.534 657.419 202.416C658.169 203.297 658.544 203.76 658.544 203.805C658.544 204.201 658.213 204.4 657.551 204.4H657.353H656.493L654.641 202.812C650.497 199.064 647.476 194.391 645.58 188.791C643.684 183.191 642.736 177.37 642.736 171.33Z" fill="black"/>
<path d="M663.938 168.882C663.938 168.265 664.269 167.207 664.93 165.708C665.592 164.209 666.65 162.643 668.105 161.012C669.56 159.38 671.191 158.587 672.999 158.631C674.807 158.631 676.262 159.138 677.364 160.152C678.467 161.166 679.04 162.577 679.084 164.385C678.996 165.223 678.93 165.686 678.886 165.774C678.886 165.906 678.533 166.92 677.827 168.816C677.122 170.712 676.394 172.851 675.645 175.232C674.895 177.613 674.542 179.509 674.586 180.92C674.586 182.816 674.895 184.139 675.512 184.888C676.13 185.638 677.056 186.035 678.29 186.079C679.304 186.079 680.252 185.836 681.134 185.351C682.016 184.866 682.7 184.359 683.185 183.83C683.67 183.301 684.265 182.574 684.97 181.648C684.97 181.603 685.081 181.163 685.301 180.325C685.521 179.487 685.83 178.186 686.227 176.422C686.624 174.659 687.043 173.027 687.484 171.528C689.159 164.914 690.085 161.453 690.261 161.144C690.835 159.954 691.783 159.358 693.105 159.358C693.679 159.358 694.142 159.513 694.494 159.821C694.847 160.13 695.09 160.395 695.222 160.615C695.354 160.835 695.398 161.034 695.354 161.21C695.354 161.783 694.274 166.413 692.113 175.1C689.953 183.786 688.718 188.548 688.41 189.386C687.175 193.046 685.036 195.956 681.994 198.116C678.952 200.277 675.909 201.379 672.867 201.423C670.883 201.423 669.141 200.938 667.642 199.968C666.143 198.998 665.393 197.543 665.393 195.603C665.393 194.633 665.547 193.817 665.856 193.156C666.165 192.495 666.584 192.01 667.113 191.701C667.642 191.392 668.083 191.172 668.436 191.039C668.788 190.907 669.163 190.841 669.56 190.841C671.5 190.841 672.47 191.767 672.47 193.619C672.47 194.501 672.205 195.272 671.676 195.934C671.147 196.595 670.64 197.036 670.155 197.257C669.67 197.477 669.384 197.587 669.295 197.587L669.097 197.653C669.185 197.874 669.604 198.139 670.354 198.447C671.103 198.756 671.853 198.91 672.602 198.91H673.131C673.881 198.91 674.454 198.866 674.851 198.778C676.306 198.381 677.651 197.543 678.886 196.265C680.12 194.986 681.068 193.619 681.729 192.164C682.391 190.709 682.898 189.474 683.251 188.46C683.603 187.446 683.78 186.784 683.78 186.476L683.383 186.74C683.118 186.917 682.7 187.159 682.126 187.468C681.553 187.777 680.98 188.041 680.407 188.262C679.525 188.482 678.665 188.592 677.827 188.592C675.799 188.592 674.013 188.107 672.47 187.137C670.927 186.167 669.913 184.602 669.428 182.441C669.384 182.133 669.362 181.449 669.362 180.391C669.362 177.878 670.133 174.593 671.676 170.536C673.22 166.479 673.991 163.9 673.991 162.798C673.991 162.754 673.991 162.709 673.991 162.665C673.991 162.268 673.991 162.004 673.991 161.872C673.991 161.739 673.903 161.585 673.727 161.409C673.55 161.232 673.308 161.144 672.999 161.144H672.735C671.72 161.144 670.795 161.563 669.957 162.401C669.119 163.239 668.458 164.142 667.973 165.113C667.488 166.083 667.113 167.009 666.848 167.89C666.584 168.772 666.407 169.257 666.319 169.345C666.231 169.434 665.878 169.478 665.261 169.478H664.335C664.07 169.213 663.938 169.015 663.938 168.882Z" fill="black"/>
<path d="M699.776 177.108C701.522 174.583 703.907 173.32 706.931 173.32C708.428 173.32 709.924 173.725 711.421 174.536C712.918 175.346 714.134 176.781 715.069 178.838C716.222 181.426 716.799 184.981 716.799 189.502C716.799 194.334 716.129 198.029 714.788 200.586C714.165 201.895 713.307 202.94 712.216 203.719C711.125 204.499 710.174 204.982 709.363 205.169C708.553 205.356 707.758 205.465 706.978 205.496C706.168 205.496 705.357 205.403 704.546 205.216C703.736 205.029 702.785 204.53 701.693 203.719C700.602 202.908 699.745 201.864 699.121 200.586C697.781 198.029 697.11 194.334 697.11 189.502C697.11 184.077 697.999 179.945 699.776 177.108ZM710.299 176.547C709.363 175.549 708.256 175.05 706.978 175.05C705.669 175.05 704.546 175.549 703.611 176.547C702.831 177.357 702.317 178.48 702.068 179.914C701.818 181.348 701.693 184.342 701.693 188.894C701.693 193.82 701.818 197.062 702.068 198.621C702.317 200.18 702.878 201.412 703.751 202.316C704.624 203.251 705.7 203.719 706.978 203.719C708.225 203.719 709.285 203.251 710.158 202.316C711.062 201.381 711.624 200.071 711.842 198.388C712.06 196.704 712.185 193.539 712.216 188.894C712.216 184.373 712.091 181.395 711.842 179.961C711.593 178.527 711.078 177.389 710.299 176.547Z" fill="black"/>
<path d="M729.511 138.326L729.775 138.26C729.996 138.26 730.216 138.26 730.437 138.26H731.23L733.082 139.847C737.227 143.595 740.247 148.269 742.143 153.869C744.039 159.469 744.987 165.289 744.987 171.33C744.987 174.328 744.767 177.216 744.326 179.994C743.885 182.772 743.378 185.131 742.805 187.071C742.231 189.011 741.416 190.951 740.357 192.891C739.299 194.832 738.461 196.309 737.844 197.323C737.227 198.337 736.323 199.461 735.132 200.696C733.942 201.931 733.236 202.658 733.016 202.879C732.796 203.099 732.288 203.518 731.495 204.135C731.363 204.267 731.274 204.356 731.23 204.4H730.437C730.084 204.4 729.841 204.4 729.709 204.4C729.577 204.4 729.467 204.334 729.378 204.201C729.29 204.069 729.224 203.871 729.18 203.606C729.224 203.562 729.467 203.275 729.907 202.746C736.742 195.647 740.159 185.175 740.159 171.33C740.159 157.484 736.742 147.012 729.907 139.913C729.467 139.384 729.224 139.097 729.18 139.053C729.18 138.701 729.29 138.458 729.511 138.326Z" fill="black"/>
<path d="M553.398 365.087C553.398 360.061 555.294 355.651 559.086 351.859C562.878 348.067 567.045 346.171 571.586 346.171C574.673 346.171 577.142 347.053 578.994 348.817C580.846 350.58 582.103 352.741 582.764 355.298C583.028 356.577 583.183 358.054 583.227 359.73V361.648C585.387 358.385 587.041 354.725 588.187 350.669C588.364 350.051 588.496 349.699 588.584 349.61C588.672 349.522 589.025 349.456 589.642 349.412C590.568 349.412 591.031 349.588 591.031 349.941C591.031 350.338 590.833 351.198 590.436 352.521C590.039 353.843 589.246 355.717 588.055 358.142C586.865 360.568 585.52 362.772 584.021 364.756L583.293 365.682L583.359 367.27C583.447 369.739 583.624 371.415 583.888 372.296C584.153 373.178 584.572 373.641 585.145 373.685C585.762 373.597 586.335 373.355 586.865 372.958C587.394 372.561 587.768 372.054 587.989 371.437C588.077 371.128 588.187 370.952 588.32 370.907C588.452 370.863 588.783 370.819 589.312 370.775C590.194 370.775 590.634 370.952 590.634 371.304C590.634 371.569 590.502 371.988 590.238 372.561C589.708 373.619 588.937 374.457 587.923 375.074C586.909 375.692 585.939 376.022 585.013 376.066H584.55C581.595 376.066 579.589 374.479 578.531 371.304L578.333 370.841L577.605 371.37C577.164 371.723 576.503 372.164 575.621 372.693C574.739 373.222 573.747 373.729 572.645 374.215C571.542 374.7 570.264 375.14 568.809 375.537C567.354 375.934 565.943 376.133 564.576 376.133C561.092 376.133 558.359 375.03 556.374 372.826C554.39 370.621 553.398 368.041 553.398 365.087ZM564.906 373.685C567.067 373.685 569.227 373.222 571.388 372.296C573.549 371.37 575.158 370.422 576.216 369.452L577.803 367.997C577.715 361.692 577.561 357.768 577.341 356.224C576.723 351.154 574.695 348.618 571.256 348.618C568.213 348.618 565.546 350.228 563.253 353.446C562.062 355.21 561.092 357.591 560.343 360.59C559.593 363.588 559.196 365.881 559.152 367.468C559.152 369.629 559.703 371.194 560.806 372.164C561.908 373.134 563.275 373.641 564.906 373.685Z" fill="black"/>
<path d="M600.026 358.87C600.026 355.828 600.247 352.939 600.688 350.206C601.129 347.472 601.636 345.113 602.209 343.129C602.782 341.144 603.598 339.204 604.656 337.308C605.714 335.412 606.552 333.935 607.169 332.877C607.787 331.819 608.712 330.672 609.947 329.438C611.182 328.203 611.909 327.453 612.13 327.189C612.35 326.924 612.901 326.461 613.783 325.8H614.643H614.908C615.525 325.8 615.833 325.998 615.833 326.395C615.833 326.527 615.459 326.99 614.709 327.784C613.96 328.578 613.056 329.746 611.997 331.29C610.939 332.833 609.859 334.729 608.757 336.978C607.654 339.226 606.728 342.269 605.979 346.105C605.229 349.941 604.854 354.196 604.854 358.87C604.854 363.544 605.229 367.777 605.979 371.569C606.728 375.361 607.632 378.425 608.69 380.762C609.749 383.099 610.829 384.995 611.931 386.45C613.034 387.906 613.96 389.074 614.709 389.956C615.459 390.838 615.833 391.301 615.833 391.345C615.833 391.742 615.503 391.94 614.841 391.94H614.643H613.783L611.931 390.353C607.787 386.605 604.766 381.931 602.87 376.331C600.974 370.731 600.026 364.911 600.026 358.87Z" fill="black"/>
<path d="M621.193 356.423C621.193 355.805 621.524 354.747 622.185 353.248C622.846 351.749 623.905 350.184 625.36 348.552C626.815 346.921 628.446 346.127 630.254 346.171C632.062 346.171 633.517 346.678 634.619 347.692C635.721 348.706 636.295 350.117 636.339 351.925C636.251 352.763 636.184 353.226 636.14 353.314C636.14 353.446 635.788 354.461 635.082 356.357C634.377 358.253 633.649 360.391 632.899 362.772C632.15 365.153 631.797 367.049 631.841 368.46C631.841 370.356 632.15 371.679 632.767 372.429C633.384 373.178 634.31 373.575 635.545 373.619C636.559 373.619 637.507 373.377 638.389 372.892C639.271 372.407 639.954 371.9 640.439 371.37C640.924 370.841 641.52 370.114 642.225 369.188C642.225 369.144 642.335 368.703 642.556 367.865C642.776 367.027 643.085 365.726 643.482 363.963C643.879 362.199 644.297 360.568 644.738 359.068C646.414 352.454 647.34 348.993 647.516 348.684C648.089 347.494 649.037 346.899 650.36 346.899C650.933 346.899 651.396 347.053 651.749 347.362C652.102 347.67 652.344 347.935 652.477 348.155C652.609 348.376 652.653 348.574 652.609 348.751C652.609 349.324 651.529 353.954 649.368 362.64C647.208 371.326 645.973 376.088 645.664 376.926C644.43 380.586 642.291 383.496 639.249 385.657C636.206 387.817 633.164 388.92 630.122 388.964C628.137 388.964 626.396 388.479 624.897 387.509C623.398 386.539 622.648 385.084 622.648 383.143C622.648 382.173 622.802 381.358 623.111 380.696C623.42 380.035 623.838 379.55 624.368 379.241C624.897 378.932 625.338 378.712 625.69 378.58C626.043 378.447 626.418 378.381 626.815 378.381C628.755 378.381 629.725 379.307 629.725 381.159C629.725 382.041 629.46 382.813 628.931 383.474C628.402 384.136 627.895 384.576 627.41 384.797C626.925 385.017 626.638 385.128 626.55 385.128L626.352 385.194C626.44 385.414 626.859 385.679 627.608 385.987C628.358 386.296 629.108 386.45 629.857 386.45H630.386C631.136 386.45 631.709 386.406 632.106 386.318C633.561 385.921 634.906 385.084 636.14 383.805C637.375 382.526 638.323 381.159 638.984 379.704C639.646 378.249 640.153 377.014 640.505 376C640.858 374.986 641.035 374.325 641.035 374.016L640.638 374.281C640.373 374.457 639.954 374.7 639.381 375.008C638.808 375.317 638.235 375.581 637.661 375.802C636.78 376.022 635.92 376.133 635.082 376.133C633.054 376.133 631.268 375.648 629.725 374.677C628.182 373.707 627.167 372.142 626.682 369.982C626.638 369.673 626.616 368.989 626.616 367.931C626.616 365.418 627.388 362.133 628.931 358.076C630.474 354.02 631.246 351.44 631.246 350.338C631.246 350.294 631.246 350.25 631.246 350.206C631.246 349.809 631.246 349.544 631.246 349.412C631.246 349.28 631.158 349.125 630.981 348.949C630.805 348.773 630.563 348.684 630.254 348.684H629.989C628.975 348.684 628.049 349.103 627.212 349.941C626.374 350.779 625.712 351.683 625.227 352.653C624.742 353.623 624.368 354.549 624.103 355.431C623.838 356.313 623.662 356.798 623.574 356.886C623.486 356.974 623.133 357.018 622.516 357.018H621.59C621.325 356.753 621.193 356.555 621.193 356.423Z" fill="black"/>
<path d="M657.031 364.648C658.777 362.123 661.162 360.86 664.186 360.86C665.683 360.86 667.179 361.265 668.676 362.076C670.172 362.887 671.388 364.321 672.324 366.379C673.477 368.967 674.054 372.521 674.054 377.042C674.054 381.875 673.384 385.569 672.043 388.126C671.419 389.435 670.562 390.48 669.471 391.259C668.38 392.039 667.429 392.522 666.618 392.709C665.807 392.896 665.012 393.005 664.233 393.037C663.422 393.037 662.612 392.943 661.801 392.756C660.99 392.569 660.039 392.07 658.948 391.259C657.857 390.449 657 389.404 656.376 388.126C655.035 385.569 654.365 381.875 654.365 377.042C654.365 371.617 655.254 367.486 657.031 364.648ZM667.553 364.087C666.618 363.089 665.511 362.591 664.233 362.591C662.923 362.591 661.801 363.089 660.866 364.087C660.086 364.898 659.572 366.02 659.322 367.454C659.073 368.889 658.948 371.882 658.948 376.434C658.948 381.36 659.073 384.603 659.322 386.162C659.572 387.721 660.133 388.952 661.006 389.856C661.879 390.792 662.955 391.259 664.233 391.259C665.48 391.259 666.54 390.792 667.413 389.856C668.317 388.921 668.878 387.612 669.097 385.928C669.315 384.244 669.44 381.08 669.471 376.434C669.471 371.913 669.346 368.935 669.097 367.501C668.847 366.067 668.333 364.929 667.553 364.087Z" fill="black"/>
<path d="M686.801 325.866L687.065 325.8C687.286 325.8 687.506 325.8 687.726 325.8H688.52L690.372 327.387C694.517 331.135 697.537 335.809 699.433 341.409C701.329 347.009 702.277 352.829 702.277 358.87C702.277 361.868 702.057 364.756 701.616 367.534C701.175 370.312 700.668 372.671 700.094 374.611C699.521 376.551 698.706 378.492 697.647 380.432C696.589 382.372 695.751 383.849 695.134 384.863C694.517 385.877 693.613 387.002 692.422 388.236C691.232 389.471 690.526 390.198 690.306 390.419C690.085 390.639 689.578 391.058 688.785 391.676C688.652 391.808 688.564 391.896 688.52 391.94H687.726C687.374 391.94 687.131 391.94 686.999 391.94C686.867 391.94 686.756 391.874 686.668 391.742C686.58 391.609 686.514 391.411 686.47 391.146C686.514 391.102 686.756 390.816 687.197 390.287C694.032 383.188 697.449 372.715 697.449 358.87C697.449 345.025 694.032 334.552 687.197 327.453C686.756 326.924 686.514 326.638 686.47 326.594C686.47 326.241 686.58 325.998 686.801 325.866Z" fill="black"/>
<path d="M781.9 268.399C781.9 268.399 781.9 267.994 781.9 267.183C781.9 266.373 782.336 265.749 783.209 265.313H811.176V251.282L811.269 237.252C811.893 236.441 812.485 236.036 813.047 236.036C813.857 236.036 814.481 236.504 814.917 237.439V265.313H842.791C843.726 265.812 844.194 266.435 844.194 267.183C844.194 267.932 843.726 268.555 842.791 269.054H814.917V296.928C814.418 297.801 813.857 298.238 813.234 298.238H813.047H812.86C812.111 298.238 811.55 297.801 811.176 296.928V269.054H783.209C782.336 268.618 781.9 267.994 781.9 267.183V268.399Z" fill="black"/>
<path d="M876.089 365.21C877.211 366.831 878.801 367.642 880.859 367.642H881.046C882.792 367.642 884.538 365.771 886.284 362.029C888.03 358.288 889.651 353.175 891.148 346.689C892.644 340.204 894.048 333.688 895.357 327.14C896.666 320.593 897.976 313.515 899.285 305.908C899.473 304.598 899.628 303.632 899.753 303.008C904.243 276.506 909.107 251.937 914.345 229.301C919.582 206.666 923.386 191.949 925.756 185.152C926.13 184.03 926.442 183.094 926.691 182.346C926.941 181.598 927.471 180.226 928.281 178.23C929.092 176.235 929.934 174.489 930.807 172.992C931.68 171.496 932.74 169.968 933.987 168.409C935.234 166.85 936.606 165.603 938.102 164.668C939.599 163.732 941.189 163.296 942.873 163.358C946.365 163.358 948.984 164.449 950.73 166.632C952.475 168.814 953.473 171.309 953.723 174.115C953.723 175.674 953.348 176.921 952.6 177.856C951.852 178.792 951.135 179.384 950.449 179.634C949.763 179.883 949.077 179.976 948.391 179.914C947.082 179.914 945.897 179.446 944.837 178.511C943.777 177.576 943.247 176.297 943.247 174.676C943.247 171.683 944.899 169.906 948.204 169.345L947.923 168.97C947.736 168.783 947.487 168.565 947.175 168.316C946.863 168.066 946.614 167.879 946.427 167.754C945.492 167.131 944.463 166.819 943.34 166.819C942.467 166.819 941.657 167.193 940.908 167.941C940.16 168.69 939.162 170.436 937.915 173.18C936.668 175.923 935.452 179.54 934.267 184.03C933.083 188.519 931.617 194.849 929.871 203.018C928.125 211.186 926.379 220.79 924.633 231.827C920.954 252.717 917.119 272.453 913.129 291.035C909.138 309.618 906.02 323.087 903.775 331.443C901.53 339.799 899.815 345.785 898.631 349.402C893.829 363.931 887.905 371.196 880.859 371.196C878.365 371.196 876.089 370.229 874.031 368.296C871.973 366.363 870.82 363.713 870.57 360.346C870.57 358.163 871.163 356.667 872.347 355.856C873.532 355.045 874.717 354.64 875.902 354.64C877.211 354.64 878.396 355.108 879.456 356.043C880.516 356.978 881.046 358.257 881.046 359.878C881.046 362.871 879.394 364.648 876.089 365.21Z" fill="black"/>
<path d="M967.289 177.547C967.289 172.52 969.185 168.111 972.977 164.319C976.769 160.527 980.936 158.631 985.477 158.631C988.564 158.631 991.033 159.513 992.885 161.276C994.737 163.04 995.993 165.201 996.655 167.758C996.919 169.037 997.074 170.514 997.118 172.19V174.108C999.278 170.845 1000.93 167.185 1002.08 163.128C1002.25 162.511 1002.39 162.158 1002.48 162.07C1002.56 161.982 1002.92 161.916 1003.53 161.872C1004.46 161.872 1004.92 162.048 1004.92 162.401C1004.92 162.798 1004.72 163.657 1004.33 164.98C1003.93 166.303 1003.14 168.177 1001.95 170.602C1000.76 173.027 999.411 175.232 997.911 177.216L997.184 178.142L997.25 179.73C997.338 182.199 997.515 183.874 997.779 184.756C998.044 185.638 998.463 186.101 999.036 186.145C999.653 186.057 1000.23 185.814 1000.76 185.418C1001.28 185.021 1001.66 184.514 1001.88 183.896C1001.97 183.588 1002.08 183.411 1002.21 183.367C1002.34 183.323 1002.67 183.279 1003.2 183.235C1004.08 183.235 1004.53 183.411 1004.53 183.764C1004.53 184.029 1004.39 184.448 1004.13 185.021C1003.6 186.079 1002.83 186.917 1001.81 187.534C1000.8 188.151 999.829 188.482 998.903 188.526H998.441C995.486 188.526 993.48 186.939 992.422 183.764L992.223 183.301L991.496 183.83C991.055 184.183 990.394 184.624 989.512 185.153C988.63 185.682 987.638 186.189 986.536 186.674C985.433 187.159 984.155 187.6 982.699 187.997C981.244 188.394 979.833 188.592 978.467 188.592C974.983 188.592 972.249 187.49 970.265 185.285C968.281 183.081 967.289 180.501 967.289 177.547ZM978.797 186.145C980.958 186.145 983.118 185.682 985.279 184.756C987.439 183.83 989.049 182.882 990.107 181.912L991.694 180.457C991.606 174.152 991.452 170.227 991.231 168.684C990.614 163.613 988.586 161.078 985.147 161.078C982.104 161.078 979.437 162.687 977.144 165.906C975.953 167.67 974.983 170.051 974.234 173.049C973.484 176.048 973.087 178.341 973.043 179.928C973.043 182.089 973.594 183.654 974.697 184.624C975.799 185.594 977.166 186.101 978.797 186.145Z" fill="black"/>
<path d="M1013.92 171.33C1013.92 168.287 1014.14 165.399 1014.58 162.665C1015.02 159.932 1015.53 157.573 1016.1 155.588C1016.67 153.604 1017.49 151.664 1018.55 149.768C1019.6 147.872 1020.44 146.395 1021.06 145.337C1021.68 144.278 1022.6 143.132 1023.84 141.897C1025.07 140.663 1025.8 139.913 1026.02 139.649C1026.24 139.384 1026.79 138.921 1027.67 138.26H1028.53H1028.8C1029.42 138.26 1029.72 138.458 1029.72 138.855C1029.72 138.987 1029.35 139.45 1028.6 140.244C1027.85 141.037 1026.95 142.206 1025.89 143.749C1024.83 145.293 1023.75 147.189 1022.65 149.437C1021.55 151.686 1020.62 154.729 1019.87 158.565C1019.12 162.401 1018.75 166.656 1018.75 171.33C1018.75 176.004 1019.12 180.237 1019.87 184.029C1020.62 187.821 1021.52 190.885 1022.58 193.222C1023.64 195.559 1024.72 197.455 1025.82 198.91C1026.92 200.365 1027.85 201.534 1028.6 202.416C1029.35 203.297 1029.72 203.76 1029.72 203.805C1029.72 204.201 1029.39 204.4 1028.73 204.4H1028.53H1027.67L1025.82 202.812C1021.68 199.064 1018.66 194.391 1016.76 188.791C1014.86 183.191 1013.92 177.37 1013.92 171.33Z" fill="black"/>
<path d="M1035.08 168.882C1035.08 168.265 1035.41 167.207 1036.08 165.708C1036.74 164.209 1037.8 162.643 1039.25 161.012C1040.71 159.38 1042.34 158.587 1044.14 158.631C1045.95 158.631 1047.41 159.138 1048.51 160.152C1049.61 161.166 1050.19 162.577 1050.23 164.385C1050.14 165.223 1050.08 165.686 1050.03 165.774C1050.03 165.906 1049.68 166.92 1048.97 168.816C1048.27 170.712 1047.54 172.851 1046.79 175.232C1046.04 177.613 1045.69 179.509 1045.73 180.92C1045.73 182.816 1046.04 184.139 1046.66 184.888C1047.28 185.638 1048.2 186.035 1049.44 186.079C1050.45 186.079 1051.4 185.836 1052.28 185.351C1053.16 184.866 1053.85 184.359 1054.33 183.83C1054.82 183.301 1055.41 182.574 1056.12 181.648C1056.12 181.603 1056.23 181.163 1056.45 180.325C1056.67 179.487 1056.98 178.186 1057.37 176.422C1057.77 174.659 1058.19 173.027 1058.63 171.528C1060.3 164.914 1061.23 161.453 1061.41 161.144C1061.98 159.954 1062.93 159.358 1064.25 159.358C1064.82 159.358 1065.29 159.513 1065.64 159.821C1065.99 160.13 1066.24 160.395 1066.37 160.615C1066.5 160.835 1066.54 161.034 1066.5 161.21C1066.5 161.783 1065.42 166.413 1063.26 175.1C1061.1 183.786 1059.86 188.548 1059.56 189.386C1058.32 193.046 1056.18 195.956 1053.14 198.116C1050.1 200.277 1047.05 201.379 1044.01 201.423C1042.03 201.423 1040.29 200.938 1038.79 199.968C1037.29 198.998 1036.54 197.543 1036.54 195.603C1036.54 194.633 1036.69 193.817 1037 193.156C1037.31 192.495 1037.73 192.01 1038.26 191.701C1038.79 191.392 1039.23 191.172 1039.58 191.039C1039.93 190.907 1040.31 190.841 1040.71 190.841C1042.65 190.841 1043.62 191.767 1043.62 193.619C1043.62 194.501 1043.35 195.272 1042.82 195.934C1042.29 196.595 1041.79 197.036 1041.3 197.257C1040.82 197.477 1040.53 197.587 1040.44 197.587L1040.24 197.653C1040.33 197.874 1040.75 198.139 1041.5 198.447C1042.25 198.756 1043 198.91 1043.75 198.91H1044.28C1045.03 198.91 1045.6 198.866 1046 198.778C1047.45 198.381 1048.8 197.543 1050.03 196.265C1051.27 194.986 1052.21 193.619 1052.88 192.164C1053.54 190.709 1054.04 189.474 1054.4 188.46C1054.75 187.446 1054.93 186.784 1054.93 186.476L1054.53 186.74C1054.26 186.917 1053.85 187.159 1053.27 187.468C1052.7 187.777 1052.13 188.041 1051.55 188.262C1050.67 188.482 1049.81 188.592 1048.97 188.592C1046.94 188.592 1045.16 188.107 1043.62 187.137C1042.07 186.167 1041.06 184.602 1040.57 182.441C1040.53 182.133 1040.51 181.449 1040.51 180.391C1040.51 177.878 1041.28 174.593 1042.82 170.536C1044.37 166.479 1045.14 163.9 1045.14 162.798C1045.14 162.754 1045.14 162.709 1045.14 162.665C1045.14 162.268 1045.14 162.004 1045.14 161.872C1045.14 161.739 1045.05 161.585 1044.87 161.409C1044.7 161.232 1044.45 161.144 1044.14 161.144H1043.88C1042.87 161.144 1041.94 161.563 1041.1 162.401C1040.26 163.239 1039.6 164.142 1039.12 165.113C1038.63 166.083 1038.26 167.009 1037.99 167.89C1037.73 168.772 1037.55 169.257 1037.46 169.345C1037.38 169.434 1037.02 169.478 1036.41 169.478H1035.48C1035.22 169.213 1035.08 169.015 1035.08 168.882Z" fill="black"/>
<path d="M1070.92 177.108C1072.67 174.583 1075.05 173.32 1078.08 173.32C1079.57 173.32 1081.07 173.725 1082.57 174.536C1084.06 175.346 1085.28 176.781 1086.21 178.838C1087.37 181.426 1087.94 184.981 1087.94 189.502C1087.94 194.334 1087.27 198.029 1085.93 200.586C1085.31 201.895 1084.45 202.94 1083.36 203.719C1082.27 204.499 1081.32 204.982 1080.51 205.169C1079.7 205.356 1078.9 205.465 1078.12 205.496C1077.31 205.496 1076.5 205.403 1075.69 205.216C1074.88 205.029 1073.93 204.53 1072.84 203.719C1071.75 202.908 1070.89 201.864 1070.27 200.586C1068.93 198.029 1068.26 194.334 1068.26 189.502C1068.26 184.077 1069.14 179.945 1070.92 177.108ZM1081.44 176.547C1080.51 175.549 1079.4 175.05 1078.12 175.05C1076.81 175.05 1075.69 175.549 1074.76 176.547C1073.98 177.357 1073.46 178.48 1073.21 179.914C1072.96 181.348 1072.84 184.342 1072.84 188.894C1072.84 193.82 1072.96 197.062 1073.21 198.621C1073.46 200.18 1074.02 201.412 1074.9 202.316C1075.77 203.251 1076.85 203.719 1078.12 203.719C1079.37 203.719 1080.43 203.251 1081.3 202.316C1082.21 201.381 1082.77 200.071 1082.99 198.388C1083.21 196.704 1083.33 193.539 1083.36 188.894C1083.36 184.373 1083.24 181.395 1082.99 179.961C1082.74 178.527 1082.22 177.389 1081.44 176.547Z" fill="black"/>
<path d="M1100.69 138.326L1100.96 138.26C1101.18 138.26 1101.4 138.26 1101.62 138.26H1102.41L1104.26 139.847C1108.41 143.595 1111.43 148.269 1113.32 153.869C1115.22 159.469 1116.17 165.289 1116.17 171.33C1116.17 174.328 1115.95 177.216 1115.51 179.994C1115.07 182.772 1114.56 185.131 1113.99 187.071C1113.41 189.011 1112.6 190.951 1111.54 192.891C1110.48 194.832 1109.64 196.309 1109.02 197.323C1108.41 198.337 1107.5 199.461 1106.31 200.696C1105.12 201.931 1104.42 202.658 1104.2 202.879C1103.98 203.099 1103.47 203.518 1102.68 204.135C1102.54 204.267 1102.45 204.356 1102.41 204.4H1101.62C1101.26 204.4 1101.02 204.4 1100.89 204.4C1100.76 204.4 1100.65 204.334 1100.56 204.201C1100.47 204.069 1100.4 203.871 1100.36 203.606C1100.4 203.562 1100.65 203.275 1101.09 202.746C1107.92 195.647 1111.34 185.175 1111.34 171.33C1111.34 157.484 1107.92 147.012 1101.09 139.913C1100.65 139.384 1100.4 139.097 1100.36 139.053C1100.36 138.701 1100.47 138.458 1100.69 138.326Z" fill="black"/>
<path d="M920.147 365.087C920.147 360.061 922.043 355.651 925.835 351.859C929.627 348.067 933.794 346.171 938.336 346.171C941.422 346.171 943.891 347.053 945.743 348.817C947.595 350.58 948.852 352.741 949.513 355.298C949.778 356.577 949.932 358.054 949.976 359.73V361.648C952.137 358.385 953.79 354.725 954.937 350.669C955.113 350.051 955.245 349.699 955.333 349.61C955.422 349.522 955.774 349.456 956.392 349.412C957.318 349.412 957.781 349.588 957.781 349.941C957.781 350.338 957.582 351.198 957.185 352.521C956.788 353.843 955.995 355.717 954.804 358.142C953.614 360.568 952.269 362.772 950.77 364.756L950.042 365.682L950.108 367.27C950.197 369.739 950.373 371.415 950.638 372.296C950.902 373.178 951.321 373.641 951.894 373.685C952.511 373.597 953.085 373.355 953.614 372.958C954.143 372.561 954.518 372.054 954.738 371.437C954.826 371.128 954.937 370.952 955.069 370.907C955.201 370.863 955.532 370.819 956.061 370.775C956.943 370.775 957.384 370.952 957.384 371.304C957.384 371.569 957.251 371.988 956.987 372.561C956.458 373.619 955.686 374.457 954.672 375.074C953.658 375.692 952.688 376.022 951.762 376.066H951.299C948.345 376.066 946.339 374.479 945.28 371.304L945.082 370.841L944.354 371.37C943.913 371.723 943.252 372.164 942.37 372.693C941.488 373.222 940.496 373.729 939.394 374.215C938.292 374.7 937.013 375.14 935.558 375.537C934.103 375.934 932.692 376.133 931.325 376.133C927.842 376.133 925.108 375.03 923.124 372.826C921.14 370.621 920.147 368.041 920.147 365.087ZM931.656 373.685C933.816 373.685 935.977 373.222 938.137 372.296C940.298 371.37 941.907 370.422 942.965 369.452L944.553 367.997C944.465 361.692 944.31 357.768 944.09 356.224C943.472 351.154 941.444 348.618 938.005 348.618C934.963 348.618 932.295 350.228 930.002 353.446C928.812 355.21 927.842 357.591 927.092 360.59C926.342 363.588 925.946 365.881 925.902 367.468C925.902 369.629 926.453 371.194 927.555 372.164C928.657 373.134 930.024 373.641 931.656 373.685Z" fill="black"/>
<path d="M966.775 358.87C966.775 355.828 966.996 352.939 967.437 350.206C967.878 347.472 968.385 345.113 968.958 343.129C969.531 341.144 970.347 339.204 971.405 337.308C972.463 335.412 973.301 333.935 973.918 332.877C974.536 331.819 975.462 330.672 976.696 329.438C977.931 328.203 978.658 327.453 978.879 327.189C979.099 326.924 979.65 326.461 980.532 325.8H981.392H981.657C982.274 325.8 982.583 325.998 982.583 326.395C982.583 326.527 982.208 326.99 981.458 327.784C980.709 328.578 979.805 329.746 978.747 331.29C977.688 332.833 976.608 334.729 975.506 336.978C974.403 339.226 973.477 342.269 972.728 346.105C971.978 349.941 971.604 354.196 971.604 358.87C971.604 363.544 971.978 367.777 972.728 371.569C973.477 375.361 974.381 378.425 975.44 380.762C976.498 383.099 977.578 384.995 978.68 386.45C979.783 387.906 980.709 389.074 981.458 389.956C982.208 390.838 982.583 391.301 982.583 391.345C982.583 391.742 982.252 391.94 981.591 391.94H981.392H980.532L978.68 390.353C974.536 386.605 971.515 381.931 969.619 376.331C967.723 370.731 966.775 364.911 966.775 358.87Z" fill="black"/>
<path d="M988.006 356.423C988.006 355.805 988.337 354.747 988.998 353.248C989.66 351.749 990.718 350.184 992.173 348.552C993.628 346.921 995.259 346.127 997.067 346.171C998.875 346.171 1000.33 346.678 1001.43 347.692C1002.53 348.706 1003.11 350.117 1003.15 351.925C1003.06 352.763 1003 353.226 1002.95 353.314C1002.95 353.446 1002.6 354.461 1001.9 356.357C1001.19 358.253 1000.46 360.391 999.713 362.772C998.963 365.153 998.61 367.049 998.654 368.46C998.654 370.356 998.963 371.679 999.58 372.429C1000.2 373.178 1001.12 373.575 1002.36 373.619C1003.37 373.619 1004.32 373.377 1005.2 372.892C1006.08 372.407 1006.77 371.9 1007.25 371.37C1007.74 370.841 1008.33 370.114 1009.04 369.188C1009.04 369.144 1009.15 368.703 1009.37 367.865C1009.59 367.027 1009.9 365.726 1010.29 363.963C1010.69 362.199 1011.11 360.568 1011.55 359.068C1013.23 352.454 1014.15 348.993 1014.33 348.684C1014.9 347.494 1015.85 346.899 1017.17 346.899C1017.75 346.899 1018.21 347.053 1018.56 347.362C1018.92 347.67 1019.16 347.935 1019.29 348.155C1019.42 348.376 1019.47 348.574 1019.42 348.751C1019.42 349.324 1018.34 353.954 1016.18 362.64C1014.02 371.326 1012.79 376.088 1012.48 376.926C1011.24 380.586 1009.1 383.496 1006.06 385.657C1003.02 387.817 999.977 388.92 996.935 388.964C994.951 388.964 993.209 388.479 991.71 387.509C990.211 386.539 989.461 385.084 989.461 383.143C989.461 382.173 989.615 381.358 989.924 380.696C990.233 380.035 990.652 379.55 991.181 379.241C991.71 378.932 992.151 378.712 992.504 378.58C992.856 378.447 993.231 378.381 993.628 378.381C995.568 378.381 996.538 379.307 996.538 381.159C996.538 382.041 996.273 382.813 995.744 383.474C995.215 384.136 994.708 384.576 994.223 384.797C993.738 385.017 993.452 385.128 993.363 385.128L993.165 385.194C993.253 385.414 993.672 385.679 994.422 385.987C995.171 386.296 995.921 386.45 996.67 386.45H997.199C997.949 386.45 998.522 386.406 998.919 386.318C1000.37 385.921 1001.72 385.084 1002.95 383.805C1004.19 382.526 1005.14 381.159 1005.8 379.704C1006.46 378.249 1006.97 377.014 1007.32 376C1007.67 374.986 1007.85 374.325 1007.85 374.016L1007.45 374.281C1007.19 374.457 1006.77 374.7 1006.19 375.008C1005.62 375.317 1005.05 375.581 1004.47 375.802C1003.59 376.022 1002.73 376.133 1001.9 376.133C999.867 376.133 998.081 375.648 996.538 374.677C994.995 373.707 993.981 372.142 993.496 369.982C993.452 369.673 993.43 368.989 993.43 367.931C993.43 365.418 994.201 362.133 995.744 358.076C997.288 354.02 998.059 351.44 998.059 350.338C998.059 350.294 998.059 350.25 998.059 350.206C998.059 349.809 998.059 349.544 998.059 349.412C998.059 349.28 997.971 349.125 997.795 348.949C997.618 348.773 997.376 348.684 997.067 348.684H996.803C995.788 348.684 994.863 349.103 994.025 349.941C993.187 350.779 992.526 351.683 992.041 352.653C991.556 353.623 991.181 354.549 990.916 355.431C990.652 356.313 990.475 356.798 990.387 356.886C990.299 356.974 989.946 357.018 989.329 357.018H988.403C988.138 356.753 988.006 356.555 988.006 356.423Z" fill="black"/>
<path d="M1023.79 325.866L1024.05 325.8C1024.27 325.8 1024.49 325.8 1024.71 325.8H1025.51L1027.36 327.387C1031.5 331.135 1034.52 335.809 1036.42 341.409C1038.32 347.009 1039.26 352.829 1039.26 358.87C1039.26 361.868 1039.04 364.756 1038.6 367.534C1038.16 370.312 1037.65 372.671 1037.08 374.611C1036.51 376.551 1035.69 378.492 1034.63 380.432C1033.58 382.372 1032.74 383.849 1032.12 384.863C1031.5 385.877 1030.6 387.002 1029.41 388.236C1028.22 389.471 1027.51 390.198 1027.29 390.419C1027.07 390.639 1026.57 391.058 1025.77 391.676C1025.64 391.808 1025.55 391.896 1025.51 391.94H1024.71C1024.36 391.94 1024.12 391.94 1023.99 391.94C1023.85 391.94 1023.74 391.874 1023.65 391.742C1023.57 391.609 1023.5 391.411 1023.46 391.146C1023.5 391.102 1023.74 390.816 1024.18 390.287C1031.02 383.188 1034.44 372.715 1034.44 358.87C1034.44 345.025 1031.02 334.552 1024.18 327.453C1023.74 326.924 1023.5 326.638 1023.46 326.594C1023.46 326.241 1023.57 325.998 1023.79 325.866Z" fill="black"/>
<path d="M1155.66 268.399C1155.66 268.399 1155.66 267.994 1155.66 267.183C1155.66 266.373 1156.1 265.749 1156.97 265.313H1211.32C1212.25 265.812 1212.72 266.435 1212.72 267.183C1212.72 267.932 1212.25 268.555 1211.32 269.054H1156.97C1156.1 268.618 1155.66 267.994 1155.66 267.183V268.399Z" fill="black"/>
<path d="M1247.33 365.21C1248.45 366.831 1250.04 367.642 1252.1 367.642H1252.29C1254.03 367.642 1255.78 365.771 1257.52 362.029C1259.27 358.288 1260.89 353.175 1262.39 346.689C1263.88 340.204 1265.29 333.688 1266.6 327.14C1267.91 320.593 1269.22 313.515 1270.52 305.908C1270.71 304.598 1270.87 303.632 1270.99 303.008C1275.48 276.506 1280.35 251.937 1285.58 229.301C1290.82 206.666 1294.63 191.949 1297 185.152C1297.37 184.03 1297.68 183.094 1297.93 182.346C1298.18 181.598 1298.71 180.226 1299.52 178.23C1300.33 176.235 1301.17 174.489 1302.05 172.992C1302.92 171.496 1303.98 169.968 1305.23 168.409C1306.47 166.85 1307.85 165.603 1309.34 164.668C1310.84 163.732 1312.43 163.296 1314.11 163.358C1317.6 163.358 1320.22 164.449 1321.97 166.632C1323.71 168.814 1324.71 171.309 1324.96 174.115C1324.96 175.674 1324.59 176.921 1323.84 177.856C1323.09 178.792 1322.37 179.384 1321.69 179.634C1321 179.883 1320.32 179.976 1319.63 179.914C1318.32 179.914 1317.14 179.446 1316.08 178.511C1315.02 177.576 1314.49 176.297 1314.49 174.676C1314.49 171.683 1316.14 169.906 1319.44 169.345L1319.16 168.97C1318.98 168.783 1318.73 168.565 1318.41 168.316C1318.1 168.066 1317.85 167.879 1317.67 167.754C1316.73 167.131 1315.7 166.819 1314.58 166.819C1313.71 166.819 1312.9 167.193 1312.15 167.941C1311.4 168.69 1310.4 170.436 1309.15 173.18C1307.91 175.923 1306.69 179.54 1305.51 184.03C1304.32 188.519 1302.86 194.849 1301.11 203.018C1299.36 211.186 1297.62 220.79 1295.87 231.827C1292.19 252.717 1288.36 272.453 1284.37 291.035C1280.38 309.618 1277.26 323.087 1275.01 331.443C1272.77 339.799 1271.05 345.785 1269.87 349.402C1265.07 363.931 1259.14 371.196 1252.1 371.196C1249.6 371.196 1247.33 370.229 1245.27 368.296C1243.21 366.363 1242.06 363.713 1241.81 360.346C1241.81 358.163 1242.4 356.667 1243.59 355.856C1244.77 355.045 1245.96 354.64 1247.14 354.64C1248.45 354.64 1249.64 355.108 1250.7 356.043C1251.76 356.978 1252.29 358.257 1252.29 359.878C1252.29 362.871 1250.63 364.648 1247.33 365.21Z" fill="black"/>
<path d="M1338.2 200.696C1337.93 200.431 1337.8 200.255 1337.8 200.167C1337.8 200.035 1339.54 192.98 1343.03 179.002C1346.51 165.024 1348.36 157.727 1348.58 157.11C1349.55 154.111 1350.81 151.488 1352.35 149.239C1353.89 146.99 1355.35 145.359 1356.72 144.344C1359.19 142.272 1361.83 141.236 1364.65 141.236H1364.79C1367.52 141.236 1369.77 142.074 1371.53 143.749C1373.3 145.425 1374.18 147.563 1374.18 150.165C1374.18 154.795 1371.88 158.631 1367.3 161.673L1368.16 162.533C1370.41 164.782 1371.53 167.67 1371.53 171.197C1371.53 176.18 1369.66 180.303 1365.91 183.566C1362.16 186.829 1357.95 188.482 1353.28 188.526C1351.95 188.526 1350.76 188.35 1349.71 187.997C1348.65 187.644 1347.81 187.225 1347.19 186.74C1346.58 186.255 1346.09 185.748 1345.74 185.219C1345.38 184.69 1345.12 184.271 1344.94 183.962C1344.77 183.654 1344.66 183.522 1344.61 183.566L1340.38 200.299C1340.29 200.564 1339.85 200.696 1339.06 200.696H1338.2ZM1359.63 159.358C1361.35 159.358 1362.98 159.623 1364.52 160.152L1364.85 159.954C1365.03 159.777 1365.18 159.623 1365.31 159.491C1365.45 159.358 1365.67 159.138 1365.98 158.829C1366.28 158.521 1366.55 158.212 1366.77 157.903C1366.99 157.595 1367.23 157.198 1367.5 156.713C1367.76 156.228 1368.03 155.699 1368.29 155.125C1368.56 154.552 1368.75 153.913 1368.89 153.207C1369.02 152.502 1369.19 151.708 1369.42 150.826C1369.5 150.429 1369.55 149.702 1369.55 148.644C1369.55 147.85 1369.53 147.343 1369.48 147.122C1368.82 144.874 1367.14 143.749 1364.45 143.749C1362.6 143.749 1360.86 144.278 1359.23 145.337C1357.6 146.395 1356.25 147.74 1355.2 149.371C1354.14 151.003 1353.28 152.502 1352.62 153.869C1351.95 155.236 1351.45 156.536 1351.09 157.771C1350.87 158.476 1350.04 161.717 1348.58 167.494C1347.13 173.27 1346.38 176.356 1346.33 176.753C1346.29 176.974 1346.27 177.437 1346.27 178.142C1346.27 180.259 1346.75 182 1347.72 183.367C1349.09 185.219 1351.01 186.145 1353.48 186.145C1355.33 186.145 1357.29 185.594 1359.36 184.492C1361.43 183.389 1363.11 181.493 1364.39 178.804C1365.09 177.304 1365.62 175.607 1365.98 173.711C1366.33 171.815 1366.51 170.382 1366.51 169.412C1366.51 166.854 1365.73 164.804 1364.19 163.261C1362.34 163.878 1360.68 164.187 1359.23 164.187H1358.57C1355.09 164.187 1353.34 163.503 1353.34 162.136C1353.34 161.828 1353.41 161.519 1353.54 161.21C1354.16 159.976 1356.19 159.358 1359.63 159.358Z" fill="black"/>
<path d="M1380.72 171.33C1380.72 168.287 1380.95 165.399 1381.39 162.665C1381.83 159.932 1382.33 157.573 1382.91 155.588C1383.48 153.604 1384.3 151.664 1385.35 149.768C1386.41 147.872 1387.25 146.395 1387.87 145.337C1388.49 144.278 1389.41 143.132 1390.65 141.897C1391.88 140.663 1392.61 139.913 1392.83 139.649C1393.05 139.384 1393.6 138.921 1394.48 138.26H1395.34H1395.61C1396.22 138.26 1396.53 138.458 1396.53 138.855C1396.53 138.987 1396.16 139.45 1395.41 140.244C1394.66 141.037 1393.75 142.206 1392.7 143.749C1391.64 145.293 1390.56 147.189 1389.46 149.437C1388.35 151.686 1387.43 154.729 1386.68 158.565C1385.93 162.401 1385.55 166.656 1385.55 171.33C1385.55 176.004 1385.93 180.237 1386.68 184.029C1387.43 187.821 1388.33 190.885 1389.39 193.222C1390.45 195.559 1391.53 197.455 1392.63 198.91C1393.73 200.365 1394.66 201.534 1395.41 202.416C1396.16 203.297 1396.53 203.76 1396.53 203.805C1396.53 204.201 1396.2 204.4 1395.54 204.4H1395.34H1394.48L1392.63 202.812C1388.49 199.064 1385.46 194.391 1383.57 188.791C1381.67 183.191 1380.72 177.37 1380.72 171.33Z" fill="black"/>
<path d="M1401.93 168.882C1401.93 168.265 1402.26 167.207 1402.92 165.708C1403.58 164.209 1404.64 162.643 1406.09 161.012C1407.55 159.38 1409.18 158.587 1410.99 158.631C1412.8 158.631 1414.25 159.138 1415.35 160.152C1416.46 161.166 1417.03 162.577 1417.07 164.385C1416.98 165.223 1416.92 165.686 1416.87 165.774C1416.87 165.906 1416.52 166.92 1415.82 168.816C1415.11 170.712 1414.38 172.851 1413.63 175.232C1412.88 177.613 1412.53 179.509 1412.58 180.92C1412.58 182.816 1412.88 184.139 1413.5 184.888C1414.12 185.638 1415.04 186.035 1416.28 186.079C1417.29 186.079 1418.24 185.836 1419.12 185.351C1420 184.866 1420.69 184.359 1421.17 183.83C1421.66 183.301 1422.25 182.574 1422.96 181.648C1422.96 181.603 1423.07 181.163 1423.29 180.325C1423.51 179.487 1423.82 178.186 1424.22 176.422C1424.61 174.659 1425.03 173.027 1425.47 171.528C1427.15 164.914 1428.07 161.453 1428.25 161.144C1428.82 159.954 1429.77 159.358 1431.09 159.358C1431.67 159.358 1432.13 159.513 1432.48 159.821C1432.84 160.13 1433.08 160.395 1433.21 160.615C1433.34 160.835 1433.39 161.034 1433.34 161.21C1433.34 161.783 1432.26 166.413 1430.1 175.1C1427.94 183.786 1426.71 188.548 1426.4 189.386C1425.16 193.046 1423.03 195.956 1419.98 198.116C1416.94 200.277 1413.9 201.379 1410.86 201.423C1408.87 201.423 1407.13 200.938 1405.63 199.968C1404.13 198.998 1403.38 197.543 1403.38 195.603C1403.38 194.633 1403.54 193.817 1403.84 193.156C1404.15 192.495 1404.57 192.01 1405.1 191.701C1405.63 191.392 1406.07 191.172 1406.42 191.039C1406.78 190.907 1407.15 190.841 1407.55 190.841C1409.49 190.841 1410.46 191.767 1410.46 193.619C1410.46 194.501 1410.19 195.272 1409.67 195.934C1409.14 196.595 1408.63 197.036 1408.14 197.257C1407.66 197.477 1407.37 197.587 1407.28 197.587L1407.09 197.653C1407.17 197.874 1407.59 198.139 1408.34 198.447C1409.09 198.756 1409.84 198.91 1410.59 198.91H1411.12C1411.87 198.91 1412.44 198.866 1412.84 198.778C1414.29 198.381 1415.64 197.543 1416.87 196.265C1418.11 194.986 1419.06 193.619 1419.72 192.164C1420.38 190.709 1420.89 189.474 1421.24 188.46C1421.59 187.446 1421.77 186.784 1421.77 186.476L1421.37 186.74C1421.11 186.917 1420.69 187.159 1420.11 187.468C1419.54 187.777 1418.97 188.041 1418.4 188.262C1417.51 188.482 1416.65 188.592 1415.82 188.592C1413.79 188.592 1412 188.107 1410.46 187.137C1408.92 186.167 1407.9 184.602 1407.42 182.441C1407.37 182.133 1407.35 181.449 1407.35 180.391C1407.35 177.878 1408.12 174.593 1409.67 170.536C1411.21 166.479 1411.98 163.9 1411.98 162.798C1411.98 162.754 1411.98 162.709 1411.98 162.665C1411.98 162.268 1411.98 162.004 1411.98 161.872C1411.98 161.739 1411.89 161.585 1411.72 161.409C1411.54 161.232 1411.3 161.144 1410.99 161.144H1410.72C1409.71 161.144 1408.78 161.563 1407.95 162.401C1407.11 163.239 1406.45 164.142 1405.96 165.113C1405.48 166.083 1405.1 167.009 1404.84 167.89C1404.57 168.772 1404.4 169.257 1404.31 169.345C1404.22 169.434 1403.87 169.478 1403.25 169.478H1402.32C1402.06 169.213 1401.93 169.015 1401.93 168.882Z" fill="black"/>
<path d="M1437.76 177.108C1439.51 174.583 1441.9 173.32 1444.92 173.32C1446.42 173.32 1447.91 173.725 1449.41 174.536C1450.91 175.346 1452.12 176.781 1453.06 178.838C1454.21 181.426 1454.79 184.981 1454.79 189.502C1454.79 194.334 1454.12 198.029 1452.78 200.586C1452.15 201.895 1451.3 202.94 1450.2 203.719C1449.11 204.499 1448.16 204.982 1447.35 205.169C1446.54 205.356 1445.75 205.465 1444.97 205.496C1444.16 205.496 1443.35 205.403 1442.53 205.216C1441.72 205.029 1440.77 204.53 1439.68 203.719C1438.59 202.908 1437.73 201.864 1437.11 200.586C1435.77 198.029 1435.1 194.334 1435.1 189.502C1435.1 184.077 1435.99 179.945 1437.76 177.108ZM1448.29 176.547C1447.35 175.549 1446.25 175.05 1444.97 175.05C1443.66 175.05 1442.53 175.549 1441.6 176.547C1440.82 177.357 1440.31 178.48 1440.06 179.914C1439.81 181.348 1439.68 184.342 1439.68 188.894C1439.68 193.82 1439.81 197.062 1440.06 198.621C1440.31 200.18 1440.87 201.412 1441.74 202.316C1442.61 203.251 1443.69 203.719 1444.97 203.719C1446.21 203.719 1447.27 203.251 1448.15 202.316C1449.05 201.381 1449.61 200.071 1449.83 198.388C1450.05 196.704 1450.17 193.539 1450.2 188.894C1450.2 184.373 1450.08 181.395 1449.83 179.961C1449.58 178.527 1449.07 177.389 1448.29 176.547Z" fill="black"/>
<path d="M1467.5 138.326L1467.76 138.26C1467.98 138.26 1468.2 138.26 1468.43 138.26H1469.22L1471.07 139.847C1475.22 143.595 1478.24 148.269 1480.13 153.869C1482.03 159.469 1482.98 165.289 1482.98 171.33C1482.98 174.328 1482.76 177.216 1482.31 179.994C1481.87 182.772 1481.37 185.131 1480.79 187.071C1480.22 189.011 1479.4 190.951 1478.35 192.891C1477.29 194.832 1476.45 196.309 1475.83 197.323C1475.22 198.337 1474.31 199.461 1473.12 200.696C1471.93 201.931 1471.23 202.658 1471 202.879C1470.78 203.099 1470.28 203.518 1469.48 204.135C1469.35 204.267 1469.26 204.356 1469.22 204.4H1468.43C1468.07 204.4 1467.83 204.4 1467.7 204.4C1467.57 204.4 1467.46 204.334 1467.37 204.201C1467.28 204.069 1467.21 203.871 1467.17 203.606C1467.21 203.562 1467.46 203.275 1467.9 202.746C1474.73 195.647 1478.15 185.175 1478.15 171.33C1478.15 157.484 1474.73 147.012 1467.9 139.913C1467.46 139.384 1467.21 139.097 1467.17 139.053C1467.17 138.701 1467.28 138.458 1467.5 138.326Z" fill="black"/>
<path d="M1291.06 388.236C1290.79 387.972 1290.66 387.795 1290.66 387.707C1290.66 387.575 1292.4 380.52 1295.88 366.542C1299.37 352.565 1301.22 345.267 1301.44 344.65C1302.41 341.651 1303.67 339.028 1305.21 336.779C1306.75 334.53 1308.21 332.899 1309.57 331.885C1312.04 329.812 1314.69 328.776 1317.51 328.776H1317.64C1320.38 328.776 1322.63 329.614 1324.39 331.29C1326.15 332.965 1327.04 335.104 1327.04 337.705C1327.04 342.335 1324.74 346.171 1320.16 349.214L1321.02 350.073C1323.27 352.322 1324.39 355.21 1324.39 358.738C1324.39 363.72 1322.52 367.843 1318.77 371.106C1315.02 374.369 1310.81 376.022 1306.14 376.066C1304.81 376.066 1303.62 375.89 1302.56 375.537C1301.51 375.185 1300.67 374.766 1300.05 374.281C1299.43 373.796 1298.95 373.289 1298.6 372.759C1298.24 372.23 1297.98 371.811 1297.8 371.503C1297.63 371.194 1297.52 371.062 1297.47 371.106L1293.24 387.839C1293.15 388.104 1292.71 388.236 1291.92 388.236H1291.06ZM1312.49 346.899C1314.2 346.899 1315.84 347.163 1317.38 347.692L1317.71 347.494C1317.89 347.317 1318.04 347.163 1318.17 347.031C1318.31 346.899 1318.53 346.678 1318.83 346.369C1319.14 346.061 1319.41 345.752 1319.63 345.444C1319.85 345.135 1320.09 344.738 1320.36 344.253C1320.62 343.768 1320.88 343.239 1321.15 342.666C1321.41 342.092 1321.61 341.453 1321.74 340.748C1321.88 340.042 1322.05 339.248 1322.27 338.367C1322.36 337.97 1322.41 337.242 1322.41 336.184C1322.41 335.39 1322.38 334.883 1322.34 334.663C1321.68 332.414 1320 331.29 1317.31 331.29C1315.46 331.29 1313.72 331.819 1312.09 332.877C1310.46 333.935 1309.11 335.28 1308.05 336.911C1307 338.543 1306.14 340.042 1305.47 341.409C1304.81 342.776 1304.31 344.077 1303.95 345.311C1303.73 346.017 1302.89 349.258 1301.44 355.034C1299.98 360.81 1299.24 363.897 1299.19 364.293C1299.15 364.514 1299.12 364.977 1299.12 365.682C1299.12 367.799 1299.61 369.541 1300.58 370.907C1301.95 372.759 1303.86 373.685 1306.33 373.685C1308.19 373.685 1310.15 373.134 1312.22 372.032C1314.29 370.93 1315.97 369.034 1317.25 366.344C1317.95 364.845 1318.48 363.147 1318.83 361.251C1319.19 359.355 1319.36 357.922 1319.36 356.952C1319.36 354.394 1318.59 352.344 1317.05 350.801C1315.2 351.418 1313.54 351.727 1312.09 351.727H1311.43C1307.94 351.727 1306.2 351.043 1306.2 349.676C1306.2 349.368 1306.27 349.059 1306.4 348.751C1307.02 347.516 1309.05 346.899 1312.49 346.899Z" fill="black"/>
<path d="M1333.58 358.87C1333.58 355.828 1333.8 352.939 1334.24 350.206C1334.69 347.472 1335.19 345.113 1335.77 343.129C1336.34 341.144 1337.15 339.204 1338.21 337.308C1339.27 335.412 1340.11 333.935 1340.73 332.877C1341.34 331.819 1342.27 330.672 1343.5 329.438C1344.74 328.203 1345.47 327.453 1345.69 327.189C1345.91 326.924 1346.46 326.461 1347.34 325.8H1348.2H1348.46C1349.08 325.8 1349.39 325.998 1349.39 326.395C1349.39 326.527 1349.02 326.99 1348.27 327.784C1347.52 328.578 1346.61 329.746 1345.55 331.29C1344.5 332.833 1343.42 334.729 1342.31 336.978C1341.21 339.226 1340.29 342.269 1339.54 346.105C1338.79 349.941 1338.41 354.196 1338.41 358.87C1338.41 363.544 1338.79 367.777 1339.54 371.569C1340.29 375.361 1341.19 378.425 1342.25 380.762C1343.31 383.099 1344.39 384.995 1345.49 386.45C1346.59 387.906 1347.52 389.074 1348.27 389.956C1349.02 390.838 1349.39 391.301 1349.39 391.345C1349.39 391.742 1349.06 391.94 1348.4 391.94H1348.2H1347.34L1345.49 390.353C1341.34 386.605 1338.32 381.931 1336.43 376.331C1334.53 370.731 1333.58 364.911 1333.58 358.87Z" fill="black"/>
<path d="M1354.81 356.423C1354.81 355.805 1355.14 354.747 1355.81 353.248C1356.47 351.749 1357.53 350.184 1358.98 348.552C1360.44 346.921 1362.07 346.127 1363.88 346.171C1365.68 346.171 1367.14 346.678 1368.24 347.692C1369.34 348.706 1369.92 350.117 1369.96 351.925C1369.87 352.763 1369.81 353.226 1369.76 353.314C1369.76 353.446 1369.41 354.461 1368.7 356.357C1368 358.253 1367.27 360.391 1366.52 362.772C1365.77 365.153 1365.42 367.049 1365.46 368.46C1365.46 370.356 1365.77 371.679 1366.39 372.429C1367.01 373.178 1367.93 373.575 1369.17 373.619C1370.18 373.619 1371.13 373.377 1372.01 372.892C1372.89 372.407 1373.58 371.9 1374.06 371.37C1374.55 370.841 1375.14 370.114 1375.85 369.188C1375.85 369.144 1375.96 368.703 1376.18 367.865C1376.4 367.027 1376.71 365.726 1377.1 363.963C1377.5 362.199 1377.92 360.568 1378.36 359.068C1380.03 352.454 1380.96 348.993 1381.14 348.684C1381.71 347.494 1382.66 346.899 1383.98 346.899C1384.55 346.899 1385.02 347.053 1385.37 347.362C1385.72 347.67 1385.97 347.935 1386.1 348.155C1386.23 348.376 1386.27 348.574 1386.23 348.751C1386.23 349.324 1385.15 353.954 1382.99 362.64C1380.83 371.326 1379.59 376.088 1379.29 376.926C1378.05 380.586 1375.91 383.496 1372.87 385.657C1369.83 387.817 1366.79 388.92 1363.74 388.964C1361.76 388.964 1360.02 388.479 1358.52 387.509C1357.02 386.539 1356.27 385.084 1356.27 383.143C1356.27 382.173 1356.42 381.358 1356.73 380.696C1357.04 380.035 1357.46 379.55 1357.99 379.241C1358.52 378.932 1358.96 378.712 1359.31 378.58C1359.66 378.447 1360.04 378.381 1360.44 378.381C1362.38 378.381 1363.35 379.307 1363.35 381.159C1363.35 382.041 1363.08 382.813 1362.55 383.474C1362.02 384.136 1361.52 384.576 1361.03 384.797C1360.55 385.017 1360.26 385.128 1360.17 385.128L1359.97 385.194C1360.06 385.414 1360.48 385.679 1361.23 385.987C1361.98 386.296 1362.73 386.45 1363.48 386.45H1364.01C1364.76 386.45 1365.33 386.406 1365.73 386.318C1367.18 385.921 1368.53 385.084 1369.76 383.805C1371 382.526 1371.94 381.159 1372.61 379.704C1373.27 378.249 1373.77 377.014 1374.13 376C1374.48 374.986 1374.66 374.325 1374.66 374.016L1374.26 374.281C1373.99 374.457 1373.58 374.7 1373 375.008C1372.43 375.317 1371.86 375.581 1371.28 375.802C1370.4 376.022 1369.54 376.133 1368.7 376.133C1366.67 376.133 1364.89 375.648 1363.35 374.677C1361.8 373.707 1360.79 372.142 1360.3 369.982C1360.26 369.673 1360.24 368.989 1360.24 367.931C1360.24 365.418 1361.01 362.133 1362.55 358.076C1364.1 354.02 1364.87 351.44 1364.87 350.338C1364.87 350.294 1364.87 350.25 1364.87 350.206C1364.87 349.809 1364.87 349.544 1364.87 349.412C1364.87 349.28 1364.78 349.125 1364.6 348.949C1364.43 348.773 1364.18 348.684 1363.88 348.684H1363.61C1362.6 348.684 1361.67 349.103 1360.83 349.941C1359.99 350.779 1359.33 351.683 1358.85 352.653C1358.36 353.623 1357.99 354.549 1357.72 355.431C1357.46 356.313 1357.28 356.798 1357.19 356.886C1357.11 356.974 1356.75 357.018 1356.14 357.018H1355.21C1354.95 356.753 1354.81 356.555 1354.81 356.423Z" fill="black"/>
<path d="M1390.6 325.866L1390.86 325.8C1391.08 325.8 1391.3 325.8 1391.52 325.8H1392.31L1394.17 327.387C1398.31 331.135 1401.33 335.809 1403.23 341.409C1405.12 347.009 1406.07 352.829 1406.07 358.87C1406.07 361.868 1405.85 364.756 1405.41 367.534C1404.97 370.312 1404.46 372.671 1403.89 374.611C1403.32 376.551 1402.5 378.492 1401.44 380.432C1400.38 382.372 1399.55 383.849 1398.93 384.863C1398.31 385.877 1397.41 387.002 1396.22 388.236C1395.03 389.471 1394.32 390.198 1394.1 390.419C1393.88 390.639 1393.37 391.058 1392.58 391.676C1392.45 391.808 1392.36 391.896 1392.31 391.94H1391.52C1391.17 391.94 1390.93 391.94 1390.79 391.94C1390.66 391.94 1390.55 391.874 1390.46 391.742C1390.37 391.609 1390.31 391.411 1390.26 391.146C1390.31 391.102 1390.55 390.816 1390.99 390.287C1397.83 383.188 1401.24 372.715 1401.24 358.87C1401.24 345.025 1397.83 334.552 1390.99 327.453C1390.55 326.924 1390.31 326.638 1390.26 326.594C1390.26 326.241 1390.37 325.998 1390.6 325.866Z" fill="black"/>
</svg>
