<svg width="1640" height="531" viewBox="0 0 1640 531" fill="none" xmlns="http://www.w3.org/2000/svg">
<rect width="1640" height="531" fill="black"/>
<path d="M30 30H1610V501H30V30Z" fill="white"/>
<path d="M175.234 273.659H176.544C178.977 273.659 180.443 273.223 180.942 272.352V271.605C180.942 271.045 180.942 270.329 180.942 269.458C180.942 268.587 180.942 267.56 180.942 266.377C180.942 265.195 180.973 263.856 181.035 262.363C181.098 260.869 181.098 259.313 181.035 257.695C180.973 256.077 180.973 254.365 181.035 252.56C181.098 250.755 181.098 248.981 181.035 247.239C181.035 244.936 181.035 242.509 181.035 239.957C181.035 237.405 181.035 235.071 181.035 232.955C181.035 230.839 181.035 228.972 181.035 227.354C181.035 225.735 181.004 224.366 180.942 223.246C180.879 222.125 180.879 221.596 180.942 221.659C180.755 220.476 180.318 219.698 179.632 219.325C178.946 218.951 177.542 218.671 175.421 218.484H173.737V216.337C173.737 214.906 173.799 214.19 173.924 214.19L174.86 214.097C175.484 214.034 176.388 213.972 177.573 213.91C178.758 213.848 179.912 213.785 181.035 213.723C182.096 213.661 183.25 213.599 184.497 213.537C185.745 213.474 186.681 213.381 187.304 213.256C187.928 213.132 188.271 213.101 188.334 213.163H188.614V242.571C188.614 262.301 188.645 272.228 188.708 272.352C188.957 272.85 189.332 273.192 189.831 273.379C191.141 273.566 192.669 273.659 194.416 273.659H195.913V277.954H195.164L193.012 277.86C191.577 277.798 190.049 277.767 188.427 277.767C186.805 277.767 185.62 277.736 184.872 277.673C184.123 277.611 182.938 277.611 181.316 277.673C179.694 277.736 178.135 277.798 176.638 277.86L174.485 277.954H173.737V273.659H175.234Z" fill="black"/>
<path d="M204.24 221.099C204.24 219.356 204.802 217.987 205.924 216.991C207.047 215.995 208.42 215.497 210.041 215.497C211.476 215.622 212.724 216.151 213.784 217.084C214.845 218.018 215.375 219.356 215.375 221.099C215.375 222.966 214.845 224.366 213.784 225.3C212.724 226.233 211.414 226.7 209.854 226.7C208.295 226.7 206.985 226.233 205.924 225.3C204.864 224.366 204.303 222.966 204.24 221.099ZM220.895 277.954C219.96 277.767 216.716 277.674 211.164 277.674C210.478 277.674 209.324 277.674 207.702 277.674C206.08 277.674 204.521 277.736 203.024 277.86L200.965 277.954H200.217V273.659H201.714C203.46 273.659 204.989 273.566 206.299 273.379C206.86 273.13 207.203 272.788 207.328 272.352C207.453 271.917 207.515 270.61 207.515 268.431V258.815V250.6C207.515 247.363 207.453 245.31 207.328 244.438C207.203 243.567 206.767 242.976 206.018 242.664C205.145 242.229 203.679 242.011 201.62 242.011H200.591V239.864C200.591 238.432 200.653 237.717 200.778 237.717L201.714 237.623C202.338 237.561 203.211 237.499 204.334 237.436C205.457 237.374 206.579 237.312 207.702 237.25C208.763 237.187 209.885 237.125 211.071 237.063C212.256 237.001 213.16 236.907 213.784 236.783C214.408 236.658 214.751 236.627 214.813 236.69H215.094V272.166C215.406 272.788 215.78 273.161 216.217 273.286C216.654 273.41 217.745 273.535 219.492 273.659H221.644V277.954H220.895Z" fill="black"/>
<path d="M228.1 273.659H229.41C231.843 273.659 233.309 273.224 233.808 272.352V271.605C233.808 271.045 233.808 270.33 233.808 269.458C233.808 268.587 233.808 267.622 233.808 266.564C233.808 265.506 233.839 264.292 233.901 262.923C233.964 261.554 233.964 260.247 233.901 259.002C233.901 257.073 233.901 255.019 233.901 252.84C233.901 250.662 233.87 248.826 233.808 247.332V245.185C233.621 244.003 233.184 243.225 232.498 242.851C231.812 242.478 230.408 242.198 228.287 242.011H226.603V239.864C226.603 238.432 226.665 237.716 226.79 237.716L227.726 237.623C228.35 237.561 229.223 237.499 230.346 237.436C231.469 237.374 232.623 237.312 233.808 237.25C234.868 237.187 235.991 237.125 237.176 237.063C238.361 237.001 239.266 236.907 239.89 236.783C240.514 236.658 240.857 236.627 240.919 236.69H241.2V240.424C241.2 242.789 241.231 243.971 241.293 243.971C241.356 243.971 241.512 243.816 241.761 243.505C242.011 243.193 242.385 242.727 242.884 242.104C243.383 241.482 243.976 240.922 244.662 240.424C245.348 239.926 246.252 239.335 247.375 238.65C248.498 237.965 249.683 237.468 250.931 237.156C252.178 236.845 253.769 236.69 255.703 236.69C256.638 236.69 257.512 236.752 258.323 236.876C259.134 237.001 259.851 237.187 260.475 237.436C261.099 237.685 261.691 237.934 262.253 238.183C262.814 238.432 263.282 238.712 263.656 239.024C264.03 239.335 264.373 239.677 264.685 240.05C264.997 240.424 265.278 240.766 265.527 241.077C265.777 241.389 265.995 241.731 266.182 242.104C266.37 242.478 266.494 242.789 266.557 243.038C266.619 243.287 266.713 243.536 266.837 243.785L267.025 244.252L267.305 243.878C267.492 243.629 267.68 243.38 267.867 243.131C268.054 242.882 268.334 242.54 268.709 242.104C269.083 241.669 269.488 241.264 269.925 240.891C270.362 240.517 270.83 240.113 271.329 239.677C271.828 239.241 272.451 238.868 273.2 238.557C273.949 238.246 274.666 237.934 275.352 237.623C276.038 237.312 276.849 237.094 277.785 236.97C278.721 236.845 279.687 236.752 280.685 236.69C288.545 236.69 292.818 240.206 293.504 247.239C293.567 247.675 293.598 252 293.598 260.216V268.245C293.598 270.61 293.66 272.01 293.785 272.446C293.91 272.881 294.253 273.193 294.814 273.379C296.124 273.566 297.653 273.659 299.399 273.659H300.896V277.954H300.148L297.996 277.86C296.499 277.798 294.908 277.767 293.224 277.767C291.539 277.767 290.354 277.736 289.668 277.674C283.243 277.674 279.75 277.767 279.188 277.954H278.44V273.659H279.937C283.742 273.659 285.645 273.161 285.645 272.166C285.707 272.041 285.738 267.747 285.738 259.282C285.676 250.88 285.613 246.43 285.551 245.932C285.177 244.189 284.553 242.882 283.68 242.011C282.806 241.14 282.058 240.611 281.434 240.424C280.81 240.237 279.999 240.175 279.001 240.237C276.194 240.237 273.73 241.295 271.609 243.411C269.925 245.092 268.865 246.803 268.428 248.546C267.991 250.289 267.742 252.872 267.68 256.295V262.27V267.871C267.68 269.738 267.711 270.983 267.773 271.605C267.835 272.228 267.929 272.632 268.054 272.819C268.179 273.006 268.459 273.193 268.896 273.379C270.206 273.566 271.734 273.659 273.481 273.659H274.978V277.954H274.229L271.984 277.86C270.549 277.798 268.989 277.767 267.305 277.767C265.621 277.767 264.436 277.736 263.75 277.674C257.325 277.674 253.831 277.767 253.27 277.954H252.521V273.659H254.019C257.824 273.659 259.726 273.161 259.726 272.166C259.789 272.041 259.82 267.747 259.82 259.282C259.757 250.88 259.695 246.43 259.633 245.932C259.258 244.189 258.635 242.882 257.761 242.011C256.888 241.14 256.139 240.611 255.516 240.424C254.892 240.237 254.081 240.175 253.083 240.237C250.276 240.237 247.812 241.295 245.691 243.411C244.007 245.092 242.946 246.803 242.51 248.546C242.073 250.289 241.823 252.872 241.761 256.295V262.27V267.871C241.761 269.738 241.792 270.983 241.855 271.605C241.917 272.228 242.011 272.632 242.135 272.819C242.26 273.006 242.541 273.193 242.977 273.379C244.287 273.566 245.816 273.659 247.562 273.659H249.059V277.954H248.311L246.159 277.86C244.662 277.798 243.071 277.767 241.387 277.767C239.703 277.767 238.517 277.736 237.831 277.674C231.406 277.674 227.913 277.767 227.352 277.954H226.603V273.659H228.1Z" fill="black"/>
<path d="M170.44 315.824C170.749 313.976 171.94 311.841 174.013 309.421C176.086 307 178.645 305.768 181.688 305.724C183.232 305.724 184.643 306.12 185.923 306.912C187.202 307.704 188.15 308.695 188.768 309.883C190.62 307.11 192.848 305.724 195.45 305.724C197.082 305.724 198.493 306.208 199.684 307.176C200.875 308.144 201.493 309.443 201.537 311.071C201.537 312.347 201.228 313.382 200.611 314.174C199.993 314.966 199.398 315.45 198.824 315.626C198.251 315.802 197.744 315.89 197.303 315.89C196.464 315.89 195.781 315.648 195.252 315.164C194.722 314.68 194.458 314.042 194.458 313.249C194.458 311.225 195.56 309.839 197.766 309.091C197.28 308.518 196.398 308.232 195.119 308.232C194.546 308.232 194.127 308.276 193.862 308.364C192.186 309.069 190.951 310.521 190.157 312.721C187.51 322.447 186.187 328.125 186.187 329.753C186.187 330.985 186.54 331.865 187.246 332.394C187.952 332.922 188.723 333.186 189.562 333.186C191.194 333.186 192.803 332.46 194.391 331.007C195.979 329.555 197.06 327.773 197.633 325.66C197.766 325.22 197.898 324.978 198.03 324.934C198.163 324.89 198.516 324.846 199.089 324.802H199.354C200.015 324.802 200.346 324.978 200.346 325.33C200.346 325.374 200.302 325.616 200.214 326.056C199.508 328.565 198.141 330.787 196.112 332.724C194.083 334.66 191.723 335.628 189.032 335.628C185.945 335.628 183.607 334.242 182.019 331.469C180.211 334.198 178.137 335.562 175.8 335.562H175.403C173.241 335.562 171.698 334.99 170.771 333.846C169.845 332.702 169.36 331.491 169.316 330.215C169.316 328.807 169.735 327.663 170.573 326.782C171.411 325.902 172.403 325.462 173.55 325.462C175.447 325.462 176.395 326.386 176.395 328.235C176.395 329.115 176.13 329.885 175.601 330.545C175.072 331.205 174.565 331.645 174.079 331.865C173.594 332.086 173.308 332.196 173.219 332.196L173.021 332.262C173.021 332.306 173.153 332.394 173.418 332.526C173.682 332.658 174.035 332.812 174.476 332.988C174.917 333.164 175.337 333.23 175.733 333.186C177.321 333.186 178.689 332.196 179.836 330.215C180.233 329.511 180.74 328.015 181.357 325.726C181.975 323.438 182.592 321.061 183.21 318.597C183.827 316.132 184.18 314.68 184.268 314.24C184.489 313.051 184.599 312.193 184.599 311.665C184.599 310.433 184.268 309.553 183.607 309.025C182.945 308.496 182.195 308.232 181.357 308.232C179.593 308.232 177.939 308.937 176.395 310.345C174.851 311.753 173.771 313.558 173.153 315.758C173.065 316.154 172.955 316.374 172.822 316.418C172.69 316.462 172.337 316.506 171.764 316.55H170.837C170.573 316.286 170.44 316.044 170.44 315.824Z" fill="black"/>
<path d="M208.881 319.257C208.881 319.257 208.881 318.971 208.881 318.399C208.881 317.827 209.19 317.386 209.807 317.078H260.422C255.305 313.25 252.151 308.342 250.961 302.357C250.961 302.313 250.961 302.247 250.961 302.159C250.961 302.071 250.938 302.005 250.894 301.961C250.894 301.433 251.269 301.169 252.019 301.169H252.218C252.615 301.169 252.879 301.191 253.012 301.235C253.144 301.279 253.276 301.367 253.409 301.499C253.541 301.631 253.607 301.829 253.607 302.093C253.607 302.357 253.673 302.709 253.806 303.149C253.938 303.589 254.114 304.14 254.335 304.8C255.305 307.748 256.915 310.389 259.165 312.721C261.414 315.054 264.039 316.704 267.038 317.672C267.435 317.804 267.634 318.047 267.634 318.399C267.634 318.663 267.523 318.861 267.303 318.993C267.082 319.125 266.553 319.345 265.715 319.653C264.877 319.961 264.039 320.379 263.201 320.907C261.392 322.051 259.826 323.372 258.503 324.868C257.18 326.364 256.187 327.839 255.526 329.291C254.864 330.743 254.401 331.843 254.136 332.592C253.872 333.34 253.695 334.022 253.607 334.638C253.519 335.078 253.409 335.342 253.276 335.43C253.144 335.518 252.791 335.584 252.218 335.628C251.335 335.628 250.894 335.386 250.894 334.902C250.894 334.594 251.005 334.044 251.225 333.252C252.637 327.707 255.702 323.196 260.422 319.719H209.807C209.19 319.411 208.881 318.971 208.881 318.399V319.257Z" fill="black"/>
<path d="M273.853 324.538C273.853 320.093 275.529 315.868 278.881 311.863C282.233 307.858 286.005 305.834 290.195 305.79C292.445 305.79 294.429 306.868 296.15 309.025C296.855 307.704 297.87 307.044 299.193 307.044C299.767 307.044 300.274 307.22 300.715 307.572C301.156 307.924 301.377 308.365 301.377 308.893C301.377 309.465 300.561 312.985 298.929 319.455C297.297 325.924 296.458 329.577 296.414 330.413C296.414 331.513 296.569 332.24 296.877 332.592C297.186 332.944 297.649 333.142 298.267 333.186C298.664 333.142 299.105 332.944 299.59 332.592C300.516 331.711 301.421 329.599 302.303 326.254C302.567 325.374 302.788 324.912 302.964 324.868C303.053 324.824 303.273 324.802 303.626 324.802H303.891C304.729 324.802 305.148 325 305.148 325.396C305.148 325.66 305.038 326.254 304.817 327.179C304.596 328.103 304.155 329.291 303.494 330.743C302.832 332.196 302.126 333.296 301.377 334.044C300.803 334.616 300.097 335.078 299.259 335.43C298.906 335.518 298.377 335.562 297.671 335.562C296.172 335.562 294.915 335.232 293.9 334.572C292.886 333.912 292.224 333.23 291.915 332.526L291.518 331.535C291.474 331.491 291.386 331.513 291.254 331.601C291.165 331.689 291.077 331.777 290.989 331.866C288.387 334.33 285.74 335.562 283.049 335.562C280.624 335.562 278.484 334.682 276.632 332.922C274.779 331.161 273.853 328.367 273.853 324.538ZM294.893 313.25C294.893 312.985 294.782 312.501 294.562 311.797C294.341 311.093 293.834 310.323 293.04 309.487C292.246 308.651 291.232 308.21 289.997 308.166C288.453 308.166 286.975 308.849 285.564 310.213C284.152 311.577 283.049 313.36 282.256 315.56C280.976 319.037 280.072 322.646 279.543 326.386C279.543 326.518 279.543 326.76 279.543 327.112C279.543 327.465 279.521 327.729 279.477 327.905C279.477 329.885 279.874 331.249 280.668 331.998C281.462 332.746 282.41 333.142 283.513 333.186C285.189 333.186 286.843 332.46 288.475 331.007C290.107 329.555 291.077 328.433 291.386 327.641C291.474 327.465 292.07 325.11 293.172 320.577C294.275 316.044 294.848 313.602 294.893 313.25Z" fill="black"/>
<path d="M326.44 273.659H327.75C330.183 273.659 331.649 273.224 332.148 272.352V271.606C332.148 271.045 332.148 270.33 332.148 269.458C332.148 268.587 332.148 267.56 332.148 266.377C332.148 265.195 332.179 263.857 332.242 262.363C332.304 260.869 332.304 259.313 332.242 257.695C332.179 256.077 332.179 254.365 332.242 252.56C332.304 250.756 332.304 248.982 332.242 247.239C332.242 244.936 332.242 242.509 332.242 239.957C332.242 237.405 332.242 235.071 332.242 232.955C332.242 230.839 332.242 228.972 332.242 227.354C332.242 225.736 332.21 224.366 332.148 223.246C332.086 222.126 332.086 221.597 332.148 221.659C331.961 220.476 331.524 219.698 330.838 219.325C330.152 218.952 328.748 218.672 326.627 218.485H324.943V216.338C324.943 214.906 325.006 214.19 325.13 214.19L326.066 214.097C326.69 214.035 327.594 213.973 328.78 213.91C329.965 213.848 331.119 213.786 332.242 213.724C333.302 213.661 334.456 213.599 335.704 213.537C336.951 213.475 337.887 213.381 338.511 213.257C339.134 213.132 339.478 213.101 339.54 213.163H339.821V242.571C339.821 262.301 339.852 272.228 339.914 272.352C340.164 272.85 340.538 273.193 341.037 273.379C342.347 273.566 343.875 273.659 345.622 273.659H347.119V277.954H346.37L344.218 277.86C342.784 277.798 341.255 277.767 339.633 277.767C338.012 277.767 336.826 277.736 336.078 277.674C335.329 277.612 334.144 277.612 332.522 277.674C330.9 277.736 329.341 277.798 327.844 277.86L325.692 277.954H324.943V273.659H326.44Z" fill="black"/>
<path d="M355.447 221.099C355.447 219.356 356.008 217.987 357.131 216.991C358.254 215.995 359.626 215.497 361.248 215.497C362.683 215.622 363.93 216.151 364.991 217.084C366.051 218.018 366.581 219.356 366.581 221.099C366.581 222.966 366.051 224.366 364.991 225.3C363.93 226.234 362.62 226.7 361.061 226.7C359.501 226.7 358.191 226.234 357.131 225.3C356.07 224.366 355.509 222.966 355.447 221.099ZM372.102 277.954C371.166 277.767 367.922 277.674 362.371 277.674C361.684 277.674 360.53 277.674 358.909 277.674C357.287 277.674 355.727 277.736 354.23 277.86L352.172 277.954H351.423V273.659H352.92C354.667 273.659 356.195 273.566 357.505 273.379C358.066 273.13 358.41 272.788 358.534 272.352C358.659 271.917 358.721 270.61 358.721 268.431V258.815V250.6C358.721 247.364 358.659 245.31 358.534 244.438C358.41 243.567 357.973 242.976 357.224 242.665C356.351 242.229 354.885 242.011 352.827 242.011H351.797V239.864C351.797 238.432 351.86 237.717 351.985 237.717L352.92 237.623C353.544 237.561 354.417 237.499 355.54 237.436C356.663 237.374 357.786 237.312 358.909 237.25C359.969 237.188 361.092 237.125 362.277 237.063C363.462 237.001 364.367 236.907 364.991 236.783C365.614 236.659 365.957 236.627 366.02 236.69H366.3V272.166C366.612 272.788 366.987 273.161 367.423 273.286C367.86 273.41 368.952 273.535 370.698 273.659H372.85V277.954H372.102Z" fill="black"/>
<path d="M379.306 273.659H380.616C383.049 273.659 384.515 273.224 385.014 272.352V271.606C385.014 271.045 385.014 270.33 385.014 269.458C385.014 268.587 385.014 267.622 385.014 266.564C385.014 265.506 385.045 264.292 385.108 262.923C385.17 261.554 385.17 260.247 385.108 259.002C385.108 257.073 385.108 255.019 385.108 252.841C385.108 250.662 385.077 248.826 385.014 247.332V245.185C384.827 244.003 384.39 243.225 383.704 242.851C383.018 242.478 381.614 242.198 379.494 242.011H377.809V239.864C377.809 238.432 377.872 237.717 377.997 237.717L378.932 237.623C379.556 237.561 380.429 237.499 381.552 237.436C382.675 237.374 383.829 237.312 385.014 237.25C386.075 237.188 387.197 237.125 388.383 237.063C389.568 237.001 390.472 236.907 391.096 236.783C391.72 236.658 392.063 236.627 392.125 236.69H392.406V240.424C392.406 242.789 392.437 243.972 392.5 243.972C392.562 243.972 392.718 243.816 392.967 243.505C393.217 243.194 393.591 242.727 394.09 242.104C394.589 241.482 395.182 240.922 395.868 240.424C396.554 239.926 397.459 239.335 398.582 238.65C399.704 237.966 400.89 237.468 402.137 237.156C403.385 236.845 404.975 236.69 406.909 236.69C407.845 236.69 408.718 236.752 409.529 236.876C410.34 237.001 411.057 237.188 411.681 237.436C412.305 237.685 412.897 237.934 413.459 238.183C414.02 238.432 414.488 238.712 414.862 239.024C415.237 239.335 415.58 239.677 415.892 240.051C416.204 240.424 416.484 240.766 416.734 241.077C416.983 241.389 417.202 241.731 417.389 242.104C417.576 242.478 417.701 242.789 417.763 243.038C417.825 243.287 417.919 243.536 418.044 243.785L418.231 244.252L418.512 243.878C418.699 243.629 418.886 243.38 419.073 243.131C419.26 242.882 419.541 242.54 419.915 242.104C420.289 241.669 420.695 241.264 421.132 240.891C421.568 240.517 422.036 240.113 422.535 239.677C423.034 239.241 423.658 238.868 424.406 238.557C425.155 238.246 425.872 237.934 426.558 237.623C427.245 237.312 428.056 237.094 428.991 236.97C429.927 236.845 430.894 236.752 431.892 236.69C439.752 236.69 444.025 240.206 444.711 247.239C444.773 247.675 444.804 252 444.804 260.216V268.245C444.804 270.61 444.867 272.01 444.991 272.446C445.116 272.881 445.459 273.193 446.021 273.379C447.331 273.566 448.859 273.659 450.606 273.659H452.103V277.954H451.354L449.202 277.86C447.705 277.798 446.114 277.767 444.43 277.767C442.746 277.767 441.561 277.736 440.874 277.674C434.449 277.674 430.956 277.767 430.395 277.954H429.646V273.659H431.143C434.948 273.659 436.851 273.161 436.851 272.166C436.913 272.041 436.945 267.747 436.945 259.282C436.882 250.88 436.82 246.43 436.757 245.932C436.383 244.189 435.759 242.882 434.886 242.011C434.013 241.14 433.264 240.611 432.64 240.424C432.017 240.237 431.206 240.175 430.208 240.237C427.401 240.237 424.937 241.295 422.816 243.411C421.132 245.092 420.071 246.803 419.634 248.546C419.198 250.289 418.948 252.872 418.886 256.295V262.27V267.871C418.886 269.738 418.917 270.983 418.979 271.606C419.042 272.228 419.135 272.632 419.26 272.819C419.385 273.006 419.666 273.193 420.102 273.379C421.412 273.566 422.94 273.659 424.687 273.659H426.184V277.954H425.436L423.19 277.86C421.755 277.798 420.196 277.767 418.512 277.767C416.827 277.767 415.642 277.736 414.956 277.674C408.531 277.674 405.038 277.767 404.476 277.954H403.728V273.659H405.225C409.03 273.659 410.933 273.161 410.933 272.166C410.995 272.041 411.026 267.747 411.026 259.282C410.964 250.88 410.901 246.43 410.839 245.932C410.465 244.189 409.841 242.882 408.968 242.011C408.094 241.14 407.346 240.611 406.722 240.424C406.098 240.237 405.287 240.175 404.289 240.237C401.482 240.237 399.018 241.295 396.897 243.411C395.213 245.092 394.153 246.803 393.716 248.546C393.279 250.289 393.03 252.872 392.967 256.295V262.27V267.871C392.967 269.738 392.999 270.983 393.061 271.606C393.123 272.228 393.217 272.632 393.342 272.819C393.466 273.006 393.747 273.193 394.184 273.379C395.494 273.566 397.022 273.659 398.769 273.659H400.266V277.954H399.517L397.365 277.86C395.868 277.798 394.277 277.767 392.593 277.767C390.909 277.767 389.724 277.736 389.038 277.674C382.613 277.674 379.119 277.767 378.558 277.954H377.809V273.659H379.306Z" fill="black"/>
<path d="M325.304 322.024C325.304 321.408 325.634 320.352 326.296 318.856C326.958 317.359 328.016 315.797 329.472 314.169C330.928 312.54 332.56 311.748 334.368 311.792C336.176 311.792 337.632 312.298 338.735 313.31C339.837 314.323 340.411 315.731 340.455 317.535C340.367 318.372 340.301 318.834 340.256 318.922C340.256 319.054 339.904 320.066 339.198 321.958C338.492 323.851 337.764 325.985 337.014 328.362C336.265 330.738 335.912 332.631 335.956 334.039C335.956 335.931 336.265 337.252 336.882 338C337.5 338.748 338.426 339.144 339.661 339.188C340.675 339.188 341.624 338.946 342.506 338.462C343.388 337.978 344.072 337.472 344.557 336.944C345.042 336.415 345.638 335.689 346.343 334.765C346.343 334.721 346.454 334.281 346.674 333.445C346.895 332.609 347.204 331.31 347.601 329.55C347.997 327.79 348.417 326.161 348.858 324.665C350.534 318.064 351.46 314.609 351.636 314.301C352.21 313.112 353.158 312.518 354.481 312.518C355.055 312.518 355.518 312.672 355.871 312.98C356.224 313.288 356.466 313.553 356.599 313.773C356.731 313.993 356.775 314.191 356.731 314.367C356.731 314.939 355.65 319.56 353.489 328.23C351.328 336.9 350.093 341.653 349.784 342.489C348.549 346.142 346.41 349.046 343.366 351.203C340.323 353.359 337.279 354.459 334.236 354.503C332.251 354.503 330.508 354.019 329.009 353.051C327.509 352.083 326.759 350.63 326.759 348.694C326.759 347.726 326.914 346.912 327.222 346.252C327.531 345.591 327.95 345.107 328.479 344.799C329.009 344.491 329.45 344.271 329.803 344.139C330.156 344.007 330.531 343.941 330.928 343.941C332.868 343.941 333.839 344.865 333.839 346.714C333.839 347.594 333.574 348.364 333.045 349.024C332.515 349.684 332.008 350.124 331.523 350.344C331.038 350.564 330.751 350.674 330.663 350.674L330.464 350.74C330.553 350.961 330.972 351.225 331.721 351.533C332.471 351.841 333.221 351.995 333.971 351.995H334.5C335.25 351.995 335.824 351.951 336.221 351.863C337.676 351.467 339.021 350.63 340.256 349.354C341.491 348.078 342.44 346.714 343.101 345.261C343.763 343.809 344.27 342.577 344.623 341.565C344.976 340.552 345.152 339.892 345.152 339.584L344.756 339.848C344.491 340.024 344.072 340.266 343.498 340.574C342.925 340.882 342.352 341.146 341.778 341.366C340.896 341.587 340.036 341.697 339.198 341.697C337.169 341.697 335.382 341.212 333.839 340.244C332.295 339.276 331.28 337.714 330.795 335.557C330.751 335.249 330.729 334.567 330.729 333.511C330.729 331.002 331.501 327.724 333.045 323.675C334.589 319.626 335.36 317.051 335.36 315.951C335.36 315.907 335.36 315.863 335.36 315.819C335.36 315.423 335.36 315.159 335.36 315.027C335.36 314.895 335.272 314.741 335.096 314.565C334.919 314.389 334.677 314.301 334.368 314.301H334.103C333.089 314.301 332.163 314.719 331.324 315.555C330.486 316.391 329.825 317.293 329.34 318.262C328.854 319.23 328.479 320.154 328.215 321.034C327.95 321.914 327.774 322.398 327.686 322.486C327.597 322.574 327.244 322.618 326.627 322.618H325.701C325.436 322.354 325.304 322.156 325.304 322.024Z" fill="black"/>
<path d="M360.833 325.325C360.833 325.325 360.833 325.039 360.833 324.467C360.833 323.895 361.142 323.455 361.759 323.147H412.374C407.257 319.318 404.103 314.411 402.912 308.425C402.912 308.381 402.912 308.315 402.912 308.227C402.912 308.139 402.89 308.073 402.846 308.029C402.846 307.501 403.221 307.237 403.971 307.237H404.169C404.566 307.237 404.831 307.259 404.963 307.303C405.096 307.347 405.228 307.435 405.36 307.567C405.493 307.699 405.559 307.897 405.559 308.161C405.559 308.425 405.625 308.778 405.757 309.218C405.89 309.658 406.066 310.208 406.287 310.868C407.257 313.817 408.867 316.457 411.117 318.79C413.366 321.122 415.991 322.773 418.99 323.741C419.387 323.873 419.585 324.115 419.585 324.467C419.585 324.731 419.475 324.929 419.255 325.061C419.034 325.193 418.505 325.413 417.667 325.721C416.829 326.029 415.991 326.447 415.153 326.975C413.344 328.12 411.778 329.44 410.455 330.936C409.132 332.433 408.139 333.907 407.478 335.359C406.816 336.812 406.353 337.912 406.088 338.66C405.824 339.408 405.647 340.09 405.559 340.706C405.471 341.146 405.36 341.411 405.228 341.499C405.096 341.587 404.743 341.653 404.169 341.697C403.287 341.697 402.846 341.455 402.846 340.97C402.846 340.662 402.957 340.112 403.177 339.32C404.589 333.775 407.654 329.264 412.374 325.787H361.759C361.142 325.479 360.833 325.039 360.833 324.467V325.325Z" fill="black"/>
<path d="M428.451 298.259C428.451 297.819 428.539 297.313 428.716 296.741C428.892 296.169 429.157 295.883 429.51 295.883C429.554 295.883 431.142 295.773 434.274 295.553C437.405 295.333 439.015 295.201 439.103 295.157C439.633 295.157 439.897 295.355 439.897 295.751C439.897 296.147 439.148 299.294 437.648 305.191C437.295 306.687 436.92 308.227 436.523 309.812C436.126 311.396 435.795 312.584 435.531 313.377L435.266 314.631C435.266 314.763 435.398 314.697 435.663 314.433C437.824 312.672 440.052 311.792 442.345 311.792C445.08 311.792 447.286 312.804 448.962 314.829C450.638 316.853 451.498 319.406 451.542 322.486C451.542 327.372 449.8 331.794 446.315 335.755C442.831 339.716 439.081 341.697 435.067 341.697C432.862 341.697 430.855 340.86 429.047 339.188C427.238 337.516 426.312 334.809 426.268 331.068V330.474C426.268 329.55 426.444 328.274 426.797 326.645C427.15 325.017 428.231 320.682 430.039 313.641C432.245 304.971 433.347 300.372 433.347 299.844C433.347 299.316 432.509 299.007 430.833 298.919C430.612 298.919 430.436 298.919 430.304 298.919H429.973C429.532 298.919 429.245 298.919 429.113 298.919C428.98 298.919 428.826 298.853 428.65 298.721C428.473 298.589 428.407 298.435 428.451 298.259ZM445.852 319.516V319.12C445.852 315.863 444.507 314.235 441.816 314.235C441.066 314.235 440.294 314.411 439.5 314.763C438.706 315.115 437.979 315.577 437.317 316.149C436.655 316.721 436.082 317.249 435.597 317.733C435.112 318.218 434.715 318.702 434.406 319.186L434.009 319.714L432.619 325.391C431.649 329.176 431.164 331.86 431.164 333.445C431.164 335.557 431.693 337.142 432.752 338.198C433.458 338.902 434.34 339.254 435.398 339.254C436.854 339.254 438.331 338.55 439.831 337.142C440.934 336.129 441.816 334.897 442.478 333.445C443.139 331.992 443.867 329.682 444.661 326.513C445.455 323.345 445.852 321.012 445.852 319.516Z" fill="black"/>
<path d="M473.997 277.86C472.937 277.86 472.407 277.549 472.407 276.927C472.407 276.802 472.5 276.367 472.687 275.62C472.937 274.624 473.187 274.064 473.436 273.939C473.686 273.815 474.403 273.722 475.588 273.659C477.272 273.659 479.144 273.566 481.202 273.379C482.075 273.193 482.668 272.819 482.98 272.259C483.105 271.948 485.319 263.203 489.623 246.025C493.927 228.847 496.111 220.134 496.173 219.885C496.173 219.449 496.048 219.232 495.799 219.232C495.3 219.045 493.647 218.889 490.84 218.765H487.939C487.565 218.391 487.378 218.142 487.378 218.018C487.378 217.893 487.44 217.364 487.565 216.431C487.814 215.373 488.126 214.719 488.501 214.47H538.934C539.37 214.719 539.589 215.062 539.589 215.497C539.589 215.808 539.183 219.294 538.372 225.953C537.562 232.613 537.125 236.036 537.062 236.223C536.938 236.658 536.314 236.876 535.191 236.876H534.068C533.632 236.565 533.413 236.161 533.413 235.663C533.413 235.6 533.507 234.854 533.694 233.422C533.881 231.991 533.975 230.341 533.975 228.474C533.975 226.607 533.756 225.082 533.32 223.9C532.883 222.717 532.29 221.752 531.542 221.005C530.793 220.259 529.639 219.761 528.08 219.512C526.52 219.263 524.93 219.045 523.308 218.858C521.686 218.671 519.44 218.64 516.571 218.765H514.419C509.304 218.827 506.59 218.92 506.278 219.045C505.967 219.169 505.748 219.418 505.624 219.792C505.561 219.854 504.501 223.931 502.442 232.022L499.448 244.065H504.594C504.781 244.065 505.499 244.065 506.746 244.065C507.994 244.065 508.867 244.034 509.366 243.971C509.865 243.909 510.551 243.816 511.425 243.691C512.298 243.567 513.047 243.349 513.67 243.038C514.294 242.727 514.824 242.353 515.261 241.918C516.072 241.171 516.758 240.144 517.32 238.837C517.881 237.53 518.286 236.347 518.536 235.289C518.785 234.231 518.941 233.671 519.004 233.609C519.191 233.298 519.784 233.142 520.782 233.142H521.904C522.341 233.453 522.559 233.764 522.559 234.076C522.559 234.262 521.593 238.339 519.659 246.305C517.725 254.272 516.665 258.38 516.477 258.629C516.353 259.064 515.729 259.282 514.606 259.282H513.483C513.047 258.909 512.828 258.535 512.828 258.162C512.828 257.975 512.984 257.291 513.296 256.108C513.608 254.925 513.764 253.681 513.764 252.374C513.764 250.569 513.14 249.448 511.893 249.013C510.645 248.577 507.869 248.359 503.565 248.359H498.419L495.425 260.216C493.428 267.933 492.43 271.979 492.43 272.352C492.43 273.224 495.206 273.659 500.758 273.659H503.097C503.471 274.033 503.659 274.251 503.659 274.313C503.659 274.375 503.596 274.997 503.471 276.18C503.222 276.989 502.91 277.58 502.536 277.954H500.945C498.388 277.829 493.678 277.767 486.816 277.767C482.762 277.767 479.674 277.767 477.553 277.767C475.432 277.767 474.247 277.798 473.997 277.86Z" fill="black"/>
<path d="M548.852 254.614C548.852 250.32 549.164 246.243 549.788 242.384C550.412 238.526 551.129 235.196 551.94 232.395C552.751 229.594 553.905 226.856 555.402 224.18C556.899 221.503 558.084 219.418 558.958 217.925C559.831 216.431 561.141 214.813 562.887 213.07C564.634 211.327 565.663 210.269 565.975 209.896C566.287 209.522 567.067 208.869 568.314 207.935H569.531H569.905C570.778 207.935 571.215 208.215 571.215 208.776C571.215 208.962 570.685 209.616 569.624 210.736C568.564 211.856 567.285 213.506 565.788 215.684C564.291 217.862 562.763 220.539 561.203 223.713C559.644 226.887 558.334 231.181 557.273 236.596C556.213 242.011 555.683 248.017 555.683 254.614C555.683 261.212 556.213 267.187 557.273 272.539C558.334 277.892 559.613 282.217 561.11 285.516C562.607 288.814 564.135 291.491 565.694 293.545C567.254 295.598 568.564 297.248 569.624 298.493C570.685 299.737 571.215 300.391 571.215 300.453C571.215 301.013 570.747 301.293 569.811 301.293H569.531H568.314L565.694 299.053C559.831 293.762 555.558 287.165 552.876 279.261C550.193 271.357 548.852 263.141 548.852 254.614Z" fill="black"/>
<path d="M581.788 250.973C582.225 248.359 583.909 245.341 586.841 241.918C589.773 238.494 593.391 236.752 597.695 236.69C599.878 236.69 601.874 237.25 603.683 238.37C605.492 239.49 606.833 240.891 607.707 242.571C610.327 238.65 613.477 236.69 617.157 236.69C619.465 236.69 621.461 237.374 623.146 238.743C624.83 240.113 625.703 241.949 625.765 244.252C625.765 246.056 625.329 247.519 624.456 248.639C623.582 249.76 622.74 250.444 621.929 250.693C621.118 250.942 620.401 251.067 619.777 251.067C618.592 251.067 617.625 250.724 616.877 250.04C616.128 249.355 615.754 248.453 615.754 247.332C615.754 244.469 617.313 242.509 620.432 241.451C619.746 240.642 618.498 240.237 616.689 240.237C615.878 240.237 615.286 240.299 614.912 240.424C612.541 241.42 610.795 243.474 609.672 246.585C605.929 260.34 604.058 268.369 604.058 270.672C604.058 272.415 604.557 273.659 605.555 274.406C606.553 275.153 607.644 275.526 608.83 275.526C611.138 275.526 613.414 274.5 615.66 272.446C617.906 270.392 619.434 267.871 620.245 264.884C620.432 264.261 620.619 263.919 620.806 263.857C620.994 263.794 621.493 263.732 622.303 263.67H622.678C623.613 263.67 624.081 263.919 624.081 264.417C624.081 264.479 624.019 264.821 623.894 265.444C622.896 268.991 620.962 272.134 618.093 274.873C615.223 277.611 611.886 278.981 608.081 278.981C603.715 278.981 600.408 277.02 598.163 273.099C595.605 276.958 592.673 278.887 589.367 278.887H588.806C585.749 278.887 583.566 278.078 582.256 276.46C580.946 274.842 580.26 273.13 580.198 271.325C580.198 269.334 580.79 267.716 581.975 266.471C583.161 265.226 584.564 264.604 586.186 264.604C588.868 264.604 590.21 265.911 590.21 268.525C590.21 269.769 589.835 270.859 589.087 271.792C588.338 272.726 587.621 273.348 586.935 273.659C586.248 273.97 585.843 274.126 585.718 274.126L585.438 274.219C585.438 274.282 585.625 274.406 585.999 274.593C586.373 274.78 586.872 274.997 587.496 275.246C588.12 275.495 588.712 275.589 589.274 275.526C591.519 275.526 593.453 274.126 595.075 271.325C595.636 270.33 596.354 268.213 597.227 264.977C598.1 261.741 598.974 258.38 599.847 254.894C600.72 251.409 601.219 249.355 601.344 248.733C601.656 247.052 601.812 245.839 601.812 245.092C601.812 243.349 601.344 242.104 600.408 241.357C599.473 240.611 598.412 240.237 597.227 240.237C594.732 240.237 592.393 241.233 590.21 243.225C588.026 245.216 586.498 247.768 585.625 250.88C585.5 251.44 585.344 251.751 585.157 251.814C584.97 251.876 584.471 251.938 583.66 252H582.35C581.975 251.627 581.788 251.284 581.788 250.973Z" fill="black"/>
<path d="M638.21 274.686C638.21 274.686 638.21 273.908 638.21 272.352C638.21 270.796 638.709 269.458 639.707 268.338C640.705 267.218 642.046 266.657 643.73 266.657C645.477 266.657 647.037 267.435 648.409 268.991C649.781 270.547 650.499 273.286 650.561 277.207C650.561 279.385 650.28 281.501 649.719 283.555C649.157 285.609 648.502 287.383 647.754 288.877C647.005 290.37 646.194 291.646 645.321 292.704C644.448 293.762 643.699 294.603 643.075 295.225C642.452 295.847 642.046 296.127 641.859 296.065C641.61 296.065 641.204 295.785 640.643 295.225C640.081 294.665 639.801 294.26 639.801 294.011C639.801 293.762 640.144 293.264 640.83 292.518C641.516 291.771 642.296 290.837 643.169 289.717C644.042 288.597 644.853 287.041 645.602 285.049C646.35 283.057 646.849 280.786 647.099 278.234V277.114L647.005 277.207C646.881 277.269 646.725 277.331 646.537 277.394C646.35 277.456 646.163 277.549 645.976 277.674C645.789 277.798 645.508 277.86 645.134 277.86C644.76 277.86 644.385 277.892 644.011 277.954C642.327 277.954 640.955 277.425 639.894 276.367L638.21 274.686Z" fill="black"/>
<path d="M674.982 251.16C674.982 250.289 675.45 248.795 676.386 246.679C677.322 244.563 678.819 242.353 680.877 240.05C682.936 237.748 685.244 236.627 687.801 236.69C690.359 236.69 692.417 237.405 693.977 238.837C695.536 240.268 696.347 242.26 696.41 244.812C696.285 245.994 696.191 246.648 696.129 246.772C696.129 246.959 695.63 248.39 694.632 251.067C693.634 253.743 692.604 256.762 691.544 260.122C690.484 263.483 689.984 266.16 690.047 268.151C690.047 270.827 690.484 272.695 691.357 273.753C692.23 274.811 693.54 275.371 695.287 275.433C696.721 275.433 698.063 275.091 699.31 274.406C700.558 273.722 701.525 273.006 702.211 272.259C702.897 271.512 703.739 270.485 704.737 269.178C704.737 269.116 704.893 268.494 705.205 267.311C705.517 266.128 705.953 264.292 706.515 261.803C707.076 259.313 707.669 257.01 708.293 254.894C710.663 245.559 711.973 240.673 712.223 240.237C713.033 238.557 714.375 237.717 716.246 237.717C717.057 237.717 717.712 237.934 718.211 238.37C718.71 238.806 719.053 239.179 719.24 239.49C719.427 239.802 719.49 240.082 719.427 240.331C719.427 241.14 717.899 247.675 714.842 259.936C711.786 272.197 710.039 278.918 709.603 280.101C707.856 285.267 704.831 289.375 700.527 292.424C696.222 295.474 691.918 297.03 687.614 297.092C684.807 297.092 682.343 296.408 680.222 295.038C678.101 293.669 677.041 291.615 677.041 288.877C677.041 287.507 677.259 286.356 677.696 285.422C678.132 284.489 678.725 283.804 679.474 283.369C680.222 282.933 680.846 282.622 681.345 282.435C681.844 282.248 682.374 282.155 682.936 282.155C685.68 282.155 687.053 283.462 687.053 286.076C687.053 287.321 686.678 288.41 685.93 289.343C685.181 290.277 684.464 290.899 683.778 291.211C683.092 291.522 682.686 291.677 682.561 291.677L682.281 291.771C682.405 292.082 682.998 292.455 684.058 292.891C685.119 293.327 686.179 293.545 687.24 293.545H687.988C689.049 293.545 689.86 293.482 690.421 293.358C692.48 292.798 694.382 291.615 696.129 289.81C697.875 288.005 699.217 286.076 700.152 284.022C701.088 281.968 701.805 280.225 702.304 278.794C702.803 277.363 703.053 276.429 703.053 275.993L702.491 276.367C702.117 276.616 701.525 276.958 700.714 277.394C699.903 277.829 699.092 278.203 698.281 278.514C697.033 278.825 695.817 278.981 694.632 278.981C691.762 278.981 689.236 278.296 687.053 276.927C684.869 275.558 683.435 273.348 682.749 270.298C682.686 269.863 682.655 268.898 682.655 267.404C682.655 263.857 683.747 259.22 685.93 253.494C688.113 247.768 689.205 244.127 689.205 242.571C689.205 242.509 689.205 242.447 689.205 242.384C689.205 241.824 689.205 241.451 689.205 241.264C689.205 241.077 689.08 240.86 688.83 240.611C688.581 240.362 688.238 240.237 687.801 240.237H687.427C685.992 240.237 684.682 240.828 683.497 242.011C682.312 243.194 681.376 244.469 680.69 245.839C680.004 247.208 679.474 248.515 679.099 249.76C678.725 251.004 678.476 251.689 678.351 251.814C678.226 251.938 677.727 252 676.854 252H675.544C675.169 251.627 674.982 251.347 674.982 251.16Z" fill="black"/>
<path d="M725.603 208.029L725.977 207.935C726.289 207.935 726.601 207.935 726.913 207.935H728.035L730.655 210.176C736.519 215.466 740.792 222.064 743.474 229.968C746.157 237.872 747.498 246.088 747.498 254.614C747.498 258.847 747.186 262.923 746.562 266.844C745.938 270.765 745.221 274.095 744.41 276.834C743.599 279.572 742.445 282.311 740.948 285.049C739.451 287.788 738.266 289.873 737.392 291.304C736.519 292.735 735.24 294.323 733.556 296.065C731.872 297.808 730.874 298.835 730.562 299.146C730.25 299.457 729.533 300.049 728.41 300.92C728.223 301.107 728.098 301.231 728.035 301.293H726.913C726.414 301.293 726.071 301.293 725.883 301.293C725.696 301.293 725.54 301.2 725.416 301.013C725.291 300.827 725.197 300.546 725.135 300.173C725.197 300.111 725.54 299.706 726.164 298.959C735.833 288.939 740.667 274.157 740.667 254.614C740.667 235.071 735.833 220.29 726.164 210.269C725.54 209.522 725.197 209.118 725.135 209.056C725.135 208.558 725.291 208.215 725.603 208.029Z" fill="black"/>
<path d="M788.107 245.559C788.107 244.749 788.543 244.127 789.417 243.691H849.02C849.955 244.189 850.423 244.812 850.423 245.559C850.423 246.243 849.986 246.834 849.113 247.332L819.358 247.426H789.604C788.606 247.115 788.107 246.492 788.107 245.559ZM788.107 263.67C788.107 262.736 788.606 262.114 789.604 261.803H849.113C849.986 262.425 850.423 263.048 850.423 263.67C850.423 264.479 849.955 265.102 849.02 265.537H789.417C788.543 265.102 788.107 264.479 788.107 263.67Z" fill="black"/>
<path d="M818.661 179.989C817.073 179.989 815.661 180.253 814.426 180.781C813.191 181.309 812.353 181.837 811.912 182.365L811.25 183.092C811.339 183.092 811.449 183.114 811.581 183.158C811.714 183.202 811.956 183.29 812.309 183.422C812.662 183.554 812.993 183.752 813.301 184.016C813.61 184.28 813.875 184.632 814.095 185.072C814.316 185.512 814.426 186.04 814.426 186.656C814.426 187.669 814.095 188.505 813.434 189.165C812.772 189.825 811.934 190.155 810.92 190.155C809.905 190.155 809.067 189.847 808.405 189.231C807.744 188.615 807.391 187.779 807.347 186.722C807.347 184.126 808.339 182.035 810.324 180.451C812.309 178.867 814.492 177.92 816.874 177.612C816.962 177.612 817.205 177.612 817.602 177.612C817.999 177.612 818.308 177.59 818.528 177.546H818.793C821.131 177.546 823.16 177.832 824.88 178.405C826.6 178.977 827.879 179.769 828.717 180.781C829.555 181.793 830.195 182.762 830.636 183.686C831.077 184.61 831.276 185.6 831.232 186.656C831.232 189.473 830.019 191.783 827.593 193.588C823.446 196.536 820.932 200.035 820.05 204.084C819.83 205.14 819.719 206.505 819.719 208.177V209.299C819.719 210.135 819.653 210.619 819.521 210.751C819.388 210.883 819.014 210.972 818.396 211.016C817.778 211.06 817.404 210.994 817.271 210.817C817.139 210.641 817.073 210.267 817.073 209.695V207.649C817.161 204.524 817.558 201.84 818.264 199.595C818.969 197.351 819.741 195.722 820.579 194.71C821.417 193.698 822.233 192.686 823.027 191.673C823.821 190.661 824.329 189.649 824.549 188.637C824.637 188.241 824.681 187.427 824.681 186.194V185.336C824.681 184.588 824.637 183.972 824.549 183.488C824.461 183.004 824.218 182.453 823.821 181.837C823.424 181.221 822.829 180.759 822.035 180.451C821.241 180.143 820.116 179.989 818.661 179.989ZM814.426 220.059C814.426 218.827 814.823 217.859 815.617 217.155C816.411 216.451 817.381 216.099 818.528 216.099C819.543 216.187 820.425 216.561 821.175 217.221C821.925 217.881 822.3 218.827 822.3 220.059C822.3 221.38 821.925 222.37 821.175 223.03C820.425 223.69 819.499 224.02 818.396 224.02C817.293 224.02 816.367 223.69 815.617 223.03C814.867 222.37 814.47 221.38 814.426 220.059Z" fill="black"/>
<path d="M885.979 273.659H887.289C889.722 273.659 891.188 273.224 891.687 272.352V271.606C891.687 271.045 891.687 270.33 891.687 269.458C891.687 268.587 891.687 267.56 891.687 266.377C891.687 265.195 891.718 263.857 891.78 262.363C891.843 260.869 891.843 259.313 891.78 257.695C891.718 256.077 891.718 254.365 891.78 252.56C891.843 250.756 891.843 248.982 891.78 247.239C891.78 244.936 891.78 242.509 891.78 239.957C891.78 237.405 891.78 235.071 891.78 232.955C891.78 230.839 891.78 228.972 891.78 227.354C891.78 225.736 891.749 224.366 891.687 223.246C891.624 222.126 891.624 221.597 891.687 221.659C891.5 220.476 891.063 219.698 890.377 219.325C889.691 218.952 888.287 218.672 886.166 218.485H884.482V216.338C884.482 214.906 884.544 214.19 884.669 214.19L885.605 214.097C886.229 214.035 887.133 213.973 888.318 213.91C889.503 213.848 890.657 213.786 891.78 213.724C892.841 213.661 893.995 213.599 895.242 213.537C896.49 213.475 897.426 213.381 898.049 213.257C898.673 213.132 899.016 213.101 899.079 213.163H899.359V242.571C899.359 262.301 899.39 272.228 899.453 272.352C899.702 272.85 900.077 273.193 900.576 273.379C901.886 273.566 903.414 273.659 905.161 273.659H906.658V277.954H905.909L903.757 277.86C902.322 277.798 900.794 277.767 899.172 277.767C897.55 277.767 896.365 277.736 895.617 277.674C894.868 277.612 893.683 277.612 892.061 277.674C890.439 277.736 888.88 277.798 887.383 277.86L885.23 277.954H884.482V273.659H885.979Z" fill="black"/>
<path d="M914.985 221.099C914.985 219.356 915.547 217.987 916.669 216.991C917.792 215.995 919.164 215.497 920.786 215.497C922.221 215.622 923.469 216.151 924.529 217.084C925.59 218.018 926.12 219.356 926.12 221.099C926.12 222.966 925.59 224.366 924.529 225.3C923.469 226.234 922.159 226.7 920.599 226.7C919.04 226.7 917.73 226.234 916.669 225.3C915.609 224.366 915.047 222.966 914.985 221.099ZM931.64 277.954C930.705 277.767 927.461 277.674 921.909 277.674C921.223 277.674 920.069 277.674 918.447 277.674C916.825 277.674 915.266 277.736 913.769 277.86L911.71 277.954H910.962V273.659H912.459C914.205 273.659 915.734 273.566 917.044 273.379C917.605 273.13 917.948 272.788 918.073 272.352C918.198 271.917 918.26 270.61 918.26 268.431V258.815V250.6C918.26 247.364 918.198 245.31 918.073 244.438C917.948 243.567 917.511 242.976 916.763 242.665C915.89 242.229 914.424 242.011 912.365 242.011H911.336V239.864C911.336 238.432 911.398 237.717 911.523 237.717L912.459 237.623C913.083 237.561 913.956 237.499 915.079 237.436C916.201 237.374 917.324 237.312 918.447 237.25C919.508 237.188 920.63 237.125 921.816 237.063C923.001 237.001 923.905 236.907 924.529 236.783C925.153 236.659 925.496 236.627 925.558 236.69H925.839V272.166C926.151 272.788 926.525 273.161 926.962 273.286C927.399 273.41 928.49 273.535 930.237 273.659H932.389V277.954H931.64Z" fill="black"/>
<path d="M938.845 273.659H940.155C942.588 273.659 944.054 273.224 944.553 272.352V271.606C944.553 271.045 944.553 270.33 944.553 269.458C944.553 268.587 944.553 267.622 944.553 266.564C944.553 265.506 944.584 264.292 944.646 262.923C944.709 261.554 944.709 260.247 944.646 259.002C944.646 257.073 944.646 255.019 944.646 252.841C944.646 250.662 944.615 248.826 944.553 247.332V245.185C944.366 244.003 943.929 243.225 943.243 242.851C942.557 242.478 941.153 242.198 939.032 242.011H937.348V239.864C937.348 238.432 937.41 237.717 937.535 237.717L938.471 237.623C939.095 237.561 939.968 237.499 941.091 237.436C942.214 237.374 943.368 237.312 944.553 237.25C945.613 237.188 946.736 237.125 947.921 237.063C949.106 237.001 950.011 236.907 950.635 236.783C951.258 236.658 951.602 236.627 951.664 236.69H951.945V240.424C951.945 242.789 951.976 243.972 952.038 243.972C952.101 243.972 952.257 243.816 952.506 243.505C952.756 243.194 953.13 242.727 953.629 242.104C954.128 241.482 954.72 240.922 955.407 240.424C956.093 239.926 956.997 239.335 958.12 238.65C959.243 237.966 960.428 237.468 961.676 237.156C962.923 236.845 964.514 236.69 966.448 236.69C967.383 236.69 968.257 236.752 969.068 236.876C969.879 237.001 970.596 237.188 971.22 237.436C971.843 237.685 972.436 237.934 972.997 238.183C973.559 238.432 974.027 238.712 974.401 239.024C974.775 239.335 975.118 239.677 975.43 240.051C975.742 240.424 976.023 240.766 976.272 241.077C976.522 241.389 976.74 241.731 976.927 242.104C977.114 242.478 977.239 242.789 977.302 243.038C977.364 243.287 977.458 243.536 977.582 243.785L977.769 244.252L978.05 243.878C978.237 243.629 978.424 243.38 978.612 243.131C978.799 242.882 979.079 242.54 979.454 242.104C979.828 241.669 980.233 241.264 980.67 240.891C981.107 240.517 981.575 240.113 982.074 239.677C982.573 239.241 983.196 238.868 983.945 238.557C984.694 238.246 985.411 237.934 986.097 237.623C986.783 237.312 987.594 237.094 988.53 236.97C989.465 236.845 990.432 236.752 991.43 236.69C999.29 236.69 1003.56 240.206 1004.25 247.239C1004.31 247.675 1004.34 252 1004.34 260.216V268.245C1004.34 270.61 1004.41 272.01 1004.53 272.446C1004.65 272.881 1005 273.193 1005.56 273.379C1006.87 273.566 1008.4 273.659 1010.14 273.659H1011.64V277.954H1010.89L1008.74 277.86C1007.24 277.798 1005.65 277.767 1003.97 277.767C1002.28 277.767 1001.1 277.736 1000.41 277.674C993.988 277.674 990.495 277.767 989.933 277.954H989.185V273.659H990.682C994.487 273.659 996.39 273.161 996.39 272.166C996.452 272.041 996.483 267.747 996.483 259.282C996.421 250.88 996.358 246.43 996.296 245.932C995.922 244.189 995.298 242.882 994.425 242.011C993.551 241.14 992.803 240.611 992.179 240.424C991.555 240.237 990.744 240.175 989.746 240.237C986.939 240.237 984.475 241.295 982.354 243.411C980.67 245.092 979.61 246.803 979.173 248.546C978.736 250.289 978.487 252.872 978.424 256.295V262.27V267.871C978.424 269.738 978.456 270.983 978.518 271.606C978.58 272.228 978.674 272.632 978.799 272.819C978.923 273.006 979.204 273.193 979.641 273.379C980.951 273.566 982.479 273.659 984.226 273.659H985.723V277.954H984.974L982.729 277.86C981.294 277.798 979.734 277.767 978.05 277.767C976.366 277.767 975.181 277.736 974.495 277.674C968.07 277.674 964.576 277.767 964.015 277.954H963.266V273.659H964.763C968.569 273.659 970.471 273.161 970.471 272.166C970.534 272.041 970.565 267.747 970.565 259.282C970.502 250.88 970.44 246.43 970.378 245.932C970.003 244.189 969.38 242.882 968.506 242.011C967.633 241.14 966.884 240.611 966.261 240.424C965.637 240.237 964.826 240.175 963.828 240.237C961.021 240.237 958.557 241.295 956.436 243.411C954.752 245.092 953.691 246.803 953.255 248.546C952.818 250.289 952.568 252.872 952.506 256.295V262.27V267.871C952.506 269.738 952.537 270.983 952.6 271.606C952.662 272.228 952.756 272.632 952.88 272.819C953.005 273.006 953.286 273.193 953.722 273.379C955.032 273.566 956.561 273.659 958.307 273.659H959.804V277.954H959.056L956.904 277.86C955.407 277.798 953.816 277.767 952.132 277.767C950.448 277.767 949.262 277.736 948.576 277.674C942.151 277.674 938.658 277.767 938.097 277.954H937.348V273.659H938.845Z" fill="black"/>
<path d="M884.842 322.024C884.842 321.408 885.173 320.352 885.835 318.856C886.496 317.359 887.555 315.797 889.011 314.169C890.466 312.54 892.098 311.748 893.907 311.792C895.715 311.792 897.171 312.298 898.273 313.31C899.376 314.323 899.949 315.731 899.994 317.535C899.905 318.372 899.839 318.834 899.795 318.922C899.795 319.054 899.442 320.066 898.736 321.958C898.031 323.851 897.303 325.985 896.553 328.362C895.803 330.738 895.45 332.631 895.495 334.039C895.495 335.931 895.803 337.252 896.421 338C897.038 338.748 897.965 339.144 899.2 339.188C900.214 339.188 901.162 338.946 902.045 338.462C902.927 337.978 903.61 337.472 904.096 336.944C904.581 336.415 905.176 335.689 905.882 334.765C905.882 334.721 905.992 334.281 906.213 333.445C906.433 332.609 906.742 331.31 907.139 329.55C907.536 327.79 907.955 326.161 908.396 324.665C910.072 318.064 910.999 314.609 911.175 314.301C911.749 313.112 912.697 312.518 914.02 312.518C914.594 312.518 915.057 312.672 915.41 312.98C915.762 313.288 916.005 313.553 916.137 313.773C916.27 313.993 916.314 314.191 916.27 314.367C916.27 314.939 915.189 319.56 913.028 328.23C910.866 336.9 909.631 341.653 909.323 342.489C908.088 346.142 905.948 349.046 902.905 351.203C899.861 353.359 896.818 354.459 893.774 354.503C891.789 354.503 890.047 354.019 888.547 353.051C887.048 352.083 886.298 350.63 886.298 348.694C886.298 347.726 886.452 346.912 886.761 346.252C887.07 345.591 887.489 345.107 888.018 344.799C888.547 344.491 888.989 344.271 889.341 344.139C889.694 344.007 890.069 343.941 890.466 343.941C892.407 343.941 893.377 344.865 893.377 346.714C893.377 347.594 893.113 348.364 892.583 349.024C892.054 349.684 891.547 350.124 891.062 350.344C890.576 350.564 890.29 350.674 890.202 350.674L890.003 350.74C890.091 350.961 890.51 351.225 891.26 351.533C892.01 351.841 892.76 351.995 893.51 351.995H894.039C894.789 351.995 895.362 351.951 895.759 351.863C897.215 351.467 898.56 350.63 899.795 349.354C901.03 348.078 901.978 346.714 902.64 345.261C903.302 343.809 903.809 342.577 904.162 341.565C904.515 340.552 904.691 339.892 904.691 339.584L904.294 339.848C904.03 340.024 903.61 340.266 903.037 340.574C902.464 340.882 901.89 341.146 901.317 341.366C900.435 341.587 899.575 341.697 898.736 341.697C896.708 341.697 894.921 341.212 893.377 340.244C891.834 339.276 890.819 337.714 890.334 335.557C890.29 335.249 890.268 334.567 890.268 333.511C890.268 331.002 891.04 327.724 892.583 323.675C894.127 319.626 894.899 317.051 894.899 315.951C894.899 315.907 894.899 315.863 894.899 315.819C894.899 315.423 894.899 315.159 894.899 315.027C894.899 314.895 894.811 314.741 894.634 314.565C894.458 314.389 894.215 314.301 893.907 314.301H893.642C892.627 314.301 891.701 314.719 890.863 315.555C890.025 316.391 889.363 317.293 888.878 318.262C888.393 319.23 888.018 320.154 887.753 321.034C887.489 321.914 887.312 322.398 887.224 322.486C887.136 322.574 886.783 322.618 886.166 322.618H885.239C884.975 322.354 884.842 322.156 884.842 322.024Z" fill="black"/>
<path d="M920.371 325.325C920.371 325.325 920.371 325.039 920.371 324.467C920.371 323.895 920.68 323.455 921.298 323.147H971.912C966.796 319.318 963.642 314.411 962.451 308.425C962.451 308.381 962.451 308.315 962.451 308.227C962.451 308.139 962.429 308.073 962.385 308.029C962.385 307.501 962.76 307.237 963.51 307.237H963.708C964.105 307.237 964.37 307.259 964.502 307.303C964.634 307.347 964.767 307.435 964.899 307.567C965.031 307.699 965.097 307.897 965.097 308.161C965.097 308.425 965.164 308.778 965.296 309.218C965.428 309.658 965.605 310.208 965.825 310.868C966.796 313.817 968.406 316.457 970.655 318.79C972.905 321.122 975.529 322.773 978.529 323.741C978.925 323.873 979.124 324.115 979.124 324.467C979.124 324.731 979.014 324.929 978.793 325.061C978.573 325.193 978.043 325.413 977.205 325.721C976.367 326.029 975.529 326.447 974.691 326.975C972.883 328.12 971.317 329.44 969.994 330.936C968.67 332.433 967.678 333.907 967.016 335.359C966.355 336.812 965.891 337.912 965.627 338.66C965.362 339.408 965.186 340.09 965.097 340.706C965.009 341.146 964.899 341.411 964.767 341.499C964.634 341.587 964.281 341.653 963.708 341.697C962.826 341.697 962.385 341.455 962.385 340.97C962.385 340.662 962.495 340.112 962.716 339.32C964.127 333.775 967.193 329.264 971.912 325.787H921.298C920.68 325.479 920.371 325.039 920.371 324.467V325.325Z" fill="black"/>
<path d="M987.99 298.259C987.99 297.819 988.078 297.313 988.254 296.741C988.431 296.169 988.695 295.883 989.048 295.883C989.092 295.883 990.68 295.773 993.812 295.553C996.944 295.333 998.554 295.201 998.642 295.157C999.171 295.157 999.436 295.355 999.436 295.751C999.436 296.147 998.686 299.294 997.186 305.191C996.834 306.687 996.459 308.227 996.062 309.812C995.665 311.396 995.334 312.584 995.069 313.377L994.805 314.631C994.805 314.763 994.937 314.697 995.201 314.433C997.363 312.672 999.59 311.792 1001.88 311.792C1004.62 311.792 1006.82 312.804 1008.5 314.829C1010.18 316.853 1011.04 319.406 1011.08 322.486C1011.08 327.372 1009.34 331.794 1005.85 335.755C1002.37 339.716 998.62 341.697 994.606 341.697C992.401 341.697 990.394 340.86 988.585 339.188C986.777 337.516 985.85 334.809 985.806 331.068V330.474C985.806 329.55 985.983 328.274 986.336 326.645C986.689 325.017 987.769 320.682 989.578 313.641C991.783 304.971 992.886 300.372 992.886 299.844C992.886 299.316 992.048 299.007 990.372 298.919C990.151 298.919 989.975 298.919 989.842 298.919H989.511C989.07 298.919 988.784 298.919 988.651 298.919C988.519 298.919 988.365 298.853 988.188 298.721C988.012 298.589 987.946 298.435 987.99 298.259ZM1005.39 319.516V319.12C1005.39 315.863 1004.05 314.235 1001.35 314.235C1000.6 314.235 999.833 314.411 999.039 314.763C998.245 315.115 997.517 315.577 996.856 316.149C996.194 316.721 995.621 317.249 995.135 317.733C994.65 318.218 994.253 318.702 993.944 319.186L993.547 319.714L992.158 325.391C991.188 329.176 990.702 331.86 990.702 333.445C990.702 335.557 991.232 337.142 992.29 338.198C992.996 338.902 993.878 339.254 994.937 339.254C996.392 339.254 997.87 338.55 999.37 337.142C1000.47 336.129 1001.35 334.897 1002.02 333.445C1002.68 331.992 1003.41 329.682 1004.2 326.513C1004.99 323.345 1005.39 321.012 1005.39 319.516Z" fill="black"/>
<path d="M1037.28 273.659H1038.59C1041.02 273.659 1042.49 273.224 1042.99 272.352V271.605C1042.99 271.045 1042.99 270.33 1042.99 269.458C1042.99 268.587 1042.99 267.56 1042.99 266.377C1042.99 265.195 1043.02 263.857 1043.08 262.363C1043.14 260.869 1043.14 259.313 1043.08 257.695C1043.02 256.077 1043.02 254.365 1043.08 252.56C1043.14 250.755 1043.14 248.982 1043.08 247.239C1043.08 244.936 1043.08 242.509 1043.08 239.957C1043.08 237.405 1043.08 235.071 1043.08 232.955C1043.08 230.839 1043.08 228.972 1043.08 227.354C1043.08 225.736 1043.05 224.366 1042.99 223.246C1042.92 222.126 1042.92 221.597 1042.99 221.659C1042.8 220.476 1042.36 219.698 1041.68 219.325C1040.99 218.952 1039.59 218.671 1037.47 218.485H1035.78V216.338C1035.78 214.906 1035.84 214.19 1035.97 214.19L1036.9 214.097C1037.53 214.035 1038.43 213.972 1039.62 213.91C1040.8 213.848 1041.96 213.786 1043.08 213.723C1044.14 213.661 1045.29 213.599 1046.54 213.537C1047.79 213.475 1048.73 213.381 1049.35 213.257C1049.97 213.132 1050.32 213.101 1050.38 213.163H1050.66V242.571C1050.66 262.301 1050.69 272.228 1050.75 272.352C1051 272.85 1051.38 273.193 1051.88 273.379C1053.19 273.566 1054.71 273.659 1056.46 273.659H1057.96V277.954H1057.21L1055.06 277.86C1053.62 277.798 1052.09 277.767 1050.47 277.767C1048.85 277.767 1047.66 277.736 1046.92 277.674C1046.17 277.611 1044.98 277.611 1043.36 277.674C1041.74 277.736 1040.18 277.798 1038.68 277.86L1036.53 277.954H1035.78V273.659H1037.28Z" fill="black"/>
<path d="M1066.29 221.099C1066.29 219.356 1066.85 217.987 1067.97 216.991C1069.09 215.995 1070.46 215.497 1072.09 215.497C1073.52 215.622 1074.77 216.151 1075.83 217.084C1076.89 218.018 1077.42 219.356 1077.42 221.099C1077.42 222.966 1076.89 224.366 1075.83 225.3C1074.77 226.233 1073.46 226.7 1071.9 226.7C1070.34 226.7 1069.03 226.233 1067.97 225.3C1066.91 224.366 1066.35 222.966 1066.29 221.099ZM1082.94 277.954C1082 277.767 1078.76 277.674 1073.21 277.674C1072.52 277.674 1071.37 277.674 1069.75 277.674C1068.13 277.674 1066.57 277.736 1065.07 277.86L1063.01 277.954H1062.26V273.659H1063.76C1065.51 273.659 1067.03 273.566 1068.34 273.379C1068.9 273.13 1069.25 272.788 1069.37 272.352C1069.5 271.917 1069.56 270.61 1069.56 268.431V258.815V250.6C1069.56 247.363 1069.5 245.31 1069.37 244.438C1069.25 243.567 1068.81 242.976 1068.06 242.664C1067.19 242.229 1065.72 242.011 1063.67 242.011H1062.64V239.864C1062.64 238.432 1062.7 237.717 1062.82 237.717L1063.76 237.623C1064.38 237.561 1065.26 237.499 1066.38 237.436C1067.5 237.374 1068.62 237.312 1069.75 237.25C1070.81 237.187 1071.93 237.125 1073.12 237.063C1074.3 237.001 1075.21 236.907 1075.83 236.783C1076.45 236.658 1076.8 236.627 1076.86 236.69H1077.14V272.166C1077.45 272.788 1077.83 273.161 1078.26 273.286C1078.7 273.41 1079.79 273.535 1081.54 273.659H1083.69V277.954H1082.94Z" fill="black"/>
<path d="M1090.14 273.659H1091.45C1093.89 273.659 1095.35 273.224 1095.85 272.352V271.605C1095.85 271.045 1095.85 270.33 1095.85 269.458C1095.85 268.587 1095.85 267.622 1095.85 266.564C1095.85 265.506 1095.88 264.292 1095.95 262.923C1096.01 261.554 1096.01 260.247 1095.95 259.002C1095.95 257.073 1095.95 255.019 1095.95 252.84C1095.95 250.662 1095.91 248.826 1095.85 247.332V245.185C1095.67 244.003 1095.23 243.225 1094.54 242.851C1093.86 242.478 1092.45 242.198 1090.33 242.011H1088.65V239.864C1088.65 238.432 1088.71 237.716 1088.83 237.716L1089.77 237.623C1090.39 237.561 1091.27 237.499 1092.39 237.436C1093.51 237.374 1094.67 237.312 1095.85 237.25C1096.91 237.187 1098.04 237.125 1099.22 237.063C1100.41 237.001 1101.31 236.907 1101.93 236.783C1102.56 236.658 1102.9 236.627 1102.96 236.69H1103.24V240.424C1103.24 242.789 1103.28 243.971 1103.34 243.971C1103.4 243.971 1103.56 243.816 1103.81 243.505C1104.06 243.193 1104.43 242.727 1104.93 242.104C1105.43 241.482 1106.02 240.922 1106.71 240.424C1107.39 239.926 1108.3 239.335 1109.42 238.65C1110.54 237.965 1111.73 237.468 1112.98 237.156C1114.22 236.845 1115.81 236.69 1117.75 236.69C1118.68 236.69 1119.56 236.752 1120.37 236.876C1121.18 237.001 1121.9 237.187 1122.52 237.436C1123.14 237.685 1123.74 237.934 1124.3 238.183C1124.86 238.432 1125.33 238.712 1125.7 239.024C1126.08 239.335 1126.42 239.677 1126.73 240.05C1127.04 240.424 1127.32 240.766 1127.57 241.077C1127.82 241.389 1128.04 241.731 1128.23 242.104C1128.41 242.478 1128.54 242.789 1128.6 243.038C1128.66 243.287 1128.76 243.536 1128.88 243.785L1129.07 244.252L1129.35 243.878C1129.54 243.629 1129.72 243.38 1129.91 243.131C1130.1 242.882 1130.38 242.54 1130.75 242.104C1131.13 241.669 1131.53 241.264 1131.97 240.891C1132.41 240.517 1132.87 240.113 1133.37 239.677C1133.87 239.241 1134.5 238.868 1135.24 238.557C1135.99 238.246 1136.71 237.934 1137.4 237.623C1138.08 237.312 1138.89 237.094 1139.83 236.97C1140.77 236.845 1141.73 236.752 1142.73 236.69C1150.59 236.69 1154.86 240.206 1155.55 247.239C1155.61 247.675 1155.64 252 1155.64 260.216V268.245C1155.64 270.61 1155.71 272.01 1155.83 272.446C1155.95 272.881 1156.3 273.193 1156.86 273.379C1158.17 273.566 1159.7 273.659 1161.44 273.659H1162.94V277.954H1162.19L1160.04 277.86C1158.54 277.798 1156.95 277.767 1155.27 277.767C1153.58 277.767 1152.4 277.736 1151.71 277.674C1145.29 277.674 1141.79 277.767 1141.23 277.954H1140.48V273.659H1141.98C1145.79 273.659 1147.69 273.161 1147.69 272.166C1147.75 272.041 1147.78 267.747 1147.78 259.282C1147.72 250.88 1147.66 246.43 1147.6 245.932C1147.22 244.189 1146.6 242.882 1145.72 242.011C1144.85 241.14 1144.1 240.611 1143.48 240.424C1142.86 240.237 1142.04 240.175 1141.05 240.237C1138.24 240.237 1135.78 241.295 1133.65 243.411C1131.97 245.092 1130.91 246.803 1130.47 248.546C1130.04 250.289 1129.79 252.872 1129.72 256.295V262.27V267.871C1129.72 269.738 1129.76 270.983 1129.82 271.605C1129.88 272.228 1129.97 272.632 1130.1 272.819C1130.22 273.006 1130.5 273.193 1130.94 273.379C1132.25 273.566 1133.78 273.659 1135.53 273.659H1137.02V277.954H1136.27L1134.03 277.86C1132.59 277.798 1131.03 277.767 1129.35 277.767C1127.67 277.767 1126.48 277.736 1125.79 277.674C1119.37 277.674 1115.88 277.767 1115.31 277.954H1114.57V273.659H1116.06C1119.87 273.659 1121.77 273.161 1121.77 272.166C1121.83 272.041 1121.86 267.747 1121.86 259.282C1121.8 250.88 1121.74 246.43 1121.68 245.932C1121.3 244.189 1120.68 242.882 1119.81 242.011C1118.93 241.14 1118.18 240.611 1117.56 240.424C1116.94 240.237 1116.13 240.175 1115.13 240.237C1112.32 240.237 1109.86 241.295 1107.74 243.411C1106.05 245.092 1104.99 246.803 1104.55 248.546C1104.12 250.289 1103.87 252.872 1103.81 256.295V262.27V267.871C1103.81 269.738 1103.84 270.983 1103.9 271.605C1103.96 272.228 1104.06 272.632 1104.18 272.819C1104.3 273.006 1104.59 273.193 1105.02 273.379C1106.33 273.566 1107.86 273.659 1109.61 273.659H1111.1V277.954H1110.36L1108.2 277.86C1106.71 277.798 1105.12 277.767 1103.43 277.767C1101.75 277.767 1100.56 277.736 1099.88 277.674C1093.45 277.674 1089.96 277.767 1089.4 277.954H1088.65V273.659H1090.14Z" fill="black"/>
<path d="M1032.49 315.824C1032.79 313.976 1033.99 311.841 1036.06 309.421C1038.13 307 1040.69 305.768 1043.73 305.724C1045.28 305.724 1046.69 306.12 1047.97 306.912C1049.25 307.704 1050.2 308.695 1050.81 309.883C1052.67 307.11 1054.89 305.724 1057.5 305.724C1059.13 305.724 1060.54 306.208 1061.73 307.176C1062.92 308.144 1063.54 309.443 1063.58 311.071C1063.58 312.347 1063.27 313.382 1062.66 314.174C1062.04 314.966 1061.44 315.45 1060.87 315.626C1060.3 315.802 1059.79 315.89 1059.35 315.89C1058.51 315.89 1057.83 315.648 1057.3 315.164C1056.77 314.68 1056.5 314.042 1056.5 313.25C1056.5 311.225 1057.61 309.839 1059.81 309.091C1059.33 308.519 1058.44 308.232 1057.16 308.232C1056.59 308.232 1056.17 308.276 1055.91 308.364C1054.23 309.069 1053 310.521 1052.2 312.721C1049.56 322.447 1048.23 328.125 1048.23 329.753C1048.23 330.985 1048.59 331.865 1049.29 332.394C1050 332.922 1050.77 333.186 1051.61 333.186C1053.24 333.186 1054.85 332.46 1056.44 331.007C1058.02 329.555 1059.1 327.773 1059.68 325.66C1059.81 325.22 1059.94 324.978 1060.08 324.934C1060.21 324.89 1060.56 324.846 1061.13 324.802H1061.4C1062.06 324.802 1062.39 324.978 1062.39 325.33C1062.39 325.374 1062.35 325.616 1062.26 326.056C1061.55 328.565 1060.19 330.787 1058.16 332.724C1056.13 334.66 1053.77 335.628 1051.08 335.628C1047.99 335.628 1045.65 334.242 1044.06 331.469C1042.26 334.198 1040.18 335.562 1037.84 335.562H1037.45C1035.29 335.562 1033.74 334.99 1032.82 333.846C1031.89 332.702 1031.4 331.491 1031.36 330.215C1031.36 328.807 1031.78 327.663 1032.62 326.782C1033.46 325.902 1034.45 325.462 1035.6 325.462C1037.49 325.462 1038.44 326.386 1038.44 328.235C1038.44 329.115 1038.18 329.885 1037.65 330.545C1037.12 331.205 1036.61 331.645 1036.12 331.865C1035.64 332.086 1035.35 332.196 1035.26 332.196L1035.07 332.262C1035.07 332.306 1035.2 332.394 1035.46 332.526C1035.73 332.658 1036.08 332.812 1036.52 332.988C1036.96 333.164 1037.38 333.23 1037.78 333.186C1039.37 333.186 1040.73 332.196 1041.88 330.215C1042.28 329.511 1042.78 328.015 1043.4 325.726C1044.02 323.438 1044.64 321.061 1045.25 318.597C1045.87 316.132 1046.23 314.68 1046.31 314.24C1046.53 313.051 1046.64 312.193 1046.64 311.665C1046.64 310.433 1046.31 309.553 1045.65 309.025C1044.99 308.496 1044.24 308.232 1043.4 308.232C1041.64 308.232 1039.98 308.937 1038.44 310.345C1036.9 311.753 1035.82 313.558 1035.2 315.758C1035.11 316.154 1035 316.374 1034.87 316.418C1034.74 316.462 1034.38 316.506 1033.81 316.55H1032.88C1032.62 316.286 1032.49 316.044 1032.49 315.824Z" fill="black"/>
<path d="M1070.93 319.257C1070.93 319.257 1070.93 318.971 1070.93 318.399C1070.93 317.827 1071.23 317.386 1071.85 317.078H1122.47C1117.35 313.25 1114.2 308.342 1113.01 302.357C1113.01 302.313 1113.01 302.247 1113.01 302.159C1113.01 302.071 1112.98 302.005 1112.94 301.961C1112.94 301.433 1113.31 301.169 1114.06 301.169H1114.26C1114.66 301.169 1114.92 301.191 1115.06 301.235C1115.19 301.279 1115.32 301.367 1115.45 301.499C1115.59 301.631 1115.65 301.829 1115.65 302.093C1115.65 302.357 1115.72 302.709 1115.85 303.149C1115.98 303.589 1116.16 304.14 1116.38 304.8C1117.35 307.748 1118.96 310.389 1121.21 312.721C1123.46 315.054 1126.08 316.704 1129.08 317.672C1129.48 317.804 1129.68 318.047 1129.68 318.399C1129.68 318.663 1129.57 318.861 1129.35 318.993C1129.13 319.125 1128.6 319.345 1127.76 319.653C1126.92 319.961 1126.08 320.379 1125.25 320.907C1123.44 322.051 1121.87 323.372 1120.55 324.868C1119.22 326.364 1118.23 327.839 1117.57 329.291C1116.91 330.743 1116.45 331.843 1116.18 332.592C1115.92 333.34 1115.74 334.022 1115.65 334.638C1115.56 335.078 1115.45 335.342 1115.32 335.43C1115.19 335.518 1114.84 335.584 1114.26 335.628C1113.38 335.628 1112.94 335.386 1112.94 334.902C1112.94 334.594 1113.05 334.044 1113.27 333.252C1114.68 327.707 1117.75 323.196 1122.47 319.719H1071.85C1071.23 319.411 1070.93 318.971 1070.93 318.399V319.257Z" fill="black"/>
<path d="M1135.9 324.538C1135.9 320.093 1137.57 315.868 1140.93 311.863C1144.28 307.858 1148.05 305.834 1152.24 305.79C1154.49 305.79 1156.47 306.868 1158.19 309.025C1158.9 307.704 1159.91 307.044 1161.24 307.044C1161.81 307.044 1162.32 307.22 1162.76 307.572C1163.2 307.924 1163.42 308.365 1163.42 308.893C1163.42 309.465 1162.61 312.985 1160.97 319.455C1159.34 325.924 1158.5 329.577 1158.46 330.413C1158.46 331.513 1158.61 332.24 1158.92 332.592C1159.23 332.944 1159.69 333.142 1160.31 333.186C1160.71 333.142 1161.15 332.944 1161.64 332.592C1162.56 331.711 1163.47 329.599 1164.35 326.254C1164.61 325.374 1164.83 324.912 1165.01 324.868C1165.1 324.824 1165.32 324.802 1165.67 324.802H1165.94C1166.77 324.802 1167.19 325 1167.19 325.396C1167.19 325.66 1167.08 326.254 1166.86 327.179C1166.64 328.103 1166.2 329.291 1165.54 330.743C1164.88 332.196 1164.17 333.296 1163.42 334.044C1162.85 334.616 1162.14 335.078 1161.3 335.43C1160.95 335.518 1160.42 335.562 1159.72 335.562C1158.22 335.562 1156.96 335.232 1155.95 334.572C1154.93 333.912 1154.27 333.23 1153.96 332.526L1153.56 331.535C1153.52 331.491 1153.43 331.513 1153.3 331.601C1153.21 331.689 1153.12 331.777 1153.03 331.866C1150.43 334.33 1147.78 335.562 1145.09 335.562C1142.67 335.562 1140.53 334.682 1138.68 332.922C1136.82 331.161 1135.9 328.367 1135.9 324.538ZM1156.94 313.25C1156.94 312.985 1156.83 312.501 1156.61 311.797C1156.39 311.093 1155.88 310.323 1155.08 309.487C1154.29 308.651 1153.28 308.21 1152.04 308.166C1150.5 308.166 1149.02 308.849 1147.61 310.213C1146.2 311.577 1145.09 313.36 1144.3 315.56C1143.02 319.037 1142.12 322.646 1141.59 326.386C1141.59 326.518 1141.59 326.76 1141.59 327.112C1141.59 327.465 1141.57 327.729 1141.52 327.905C1141.52 329.885 1141.92 331.249 1142.71 331.998C1143.51 332.746 1144.45 333.142 1145.56 333.186C1147.23 333.186 1148.89 332.46 1150.52 331.007C1152.15 329.555 1153.12 328.433 1153.43 327.641C1153.52 327.465 1154.11 325.11 1155.22 320.577C1156.32 316.044 1156.89 313.602 1156.94 313.25Z" fill="black"/>
<path d="M1189.14 277.86C1188.08 277.86 1187.55 277.549 1187.55 276.927C1187.55 276.802 1187.64 276.367 1187.83 275.62C1188.08 274.624 1188.33 274.064 1188.58 273.939C1188.83 273.815 1189.55 273.722 1190.73 273.659C1192.41 273.659 1194.29 273.566 1196.34 273.379C1197.22 273.193 1197.81 272.819 1198.12 272.259C1198.25 271.948 1200.46 263.203 1204.77 246.025C1209.07 228.847 1211.25 220.134 1211.32 219.885C1211.32 219.449 1211.19 219.232 1210.94 219.232C1210.44 219.045 1208.79 218.889 1205.98 218.765H1203.08C1202.71 218.391 1202.52 218.142 1202.52 218.018C1202.52 217.893 1202.58 217.364 1202.71 216.431C1202.96 215.373 1203.27 214.719 1203.64 214.47H1254.08C1254.51 214.719 1254.73 215.062 1254.73 215.497C1254.73 215.808 1254.33 219.294 1253.51 225.953C1252.7 232.613 1252.27 236.036 1252.2 236.223C1252.08 236.658 1251.46 236.876 1250.33 236.876H1249.21C1248.77 236.565 1248.56 236.161 1248.56 235.663C1248.56 235.6 1248.65 234.854 1248.84 233.422C1249.02 231.991 1249.12 230.341 1249.12 228.474C1249.12 226.607 1248.9 225.082 1248.46 223.9C1248.03 222.717 1247.43 221.752 1246.68 221.005C1245.94 220.259 1244.78 219.761 1243.22 219.512C1241.66 219.263 1240.07 219.045 1238.45 218.858C1236.83 218.671 1234.58 218.64 1231.71 218.765H1229.56C1224.45 218.827 1221.73 218.92 1221.42 219.045C1221.11 219.169 1220.89 219.418 1220.77 219.792C1220.7 219.854 1219.64 223.931 1217.58 232.022L1214.59 244.065H1219.74C1219.92 244.065 1220.64 244.065 1221.89 244.065C1223.14 244.065 1224.01 244.034 1224.51 243.971C1225.01 243.909 1225.69 243.816 1226.57 243.691C1227.44 243.567 1228.19 243.349 1228.81 243.038C1229.44 242.727 1229.97 242.353 1230.4 241.918C1231.21 241.171 1231.9 240.144 1232.46 238.837C1233.02 237.53 1233.43 236.347 1233.68 235.289C1233.93 234.231 1234.08 233.671 1234.15 233.609C1234.33 233.298 1234.93 233.142 1235.92 233.142H1237.05C1237.48 233.453 1237.7 233.764 1237.7 234.076C1237.7 234.262 1236.73 238.339 1234.8 246.305C1232.87 254.272 1231.81 258.38 1231.62 258.629C1231.49 259.064 1230.87 259.282 1229.75 259.282H1228.63C1228.19 258.909 1227.97 258.535 1227.97 258.162C1227.97 257.975 1228.13 257.291 1228.44 256.108C1228.75 254.925 1228.91 253.681 1228.91 252.374C1228.91 250.569 1228.28 249.448 1227.03 249.013C1225.79 248.577 1223.01 248.359 1218.71 248.359H1213.56L1210.57 260.216C1208.57 267.933 1207.57 271.979 1207.57 272.352C1207.57 273.224 1210.35 273.659 1215.9 273.659H1218.24C1218.61 274.033 1218.8 274.251 1218.8 274.313C1218.8 274.375 1218.74 274.997 1218.61 276.18C1218.36 276.989 1218.05 277.58 1217.68 277.954H1216.09C1213.53 277.829 1208.82 277.767 1201.96 277.767C1197.9 277.767 1194.82 277.767 1192.7 277.767C1190.57 277.767 1189.39 277.798 1189.14 277.86Z" fill="black"/>
<path d="M1263.99 254.614C1263.99 250.32 1264.31 246.243 1264.93 242.384C1265.55 238.526 1266.27 235.196 1267.08 232.395C1267.89 229.594 1269.05 226.856 1270.54 224.18C1272.04 221.503 1273.23 219.418 1274.1 217.925C1274.97 216.431 1276.28 214.813 1278.03 213.07C1279.78 211.327 1280.81 210.269 1281.12 209.896C1281.43 209.522 1282.21 208.869 1283.46 207.935H1284.67H1285.05C1285.92 207.935 1286.36 208.215 1286.36 208.776C1286.36 208.962 1285.83 209.616 1284.77 210.736C1283.71 211.856 1282.43 213.506 1280.93 215.684C1279.43 217.862 1277.91 220.539 1276.35 223.713C1274.79 226.887 1273.48 231.181 1272.42 236.596C1271.36 242.011 1270.83 248.017 1270.83 254.614C1270.83 261.212 1271.36 267.187 1272.42 272.539C1273.48 277.892 1274.75 282.217 1276.25 285.516C1277.75 288.814 1279.28 291.491 1280.84 293.545C1282.4 295.598 1283.71 297.248 1284.77 298.493C1285.83 299.737 1286.36 300.391 1286.36 300.453C1286.36 301.013 1285.89 301.293 1284.95 301.293H1284.67H1283.46L1280.84 299.053C1274.97 293.762 1270.7 287.165 1268.02 279.261C1265.34 271.357 1263.99 263.141 1263.99 254.614Z" fill="black"/>
<path d="M1296.93 250.973C1297.37 248.359 1299.05 245.341 1301.98 241.918C1304.91 238.494 1308.53 236.752 1312.84 236.69C1315.02 236.69 1317.02 237.25 1318.83 238.37C1320.63 239.49 1321.98 240.891 1322.85 242.571C1325.47 238.65 1328.62 236.69 1332.3 236.69C1334.61 236.69 1336.6 237.374 1338.29 238.743C1339.97 240.113 1340.84 241.949 1340.91 244.252C1340.91 246.056 1340.47 247.519 1339.6 248.639C1338.72 249.76 1337.88 250.444 1337.07 250.693C1336.26 250.942 1335.54 251.067 1334.92 251.067C1333.73 251.067 1332.77 250.724 1332.02 250.04C1331.27 249.355 1330.9 248.453 1330.9 247.332C1330.9 244.469 1332.45 242.509 1335.57 241.451C1334.89 240.642 1333.64 240.237 1331.83 240.237C1331.02 240.237 1330.43 240.299 1330.05 240.424C1327.68 241.42 1325.94 243.474 1324.81 246.585C1321.07 260.34 1319.2 268.369 1319.2 270.672C1319.2 272.415 1319.7 273.659 1320.7 274.406C1321.69 275.153 1322.79 275.526 1323.97 275.526C1326.28 275.526 1328.56 274.5 1330.8 272.446C1333.05 270.392 1334.58 267.871 1335.39 264.884C1335.57 264.261 1335.76 263.919 1335.95 263.857C1336.14 263.794 1336.63 263.732 1337.45 263.67H1337.82C1338.76 263.67 1339.22 263.919 1339.22 264.417C1339.22 264.479 1339.16 264.821 1339.04 265.444C1338.04 268.991 1336.1 272.134 1333.23 274.873C1330.37 277.611 1327.03 278.981 1323.22 278.981C1318.86 278.981 1315.55 277.02 1313.3 273.099C1310.75 276.958 1307.82 278.887 1304.51 278.887H1303.95C1300.89 278.887 1298.71 278.078 1297.4 276.46C1296.09 274.842 1295.4 273.13 1295.34 271.325C1295.34 269.334 1295.93 267.716 1297.12 266.471C1298.3 265.226 1299.71 264.604 1301.33 264.604C1304.01 264.604 1305.35 265.911 1305.35 268.525C1305.35 269.769 1304.98 270.859 1304.23 271.792C1303.48 272.726 1302.76 273.348 1302.08 273.659C1301.39 273.97 1300.98 274.126 1300.86 274.126L1300.58 274.219C1300.58 274.282 1300.77 274.406 1301.14 274.593C1301.51 274.78 1302.01 274.997 1302.64 275.246C1303.26 275.495 1303.85 275.589 1304.42 275.526C1306.66 275.526 1308.59 274.126 1310.22 271.325C1310.78 270.33 1311.5 268.213 1312.37 264.977C1313.24 261.741 1314.12 258.38 1314.99 254.894C1315.86 251.409 1316.36 249.355 1316.49 248.733C1316.8 247.052 1316.95 245.839 1316.95 245.092C1316.95 243.349 1316.49 242.104 1315.55 241.357C1314.61 240.611 1313.55 240.237 1312.37 240.237C1309.87 240.237 1307.53 241.233 1305.35 243.225C1303.17 245.216 1301.64 247.768 1300.77 250.88C1300.64 251.44 1300.49 251.751 1300.3 251.814C1300.11 251.876 1299.61 251.938 1298.8 252H1297.49C1297.12 251.627 1296.93 251.284 1296.93 250.973Z" fill="black"/>
<path d="M1353.35 274.686C1353.35 274.686 1353.35 273.908 1353.35 272.352C1353.35 270.796 1353.85 269.458 1354.85 268.338C1355.85 267.218 1357.19 266.657 1358.87 266.657C1360.62 266.657 1362.18 267.435 1363.55 268.991C1364.92 270.547 1365.64 273.286 1365.7 277.207C1365.7 279.385 1365.42 281.501 1364.86 283.555C1364.3 285.609 1363.65 287.383 1362.9 288.877C1362.15 290.37 1361.34 291.646 1360.46 292.704C1359.59 293.762 1358.84 294.603 1358.22 295.225C1357.59 295.847 1357.19 296.127 1357 296.065C1356.75 296.065 1356.35 295.785 1355.79 295.225C1355.22 294.665 1354.94 294.26 1354.94 294.011C1354.94 293.762 1355.29 293.264 1355.97 292.518C1356.66 291.771 1357.44 290.837 1358.31 289.717C1359.19 288.597 1360 287.041 1360.74 285.049C1361.49 283.057 1361.99 280.786 1362.24 278.234V277.114L1362.15 277.207C1362.02 277.269 1361.87 277.331 1361.68 277.394C1361.49 277.456 1361.31 277.549 1361.12 277.674C1360.93 277.798 1360.65 277.86 1360.28 277.86C1359.9 277.86 1359.53 277.892 1359.15 277.954C1357.47 277.954 1356.1 277.425 1355.04 276.367L1353.35 274.686Z" fill="black"/>
<path d="M1390.13 251.16C1390.13 250.289 1390.59 248.795 1391.53 246.679C1392.47 244.563 1393.96 242.353 1396.02 240.05C1398.08 237.748 1400.39 236.627 1402.94 236.69C1405.5 236.69 1407.56 237.405 1409.12 238.837C1410.68 240.268 1411.49 242.26 1411.55 244.812C1411.43 245.994 1411.33 246.648 1411.27 246.772C1411.27 246.959 1410.77 248.39 1409.78 251.067C1408.78 253.743 1407.75 256.762 1406.69 260.122C1405.63 263.483 1405.13 266.16 1405.19 268.151C1405.19 270.827 1405.63 272.695 1406.5 273.753C1407.37 274.811 1408.68 275.371 1410.43 275.433C1411.86 275.433 1413.21 275.091 1414.45 274.406C1415.7 273.722 1416.67 273.006 1417.35 272.259C1418.04 271.512 1418.88 270.485 1419.88 269.178C1419.88 269.116 1420.04 268.494 1420.35 267.311C1420.66 266.128 1421.1 264.292 1421.66 261.803C1422.22 259.313 1422.81 257.01 1423.44 254.894C1425.81 245.559 1427.12 240.673 1427.37 240.237C1428.18 238.557 1429.52 237.717 1431.39 237.717C1432.2 237.717 1432.86 237.934 1433.35 238.37C1433.85 238.806 1434.2 239.179 1434.38 239.49C1434.57 239.802 1434.63 240.082 1434.57 240.331C1434.57 241.14 1433.04 247.675 1429.99 259.936C1426.93 272.197 1425.18 278.918 1424.75 280.101C1423 285.267 1419.97 289.375 1415.67 292.424C1411.37 295.474 1407.06 297.03 1402.76 297.092C1399.95 297.092 1397.49 296.408 1395.37 295.038C1393.24 293.669 1392.18 291.615 1392.18 288.877C1392.18 287.507 1392.4 286.356 1392.84 285.422C1393.28 284.489 1393.87 283.804 1394.62 283.369C1395.37 282.933 1395.99 282.622 1396.49 282.435C1396.99 282.248 1397.52 282.155 1398.08 282.155C1400.82 282.155 1402.2 283.462 1402.2 286.076C1402.2 287.321 1401.82 288.41 1401.07 289.343C1400.32 290.277 1399.61 290.899 1398.92 291.211C1398.24 291.522 1397.83 291.677 1397.7 291.677L1397.42 291.771C1397.55 292.082 1398.14 292.455 1399.2 292.891C1400.26 293.327 1401.32 293.545 1402.38 293.545H1403.13C1404.19 293.545 1405 293.482 1405.56 293.358C1407.62 292.798 1409.53 291.615 1411.27 289.81C1413.02 288.005 1414.36 286.076 1415.3 284.022C1416.23 281.968 1416.95 280.225 1417.45 278.794C1417.95 277.363 1418.2 276.429 1418.2 275.993L1417.63 276.367C1417.26 276.616 1416.67 276.958 1415.86 277.394C1415.05 277.829 1414.24 278.203 1413.42 278.514C1412.18 278.825 1410.96 278.981 1409.78 278.981C1406.91 278.981 1404.38 278.296 1402.2 276.927C1400.01 275.558 1398.58 273.348 1397.89 270.298C1397.83 269.863 1397.8 268.898 1397.8 267.404C1397.8 263.857 1398.89 259.22 1401.07 253.494C1403.26 247.768 1404.35 244.127 1404.35 242.571C1404.35 242.509 1404.35 242.447 1404.35 242.384C1404.35 241.824 1404.35 241.451 1404.35 241.264C1404.35 241.077 1404.22 240.86 1403.97 240.611C1403.72 240.362 1403.38 240.237 1402.94 240.237H1402.57C1401.14 240.237 1399.83 240.828 1398.64 242.011C1397.46 243.194 1396.52 244.469 1395.83 245.839C1395.15 247.208 1394.62 248.515 1394.24 249.76C1393.87 251.004 1393.62 251.689 1393.49 251.814C1393.37 251.938 1392.87 252 1392 252H1390.69C1390.31 251.627 1390.13 251.347 1390.13 251.16Z" fill="black"/>
<path d="M1440.75 208.029L1441.12 207.935C1441.43 207.935 1441.74 207.935 1442.06 207.935H1443.18L1445.8 210.176C1451.66 215.466 1455.93 222.064 1458.62 229.968C1461.3 237.872 1462.64 246.088 1462.64 254.614C1462.64 258.847 1462.33 262.923 1461.7 266.844C1461.08 270.765 1460.36 274.095 1459.55 276.834C1458.74 279.572 1457.59 282.311 1456.09 285.049C1454.59 287.788 1453.41 289.873 1452.53 291.304C1451.66 292.735 1450.38 294.323 1448.7 296.065C1447.01 297.808 1446.02 298.835 1445.7 299.146C1445.39 299.457 1444.68 300.049 1443.55 300.92C1443.37 301.107 1443.24 301.231 1443.18 301.293H1442.06C1441.56 301.293 1441.21 301.293 1441.03 301.293C1440.84 301.293 1440.68 301.2 1440.56 301.013C1440.43 300.827 1440.34 300.546 1440.28 300.173C1440.34 300.111 1440.68 299.706 1441.31 298.959C1450.98 288.939 1455.81 274.157 1455.81 254.614C1455.81 235.071 1450.98 220.29 1441.31 210.269C1440.68 209.522 1440.34 209.118 1440.28 209.056C1440.28 208.558 1440.43 208.215 1440.75 208.029Z" fill="black"/>
</svg>
