<svg width="1640" height="531" viewBox="0 0 1640 531" fill="none" xmlns="http://www.w3.org/2000/svg">
<rect width="1640" height="531" fill="black"/>
<path d="M30 30H1610V501H30V30Z" fill="white"/>
<path d="M159 203.285C159 202.415 159.277 201.783 159.83 201.388C160.383 200.992 160.897 200.795 161.371 200.795C162.319 200.795 163.03 201.348 163.504 202.455C163.978 203.562 165.717 208.028 168.72 215.854L173.935 229.608H209.969L215.066 215.972C215.856 213.838 216.686 211.624 217.555 209.332C218.424 207.04 219.135 205.222 219.688 203.878C220.241 202.534 220.518 201.862 220.518 201.862C220.913 201.151 221.664 200.795 222.77 200.795C224.193 200.953 224.904 201.743 224.904 203.166C224.904 203.482 219.767 217.118 209.495 244.074C199.222 271.029 193.967 284.625 193.73 284.863C193.335 285.416 192.742 285.693 191.952 285.693C191.162 285.693 190.569 285.416 190.174 284.863C189.937 284.546 184.721 270.99 174.528 244.192C164.334 217.395 159.158 203.759 159 203.285ZM208.072 234.469C208.072 234.39 202.699 234.351 191.952 234.351C181.205 234.351 175.832 234.39 175.832 234.469L191.952 276.562L208.072 234.469Z" fill="black"/>
<path d="M229.408 264.468C229.408 256.484 232.411 248.896 238.416 241.702C244.422 234.509 251.178 230.873 258.685 230.794C262.715 230.794 266.271 232.73 269.353 236.604C270.618 234.232 272.435 233.046 274.806 233.046C275.833 233.046 276.742 233.363 277.532 233.995C278.322 234.627 278.717 235.418 278.717 236.367C278.717 237.394 277.255 243.718 274.332 255.338C271.408 266.958 269.906 273.519 269.827 275.021C269.827 276.997 270.104 278.302 270.657 278.934C271.21 279.566 272.04 279.922 273.146 280.001C273.857 279.922 274.648 279.566 275.517 278.934C277.176 277.353 278.796 273.559 280.377 267.551C280.851 265.97 281.246 265.14 281.562 265.061C281.72 264.982 282.115 264.942 282.747 264.942H283.221C284.723 264.942 285.474 265.298 285.474 266.01C285.474 266.484 285.276 267.551 284.881 269.211C284.486 270.871 283.696 273.005 282.51 275.614C281.325 278.223 280.061 280.199 278.717 281.543C277.69 282.57 276.426 283.4 274.924 284.033C274.292 284.191 273.344 284.27 272.079 284.27C269.393 284.27 267.141 283.677 265.323 282.491C263.506 281.305 262.32 280.08 261.767 278.815L261.056 277.037C260.977 276.958 260.819 276.997 260.582 277.155C260.424 277.313 260.266 277.472 260.108 277.63C255.445 282.056 250.704 284.27 245.884 284.27C241.538 284.27 237.705 282.689 234.386 279.527C231.067 276.365 229.408 271.345 229.408 264.468ZM267.101 244.192C267.101 243.718 266.904 242.848 266.508 241.584C266.113 240.319 265.205 238.936 263.782 237.434C262.36 235.932 260.542 235.141 258.33 235.062C255.564 235.062 252.917 236.287 250.388 238.738C247.859 241.188 245.884 244.39 244.462 248.342C242.17 254.587 240.55 261.069 239.602 267.788C239.602 268.025 239.602 268.46 239.602 269.092C239.602 269.725 239.562 270.199 239.483 270.515C239.483 274.072 240.194 276.523 241.617 277.867C243.039 279.211 244.738 279.922 246.714 280.001C249.716 280.001 252.68 278.697 255.604 276.088C258.527 273.48 260.266 271.464 260.819 270.041C260.977 269.725 262.044 265.496 264.019 257.354C265.995 249.212 267.022 244.825 267.101 244.192Z" fill="black"/>
<path d="M331.583 253.441C331.583 243.797 334.822 235.892 341.302 229.726C347.782 223.561 355.447 220.043 364.297 219.174C364.376 219.174 365.048 219.174 366.312 219.174C367.577 219.174 369.236 219.134 371.291 219.055C373.345 218.976 375.321 218.976 377.217 219.055H388.952C390.137 219.687 390.73 220.478 390.73 221.426C390.73 222.138 390.216 222.889 389.189 223.679L376.862 223.798C368.09 223.877 362.677 224.114 360.623 224.509C356.751 225.458 353.313 226.881 350.311 228.778C347.308 230.675 344.977 232.612 343.317 234.588C341.658 236.564 340.235 238.738 339.05 241.109C337.865 243.481 337.154 245.378 336.916 246.801C336.679 248.224 336.482 249.568 336.324 250.832V251.069H388.952C390.137 251.702 390.73 252.492 390.73 253.441C390.73 254.389 390.137 255.18 388.952 255.812H336.324V256.049C336.324 257.709 336.719 259.725 337.509 262.097C338.299 264.468 339.603 267.037 341.421 269.804C343.238 272.571 345.767 275.1 349.007 277.392C352.247 279.685 356.079 281.305 360.504 282.254C362.638 282.728 368.09 283.005 376.862 283.084H389.189C390.216 283.874 390.73 284.665 390.73 285.455C390.73 286.404 390.137 287.194 388.952 287.827H377.454C376.901 287.827 375.913 287.827 374.491 287.827C373.069 287.827 371.923 287.866 371.054 287.945C358.805 287.945 349.125 284.546 342.013 277.748C335.059 271.266 331.583 263.164 331.583 253.441Z" fill="black"/>
<path d="M468.25 208.621C468.25 208.067 465.998 207.712 461.493 207.553C459.676 207.553 458.491 207.514 457.937 207.435C457.384 207.356 457.108 207 457.108 206.368C457.108 205.735 457.266 204.945 457.582 203.996C457.898 203.048 458.174 202.455 458.412 202.218C458.57 202.139 466.432 202.099 481.999 202.099C495.196 202.178 502.584 202.218 504.165 202.218C505.745 202.218 507.326 202.455 508.906 202.929C514.596 204.273 519.416 207.395 523.367 212.296C527.318 217.197 529.333 223.758 529.412 231.979C529.412 244.311 525.184 255.378 516.729 265.18C508.274 274.982 498.317 280.831 486.859 282.728L485.2 282.965L462.205 283.084H449.048H442.765C440.869 283.084 439.644 283.005 439.091 282.847C438.538 282.689 438.222 282.333 438.143 281.78C438.143 281.622 438.261 281.068 438.498 280.12C438.814 278.855 439.13 278.143 439.446 277.985C439.763 277.827 440.671 277.709 442.173 277.63C444.306 277.63 446.677 277.511 449.285 277.274C450.391 277.037 451.142 276.562 451.537 275.851C451.774 275.535 454.619 264.547 460.071 242.888C465.523 221.229 468.25 209.806 468.25 208.621ZM517.559 227.474C517.559 224.47 517.124 221.782 516.255 219.411C515.386 217.039 514.359 215.182 513.173 213.838C511.988 212.494 510.526 211.348 508.788 210.399C507.049 209.451 505.508 208.818 504.165 208.502C502.821 208.186 501.439 207.909 500.016 207.672C499.858 207.672 499.305 207.672 498.357 207.672C497.409 207.672 496.263 207.672 494.919 207.672C493.576 207.672 492.272 207.633 491.008 207.553H485.911C482.434 207.553 480.458 207.949 479.984 208.739C479.826 209.055 476.942 220.438 471.332 242.888C465.721 265.338 462.916 276.681 462.916 276.918C462.916 277.234 463.35 277.392 464.22 277.392C465.089 277.392 468.131 277.432 473.347 277.511C473.742 277.511 474.492 277.511 475.599 277.511C476.705 277.511 477.653 277.551 478.443 277.63C488.4 277.63 496.618 274.389 503.098 267.907C505.943 265.061 508.274 261.741 510.091 257.947C511.909 254.152 513.608 249.133 515.188 242.888C516.769 236.643 517.559 231.505 517.559 227.474Z" fill="black"/>
<path d="M569.832 204.708C569.832 204.708 569.832 204.194 569.832 203.166C569.832 202.139 570.385 201.348 571.491 200.795H620.919C621.709 201.427 622.223 202.02 622.46 202.573V281.305C622.223 281.701 621.709 282.254 620.919 282.965L596.264 283.084H571.491C570.385 282.531 569.832 281.74 569.832 280.713C569.832 279.685 570.385 278.894 571.491 278.341H617.718V244.311H573.15C572.044 243.758 571.491 242.967 571.491 241.939C571.491 240.912 572.044 240.121 573.15 239.568H617.718V205.538H571.491C570.385 204.984 569.832 204.194 569.832 203.166V204.708Z" fill="black"/>
<path d="M659.916 277.63H661.575C664.657 277.63 666.514 277.076 667.146 275.97V275.021C667.146 274.31 667.146 273.401 667.146 272.294C667.146 271.187 667.146 269.883 667.146 268.381C667.146 266.879 667.186 265.18 667.265 263.282C667.344 261.385 667.344 259.409 667.265 257.354C667.186 255.299 667.186 253.125 667.265 250.832C667.344 248.54 667.344 246.287 667.265 244.074C667.265 241.149 667.265 238.066 667.265 234.825C667.265 231.584 667.265 228.62 667.265 225.932C667.265 223.245 667.265 220.873 667.265 218.818C667.265 216.763 667.225 215.024 667.146 213.601C667.067 212.178 667.067 211.506 667.146 211.585C666.909 210.083 666.356 209.095 665.487 208.621C664.618 208.146 662.84 207.791 660.153 207.553H658.019V204.826C658.019 203.008 658.098 202.099 658.256 202.099L659.442 201.981C660.232 201.902 661.378 201.823 662.879 201.743C664.38 201.664 665.842 201.585 667.265 201.506C668.608 201.427 670.07 201.348 671.65 201.269C673.231 201.19 674.416 201.072 675.206 200.913C675.997 200.755 676.431 200.716 676.51 200.795H676.866V238.145C676.866 263.203 676.905 275.812 676.984 275.97C677.3 276.602 677.775 277.037 678.407 277.274C680.066 277.511 682.002 277.63 684.215 277.63H686.111V283.084H685.163L682.437 282.965C680.619 282.886 678.683 282.847 676.629 282.847C674.574 282.847 673.073 282.807 672.125 282.728C671.176 282.649 669.675 282.649 667.62 282.728C665.566 282.807 663.59 282.886 661.694 282.965L658.968 283.084H658.019V277.63H659.916Z" fill="black"/>
<path d="M696.661 210.874C696.661 208.66 697.372 206.921 698.794 205.656C700.217 204.392 701.955 203.759 704.01 203.759C705.827 203.917 707.407 204.589 708.751 205.775C710.094 206.961 710.766 208.66 710.766 210.874C710.766 213.245 710.094 215.024 708.751 216.209C707.407 217.395 705.748 217.988 703.773 217.988C701.797 217.988 700.138 217.395 698.794 216.209C697.451 215.024 696.74 213.245 696.661 210.874ZM717.759 283.084C716.574 282.847 712.465 282.728 705.432 282.728C704.563 282.728 703.101 282.728 701.046 282.728C698.992 282.728 697.016 282.807 695.12 282.965L692.512 283.084H691.564V277.63H693.46C695.673 277.63 697.609 277.511 699.268 277.274C699.979 276.958 700.414 276.523 700.572 275.97C700.73 275.416 700.809 273.756 700.809 270.99V258.777V248.342C700.809 244.232 700.73 241.623 700.572 240.517C700.414 239.41 699.861 238.659 698.913 238.264C697.806 237.71 695.949 237.434 693.342 237.434H692.038V234.707C692.038 232.888 692.117 231.979 692.275 231.979L693.46 231.861C694.25 231.782 695.357 231.703 696.779 231.624C698.202 231.545 699.624 231.466 701.046 231.387C702.39 231.307 703.812 231.228 705.313 231.149C706.815 231.07 707.961 230.952 708.751 230.794C709.541 230.636 709.976 230.596 710.055 230.675H710.41V275.733C710.805 276.523 711.28 276.997 711.833 277.155C712.386 277.313 713.769 277.472 715.981 277.63H718.708V283.084H717.759Z" fill="black"/>
<path d="M726.886 277.63H728.546C731.628 277.63 733.485 277.076 734.117 275.97V275.021C734.117 274.31 734.117 273.401 734.117 272.294C734.117 271.187 734.117 269.962 734.117 268.618C734.117 267.274 734.156 265.733 734.235 263.994C734.314 262.255 734.314 260.595 734.235 259.014C734.235 256.563 734.235 253.955 734.235 251.188C734.235 248.421 734.196 246.089 734.117 244.192V241.465C733.88 239.963 733.326 238.975 732.457 238.501C731.588 238.027 729.81 237.671 727.123 237.434H724.99V234.707C724.99 232.888 725.069 231.979 725.227 231.979L726.412 231.861C727.202 231.782 728.309 231.703 729.731 231.624C731.153 231.545 732.615 231.466 734.117 231.387C735.46 231.307 736.882 231.228 738.384 231.149C739.885 231.07 741.031 230.952 741.821 230.794C742.611 230.636 743.046 230.596 743.125 230.675H743.481V235.418C743.481 238.422 743.52 239.924 743.599 239.924C743.678 239.924 743.876 239.726 744.192 239.331C744.508 238.936 744.982 238.343 745.614 237.552C746.246 236.762 746.997 236.05 747.866 235.418C748.736 234.786 749.881 234.035 751.304 233.165C752.726 232.296 754.228 231.663 755.808 231.268C757.388 230.873 759.403 230.675 761.853 230.675C763.038 230.675 764.145 230.754 765.172 230.912C766.199 231.07 767.108 231.307 767.898 231.624C768.688 231.94 769.439 232.256 770.15 232.572C770.862 232.888 771.454 233.244 771.928 233.639C772.402 234.035 772.837 234.469 773.232 234.944C773.627 235.418 773.983 235.853 774.299 236.248C774.615 236.643 774.892 237.078 775.129 237.552C775.366 238.027 775.524 238.422 775.603 238.738C775.682 239.054 775.8 239.37 775.958 239.687L776.196 240.279L776.551 239.805C776.788 239.489 777.025 239.173 777.262 238.857C777.499 238.54 777.855 238.106 778.329 237.552C778.803 236.999 779.317 236.485 779.87 236.011C780.423 235.537 781.016 235.023 781.648 234.469C782.28 233.916 783.07 233.442 784.019 233.047C784.967 232.651 785.876 232.256 786.745 231.861C787.614 231.466 788.641 231.189 789.827 231.031C791.012 230.873 792.237 230.754 793.501 230.675C803.458 230.675 808.871 235.141 809.74 244.074C809.819 244.627 809.859 250.121 809.859 260.555V270.752C809.859 273.756 809.938 275.535 810.096 276.088C810.254 276.642 810.688 277.037 811.399 277.274C813.059 277.511 814.995 277.63 817.208 277.63H819.104V283.084H818.156L815.43 282.965C813.533 282.886 811.518 282.847 809.384 282.847C807.251 282.847 805.749 282.807 804.88 282.728C796.741 282.728 792.316 282.847 791.605 283.084H790.656V277.63H792.553C797.373 277.63 799.783 276.997 799.783 275.733C799.862 275.574 799.902 270.12 799.902 259.37C799.823 248.698 799.744 243.046 799.665 242.414C799.191 240.2 798.4 238.54 797.294 237.434C796.188 236.327 795.24 235.655 794.449 235.418C793.659 235.181 792.632 235.102 791.368 235.181C787.812 235.181 784.69 236.525 782.004 239.212C779.87 241.347 778.527 243.52 777.973 245.734C777.42 247.947 777.104 251.228 777.025 255.575V263.164V270.278C777.025 272.65 777.065 274.231 777.144 275.021C777.223 275.812 777.341 276.325 777.499 276.563C777.657 276.8 778.013 277.037 778.566 277.274C780.226 277.511 782.162 277.63 784.374 277.63H786.271V283.084H785.322L782.478 282.965C780.66 282.886 778.685 282.847 776.551 282.847C774.418 282.847 772.916 282.807 772.047 282.728C763.908 282.728 759.483 282.847 758.771 283.084H757.823V277.63H759.72C764.54 277.63 766.95 276.997 766.95 275.733C767.029 275.574 767.069 270.12 767.069 259.37C766.99 248.698 766.911 243.046 766.831 242.414C766.357 240.2 765.567 238.54 764.461 237.434C763.355 236.327 762.406 235.655 761.616 235.418C760.826 235.181 759.799 235.102 758.534 235.181C754.978 235.181 751.857 236.525 749.17 239.212C747.037 241.347 745.693 243.52 745.14 245.734C744.587 247.947 744.271 251.228 744.192 255.575V263.164V270.278C744.192 272.65 744.231 274.231 744.31 275.021C744.389 275.812 744.508 276.325 744.666 276.563C744.824 276.8 745.18 277.037 745.733 277.274C747.392 277.511 749.328 277.63 751.541 277.63H753.437V283.084H752.489L749.763 282.965C747.866 282.886 745.851 282.847 743.718 282.847C741.584 282.847 740.083 282.807 739.214 282.728C731.074 282.728 726.649 282.847 725.938 283.084H724.99V277.63H726.886Z" fill="black"/>
<path d="M653.843 331.182C654.234 328.835 655.743 326.124 658.369 323.05C660.995 319.975 664.236 318.41 668.092 318.354C670.047 318.354 671.836 318.857 673.456 319.863C675.076 320.87 676.278 322.127 677.06 323.636C679.407 320.115 682.229 318.354 685.525 318.354C687.593 318.354 689.381 318.969 690.889 320.199C692.398 321.429 693.18 323.077 693.236 325.146C693.236 326.767 692.845 328.08 692.063 329.086C691.281 330.092 690.526 330.707 689.8 330.931C689.073 331.154 688.431 331.266 687.872 331.266C686.81 331.266 685.944 330.959 685.274 330.344C684.603 329.729 684.268 328.919 684.268 327.912C684.268 325.341 685.665 323.581 688.459 322.63C687.844 321.904 686.727 321.54 685.106 321.54C684.38 321.54 683.849 321.596 683.514 321.708C681.39 322.602 679.826 324.447 678.82 327.242C675.467 339.595 673.791 346.805 673.791 348.873C673.791 350.438 674.238 351.556 675.132 352.227C676.026 352.898 677.004 353.233 678.066 353.233C680.133 353.233 682.173 352.311 684.184 350.466C686.196 348.622 687.565 346.358 688.291 343.675C688.459 343.116 688.626 342.809 688.794 342.753C688.962 342.697 689.409 342.641 690.135 342.585H690.47C691.308 342.585 691.728 342.809 691.728 343.256C691.728 343.312 691.672 343.619 691.56 344.178C690.666 347.364 688.934 350.187 686.363 352.646C683.793 355.106 680.804 356.335 677.395 356.335C673.484 356.335 670.522 354.575 668.511 351.053C666.22 354.519 663.594 356.251 660.632 356.251H660.129C657.391 356.251 655.436 355.525 654.262 354.071C653.089 352.618 652.474 351.081 652.418 349.46C652.418 347.671 652.949 346.218 654.011 345.1C655.073 343.982 656.33 343.423 657.783 343.423C660.185 343.423 661.387 344.597 661.387 346.945C661.387 348.063 661.051 349.041 660.381 349.879C659.71 350.718 659.068 351.277 658.453 351.556C657.838 351.836 657.475 351.975 657.364 351.975L657.112 352.059C657.112 352.115 657.28 352.227 657.615 352.395C657.95 352.562 658.397 352.758 658.956 352.982C659.515 353.205 660.046 353.289 660.548 353.233C662.56 353.233 664.292 351.975 665.745 349.46C666.248 348.566 666.89 346.665 667.673 343.759C668.455 340.852 669.237 337.834 670.02 334.704C670.802 331.574 671.249 329.729 671.361 329.17C671.64 327.661 671.78 326.571 671.78 325.9C671.78 324.335 671.361 323.217 670.522 322.546C669.684 321.876 668.734 321.54 667.673 321.54C665.438 321.54 663.342 322.435 661.387 324.223C659.431 326.012 658.062 328.304 657.28 331.098C657.168 331.602 657.028 331.881 656.861 331.937C656.693 331.993 656.246 332.049 655.52 332.105H654.346C654.011 331.769 653.843 331.462 653.843 331.182Z" fill="black"/>
<path d="M702.54 335.542C702.54 335.542 702.54 335.179 702.54 334.452C702.54 333.726 702.931 333.167 703.713 332.775H767.831C761.35 327.912 757.354 321.68 755.846 314.078C755.846 314.022 755.846 313.939 755.846 313.827C755.846 313.715 755.818 313.631 755.762 313.575C755.762 312.905 756.237 312.569 757.187 312.569H757.438C757.941 312.569 758.276 312.597 758.444 312.653C758.612 312.709 758.779 312.821 758.947 312.988C759.114 313.156 759.198 313.408 759.198 313.743C759.198 314.078 759.282 314.525 759.45 315.084C759.617 315.643 759.841 316.342 760.12 317.181C761.35 320.926 763.389 324.279 766.239 327.242C769.088 330.204 772.413 332.3 776.213 333.53C776.716 333.698 776.967 334.005 776.967 334.452C776.967 334.788 776.827 335.039 776.548 335.207C776.269 335.374 775.598 335.654 774.536 336.045C773.475 336.437 772.413 336.968 771.351 337.638C769.06 339.092 767.077 340.768 765.401 342.669C763.724 344.569 762.467 346.442 761.629 348.286C760.791 350.131 760.204 351.528 759.869 352.479C759.534 353.429 759.31 354.295 759.198 355.078C759.087 355.637 758.947 355.972 758.779 356.084C758.612 356.196 758.165 356.279 757.438 356.335C756.321 356.335 755.762 356.028 755.762 355.413C755.762 355.022 755.902 354.323 756.181 353.317C757.969 346.274 761.852 340.545 767.831 336.129H703.713C702.931 335.738 702.54 335.179 702.54 334.452V335.542Z" fill="black"/>
<path d="M784.846 342.25C784.846 336.604 786.969 331.238 791.216 326.152C795.462 321.065 800.24 318.494 805.548 318.438C808.398 318.438 810.912 319.808 813.091 322.546C813.985 320.87 815.27 320.031 816.947 320.031C817.673 320.031 818.316 320.255 818.874 320.702C819.433 321.149 819.713 321.708 819.713 322.379C819.713 323.105 818.679 327.577 816.611 335.794C814.544 344.01 813.482 348.65 813.427 349.712C813.427 351.109 813.622 352.031 814.013 352.479C814.404 352.926 814.991 353.177 815.773 353.233C816.276 353.177 816.835 352.926 817.45 352.479C818.623 351.361 819.768 348.678 820.886 344.43C821.221 343.312 821.501 342.725 821.724 342.669C821.836 342.613 822.115 342.585 822.562 342.585H822.898C823.959 342.585 824.49 342.837 824.49 343.34C824.49 343.675 824.35 344.43 824.071 345.603C823.792 346.777 823.233 348.286 822.395 350.131C821.557 351.975 820.663 353.373 819.713 354.323C818.986 355.05 818.092 355.637 817.031 356.084C816.584 356.196 815.913 356.251 815.019 356.251C813.119 356.251 811.527 355.832 810.242 354.994C808.956 354.155 808.118 353.289 807.727 352.395L807.224 351.137C807.168 351.081 807.057 351.109 806.889 351.221C806.777 351.333 806.665 351.444 806.554 351.556C803.257 354.686 799.904 356.251 796.496 356.251C793.423 356.251 790.713 355.134 788.366 352.898C786.019 350.662 784.846 347.113 784.846 342.25ZM811.499 327.912C811.499 327.577 811.359 326.962 811.08 326.068C810.8 325.174 810.158 324.195 809.152 323.133C808.146 322.071 806.861 321.512 805.296 321.457C803.341 321.457 801.469 322.323 799.681 324.056C797.893 325.788 796.496 328.052 795.49 330.847C793.87 335.263 792.724 339.846 792.054 344.597C792.054 344.765 792.054 345.072 792.054 345.52C792.054 345.967 792.026 346.302 791.97 346.526C791.97 349.041 792.473 350.774 793.479 351.724C794.484 352.674 795.686 353.177 797.083 353.233C799.206 353.233 801.301 352.311 803.369 350.466C805.436 348.622 806.665 347.196 807.057 346.19C807.168 345.967 807.923 342.976 809.32 337.219C810.717 331.462 811.443 328.36 811.499 327.912Z" fill="black"/>
<path d="M857.508 258.184C857.508 260.871 858.061 263.282 859.168 265.417C860.274 267.551 861.696 269.171 863.435 270.278C865.173 271.385 866.872 272.294 868.532 273.005C870.191 273.717 871.574 274.231 872.68 274.547L874.458 274.784L874.695 274.665L876.236 269.804C877.659 265.219 878.962 261.306 880.148 258.065C881.333 254.824 882.874 251.346 884.77 247.631C886.667 243.916 888.563 240.912 890.46 238.619C892.356 236.327 894.688 234.43 897.453 232.928C900.219 231.426 903.103 230.675 906.106 230.675C909.662 230.675 912.823 231.94 915.589 234.469C918.354 236.999 919.777 241.267 919.856 247.275C919.856 253.441 918.157 259.369 914.759 265.061C911.361 270.752 906.699 275.377 900.772 278.934C894.846 282.491 888.603 284.27 882.044 284.27C879.99 284.27 878.962 284.349 878.962 284.507L878.133 288.775C877.659 291.542 877.105 294.585 876.473 297.905C875.841 301.225 875.406 303.36 875.169 304.308C874.774 306.206 873.747 307.51 872.088 308.221C871.218 308.696 870.231 308.933 869.124 308.933C866.675 308.696 865.45 307.391 865.45 305.02C865.45 304.229 867.623 296.996 871.969 283.321L871.376 283.084C870.981 282.926 870.428 282.728 869.717 282.491C869.006 282.254 868.136 281.898 867.109 281.424C866.082 280.95 865.055 280.396 864.027 279.764C863 279.132 861.933 278.42 860.827 277.63C859.721 276.839 858.693 275.851 857.745 274.665C856.797 273.48 855.888 272.215 855.019 270.871C854.15 269.527 853.557 267.986 853.241 266.247C852.925 264.508 852.688 262.61 852.53 260.555C852.53 256.761 853.557 251.978 855.612 246.208C857.666 240.437 860.55 235.695 864.264 231.979H865.805C867.465 231.979 868.295 232.295 868.295 232.928C868.295 233.402 867.978 233.956 867.346 234.588C864.106 238.382 861.696 242.69 860.116 247.512C858.535 252.334 857.666 255.891 857.508 258.184ZM914.64 250.121C914.64 246.801 913.692 244.192 911.796 242.295C909.899 240.398 907.371 239.41 904.21 239.331C900.338 239.331 896.703 240.912 893.305 244.074C889.907 247.236 887.102 251.623 884.889 257.235C883.783 259.923 882.676 264.231 881.57 270.16L880.503 275.495C881.926 275.653 882.716 275.732 882.874 275.732C892.119 275.732 899.705 273.005 905.632 267.551C911.559 262.097 914.561 256.287 914.64 250.121Z" fill="black"/>
<path d="M935.858 253.441C935.858 247.987 936.253 242.809 937.043 237.908C937.833 233.007 938.742 228.778 939.769 225.221C940.797 221.664 942.259 218.185 944.155 214.786C946.052 211.387 947.553 208.739 948.659 206.842C949.766 204.945 951.425 202.89 953.638 200.676C955.85 198.463 957.154 197.119 957.549 196.645C957.944 196.17 958.932 195.34 960.513 194.155H962.053H962.528C963.634 194.155 964.187 194.51 964.187 195.222C964.187 195.459 963.515 196.289 962.172 197.712C960.829 199.135 959.209 201.23 957.312 203.996C955.416 206.763 953.48 210.162 951.504 214.193C949.529 218.225 947.869 223.679 946.526 230.556C945.182 237.434 944.511 245.062 944.511 253.441C944.511 261.82 945.182 269.409 946.526 276.207C947.869 283.005 949.489 288.499 951.386 292.688C953.282 296.878 955.218 300.277 957.194 302.885C959.169 305.494 960.829 307.589 962.172 309.17C963.515 310.751 964.187 311.581 964.187 311.66C964.187 312.371 963.594 312.727 962.409 312.727H962.053H960.513L957.194 309.881C949.766 303.162 944.353 294.783 940.955 284.744C937.557 274.705 935.858 264.27 935.858 253.441Z" fill="black"/>
<path d="M977.581 248.817C978.134 245.497 980.268 241.663 983.982 237.315C987.696 232.967 992.279 230.754 997.731 230.675C1000.5 230.675 1003.03 231.386 1005.32 232.809C1007.61 234.232 1009.31 236.011 1010.41 238.145C1013.73 233.165 1017.72 230.675 1022.39 230.675C1025.31 230.675 1027.84 231.545 1029.97 233.284C1032.11 235.023 1033.21 237.355 1033.29 240.279C1033.29 242.572 1032.74 244.429 1031.63 245.852C1030.53 247.275 1029.46 248.145 1028.43 248.461C1027.4 248.777 1026.5 248.935 1025.7 248.935C1024.2 248.935 1022.98 248.5 1022.03 247.631C1021.08 246.761 1020.61 245.615 1020.61 244.192C1020.61 240.556 1022.58 238.066 1026.53 236.722C1025.67 235.695 1024.08 235.181 1021.79 235.181C1020.77 235.181 1020.02 235.26 1019.54 235.418C1016.54 236.683 1014.33 239.291 1012.9 243.244C1008.16 260.713 1005.79 270.911 1005.79 273.835C1005.79 276.049 1006.42 277.63 1007.69 278.578C1008.95 279.527 1010.34 280.001 1011.84 280.001C1014.76 280.001 1017.64 278.697 1020.49 276.088C1023.33 273.48 1025.27 270.278 1026.3 266.484C1026.53 265.693 1026.77 265.259 1027.01 265.18C1027.25 265.1 1027.88 265.021 1028.91 264.942H1029.38C1030.56 264.942 1031.16 265.259 1031.16 265.891C1031.16 265.97 1031.08 266.405 1030.92 267.195C1029.66 271.701 1027.21 275.693 1023.57 279.171C1019.94 282.649 1015.71 284.388 1010.89 284.388C1005.36 284.388 1001.17 281.898 998.324 276.918C995.084 281.819 991.37 284.27 987.182 284.27H986.471C982.599 284.27 979.833 283.242 978.174 281.187C976.514 279.132 975.645 276.958 975.566 274.665C975.566 272.136 976.317 270.081 977.818 268.5C979.319 266.919 981.097 266.128 983.152 266.128C986.55 266.128 988.249 267.788 988.249 271.108C988.249 272.689 987.775 274.072 986.826 275.258C985.878 276.444 984.969 277.234 984.1 277.63C983.231 278.025 982.717 278.222 982.559 278.222L982.204 278.341C982.204 278.42 982.441 278.578 982.915 278.815C983.389 279.052 984.021 279.329 984.811 279.645C985.602 279.962 986.352 280.08 987.064 280.001C989.908 280.001 992.358 278.222 994.412 274.665C995.124 273.401 996.032 270.713 997.139 266.602C998.245 262.492 999.351 258.223 1000.46 253.797C1001.56 249.37 1002.2 246.761 1002.35 245.971C1002.75 243.837 1002.95 242.295 1002.95 241.347C1002.95 239.133 1002.35 237.552 1001.17 236.604C999.983 235.655 998.64 235.181 997.139 235.181C993.978 235.181 991.015 236.446 988.249 238.975C985.483 241.505 983.547 244.746 982.441 248.698C982.283 249.409 982.085 249.805 981.848 249.884C981.611 249.963 980.979 250.042 979.952 250.121H978.292C977.818 249.647 977.581 249.212 977.581 248.817Z" fill="black"/>
<path d="M1046.92 194.273L1047.4 194.155C1047.79 194.155 1048.19 194.155 1048.58 194.155H1050L1053.32 197.001C1060.75 203.72 1066.16 212.099 1069.56 222.138C1072.96 232.177 1074.66 242.611 1074.66 253.441C1074.66 258.816 1074.26 263.994 1073.47 268.974C1072.68 273.954 1071.77 278.183 1070.75 281.661C1069.72 285.139 1068.26 288.617 1066.36 292.095C1064.46 295.574 1062.96 298.222 1061.86 300.04C1060.75 301.858 1059.13 303.874 1057 306.087C1054.86 308.3 1053.6 309.605 1053.2 310C1052.81 310.395 1051.9 311.146 1050.48 312.253C1050.24 312.49 1050.08 312.648 1050 312.727H1048.58C1047.95 312.727 1047.51 312.727 1047.28 312.727C1047.04 312.727 1046.84 312.608 1046.69 312.371C1046.53 312.134 1046.41 311.778 1046.33 311.304C1046.41 311.225 1046.84 310.711 1047.63 309.763C1059.88 297.036 1066.01 278.262 1066.01 253.441C1066.01 228.62 1059.88 209.846 1047.63 197.119C1046.84 196.17 1046.41 195.657 1046.33 195.578C1046.33 194.945 1046.53 194.51 1046.92 194.273Z" fill="black"/>
<path d="M1125.98 241.939C1125.98 240.912 1126.54 240.121 1127.64 239.568H1203.15C1204.33 240.2 1204.93 240.991 1204.93 241.939C1204.93 242.809 1204.37 243.56 1203.27 244.192L1165.57 244.311H1127.88C1126.62 243.916 1125.98 243.125 1125.98 241.939ZM1125.98 264.942C1125.98 263.757 1126.62 262.966 1127.88 262.571H1203.27C1204.37 263.361 1204.93 264.152 1204.93 264.942C1204.93 265.97 1204.33 266.761 1203.15 267.314H1127.64C1126.54 266.761 1125.98 265.97 1125.98 264.942Z" fill="black"/>
<path d="M1256.01 258.184C1256.01 260.871 1256.57 263.282 1257.67 265.417C1258.78 267.551 1260.2 269.171 1261.94 270.278C1263.68 271.385 1265.38 272.294 1267.04 273.005C1268.7 273.717 1270.08 274.231 1271.18 274.547L1272.96 274.784L1273.2 274.665L1274.74 269.804C1276.16 265.219 1277.47 261.306 1278.65 258.065C1279.84 254.824 1281.38 251.346 1283.27 247.631C1285.17 243.916 1287.07 240.912 1288.96 238.619C1290.86 236.327 1293.19 234.43 1295.96 232.928C1298.72 231.426 1301.61 230.675 1304.61 230.675C1308.17 230.675 1311.33 231.94 1314.09 234.469C1316.86 236.999 1318.28 241.267 1318.36 247.275C1318.36 253.441 1316.66 259.369 1313.26 265.061C1309.87 270.752 1305.2 275.377 1299.28 278.934C1293.35 282.491 1287.11 284.27 1280.55 284.27C1278.49 284.27 1277.47 284.349 1277.47 284.507L1276.64 288.775C1276.16 291.542 1275.61 294.585 1274.98 297.905C1274.35 301.225 1273.91 303.36 1273.67 304.308C1273.28 306.206 1272.25 307.51 1270.59 308.221C1269.72 308.696 1268.73 308.933 1267.63 308.933C1265.18 308.696 1263.95 307.391 1263.95 305.02C1263.95 304.229 1266.13 296.996 1270.47 283.321L1269.88 283.084C1269.49 282.926 1268.93 282.728 1268.22 282.491C1267.51 282.254 1266.64 281.898 1265.61 281.424C1264.59 280.95 1263.56 280.396 1262.53 279.764C1261.5 279.132 1260.44 278.42 1259.33 277.63C1258.23 276.839 1257.2 275.851 1256.25 274.665C1255.3 273.48 1254.39 272.215 1253.52 270.871C1252.65 269.527 1252.06 267.986 1251.75 266.247C1251.43 264.508 1251.19 262.61 1251.03 260.555C1251.03 256.761 1252.06 251.978 1254.12 246.208C1256.17 240.437 1259.05 235.695 1262.77 231.979H1264.31C1265.97 231.979 1266.8 232.295 1266.8 232.928C1266.8 233.402 1266.48 233.956 1265.85 234.588C1262.61 238.382 1260.2 242.69 1258.62 247.512C1257.04 252.334 1256.17 255.891 1256.01 258.184ZM1313.14 250.121C1313.14 246.801 1312.2 244.192 1310.3 242.295C1308.4 240.398 1305.87 239.41 1302.71 239.331C1298.84 239.331 1295.21 240.912 1291.81 244.074C1288.41 247.236 1285.61 251.623 1283.39 257.235C1282.29 259.923 1281.18 264.231 1280.07 270.16L1279.01 275.495C1280.43 275.653 1281.22 275.732 1281.38 275.732C1290.62 275.732 1298.21 273.005 1304.14 267.551C1310.06 262.097 1313.07 256.287 1313.14 250.121Z" fill="black"/>
<path d="M1334.36 253.441C1334.36 247.987 1334.76 242.809 1335.55 237.908C1336.34 233.007 1337.25 228.778 1338.27 225.221C1339.3 221.664 1340.76 218.185 1342.66 214.786C1344.56 211.387 1346.06 208.739 1347.16 206.842C1348.27 204.945 1349.93 202.89 1352.14 200.676C1354.35 198.463 1355.66 197.119 1356.05 196.645C1356.45 196.17 1357.44 195.34 1359.02 194.155H1360.56H1361.03C1362.14 194.155 1362.69 194.51 1362.69 195.222C1362.69 195.459 1362.02 196.289 1360.68 197.712C1359.33 199.135 1357.71 201.23 1355.82 203.996C1353.92 206.763 1351.98 210.162 1350.01 214.193C1348.03 218.225 1346.37 223.679 1345.03 230.556C1343.69 237.434 1343.02 245.062 1343.02 253.441C1343.02 261.82 1343.69 269.409 1345.03 276.207C1346.37 283.005 1347.99 288.499 1349.89 292.688C1351.79 296.878 1353.72 300.277 1355.7 302.885C1357.67 305.494 1359.33 307.589 1360.68 309.17C1362.02 310.751 1362.69 311.581 1362.69 311.66C1362.69 312.371 1362.1 312.727 1360.91 312.727H1360.56H1359.02L1355.7 309.881C1348.27 303.162 1342.86 294.783 1339.46 284.744C1336.06 274.705 1334.36 264.27 1334.36 253.441Z" fill="black"/>
<path d="M1373.83 264.468C1373.83 256.484 1376.84 248.896 1382.84 241.702C1388.85 234.509 1395.6 230.873 1403.11 230.794C1407.14 230.794 1410.7 232.73 1413.78 236.604C1415.04 234.232 1416.86 233.046 1419.23 233.046C1420.26 233.046 1421.17 233.363 1421.96 233.995C1422.75 234.627 1423.14 235.418 1423.14 236.367C1423.14 237.394 1421.68 243.718 1418.76 255.338C1415.83 266.958 1414.33 273.519 1414.25 275.021C1414.25 276.997 1414.53 278.302 1415.08 278.934C1415.64 279.566 1416.46 279.922 1417.57 280.001C1418.28 279.922 1419.07 279.566 1419.94 278.934C1421.6 277.353 1423.22 273.559 1424.8 267.551C1425.28 265.97 1425.67 265.14 1425.99 265.061C1426.15 264.982 1426.54 264.942 1427.17 264.942H1427.65C1429.15 264.942 1429.9 265.298 1429.9 266.01C1429.9 266.484 1429.7 267.551 1429.31 269.211C1428.91 270.871 1428.12 273.005 1426.94 275.614C1425.75 278.223 1424.49 280.199 1423.14 281.543C1422.11 282.57 1420.85 283.4 1419.35 284.033C1418.72 284.191 1417.77 284.27 1416.5 284.27C1413.82 284.27 1411.57 283.677 1409.75 282.491C1407.93 281.305 1406.75 280.08 1406.19 278.815L1405.48 277.037C1405.4 276.958 1405.24 276.997 1405.01 277.155C1404.85 277.313 1404.69 277.472 1404.53 277.63C1399.87 282.056 1395.13 284.27 1390.31 284.27C1385.96 284.27 1382.13 282.689 1378.81 279.527C1375.49 276.365 1373.83 271.345 1373.83 264.468ZM1411.53 244.192C1411.53 243.718 1411.33 242.848 1410.93 241.584C1410.54 240.319 1409.63 238.936 1408.21 237.434C1406.78 235.932 1404.97 235.141 1402.75 235.062C1399.99 235.062 1397.34 236.287 1394.81 238.738C1392.28 241.188 1390.31 244.39 1388.89 248.342C1386.59 254.587 1384.98 261.069 1384.03 267.788C1384.03 268.025 1384.03 268.46 1384.03 269.092C1384.03 269.725 1383.99 270.199 1383.91 270.515C1383.91 274.072 1384.62 276.523 1386.04 277.867C1387.46 279.211 1389.16 279.922 1391.14 280.001C1394.14 280.001 1397.1 278.697 1400.03 276.088C1402.95 273.48 1404.69 271.464 1405.24 270.041C1405.4 269.725 1406.47 265.496 1408.44 257.354C1410.42 249.212 1411.45 244.825 1411.53 244.192Z" fill="black"/>
<path d="M1440.33 194.273L1440.8 194.155C1441.2 194.155 1441.59 194.155 1441.99 194.155H1443.41L1446.73 197.001C1454.16 203.72 1459.57 212.099 1462.97 222.138C1466.37 232.177 1468.07 242.611 1468.07 253.441C1468.07 258.816 1467.67 263.994 1466.88 268.974C1466.09 273.954 1465.18 278.183 1464.15 281.661C1463.13 285.139 1461.67 288.617 1459.77 292.095C1457.87 295.574 1456.37 298.222 1455.26 300.04C1454.16 301.858 1452.54 303.874 1450.4 306.087C1448.27 308.3 1447.01 309.605 1446.61 310C1446.22 310.395 1445.31 311.146 1443.89 312.253C1443.65 312.49 1443.49 312.648 1443.41 312.727H1441.99C1441.36 312.727 1440.92 312.727 1440.69 312.727C1440.45 312.727 1440.25 312.608 1440.09 312.371C1439.93 312.134 1439.82 311.778 1439.74 311.304C1439.82 311.225 1440.25 310.711 1441.04 309.763C1453.29 297.036 1459.41 278.262 1459.41 253.441C1459.41 228.62 1453.29 209.846 1441.04 197.119C1440.25 196.17 1439.82 195.657 1439.74 195.578C1439.74 194.945 1439.93 194.51 1440.33 194.273Z" fill="black"/>
</svg>
