<svg width="1640" height="531" viewBox="0 0 1640 531" fill="none" xmlns="http://www.w3.org/2000/svg">
<rect width="1640" height="531" fill="black"/>
<path d="M30 30H1610V501H30V30Z" fill="white"/>
<path d="M940.414 255.414C941.195 254.633 941.195 253.367 940.414 252.586L927.686 239.858C926.905 239.077 925.639 239.077 924.858 239.858C924.077 240.639 924.077 241.905 924.858 242.686L936.172 254L924.858 265.314C924.077 266.095 924.077 267.361 924.858 268.142C925.639 268.923 926.905 268.923 927.686 268.142L940.414 255.414ZM830 254V256H939V254V252H830V254Z" fill="black"/>
<path d="M940.414 288.414C941.195 287.633 941.195 286.367 940.414 285.586L927.686 272.858C926.905 272.077 925.639 272.077 924.858 272.858C924.077 273.639 924.077 274.905 924.858 275.686L936.172 287L924.858 298.314C924.077 299.095 924.077 300.361 924.858 301.142C925.639 301.923 926.905 301.923 927.686 301.142L940.414 288.414ZM830 287V289H939V287V285H830V287Z" fill="black"/>
<path d="M830.846 351.473C830.846 351.051 831.073 350.328 831.526 349.305C831.98 348.281 832.706 347.212 833.704 346.098C834.702 344.984 835.821 344.442 837.061 344.472C838.301 344.472 839.298 344.818 840.054 345.511C840.811 346.203 841.204 347.167 841.234 348.401C841.173 348.973 841.128 349.29 841.098 349.35C841.098 349.44 840.856 350.133 840.372 351.427C839.888 352.722 839.389 354.182 838.875 355.808C838.361 357.434 838.119 358.729 838.149 359.692C838.149 360.987 838.361 361.89 838.784 362.402C839.208 362.914 839.843 363.185 840.69 363.215C841.385 363.215 842.035 363.05 842.64 362.718C843.245 362.387 843.714 362.041 844.046 361.68C844.379 361.318 844.787 360.821 845.271 360.189C845.271 360.159 845.347 359.858 845.498 359.286C845.649 358.714 845.861 357.826 846.133 356.621C846.405 355.417 846.692 354.303 846.995 353.279C848.144 348.763 848.779 346.399 848.9 346.188C849.293 345.375 849.943 344.969 850.851 344.969C851.244 344.969 851.561 345.074 851.803 345.285C852.045 345.496 852.211 345.677 852.302 345.827C852.393 345.978 852.423 346.113 852.393 346.234C852.393 346.625 851.652 349.786 850.17 355.718C848.688 361.649 847.842 364.901 847.63 365.473C846.783 367.972 845.316 369.96 843.23 371.435C841.143 372.91 839.057 373.663 836.97 373.693C835.609 373.693 834.415 373.362 833.386 372.7C832.358 372.037 831.844 371.044 831.844 369.719C831.844 369.056 831.95 368.499 832.162 368.048C832.373 367.596 832.661 367.265 833.023 367.054C833.386 366.843 833.689 366.693 833.931 366.602C834.173 366.512 834.43 366.467 834.702 366.467C836.032 366.467 836.698 367.099 836.698 368.364C836.698 368.966 836.516 369.493 836.153 369.945C835.79 370.396 835.443 370.697 835.11 370.848C834.777 370.998 834.581 371.074 834.52 371.074L834.384 371.119C834.445 371.269 834.732 371.45 835.246 371.661C835.76 371.872 836.274 371.977 836.788 371.977H837.151C837.665 371.977 838.059 371.947 838.331 371.887C839.329 371.616 840.251 371.044 841.098 370.17C841.945 369.297 842.595 368.364 843.048 367.37C843.502 366.377 843.85 365.534 844.092 364.841C844.334 364.149 844.455 363.697 844.455 363.486L844.182 363.667C844.001 363.787 843.714 363.953 843.321 364.164C842.927 364.374 842.534 364.555 842.141 364.706C841.536 364.856 840.947 364.931 840.372 364.931C838.981 364.931 837.756 364.6 836.698 363.938C835.639 363.275 834.944 362.206 834.611 360.731C834.581 360.52 834.566 360.054 834.566 359.331C834.566 357.615 835.095 355.372 836.153 352.602C837.212 349.832 837.741 348.07 837.741 347.317C837.741 347.287 837.741 347.257 837.741 347.227C837.741 346.956 837.741 346.775 837.741 346.685C837.741 346.595 837.681 346.489 837.56 346.369C837.439 346.249 837.272 346.188 837.061 346.188H836.879C836.184 346.188 835.549 346.474 834.974 347.046C834.399 347.619 833.946 348.236 833.613 348.898C833.28 349.561 833.023 350.193 832.842 350.795C832.661 351.397 832.54 351.728 832.479 351.789C832.419 351.849 832.177 351.879 831.753 351.879H831.118C830.937 351.698 830.846 351.563 830.846 351.473Z" fill="black"/>
<path d="M867.771 353.731C867.771 353.731 867.771 353.535 867.771 353.144C867.771 352.752 867.982 352.451 868.406 352.24H903.107C899.599 349.621 897.437 346.264 896.621 342.169C896.621 342.139 896.621 342.094 896.621 342.033C896.621 341.973 896.605 341.928 896.575 341.898C896.575 341.536 896.832 341.356 897.346 341.356H897.482C897.755 341.356 897.936 341.371 898.027 341.401C898.117 341.431 898.208 341.491 898.299 341.582C898.39 341.672 898.435 341.807 898.435 341.988C898.435 342.169 898.48 342.41 898.571 342.711C898.662 343.012 898.783 343.388 898.934 343.84C899.599 345.857 900.703 347.664 902.245 349.26C903.788 350.855 905.587 351.984 907.643 352.647C907.916 352.737 908.052 352.903 908.052 353.144C908.052 353.324 907.976 353.46 907.825 353.55C907.674 353.64 907.311 353.791 906.736 354.002C906.162 354.212 905.587 354.499 905.012 354.86C903.773 355.643 902.699 356.546 901.792 357.57C900.885 358.593 900.204 359.602 899.75 360.596C899.297 361.589 898.979 362.342 898.798 362.854C898.616 363.366 898.495 363.832 898.435 364.254C898.375 364.555 898.299 364.736 898.208 364.796C898.117 364.856 897.876 364.901 897.482 364.931C896.878 364.931 896.575 364.766 896.575 364.435C896.575 364.224 896.651 363.847 896.802 363.305C897.77 359.512 899.871 356.425 903.107 354.047H868.406C867.982 353.836 867.771 353.535 867.771 353.144V353.731Z" fill="black"/>
<path d="M926.741 335.214C926.741 334.912 926.801 334.566 926.922 334.175C927.043 333.783 927.224 333.588 927.466 333.588C927.497 333.588 928.585 333.512 930.732 333.362C932.88 333.211 933.983 333.121 934.044 333.091C934.407 333.091 934.588 333.226 934.588 333.497C934.588 333.768 934.074 335.921 933.046 339.956C932.804 340.979 932.547 342.033 932.275 343.117C932.003 344.201 931.776 345.014 931.594 345.556L931.413 346.414C931.413 346.505 931.504 346.459 931.685 346.279C933.167 345.074 934.694 344.472 936.267 344.472C938.141 344.472 939.654 345.165 940.803 346.55C941.952 347.935 942.542 349.681 942.572 351.789C942.572 355.131 941.377 358.157 938.988 360.867C936.599 363.576 934.029 364.931 931.277 364.931C929.765 364.931 928.389 364.359 927.149 363.215C925.909 362.071 925.274 360.219 925.244 357.66V357.253C925.244 356.621 925.365 355.748 925.607 354.634C925.848 353.52 926.589 350.554 927.829 345.737C929.341 339.805 930.097 336.659 930.097 336.297C930.097 335.936 929.523 335.725 928.374 335.665C928.222 335.665 928.101 335.665 928.011 335.665H927.784C927.481 335.665 927.285 335.665 927.194 335.665C927.103 335.665 926.998 335.62 926.877 335.53C926.756 335.439 926.71 335.334 926.741 335.214ZM938.671 349.756V349.485C938.671 347.257 937.748 346.143 935.904 346.143C935.39 346.143 934.86 346.264 934.316 346.505C933.772 346.745 933.273 347.062 932.819 347.453C932.365 347.844 931.972 348.206 931.64 348.537C931.307 348.868 931.035 349.199 930.823 349.53L930.551 349.892L929.598 353.776C928.933 356.365 928.6 358.202 928.6 359.286C928.6 360.731 928.963 361.815 929.689 362.538C930.173 363.019 930.778 363.26 931.504 363.26C932.502 363.26 933.515 362.779 934.543 361.815C935.299 361.123 935.904 360.279 936.357 359.286C936.811 358.292 937.31 356.712 937.854 354.544C938.399 352.376 938.671 350.78 938.671 349.756Z" fill="black"/>
<path d="M817.007 180.273C817.266 178.724 818.264 176.935 820.001 174.906C821.738 172.877 823.882 171.844 826.432 171.807C827.725 171.807 828.908 172.139 829.98 172.803C831.052 173.467 831.846 174.297 832.364 175.293C833.916 172.969 835.782 171.807 837.963 171.807C839.33 171.807 840.513 172.213 841.511 173.025C842.509 173.836 843.026 174.925 843.063 176.289C843.063 177.359 842.804 178.226 842.287 178.89C841.769 179.554 841.271 179.96 840.79 180.107C840.31 180.255 839.885 180.329 839.515 180.329C838.813 180.329 838.24 180.126 837.796 179.72C837.353 179.314 837.131 178.779 837.131 178.115C837.131 176.419 838.055 175.257 839.903 174.629C839.497 174.15 838.757 173.91 837.686 173.91C837.205 173.91 836.854 173.947 836.632 174.021C835.228 174.611 834.193 175.828 833.528 177.673C831.31 185.825 830.202 190.584 830.202 191.949C830.202 192.982 830.497 193.719 831.089 194.162C831.68 194.605 832.327 194.826 833.029 194.826C834.396 194.826 835.745 194.217 837.076 193C838.406 191.783 839.312 190.289 839.792 188.518C839.903 188.149 840.014 187.946 840.125 187.909C840.236 187.873 840.531 187.836 841.012 187.799H841.234C841.788 187.799 842.065 187.946 842.065 188.241C842.065 188.278 842.028 188.481 841.954 188.85C841.363 190.953 840.217 192.816 838.517 194.439C836.817 196.062 834.84 196.873 832.585 196.873C829.998 196.873 828.04 195.711 826.709 193.387C825.194 195.674 823.457 196.818 821.498 196.818H821.165C819.354 196.818 818.061 196.338 817.285 195.379C816.509 194.42 816.102 193.406 816.065 192.336C816.065 191.156 816.416 190.197 817.118 189.459C817.821 188.721 818.652 188.352 819.613 188.352C821.202 188.352 821.997 189.127 821.997 190.676C821.997 191.414 821.775 192.059 821.332 192.613C820.888 193.166 820.463 193.535 820.057 193.719C819.65 193.904 819.41 193.996 819.336 193.996L819.17 194.051C819.17 194.088 819.28 194.162 819.502 194.273C819.724 194.383 820.02 194.512 820.389 194.66C820.759 194.808 821.11 194.863 821.442 194.826C822.773 194.826 823.919 193.996 824.88 192.336C825.212 191.746 825.637 190.492 826.155 188.573C826.672 186.655 827.189 184.663 827.707 182.597C828.224 180.532 828.52 179.314 828.594 178.945C828.779 177.949 828.871 177.23 828.871 176.787C828.871 175.755 828.594 175.017 828.04 174.574C827.485 174.131 826.857 173.91 826.155 173.91C824.676 173.91 823.29 174.5 821.997 175.681C820.703 176.861 819.798 178.374 819.28 180.218C819.207 180.55 819.114 180.735 819.003 180.771C818.892 180.808 818.597 180.845 818.116 180.882H817.34C817.118 180.661 817.007 180.458 817.007 180.273Z" fill="black"/>
<path d="M866.125 182.431C866.125 177.931 867.64 174.242 870.671 171.365C873.701 168.487 877.286 166.846 881.426 166.44C881.463 166.44 881.777 166.44 882.368 166.44C882.959 166.44 883.735 166.422 884.696 166.385C885.657 166.348 886.581 166.348 887.468 166.385H892.957C893.511 166.68 893.788 167.049 893.788 167.491C893.788 167.823 893.548 168.174 893.067 168.543L887.302 168.598C883.2 168.635 880.668 168.746 879.707 168.93C877.896 169.373 876.288 170.037 874.884 170.922C873.48 171.807 872.389 172.711 871.613 173.633C870.837 174.556 870.172 175.57 869.617 176.677C869.063 177.783 868.73 178.669 868.62 179.333C868.509 179.997 868.416 180.624 868.342 181.214V181.325H892.957C893.511 181.62 893.788 181.989 893.788 182.431C893.788 182.874 893.511 183.243 892.957 183.538H868.342V183.649C868.342 184.423 868.527 185.364 868.897 186.471C869.266 187.577 869.876 188.776 870.726 190.067C871.576 191.358 872.759 192.539 874.274 193.609C875.789 194.678 877.582 195.435 879.652 195.877C880.649 196.099 883.2 196.228 887.302 196.265H893.067C893.548 196.634 893.788 197.002 893.788 197.371C893.788 197.814 893.511 198.183 892.957 198.478H887.579C887.32 198.478 886.858 198.478 886.193 198.478C885.528 198.478 884.992 198.496 884.585 198.533C878.857 198.533 874.33 196.947 871.003 193.775C867.751 190.75 866.125 186.969 866.125 182.431Z" fill="black"/>
<path d="M930.044 161.516C930.044 161.257 928.991 161.091 926.884 161.018C926.034 161.018 925.48 160.999 925.221 160.962C924.962 160.925 924.833 160.759 924.833 160.464C924.833 160.169 924.907 159.8 925.055 159.358C925.202 158.915 925.332 158.638 925.443 158.528C925.517 158.491 929.194 158.472 936.475 158.472C942.647 158.509 946.102 158.528 946.841 158.528C947.581 158.528 948.32 158.638 949.059 158.86C951.72 159.487 953.974 160.944 955.822 163.231C957.67 165.518 958.613 168.58 958.65 172.416C958.65 178.171 956.672 183.335 952.718 187.909C948.763 192.484 944.107 195.213 938.748 196.099L937.971 196.209L927.217 196.265H921.063H918.125C917.238 196.265 916.665 196.228 916.406 196.154C916.148 196.08 916 195.914 915.963 195.656C915.963 195.582 916.018 195.324 916.129 194.881C916.277 194.291 916.425 193.959 916.573 193.885C916.721 193.812 917.146 193.756 917.848 193.719C918.846 193.719 919.954 193.664 921.174 193.553C921.691 193.443 922.043 193.221 922.227 192.889C922.338 192.742 923.669 187.614 926.219 177.507C928.769 167.399 930.044 162.069 930.044 161.516ZM953.106 170.313C953.106 168.912 952.903 167.658 952.496 166.551C952.09 165.444 951.609 164.577 951.055 163.95C950.5 163.323 949.817 162.788 949.003 162.346C948.19 161.903 947.47 161.608 946.841 161.46C946.213 161.313 945.566 161.184 944.901 161.073C944.827 161.073 944.569 161.073 944.125 161.073C943.682 161.073 943.146 161.073 942.517 161.073C941.889 161.073 941.279 161.054 940.688 161.018H938.304C936.678 161.018 935.754 161.202 935.532 161.571C935.458 161.718 934.109 167.03 931.485 177.507C928.861 187.983 927.549 193.277 927.549 193.387C927.549 193.535 927.753 193.609 928.159 193.609C928.566 193.609 929.989 193.627 932.428 193.664C932.613 193.664 932.964 193.664 933.481 193.664C933.998 193.664 934.442 193.682 934.812 193.719C939.468 193.719 943.312 192.207 946.343 189.182C947.673 187.854 948.763 186.305 949.613 184.534C950.463 182.763 951.258 180.421 951.997 177.507C952.736 174.593 953.106 172.195 953.106 170.313Z" fill="black"/>
<path d="M1021.2 271.945C1021.2 274.938 1021.82 277.622 1023.05 279.999C1024.28 282.375 1025.86 284.18 1027.79 285.412C1029.72 286.644 1031.61 287.656 1033.45 288.448C1035.3 289.241 1036.84 289.813 1038.07 290.165L1040.04 290.429L1040.3 290.297L1042.02 284.884C1043.6 279.779 1045.05 275.422 1046.36 271.813C1047.68 268.204 1049.39 264.332 1051.5 260.195C1053.61 256.058 1055.72 252.713 1057.83 250.161C1059.93 247.608 1062.52 245.496 1065.6 243.824C1068.67 242.151 1071.88 241.315 1075.21 241.315C1079.17 241.315 1082.68 242.723 1085.75 245.54C1088.83 248.357 1090.41 253.109 1090.5 259.799C1090.5 266.664 1088.61 273.265 1084.83 279.603C1081.06 285.94 1075.87 291.089 1069.29 295.05C1062.7 299.01 1055.76 300.991 1048.47 300.991C1046.19 300.991 1045.05 301.079 1045.05 301.255L1044.12 306.008C1043.6 309.088 1042.98 312.477 1042.28 316.174C1041.58 319.871 1041.1 322.247 1040.83 323.303C1040.39 325.416 1039.25 326.868 1037.41 327.66C1036.44 328.188 1035.34 328.452 1034.11 328.452C1031.39 328.188 1030.03 326.736 1030.03 324.095C1030.03 323.215 1032.44 315.162 1037.27 299.935L1036.62 299.671C1036.18 299.495 1035.56 299.274 1034.77 299.01C1033.98 298.746 1033.02 298.35 1031.87 297.822C1030.73 297.294 1029.59 296.678 1028.45 295.974C1027.31 295.27 1026.12 294.478 1024.89 293.597C1023.66 292.717 1022.52 291.617 1021.47 290.297C1020.41 288.976 1019.4 287.568 1018.44 286.072C1017.47 284.576 1016.81 282.859 1016.46 280.923C1016.11 278.987 1015.85 276.874 1015.67 274.586C1015.67 270.361 1016.81 265.036 1019.1 258.611C1021.38 252.185 1024.58 246.904 1028.71 242.767H1030.42C1032.27 242.767 1033.19 243.12 1033.19 243.824C1033.19 244.352 1032.84 244.968 1032.14 245.672C1028.54 249.897 1025.86 254.694 1024.1 260.063C1022.34 265.432 1021.38 269.393 1021.2 271.945ZM1084.7 262.967C1084.7 259.271 1083.65 256.366 1081.54 254.254C1079.43 252.141 1076.62 251.041 1073.11 250.953C1068.8 250.953 1064.76 252.713 1060.99 256.234C1057.21 259.755 1054.09 264.64 1051.63 270.889C1050.4 273.882 1049.17 278.678 1047.95 285.28L1046.76 291.221C1048.34 291.397 1049.22 291.485 1049.39 291.485C1059.67 291.485 1068.1 288.448 1074.69 282.375C1081.27 276.302 1084.61 269.833 1084.7 262.967Z" fill="black"/>
<path d="M1108.28 266.664C1108.28 260.591 1108.72 254.826 1109.6 249.369C1110.48 243.912 1111.49 239.203 1112.63 235.242C1113.77 231.281 1115.39 227.408 1117.5 223.624C1119.61 219.839 1121.28 216.89 1122.51 214.778C1123.74 212.666 1125.58 210.377 1128.04 207.913C1130.5 205.448 1131.95 203.952 1132.39 203.424C1132.83 202.896 1133.93 201.971 1135.68 200.651H1137.39H1137.92C1139.15 200.651 1139.77 201.047 1139.77 201.839C1139.77 202.104 1139.02 203.028 1137.53 204.612C1136.03 206.196 1134.23 208.529 1132.12 211.609C1130.02 214.69 1127.87 218.475 1125.67 222.964C1123.47 227.452 1121.63 233.526 1120.14 241.183C1118.64 248.841 1117.9 257.334 1117.9 266.664C1117.9 275.994 1118.64 284.444 1120.14 292.013C1121.63 299.583 1123.43 305.7 1125.54 310.365C1127.65 315.03 1129.8 318.814 1131.99 321.719C1134.19 324.623 1136.03 326.956 1137.53 328.716C1139.02 330.477 1139.77 331.401 1139.77 331.489C1139.77 332.281 1139.11 332.677 1137.79 332.677H1137.39H1135.68L1131.99 329.508C1123.74 322.027 1117.72 312.697 1113.95 301.519C1110.17 290.341 1108.28 278.722 1108.28 266.664Z" fill="black"/>
<path d="M1154.65 261.515C1155.27 257.818 1157.64 253.55 1161.77 248.709C1165.89 243.868 1170.99 241.403 1177.05 241.315C1180.12 241.315 1182.93 242.107 1185.48 243.692C1188.03 245.276 1189.91 247.256 1191.14 249.633C1194.83 244.088 1199.27 241.315 1204.45 241.315C1207.7 241.315 1210.51 242.283 1212.88 244.22C1215.25 246.156 1216.48 248.753 1216.57 252.009C1216.57 254.562 1215.95 256.63 1214.72 258.214C1213.49 259.799 1212.31 260.767 1211.17 261.119C1210.03 261.471 1209.02 261.647 1208.14 261.647C1206.47 261.647 1205.11 261.163 1204.05 260.195C1203 259.227 1202.47 257.95 1202.47 256.366C1202.47 252.317 1204.67 249.545 1209.06 248.049C1208.09 246.904 1206.34 246.332 1203.79 246.332C1202.65 246.332 1201.81 246.42 1201.29 246.596C1197.95 248.004 1195.49 250.909 1193.91 255.31C1188.64 274.762 1186.01 286.116 1186.01 289.373C1186.01 291.837 1186.71 293.597 1188.11 294.654C1189.52 295.71 1191.06 296.238 1192.72 296.238C1195.97 296.238 1199.18 294.786 1202.34 291.881C1205.5 288.976 1207.65 285.412 1208.8 281.187C1209.06 280.307 1209.32 279.823 1209.59 279.735C1209.85 279.647 1210.55 279.559 1211.69 279.471H1212.22C1213.54 279.471 1214.2 279.823 1214.2 280.527C1214.2 280.615 1214.11 281.099 1213.93 281.979C1212.53 286.996 1209.81 291.441 1205.77 295.314C1201.73 299.186 1197.03 301.123 1191.67 301.123C1185.52 301.123 1180.87 298.35 1177.71 292.805C1174.1 298.262 1169.98 300.991 1165.32 300.991H1164.53C1160.23 300.991 1157.15 299.847 1155.31 297.558C1153.47 295.27 1152.5 292.849 1152.41 290.297C1152.41 287.48 1153.25 285.192 1154.92 283.431C1156.58 281.671 1158.56 280.791 1160.84 280.791C1164.62 280.791 1166.51 282.639 1166.51 286.336C1166.51 288.096 1165.98 289.637 1164.93 290.957C1163.87 292.277 1162.86 293.157 1161.9 293.597C1160.93 294.037 1160.36 294.258 1160.18 294.258L1159.79 294.39C1159.79 294.478 1160.05 294.654 1160.58 294.918C1161.11 295.182 1161.81 295.49 1162.69 295.842C1163.57 296.194 1164.4 296.326 1165.19 296.238C1168.35 296.238 1171.08 294.258 1173.36 290.297C1174.15 288.888 1175.16 285.896 1176.39 281.319C1177.62 276.742 1178.85 271.989 1180.08 267.06C1181.31 262.131 1182.01 259.227 1182.18 258.347C1182.62 255.97 1182.84 254.254 1182.84 253.198C1182.84 250.733 1182.18 248.973 1180.87 247.916C1179.55 246.86 1178.06 246.332 1176.39 246.332C1172.88 246.332 1169.58 247.74 1166.51 250.557C1163.43 253.374 1161.28 256.982 1160.05 261.383C1159.88 262.175 1159.66 262.615 1159.39 262.703C1159.13 262.791 1158.43 262.879 1157.29 262.967H1155.44C1154.92 262.439 1154.65 261.955 1154.65 261.515Z" fill="black"/>
<path d="M1231.72 200.783L1232.24 200.651C1232.68 200.651 1233.12 200.651 1233.56 200.651H1235.14L1238.83 203.82C1247.09 211.301 1253.1 220.631 1256.88 231.809C1260.66 242.987 1262.54 254.606 1262.54 266.664C1262.54 272.649 1262.1 278.414 1261.23 283.959C1260.35 289.505 1259.34 294.213 1258.2 298.086C1257.05 301.959 1255.43 305.832 1253.32 309.705C1251.21 313.577 1249.55 316.526 1248.32 318.55C1247.09 320.575 1245.29 322.819 1242.92 325.284C1240.54 327.748 1239.14 329.2 1238.7 329.64C1238.26 330.08 1237.25 330.917 1235.67 332.149C1235.41 332.413 1235.23 332.589 1235.14 332.677H1233.56C1232.86 332.677 1232.38 332.677 1232.11 332.677C1231.85 332.677 1231.63 332.545 1231.45 332.281C1231.28 332.017 1231.15 331.621 1231.06 331.093C1231.15 331.005 1231.63 330.433 1232.51 329.376C1246.12 315.206 1252.93 294.302 1252.93 266.664C1252.93 239.027 1246.12 218.123 1232.51 203.952C1231.63 202.896 1231.15 202.324 1231.06 202.236C1231.06 201.531 1231.28 201.047 1231.72 200.783Z" fill="black"/>
<path d="M370.342 299.539C368.844 299.539 368.096 299.098 368.096 298.218C368.096 298.042 368.228 297.426 368.492 296.37C368.844 294.962 369.197 294.169 369.549 293.993C369.901 293.817 370.914 293.685 372.588 293.597C374.966 293.597 377.608 293.465 380.515 293.201C381.748 292.937 382.584 292.409 383.025 291.617C383.201 291.177 386.328 278.81 392.405 254.518C398.482 230.225 401.565 217.903 401.653 217.551C401.653 216.934 401.477 216.626 401.125 216.626C400.42 216.362 398.086 216.142 394.123 215.966H390.027C389.498 215.438 389.234 215.086 389.234 214.91C389.234 214.734 389.322 213.986 389.498 212.666C389.851 211.169 390.291 210.245 390.82 209.893H462.03C462.647 210.245 462.955 210.729 462.955 211.345C462.955 211.785 462.383 216.714 461.238 226.132C460.093 235.55 459.476 240.391 459.388 240.655C459.212 241.271 458.331 241.579 456.746 241.579H455.16C454.544 241.139 454.236 240.567 454.236 239.863C454.236 239.775 454.368 238.719 454.632 236.694C454.896 234.67 455.028 232.337 455.028 229.697C455.028 227.056 454.72 224.9 454.103 223.228C453.487 221.555 452.65 220.191 451.593 219.135C450.536 218.079 448.907 217.374 446.705 217.022C444.503 216.67 442.257 216.362 439.967 216.098C437.677 215.834 434.506 215.79 430.455 215.966H427.416C420.194 216.054 416.362 216.186 415.922 216.362C415.481 216.538 415.173 216.89 414.997 217.419C414.909 217.507 413.412 223.272 410.505 234.714L406.277 251.745H413.544C413.808 251.745 414.821 251.745 416.582 251.745C418.344 251.745 419.577 251.701 420.282 251.613C420.986 251.525 421.955 251.393 423.188 251.217C424.421 251.041 425.478 250.733 426.359 250.293C427.24 249.853 427.988 249.325 428.605 248.709C429.75 247.652 430.719 246.2 431.511 244.352C432.304 242.503 432.877 240.831 433.229 239.335C433.581 237.838 433.802 237.046 433.89 236.958C434.154 236.518 434.991 236.298 436.4 236.298H437.985C438.602 236.738 438.91 237.178 438.91 237.618C438.91 237.882 437.545 243.648 434.814 254.914C432.084 266.18 430.587 271.989 430.322 272.341C430.146 272.957 429.266 273.265 427.68 273.265H426.095C425.478 272.737 425.17 272.209 425.17 271.681C425.17 271.417 425.39 270.449 425.83 268.777C426.271 267.104 426.491 265.344 426.491 263.495C426.491 260.943 425.61 259.359 423.849 258.743C422.087 258.126 418.168 257.818 412.09 257.818H404.824L400.596 274.586C397.778 285.5 396.369 291.221 396.369 291.749C396.369 292.981 400.288 293.597 408.127 293.597H411.43C411.958 294.125 412.222 294.434 412.222 294.522C412.222 294.61 412.134 295.49 411.958 297.162C411.606 298.306 411.166 299.142 410.637 299.671H408.391C404.78 299.495 398.13 299.407 388.442 299.407C382.716 299.407 378.357 299.407 375.362 299.407C372.367 299.407 370.694 299.451 370.342 299.539Z" fill="black"/>
<path d="M476.035 266.664C476.035 260.591 476.475 254.826 477.356 249.369C478.237 243.912 479.25 239.203 480.395 235.242C481.54 231.281 483.169 227.408 485.283 223.624C487.397 219.839 489.07 216.89 490.303 214.778C491.536 212.666 493.386 210.377 495.852 207.913C498.318 205.448 499.772 203.952 500.212 203.424C500.652 202.896 501.753 201.971 503.515 200.651H505.232H505.761C506.994 200.651 507.611 201.047 507.611 201.839C507.611 202.104 506.862 203.028 505.365 204.612C503.867 206.196 502.062 208.529 499.948 211.609C497.834 214.69 495.676 218.475 493.474 222.964C491.272 227.452 489.422 233.526 487.925 241.183C486.428 248.841 485.679 257.334 485.679 266.664C485.679 275.994 486.428 284.444 487.925 292.013C489.422 299.583 491.228 305.7 493.342 310.365C495.456 315.03 497.614 318.814 499.816 321.719C502.018 324.623 503.867 326.956 505.365 328.716C506.862 330.477 507.611 331.401 507.611 331.489C507.611 332.281 506.95 332.677 505.629 332.677H505.232H503.515L499.816 329.508C491.536 322.027 485.503 312.697 481.716 301.519C477.928 290.341 476.035 278.722 476.035 266.664Z" fill="black"/>
<path d="M522.54 261.515C523.156 257.818 525.534 253.55 529.674 248.709C533.814 243.868 538.922 241.403 544.999 241.315C548.082 241.315 550.901 242.107 553.455 243.692C556.009 245.276 557.903 247.256 559.136 249.633C562.835 244.088 567.283 241.315 572.48 241.315C575.739 241.315 578.557 242.283 580.935 244.22C583.313 246.156 584.546 248.753 584.634 252.009C584.634 254.562 584.018 256.63 582.785 258.214C581.552 259.799 580.363 260.767 579.218 261.119C578.073 261.471 577.06 261.647 576.179 261.647C574.505 261.647 573.14 261.163 572.083 260.195C571.026 259.227 570.498 257.95 570.498 256.366C570.498 252.317 572.7 249.545 577.104 248.049C576.135 246.904 574.373 246.332 571.819 246.332C570.674 246.332 569.837 246.42 569.309 246.596C565.962 248.004 563.496 250.909 561.91 255.31C556.626 274.762 553.983 286.116 553.983 289.373C553.983 291.837 554.688 293.597 556.097 294.654C557.507 295.71 559.048 296.238 560.721 296.238C563.98 296.238 567.195 294.786 570.366 291.881C573.537 288.976 575.695 285.412 576.84 281.187C577.104 280.307 577.368 279.823 577.632 279.735C577.896 279.647 578.601 279.559 579.746 279.471H580.275C581.596 279.471 582.256 279.823 582.256 280.527C582.256 280.615 582.168 281.099 581.992 281.979C580.583 286.996 577.852 291.441 573.801 295.314C569.749 299.186 565.037 301.123 559.664 301.123C553.499 301.123 548.831 298.35 545.66 292.805C542.049 298.262 537.909 300.991 533.241 300.991H532.448C528.133 300.991 525.05 299.847 523.2 297.558C521.351 295.27 520.382 292.849 520.294 290.297C520.294 287.48 521.13 285.192 522.804 283.431C524.477 281.671 526.459 280.791 528.749 280.791C532.536 280.791 534.43 282.639 534.43 286.336C534.43 288.096 533.902 289.637 532.845 290.957C531.788 292.277 530.775 293.157 529.806 293.597C528.837 294.037 528.265 294.258 528.089 294.258L527.692 294.39C527.692 294.478 527.956 294.654 528.485 294.918C529.013 295.182 529.718 295.49 530.599 295.842C531.48 296.194 532.316 296.326 533.109 296.238C536.28 296.238 539.01 294.258 541.3 290.297C542.093 288.888 543.106 285.896 544.339 281.319C545.572 276.742 546.805 271.989 548.038 267.06C549.271 262.131 549.976 259.227 550.152 258.347C550.592 255.97 550.813 254.254 550.813 253.198C550.813 250.733 550.152 248.973 548.831 247.916C547.51 246.86 546.012 246.332 544.339 246.332C540.816 246.332 537.513 247.74 534.43 250.557C531.347 253.374 529.19 256.982 527.956 261.383C527.78 262.175 527.56 262.615 527.296 262.703C527.032 262.791 526.327 262.879 525.182 262.967H523.332C522.804 262.439 522.54 261.955 522.54 261.515Z" fill="black"/>
<path d="M602.206 295.05C602.206 295.05 602.206 293.949 602.206 291.749C602.206 289.549 602.911 287.656 604.32 286.072C605.729 284.488 607.623 283.695 610.001 283.695C612.467 283.695 614.669 284.796 616.607 286.996C618.544 289.197 619.557 293.069 619.645 298.614C619.645 301.695 619.249 304.688 618.456 307.592C617.664 310.497 616.739 313.005 615.682 315.118C614.625 317.23 613.48 319.034 612.247 320.531C611.014 322.027 609.957 323.215 609.076 324.095C608.195 324.976 607.623 325.372 607.358 325.284C607.006 325.284 606.434 324.887 605.641 324.095C604.848 323.303 604.452 322.731 604.452 322.379C604.452 322.027 604.936 321.323 605.905 320.267C606.874 319.21 607.975 317.89 609.208 316.306C610.441 314.721 611.586 312.521 612.643 309.705C613.7 306.888 614.405 303.675 614.757 300.067V298.482L614.625 298.614C614.449 298.702 614.229 298.79 613.964 298.878C613.7 298.966 613.436 299.098 613.172 299.274C612.907 299.451 612.511 299.539 611.983 299.539C611.454 299.539 610.926 299.583 610.397 299.671C608.019 299.671 606.081 298.922 604.584 297.426L602.206 295.05Z" fill="black"/>
<path d="M653.996 261.779C653.996 260.547 654.656 258.435 655.977 255.442C657.299 252.449 659.412 249.325 662.319 246.068C665.226 242.811 668.484 241.227 672.096 241.315C675.707 241.315 678.613 242.327 680.815 244.352C683.017 246.376 684.162 249.193 684.25 252.801C684.074 254.474 683.942 255.398 683.854 255.574C683.854 255.838 683.149 257.862 681.74 261.647C680.331 265.432 678.878 269.701 677.38 274.454C675.883 279.207 675.178 282.991 675.266 285.808C675.266 289.593 675.883 292.233 677.116 293.729C678.349 295.226 680.199 296.018 682.665 296.106C684.691 296.106 686.584 295.622 688.346 294.654C690.107 293.685 691.473 292.673 692.441 291.617C693.41 290.561 694.599 289.108 696.009 287.26C696.009 287.172 696.229 286.292 696.669 284.62C697.11 282.947 697.726 280.351 698.519 276.83C699.312 273.309 700.148 270.053 701.029 267.06C704.376 253.858 706.226 246.948 706.578 246.332C707.723 243.956 709.617 242.767 712.259 242.767C713.404 242.767 714.329 243.076 715.033 243.692C715.738 244.308 716.222 244.836 716.487 245.276C716.751 245.716 716.839 246.112 716.751 246.464C716.751 247.608 714.593 256.85 710.277 274.19C705.961 291.529 703.495 301.035 702.879 302.707C700.413 310.013 696.141 315.822 690.063 320.135C683.986 324.447 677.909 326.648 671.831 326.736C667.868 326.736 664.389 325.768 661.394 323.831C658.399 321.895 656.902 318.99 656.902 315.118C656.902 313.181 657.21 311.553 657.827 310.233C658.444 308.912 659.28 307.944 660.337 307.328C661.394 306.712 662.275 306.272 662.98 306.008C663.684 305.744 664.433 305.612 665.226 305.612C669.101 305.612 671.039 307.46 671.039 311.157C671.039 312.917 670.51 314.457 669.453 315.778C668.396 317.098 667.383 317.978 666.415 318.418C665.446 318.858 664.873 319.078 664.697 319.078L664.301 319.21C664.477 319.65 665.314 320.179 666.811 320.795C668.308 321.411 669.806 321.719 671.303 321.719H672.36C673.857 321.719 675.002 321.631 675.795 321.455C678.701 320.663 681.388 318.99 683.854 316.438C686.32 313.885 688.214 311.157 689.535 308.252C690.856 305.348 691.869 302.883 692.574 300.859C693.278 298.834 693.631 297.514 693.631 296.898L692.838 297.426C692.309 297.778 691.473 298.262 690.328 298.878C689.183 299.495 688.038 300.023 686.893 300.463C685.131 300.903 683.414 301.123 681.74 301.123C677.688 301.123 674.121 300.155 671.039 298.218C667.956 296.282 665.93 293.157 664.961 288.844C664.873 288.228 664.829 286.864 664.829 284.752C664.829 279.735 666.371 273.177 669.453 265.08C672.536 256.982 674.077 251.833 674.077 249.633C674.077 249.545 674.077 249.457 674.077 249.369C674.077 248.577 674.077 248.048 674.077 247.784C674.077 247.52 673.901 247.212 673.549 246.86C673.197 246.508 672.712 246.332 672.096 246.332H671.567C669.541 246.332 667.692 247.168 666.018 248.841C664.345 250.513 663.024 252.317 662.055 254.254C661.086 256.19 660.337 258.038 659.809 259.799C659.28 261.559 658.928 262.527 658.752 262.703C658.576 262.879 657.871 262.967 656.638 262.967H654.788C654.26 262.439 653.996 262.043 653.996 261.779Z" fill="black"/>
<path d="M725.471 200.783L725.999 200.651C726.439 200.651 726.88 200.651 727.32 200.651H728.906L732.605 203.82C740.884 211.301 746.918 220.631 750.705 231.809C754.492 242.987 756.386 254.606 756.386 266.664C756.386 272.649 755.946 278.414 755.065 283.959C754.184 289.505 753.171 294.213 752.026 298.086C750.881 301.959 749.252 305.832 747.138 309.705C745.024 313.577 743.35 316.526 742.117 318.55C740.884 320.575 739.079 322.819 736.701 325.284C734.322 327.748 732.913 329.2 732.473 329.64C732.032 330.08 731.02 330.917 729.434 332.149C729.17 332.413 728.994 332.589 728.906 332.677H727.32C726.616 332.677 726.131 332.677 725.867 332.677C725.603 332.677 725.383 332.545 725.206 332.281C725.03 332.017 724.898 331.621 724.81 331.093C724.898 331.005 725.383 330.433 726.263 329.376C739.915 315.206 746.741 294.302 746.741 266.664C746.741 239.027 739.915 218.123 726.263 203.952C725.383 202.896 724.898 202.324 724.81 202.236C724.81 201.531 725.03 201.047 725.471 200.783Z" fill="black"/>
</svg>
